G04 #@! TF.GenerationSoftware,KiCad,Pcbnew,(6.0.0)*
G04 #@! TF.CreationDate,2022-02-23T18:40:55+01:00*
G04 #@! TF.ProjectId,ad633muliply,61643633-336d-4756-9c69-706c792e6b69,rev?*
G04 #@! TF.SameCoordinates,Original*
G04 #@! TF.FileFunction,Legend,Bot*
G04 #@! TF.FilePolarity,Positive*
%FSLAX46Y46*%
G04 Gerber Fmt 4.6, Leading zero omitted, Abs format (unit mm)*
G04 Created by KiCad (PCBNEW (6.0.0)) date 2022-02-23 18:40:55*
%MOMM*%
%LPD*%
G01*
G04 APERTURE LIST*
%ADD10C,0.150000*%
%ADD11C,0.300000*%
%ADD12C,0.120000*%
G04 APERTURE END LIST*
D10*
X124811706Y-160416399D02*
G75*
G03*
X124846000Y-156342000I-600705J2042400D01*
G01*
X111261126Y-158391917D02*
X111672294Y-158373999D01*
X105923000Y-168280000D02*
X105511832Y-168297918D01*
X121163000Y-168280000D02*
X120751832Y-168297918D01*
X145102500Y-115702000D02*
X145991500Y-115702000D01*
X128402000Y-138816000D02*
X125735000Y-138816000D01*
X144594500Y-115194000D02*
X146499500Y-115194000D01*
X145547000Y-112908000D02*
X145547000Y-114686000D01*
X107324126Y-145935518D02*
G75*
G03*
X107289832Y-150009917I600705J-2042400D01*
G01*
X144086500Y-114686000D02*
X147007500Y-114686000D01*
X107451126Y-166255518D02*
G75*
G03*
X107416832Y-170329917I600705J-2042400D01*
G01*
X95986832Y-158391918D02*
X96398000Y-158374000D01*
X140848000Y-161676000D02*
X145420000Y-161676000D01*
X115575000Y-111892000D02*
X118750000Y-111892000D01*
X90713168Y-168280000D02*
X90302000Y-168297918D01*
X92241294Y-166255518D02*
G75*
G03*
X92207000Y-170329917I600705J-2042400D01*
G01*
X91733294Y-145917600D02*
G75*
G03*
X91699000Y-149991999I600705J-2042400D01*
G01*
X90205168Y-147942082D02*
X89794000Y-147960000D01*
X145483500Y-116210000D02*
X145610500Y-116210000D01*
X122691126Y-166255518D02*
G75*
G03*
X122656832Y-170329917I600705J-2042400D01*
G01*
X137961294Y-166237600D02*
G75*
G03*
X137927000Y-170311999I600705J-2042400D01*
G01*
X115575000Y-114940000D02*
X115575000Y-111892000D01*
X126339832Y-158391917D02*
X126751000Y-158373999D01*
X136433168Y-168262082D02*
X136022000Y-168280000D01*
X109733000Y-160416399D02*
G75*
G03*
X109767294Y-156342000I-600705J2042400D01*
G01*
X128402000Y-136530000D02*
X128402000Y-138816000D01*
X94458706Y-160416400D02*
G75*
G03*
X94493000Y-156342001I-600705J2042400D01*
G01*
X79218706Y-160416400D02*
G75*
G03*
X79253000Y-156342001I-600705J2042400D01*
G01*
X122721294Y-145935518D02*
G75*
G03*
X122687000Y-150009917I600705J-2042400D01*
G01*
X80746832Y-158391918D02*
X81158000Y-158374000D01*
X125735000Y-138816000D02*
X125735000Y-138562000D01*
X105796000Y-147960000D02*
X105384832Y-147977918D01*
X128148000Y-136530000D02*
X128402000Y-136530000D01*
X121193168Y-147960000D02*
X120782000Y-147977918D01*
X143388000Y-161422000D02*
X148468000Y-161422000D01*
X83031190Y-115717142D02*
X82983571Y-115764761D01*
X83031190Y-115812380D01*
X83078809Y-115764761D01*
X83031190Y-115717142D01*
X83031190Y-115812380D01*
X83031190Y-115431428D02*
X83078809Y-114860000D01*
X83031190Y-114812380D01*
X82983571Y-114860000D01*
X83031190Y-115431428D01*
X83031190Y-114812380D01*
X82555000Y-115717142D02*
X82507380Y-115764761D01*
X82555000Y-115812380D01*
X82602619Y-115764761D01*
X82555000Y-115717142D01*
X82555000Y-115812380D01*
X82555000Y-115431428D02*
X82602619Y-114860000D01*
X82555000Y-114812380D01*
X82507380Y-114860000D01*
X82555000Y-115431428D01*
X82555000Y-114812380D01*
X82078809Y-115717142D02*
X82031190Y-115764761D01*
X82078809Y-115812380D01*
X82126428Y-115764761D01*
X82078809Y-115717142D01*
X82078809Y-115812380D01*
X82078809Y-115431428D02*
X82126428Y-114860000D01*
X82078809Y-114812380D01*
X82031190Y-114860000D01*
X82078809Y-115431428D01*
X82078809Y-114812380D01*
X83364523Y-117422380D02*
X83364523Y-116422380D01*
X82793095Y-117422380D01*
X82793095Y-116422380D01*
X82126428Y-116422380D02*
X81935952Y-116422380D01*
X81840714Y-116470000D01*
X81745476Y-116565238D01*
X81697857Y-116755714D01*
X81697857Y-117089047D01*
X81745476Y-117279523D01*
X81840714Y-117374761D01*
X81935952Y-117422380D01*
X82126428Y-117422380D01*
X82221666Y-117374761D01*
X82316904Y-117279523D01*
X82364523Y-117089047D01*
X82364523Y-116755714D01*
X82316904Y-116565238D01*
X82221666Y-116470000D01*
X82126428Y-116422380D01*
X85721666Y-119032380D02*
X85721666Y-118032380D01*
X85340714Y-118032380D01*
X85245476Y-118080000D01*
X85197857Y-118127619D01*
X85150238Y-118222857D01*
X85150238Y-118365714D01*
X85197857Y-118460952D01*
X85245476Y-118508571D01*
X85340714Y-118556190D01*
X85721666Y-118556190D01*
X84531190Y-118032380D02*
X84340714Y-118032380D01*
X84245476Y-118080000D01*
X84150238Y-118175238D01*
X84102619Y-118365714D01*
X84102619Y-118699047D01*
X84150238Y-118889523D01*
X84245476Y-118984761D01*
X84340714Y-119032380D01*
X84531190Y-119032380D01*
X84626428Y-118984761D01*
X84721666Y-118889523D01*
X84769285Y-118699047D01*
X84769285Y-118365714D01*
X84721666Y-118175238D01*
X84626428Y-118080000D01*
X84531190Y-118032380D01*
X83197857Y-119032380D02*
X83674047Y-119032380D01*
X83674047Y-118032380D01*
X82912142Y-118746666D02*
X82435952Y-118746666D01*
X83007380Y-119032380D02*
X82674047Y-118032380D01*
X82340714Y-119032380D01*
X81435952Y-119032380D02*
X81769285Y-118556190D01*
X82007380Y-119032380D02*
X82007380Y-118032380D01*
X81626428Y-118032380D01*
X81531190Y-118080000D01*
X81483571Y-118127619D01*
X81435952Y-118222857D01*
X81435952Y-118365714D01*
X81483571Y-118460952D01*
X81531190Y-118508571D01*
X81626428Y-118556190D01*
X82007380Y-118556190D01*
X81007380Y-119032380D02*
X81007380Y-118032380D01*
X80674047Y-118032380D02*
X80102619Y-118032380D01*
X80388333Y-119032380D02*
X80388333Y-118032380D01*
X79578809Y-118556190D02*
X79578809Y-119032380D01*
X79912142Y-118032380D02*
X79578809Y-118556190D01*
X79245476Y-118032380D01*
X86840714Y-120642380D02*
X86840714Y-119642380D01*
X86459761Y-119642380D01*
X86364523Y-119690000D01*
X86316904Y-119737619D01*
X86269285Y-119832857D01*
X86269285Y-119975714D01*
X86316904Y-120070952D01*
X86364523Y-120118571D01*
X86459761Y-120166190D01*
X86840714Y-120166190D01*
X85269285Y-120642380D02*
X85602619Y-120166190D01*
X85840714Y-120642380D02*
X85840714Y-119642380D01*
X85459761Y-119642380D01*
X85364523Y-119690000D01*
X85316904Y-119737619D01*
X85269285Y-119832857D01*
X85269285Y-119975714D01*
X85316904Y-120070952D01*
X85364523Y-120118571D01*
X85459761Y-120166190D01*
X85840714Y-120166190D01*
X84650238Y-119642380D02*
X84459761Y-119642380D01*
X84364523Y-119690000D01*
X84269285Y-119785238D01*
X84221666Y-119975714D01*
X84221666Y-120309047D01*
X84269285Y-120499523D01*
X84364523Y-120594761D01*
X84459761Y-120642380D01*
X84650238Y-120642380D01*
X84745476Y-120594761D01*
X84840714Y-120499523D01*
X84888333Y-120309047D01*
X84888333Y-119975714D01*
X84840714Y-119785238D01*
X84745476Y-119690000D01*
X84650238Y-119642380D01*
X83935952Y-119642380D02*
X83364523Y-119642380D01*
X83650238Y-120642380D02*
X83650238Y-119642380D01*
X83031190Y-120118571D02*
X82697857Y-120118571D01*
X82555000Y-120642380D02*
X83031190Y-120642380D01*
X83031190Y-119642380D01*
X82555000Y-119642380D01*
X81555000Y-120547142D02*
X81602619Y-120594761D01*
X81745476Y-120642380D01*
X81840714Y-120642380D01*
X81983571Y-120594761D01*
X82078809Y-120499523D01*
X82126428Y-120404285D01*
X82174047Y-120213809D01*
X82174047Y-120070952D01*
X82126428Y-119880476D01*
X82078809Y-119785238D01*
X81983571Y-119690000D01*
X81840714Y-119642380D01*
X81745476Y-119642380D01*
X81602619Y-119690000D01*
X81555000Y-119737619D01*
X81269285Y-119642380D02*
X80697857Y-119642380D01*
X80983571Y-120642380D02*
X80983571Y-119642380D01*
X80364523Y-120642380D02*
X80364523Y-119642380D01*
X79697857Y-119642380D02*
X79507380Y-119642380D01*
X79412142Y-119690000D01*
X79316904Y-119785238D01*
X79269285Y-119975714D01*
X79269285Y-120309047D01*
X79316904Y-120499523D01*
X79412142Y-120594761D01*
X79507380Y-120642380D01*
X79697857Y-120642380D01*
X79793095Y-120594761D01*
X79888333Y-120499523D01*
X79935952Y-120309047D01*
X79935952Y-119975714D01*
X79888333Y-119785238D01*
X79793095Y-119690000D01*
X79697857Y-119642380D01*
X78840714Y-120642380D02*
X78840714Y-119642380D01*
X78269285Y-120642380D01*
X78269285Y-119642380D01*
X86674047Y-122252380D02*
X86674047Y-121252380D01*
X86340714Y-121252380D02*
X85769285Y-121252380D01*
X86055000Y-122252380D02*
X86055000Y-121252380D01*
X84769285Y-121252380D02*
X84531190Y-122252380D01*
X84340714Y-121538095D01*
X84150238Y-122252380D01*
X83912142Y-121252380D01*
X83531190Y-122252380D02*
X83531190Y-121252380D01*
X82578809Y-122252380D02*
X83055000Y-122252380D01*
X83055000Y-121252380D01*
X81769285Y-122252380D02*
X82245476Y-122252380D01*
X82245476Y-121252380D01*
X80340714Y-121728571D02*
X80674047Y-121728571D01*
X80674047Y-122252380D02*
X80674047Y-121252380D01*
X80197857Y-121252380D01*
X79245476Y-122252380D02*
X79578809Y-121776190D01*
X79816904Y-122252380D02*
X79816904Y-121252380D01*
X79435952Y-121252380D01*
X79340714Y-121300000D01*
X79293095Y-121347619D01*
X79245476Y-121442857D01*
X79245476Y-121585714D01*
X79293095Y-121680952D01*
X79340714Y-121728571D01*
X79435952Y-121776190D01*
X79816904Y-121776190D01*
X78626428Y-121776190D02*
X78626428Y-122252380D01*
X78959761Y-121252380D02*
X78626428Y-121776190D01*
X78293095Y-121252380D01*
X83031190Y-123767142D02*
X82983571Y-123814761D01*
X83031190Y-123862380D01*
X83078809Y-123814761D01*
X83031190Y-123767142D01*
X83031190Y-123862380D01*
X83031190Y-123481428D02*
X83078809Y-122910000D01*
X83031190Y-122862380D01*
X82983571Y-122910000D01*
X83031190Y-123481428D01*
X83031190Y-122862380D01*
X82555000Y-123767142D02*
X82507380Y-123814761D01*
X82555000Y-123862380D01*
X82602619Y-123814761D01*
X82555000Y-123767142D01*
X82555000Y-123862380D01*
X82555000Y-123481428D02*
X82602619Y-122910000D01*
X82555000Y-122862380D01*
X82507380Y-122910000D01*
X82555000Y-123481428D01*
X82555000Y-122862380D01*
X82078809Y-123767142D02*
X82031190Y-123814761D01*
X82078809Y-123862380D01*
X82126428Y-123814761D01*
X82078809Y-123767142D01*
X82078809Y-123862380D01*
X82078809Y-123481428D02*
X82126428Y-122910000D01*
X82078809Y-122862380D01*
X82031190Y-122910000D01*
X82078809Y-123481428D01*
X82078809Y-122862380D01*
X146896095Y-160970761D02*
X146896095Y-159923142D01*
X146991333Y-159732666D01*
X147181809Y-159637428D01*
X147562761Y-159637428D01*
X147753238Y-159732666D01*
X146896095Y-160875523D02*
X147086571Y-160970761D01*
X147562761Y-160970761D01*
X147753238Y-160875523D01*
X147848476Y-160685047D01*
X147848476Y-160494571D01*
X147753238Y-160304095D01*
X147562761Y-160208857D01*
X147086571Y-160208857D01*
X146896095Y-160113619D01*
X146229428Y-159637428D02*
X145467523Y-159637428D01*
X145943714Y-158970761D02*
X145943714Y-160685047D01*
X145848476Y-160875523D01*
X145658000Y-160970761D01*
X145467523Y-160970761D01*
X145086571Y-159637428D02*
X144324666Y-159637428D01*
X144800857Y-158970761D02*
X144800857Y-160685047D01*
X144705619Y-160875523D01*
X144515142Y-160970761D01*
X144324666Y-160970761D01*
X144800857Y-162857428D02*
X144038952Y-162857428D01*
X144515142Y-164190761D02*
X144515142Y-162476476D01*
X144419904Y-162286000D01*
X144229428Y-162190761D01*
X144038952Y-162190761D01*
X143372285Y-164190761D02*
X143372285Y-162857428D01*
X143372285Y-162190761D02*
X143467523Y-162286000D01*
X143372285Y-162381238D01*
X143277047Y-162286000D01*
X143372285Y-162190761D01*
X143372285Y-162381238D01*
X142610380Y-164190761D02*
X141562761Y-162857428D01*
X142610380Y-162857428D02*
X141562761Y-164190761D01*
D11*
X97306857Y-158266857D02*
X97092571Y-158338285D01*
X97021142Y-158409714D01*
X96949714Y-158552571D01*
X96949714Y-158766857D01*
X97021142Y-158909714D01*
X97092571Y-158981142D01*
X97235428Y-159052571D01*
X97806857Y-159052571D01*
X97806857Y-157552571D01*
X97306857Y-157552571D01*
X97164000Y-157624000D01*
X97092571Y-157695428D01*
X97021142Y-157838285D01*
X97021142Y-157981142D01*
X97092571Y-158124000D01*
X97164000Y-158195428D01*
X97306857Y-158266857D01*
X97806857Y-158266857D01*
D10*
X120448571Y-123663380D02*
X120210476Y-124663380D01*
X120020000Y-123949095D01*
X119829523Y-124663380D01*
X119591428Y-123663380D01*
X122560000Y-110598190D02*
X122560000Y-111074380D01*
X122893333Y-110074380D02*
X122560000Y-110598190D01*
X122226666Y-110074380D01*
D11*
X112224008Y-158909713D02*
X112295436Y-158981141D01*
X112509722Y-159052570D01*
X112652579Y-159052570D01*
X112866865Y-158981141D01*
X113009722Y-158838284D01*
X113081151Y-158695427D01*
X113152579Y-158409713D01*
X113152579Y-158195427D01*
X113081151Y-157909713D01*
X113009722Y-157766856D01*
X112866865Y-157623999D01*
X112652579Y-157552570D01*
X112509722Y-157552570D01*
X112295436Y-157623999D01*
X112224008Y-157695427D01*
X104998142Y-167340418D02*
X104283857Y-167340418D01*
X105141000Y-167768989D02*
X104641000Y-166268989D01*
X104141000Y-167768989D01*
X102783857Y-167626132D02*
X102855285Y-167697560D01*
X103069571Y-167768989D01*
X103212428Y-167768989D01*
X103426714Y-167697560D01*
X103569571Y-167554703D01*
X103641000Y-167411846D01*
X103712428Y-167126132D01*
X103712428Y-166911846D01*
X103641000Y-166626132D01*
X103569571Y-166483275D01*
X103426714Y-166340418D01*
X103212428Y-166268989D01*
X103069571Y-166268989D01*
X102855285Y-166340418D01*
X102783857Y-166411846D01*
X104176714Y-170183989D02*
X105033857Y-170183989D01*
X104605285Y-170183989D02*
X104605285Y-168683989D01*
X104748142Y-168898275D01*
X104891000Y-169041132D01*
X105033857Y-169112560D01*
X102819571Y-168683989D02*
X103533857Y-168683989D01*
X103605285Y-169398275D01*
X103533857Y-169326846D01*
X103391000Y-169255418D01*
X103033857Y-169255418D01*
X102891000Y-169326846D01*
X102819571Y-169398275D01*
X102748142Y-169541132D01*
X102748142Y-169898275D01*
X102819571Y-170041132D01*
X102891000Y-170112560D01*
X103033857Y-170183989D01*
X103391000Y-170183989D01*
X103533857Y-170112560D01*
X103605285Y-170041132D01*
X148856428Y-166244000D02*
X148142142Y-166244000D01*
X148999285Y-166672571D02*
X148499285Y-165172571D01*
X147999285Y-166672571D01*
X146642142Y-166529714D02*
X146713571Y-166601142D01*
X146927857Y-166672571D01*
X147070714Y-166672571D01*
X147285000Y-166601142D01*
X147427857Y-166458285D01*
X147499285Y-166315428D01*
X147570714Y-166029714D01*
X147570714Y-165815428D01*
X147499285Y-165529714D01*
X147427857Y-165386857D01*
X147285000Y-165244000D01*
X147070714Y-165172571D01*
X146927857Y-165172571D01*
X146713571Y-165244000D01*
X146642142Y-165315428D01*
X144642142Y-166672571D02*
X144785000Y-166601142D01*
X144856428Y-166529714D01*
X144927857Y-166386857D01*
X144927857Y-165958285D01*
X144856428Y-165815428D01*
X144785000Y-165744000D01*
X144642142Y-165672571D01*
X144427857Y-165672571D01*
X144285000Y-165744000D01*
X144213571Y-165815428D01*
X144142142Y-165958285D01*
X144142142Y-166386857D01*
X144213571Y-166529714D01*
X144285000Y-166601142D01*
X144427857Y-166672571D01*
X144642142Y-166672571D01*
X142856428Y-165672571D02*
X142856428Y-166672571D01*
X143499285Y-165672571D02*
X143499285Y-166458285D01*
X143427857Y-166601142D01*
X143285000Y-166672571D01*
X143070714Y-166672571D01*
X142927857Y-166601142D01*
X142856428Y-166529714D01*
X142356428Y-165672571D02*
X141785000Y-165672571D01*
X142142142Y-165172571D02*
X142142142Y-166458285D01*
X142070714Y-166601142D01*
X141927857Y-166672571D01*
X141785000Y-166672571D01*
X141356428Y-166601142D02*
X141213571Y-166672571D01*
X140927857Y-166672571D01*
X140785000Y-166601142D01*
X140713571Y-166458285D01*
X140713571Y-166386857D01*
X140785000Y-166244000D01*
X140927857Y-166172571D01*
X141142142Y-166172571D01*
X141285000Y-166101142D01*
X141356428Y-165958285D01*
X141356428Y-165886857D01*
X141285000Y-165744000D01*
X141142142Y-165672571D01*
X140927857Y-165672571D01*
X140785000Y-165744000D01*
D10*
X126687523Y-140014619D02*
X126354190Y-140490809D01*
X126116095Y-140014619D02*
X126116095Y-141014619D01*
X126497047Y-141014619D01*
X126592285Y-140967000D01*
X126639904Y-140919380D01*
X126687523Y-140824142D01*
X126687523Y-140681285D01*
X126639904Y-140586047D01*
X126592285Y-140538428D01*
X126497047Y-140490809D01*
X126116095Y-140490809D01*
X127687523Y-140109857D02*
X127639904Y-140062238D01*
X127497047Y-140014619D01*
X127401809Y-140014619D01*
X127258952Y-140062238D01*
X127163714Y-140157476D01*
X127116095Y-140252714D01*
X127068476Y-140443190D01*
X127068476Y-140586047D01*
X127116095Y-140776523D01*
X127163714Y-140871761D01*
X127258952Y-140967000D01*
X127401809Y-141014619D01*
X127497047Y-141014619D01*
X127639904Y-140967000D01*
X127687523Y-140919380D01*
D11*
X120266000Y-147156489D02*
X119266000Y-147156489D01*
X120266000Y-148656489D01*
X119266000Y-148656489D01*
X143276761Y-127259047D02*
X142324380Y-126592380D01*
X143276761Y-126116190D02*
X141276761Y-126116190D01*
X141276761Y-126878095D01*
X141372000Y-127068571D01*
X141467238Y-127163809D01*
X141657714Y-127259047D01*
X141943428Y-127259047D01*
X142133904Y-127163809D01*
X142229142Y-127068571D01*
X142324380Y-126878095D01*
X142324380Y-126116190D01*
X143086285Y-129259047D02*
X143181523Y-129163809D01*
X143276761Y-128878095D01*
X143276761Y-128687619D01*
X143181523Y-128401904D01*
X142991047Y-128211428D01*
X142800571Y-128116190D01*
X142419619Y-128020952D01*
X142133904Y-128020952D01*
X141752952Y-128116190D01*
X141562476Y-128211428D01*
X141372000Y-128401904D01*
X141276761Y-128687619D01*
X141276761Y-128878095D01*
X141372000Y-129163809D01*
X141467238Y-129259047D01*
D10*
X117813333Y-110074380D02*
X117146666Y-111074380D01*
X117146666Y-110074380D02*
X117813333Y-111074380D01*
D11*
X89278000Y-147138571D02*
X88278000Y-148638571D01*
X88278000Y-147138571D02*
X89278000Y-148638571D01*
X128159857Y-159052570D02*
X128159857Y-157552570D01*
X127802714Y-157552570D01*
X127588428Y-157623999D01*
X127445571Y-157766856D01*
X127374142Y-157909713D01*
X127302714Y-158195427D01*
X127302714Y-158409713D01*
X127374142Y-158695427D01*
X127445571Y-158838284D01*
X127588428Y-158981141D01*
X127802714Y-159052570D01*
X128159857Y-159052570D01*
X89377142Y-167340418D02*
X88662857Y-167340418D01*
X89520000Y-167768989D02*
X89020000Y-166268989D01*
X88520000Y-167768989D01*
X87162857Y-167626132D02*
X87234285Y-167697560D01*
X87448571Y-167768989D01*
X87591428Y-167768989D01*
X87805714Y-167697560D01*
X87948571Y-167554703D01*
X88020000Y-167411846D01*
X88091428Y-167126132D01*
X88091428Y-166911846D01*
X88020000Y-166626132D01*
X87948571Y-166483275D01*
X87805714Y-166340418D01*
X87591428Y-166268989D01*
X87448571Y-166268989D01*
X87234285Y-166340418D01*
X87162857Y-166411846D01*
X89270000Y-170183989D02*
X90127142Y-170183989D01*
X89698571Y-170183989D02*
X89698571Y-168683989D01*
X89841428Y-168898275D01*
X89984285Y-169041132D01*
X90127142Y-169112560D01*
X87912857Y-168683989D02*
X88627142Y-168683989D01*
X88698571Y-169398275D01*
X88627142Y-169326846D01*
X88484285Y-169255418D01*
X88127142Y-169255418D01*
X87984285Y-169326846D01*
X87912857Y-169398275D01*
X87841428Y-169541132D01*
X87841428Y-169898275D01*
X87912857Y-170041132D01*
X87984285Y-170112560D01*
X88127142Y-170183989D01*
X88484285Y-170183989D01*
X88627142Y-170112560D01*
X88698571Y-170041132D01*
X87127142Y-170183989D02*
X86841428Y-170183989D01*
X86698571Y-170112560D01*
X86627142Y-170041132D01*
X86484285Y-169826846D01*
X86412857Y-169541132D01*
X86412857Y-168969703D01*
X86484285Y-168826846D01*
X86555714Y-168755418D01*
X86698571Y-168683989D01*
X86984285Y-168683989D01*
X87127142Y-168755418D01*
X87198571Y-168826846D01*
X87270000Y-168969703D01*
X87270000Y-169326846D01*
X87198571Y-169469703D01*
X87127142Y-169541132D01*
X86984285Y-169612560D01*
X86698571Y-169612560D01*
X86555714Y-169541132D01*
X86484285Y-169469703D01*
X86412857Y-169326846D01*
X82531142Y-158624000D02*
X81816857Y-158624000D01*
X82674000Y-159052571D02*
X82174000Y-157552571D01*
X81674000Y-159052571D01*
X156866666Y-79208571D02*
X156866666Y-80422857D01*
X156942857Y-80565714D01*
X157019047Y-80637142D01*
X157171428Y-80708571D01*
X157400000Y-80708571D01*
X157552380Y-80637142D01*
X156866666Y-80137142D02*
X157019047Y-80208571D01*
X157323809Y-80208571D01*
X157476190Y-80137142D01*
X157552380Y-80065714D01*
X157628571Y-79922857D01*
X157628571Y-79494285D01*
X157552380Y-79351428D01*
X157476190Y-79280000D01*
X157323809Y-79208571D01*
X157019047Y-79208571D01*
X156866666Y-79280000D01*
X156104761Y-80208571D02*
X156104761Y-79208571D01*
X156104761Y-78708571D02*
X156180952Y-78780000D01*
X156104761Y-78851428D01*
X156028571Y-78780000D01*
X156104761Y-78708571D01*
X156104761Y-78851428D01*
X155571428Y-79208571D02*
X154961904Y-79208571D01*
X155342857Y-78708571D02*
X155342857Y-79994285D01*
X155266666Y-80137142D01*
X155114285Y-80208571D01*
X154961904Y-80208571D01*
X154428571Y-80208571D02*
X154428571Y-78708571D01*
X153742857Y-80208571D02*
X153742857Y-79422857D01*
X153819047Y-79280000D01*
X153971428Y-79208571D01*
X154200000Y-79208571D01*
X154352380Y-79280000D01*
X154428571Y-79351428D01*
X152295238Y-79208571D02*
X152295238Y-80208571D01*
X152980952Y-79208571D02*
X152980952Y-79994285D01*
X152904761Y-80137142D01*
X152752380Y-80208571D01*
X152523809Y-80208571D01*
X152371428Y-80137142D01*
X152295238Y-80065714D01*
X151533333Y-80208571D02*
X151533333Y-78708571D01*
X151533333Y-79280000D02*
X151380952Y-79208571D01*
X151076190Y-79208571D01*
X150923809Y-79280000D01*
X150847619Y-79351428D01*
X150771428Y-79494285D01*
X150771428Y-79922857D01*
X150847619Y-80065714D01*
X150923809Y-80137142D01*
X151076190Y-80208571D01*
X151380952Y-80208571D01*
X151533333Y-80137142D01*
X150085714Y-80065714D02*
X150009523Y-80137142D01*
X150085714Y-80208571D01*
X150161904Y-80137142D01*
X150085714Y-80065714D01*
X150085714Y-80208571D01*
X148638095Y-80137142D02*
X148790476Y-80208571D01*
X149095238Y-80208571D01*
X149247619Y-80137142D01*
X149323809Y-80065714D01*
X149400000Y-79922857D01*
X149400000Y-79494285D01*
X149323809Y-79351428D01*
X149247619Y-79280000D01*
X149095238Y-79208571D01*
X148790476Y-79208571D01*
X148638095Y-79280000D01*
X147723809Y-80208571D02*
X147876190Y-80137142D01*
X147952380Y-80065714D01*
X148028571Y-79922857D01*
X148028571Y-79494285D01*
X147952380Y-79351428D01*
X147876190Y-79280000D01*
X147723809Y-79208571D01*
X147495238Y-79208571D01*
X147342857Y-79280000D01*
X147266666Y-79351428D01*
X147190476Y-79494285D01*
X147190476Y-79922857D01*
X147266666Y-80065714D01*
X147342857Y-80137142D01*
X147495238Y-80208571D01*
X147723809Y-80208571D01*
X146504761Y-80208571D02*
X146504761Y-79208571D01*
X146504761Y-79351428D02*
X146428571Y-79280000D01*
X146276190Y-79208571D01*
X146047619Y-79208571D01*
X145895238Y-79280000D01*
X145819047Y-79422857D01*
X145819047Y-80208571D01*
X145819047Y-79422857D02*
X145742857Y-79280000D01*
X145590476Y-79208571D01*
X145361904Y-79208571D01*
X145209523Y-79280000D01*
X145133333Y-79422857D01*
X145133333Y-80208571D01*
X143228571Y-78637142D02*
X144600000Y-80565714D01*
X142847619Y-79208571D02*
X142466666Y-80208571D01*
X142085714Y-79208571D01*
X140866666Y-80137142D02*
X141019047Y-80208571D01*
X141323809Y-80208571D01*
X141476190Y-80137142D01*
X141552380Y-79994285D01*
X141552380Y-79422857D01*
X141476190Y-79280000D01*
X141323809Y-79208571D01*
X141019047Y-79208571D01*
X140866666Y-79280000D01*
X140790476Y-79422857D01*
X140790476Y-79565714D01*
X141552380Y-79708571D01*
X140104761Y-80208571D02*
X140104761Y-79208571D01*
X140104761Y-79494285D02*
X140028571Y-79351428D01*
X139952380Y-79280000D01*
X139800000Y-79208571D01*
X139647619Y-79208571D01*
X139190476Y-80137142D02*
X139038095Y-80208571D01*
X138733333Y-80208571D01*
X138580952Y-80137142D01*
X138504761Y-79994285D01*
X138504761Y-79922857D01*
X138580952Y-79780000D01*
X138733333Y-79708571D01*
X138961904Y-79708571D01*
X139114285Y-79637142D01*
X139190476Y-79494285D01*
X139190476Y-79422857D01*
X139114285Y-79280000D01*
X138961904Y-79208571D01*
X138733333Y-79208571D01*
X138580952Y-79280000D01*
X137133333Y-79208571D02*
X137133333Y-80208571D01*
X137819047Y-79208571D02*
X137819047Y-79994285D01*
X137742857Y-80137142D01*
X137590476Y-80208571D01*
X137361904Y-80208571D01*
X137209523Y-80137142D01*
X137133333Y-80065714D01*
X136447619Y-80137142D02*
X136295238Y-80208571D01*
X135990476Y-80208571D01*
X135838095Y-80137142D01*
X135761904Y-79994285D01*
X135761904Y-79922857D01*
X135838095Y-79780000D01*
X135990476Y-79708571D01*
X136219047Y-79708571D01*
X136371428Y-79637142D01*
X136447619Y-79494285D01*
X136447619Y-79422857D01*
X136371428Y-79280000D01*
X136219047Y-79208571D01*
X135990476Y-79208571D01*
X135838095Y-79280000D01*
X134466666Y-80137142D02*
X134619047Y-80208571D01*
X134923809Y-80208571D01*
X135076190Y-80137142D01*
X135152380Y-79994285D01*
X135152380Y-79422857D01*
X135076190Y-79280000D01*
X134923809Y-79208571D01*
X134619047Y-79208571D01*
X134466666Y-79280000D01*
X134390476Y-79422857D01*
X134390476Y-79565714D01*
X135152380Y-79708571D01*
X133704761Y-79208571D02*
X133704761Y-80208571D01*
X133704761Y-79351428D02*
X133628571Y-79280000D01*
X133476190Y-79208571D01*
X133247619Y-79208571D01*
X133095238Y-79280000D01*
X133019047Y-79422857D01*
X133019047Y-80208571D01*
X132485714Y-79208571D02*
X131876190Y-79208571D01*
X132257142Y-78708571D02*
X132257142Y-79994285D01*
X132180952Y-80137142D01*
X132028571Y-80208571D01*
X131876190Y-80208571D01*
X131342857Y-80208571D02*
X131342857Y-79208571D01*
X131342857Y-79494285D02*
X131266666Y-79351428D01*
X131190476Y-79280000D01*
X131038095Y-79208571D01*
X130885714Y-79208571D01*
X130123809Y-80208571D02*
X130276190Y-80137142D01*
X130352380Y-80065714D01*
X130428571Y-79922857D01*
X130428571Y-79494285D01*
X130352380Y-79351428D01*
X130276190Y-79280000D01*
X130123809Y-79208571D01*
X129895238Y-79208571D01*
X129742857Y-79280000D01*
X129666666Y-79351428D01*
X129590476Y-79494285D01*
X129590476Y-79922857D01*
X129666666Y-80065714D01*
X129742857Y-80137142D01*
X129895238Y-80208571D01*
X130123809Y-80208571D01*
X128904761Y-79208571D02*
X128904761Y-80708571D01*
X128904761Y-79280000D02*
X128752380Y-79208571D01*
X128447619Y-79208571D01*
X128295238Y-79280000D01*
X128219047Y-79351428D01*
X128142857Y-79494285D01*
X128142857Y-79922857D01*
X128219047Y-80065714D01*
X128295238Y-80137142D01*
X128447619Y-80208571D01*
X128752380Y-80208571D01*
X128904761Y-80137142D01*
X127609523Y-79208571D02*
X127228571Y-80208571D01*
X126847619Y-79208571D02*
X127228571Y-80208571D01*
X127380952Y-80565714D01*
X127457142Y-80637142D01*
X127609523Y-80708571D01*
X125095238Y-78637142D02*
X126466666Y-80565714D01*
X123876190Y-80208571D02*
X123876190Y-79422857D01*
X123952380Y-79280000D01*
X124104761Y-79208571D01*
X124409523Y-79208571D01*
X124561904Y-79280000D01*
X123876190Y-80137142D02*
X124028571Y-80208571D01*
X124409523Y-80208571D01*
X124561904Y-80137142D01*
X124638095Y-79994285D01*
X124638095Y-79851428D01*
X124561904Y-79708571D01*
X124409523Y-79637142D01*
X124028571Y-79637142D01*
X123876190Y-79565714D01*
X122428571Y-80208571D02*
X122428571Y-78708571D01*
X122428571Y-80137142D02*
X122580952Y-80208571D01*
X122885714Y-80208571D01*
X123038095Y-80137142D01*
X123114285Y-80065714D01*
X123190476Y-79922857D01*
X123190476Y-79494285D01*
X123114285Y-79351428D01*
X123038095Y-79280000D01*
X122885714Y-79208571D01*
X122580952Y-79208571D01*
X122428571Y-79280000D01*
X120980952Y-78708571D02*
X121285714Y-78708571D01*
X121438095Y-78780000D01*
X121514285Y-78851428D01*
X121666666Y-79065714D01*
X121742857Y-79351428D01*
X121742857Y-79922857D01*
X121666666Y-80065714D01*
X121590476Y-80137142D01*
X121438095Y-80208571D01*
X121133333Y-80208571D01*
X120980952Y-80137142D01*
X120904761Y-80065714D01*
X120828571Y-79922857D01*
X120828571Y-79565714D01*
X120904761Y-79422857D01*
X120980952Y-79351428D01*
X121133333Y-79280000D01*
X121438095Y-79280000D01*
X121590476Y-79351428D01*
X121666666Y-79422857D01*
X121742857Y-79565714D01*
X120295238Y-78708571D02*
X119304761Y-78708571D01*
X119838095Y-79280000D01*
X119609523Y-79280000D01*
X119457142Y-79351428D01*
X119380952Y-79422857D01*
X119304761Y-79565714D01*
X119304761Y-79922857D01*
X119380952Y-80065714D01*
X119457142Y-80137142D01*
X119609523Y-80208571D01*
X120066666Y-80208571D01*
X120219047Y-80137142D01*
X120295238Y-80065714D01*
X118771428Y-78708571D02*
X117780952Y-78708571D01*
X118314285Y-79280000D01*
X118085714Y-79280000D01*
X117933333Y-79351428D01*
X117857142Y-79422857D01*
X117780952Y-79565714D01*
X117780952Y-79922857D01*
X117857142Y-80065714D01*
X117933333Y-80137142D01*
X118085714Y-80208571D01*
X118542857Y-80208571D01*
X118695238Y-80137142D01*
X118771428Y-80065714D01*
X117095238Y-80208571D02*
X117095238Y-79208571D01*
X117095238Y-79351428D02*
X117019047Y-79280000D01*
X116866666Y-79208571D01*
X116638095Y-79208571D01*
X116485714Y-79280000D01*
X116409523Y-79422857D01*
X116409523Y-80208571D01*
X116409523Y-79422857D02*
X116333333Y-79280000D01*
X116180952Y-79208571D01*
X115952380Y-79208571D01*
X115800000Y-79280000D01*
X115723809Y-79422857D01*
X115723809Y-80208571D01*
X114276190Y-79208571D02*
X114276190Y-80208571D01*
X114961904Y-79208571D02*
X114961904Y-79994285D01*
X114885714Y-80137142D01*
X114733333Y-80208571D01*
X114504761Y-80208571D01*
X114352380Y-80137142D01*
X114276190Y-80065714D01*
X113285714Y-80208571D02*
X113438095Y-80137142D01*
X113514285Y-79994285D01*
X113514285Y-78708571D01*
X112904761Y-79208571D02*
X112295238Y-79208571D01*
X112676190Y-78708571D02*
X112676190Y-79994285D01*
X112600000Y-80137142D01*
X112447619Y-80208571D01*
X112295238Y-80208571D01*
X111761904Y-80208571D02*
X111761904Y-79208571D01*
X111761904Y-78708571D02*
X111838095Y-78780000D01*
X111761904Y-78851428D01*
X111685714Y-78780000D01*
X111761904Y-78708571D01*
X111761904Y-78851428D01*
X111000000Y-79208571D02*
X111000000Y-80708571D01*
X111000000Y-79280000D02*
X110847619Y-79208571D01*
X110542857Y-79208571D01*
X110390476Y-79280000D01*
X110314285Y-79351428D01*
X110238095Y-79494285D01*
X110238095Y-79922857D01*
X110314285Y-80065714D01*
X110390476Y-80137142D01*
X110542857Y-80208571D01*
X110847619Y-80208571D01*
X111000000Y-80137142D01*
X109323809Y-80208571D02*
X109476190Y-80137142D01*
X109552380Y-79994285D01*
X109552380Y-78708571D01*
X108866666Y-79208571D02*
X108485714Y-80208571D01*
X108104761Y-79208571D02*
X108485714Y-80208571D01*
X108638095Y-80565714D01*
X108714285Y-80637142D01*
X108866666Y-80708571D01*
X100714285Y-80137142D02*
X100866666Y-80208571D01*
X101171428Y-80208571D01*
X101323809Y-80137142D01*
X101400000Y-80065714D01*
X101476190Y-79922857D01*
X101476190Y-79494285D01*
X101400000Y-79351428D01*
X101323809Y-79280000D01*
X101171428Y-79208571D01*
X100866666Y-79208571D01*
X100714285Y-79280000D01*
X99342857Y-80137142D02*
X99495238Y-80208571D01*
X99800000Y-80208571D01*
X99952380Y-80137142D01*
X100028571Y-80065714D01*
X100104761Y-79922857D01*
X100104761Y-79494285D01*
X100028571Y-79351428D01*
X99952380Y-79280000D01*
X99800000Y-79208571D01*
X99495238Y-79208571D01*
X99342857Y-79280000D01*
X98657142Y-79637142D02*
X97438095Y-79637142D01*
X96676190Y-80208571D02*
X96676190Y-78708571D01*
X96676190Y-79280000D02*
X96523809Y-79208571D01*
X96219047Y-79208571D01*
X96066666Y-79280000D01*
X95990476Y-79351428D01*
X95914285Y-79494285D01*
X95914285Y-79922857D01*
X95990476Y-80065714D01*
X96066666Y-80137142D01*
X96219047Y-80208571D01*
X96523809Y-80208571D01*
X96676190Y-80137142D01*
X95380952Y-79208571D02*
X95000000Y-80208571D01*
X94619047Y-79208571D02*
X95000000Y-80208571D01*
X95152380Y-80565714D01*
X95228571Y-80637142D01*
X95380952Y-80708571D01*
X94009523Y-79637142D02*
X92790476Y-79637142D01*
X92104761Y-80137142D02*
X91952380Y-80208571D01*
X91647619Y-80208571D01*
X91495238Y-80137142D01*
X91419047Y-79994285D01*
X91419047Y-79922857D01*
X91495238Y-79780000D01*
X91647619Y-79708571D01*
X91876190Y-79708571D01*
X92028571Y-79637142D01*
X92104761Y-79494285D01*
X92104761Y-79422857D01*
X92028571Y-79280000D01*
X91876190Y-79208571D01*
X91647619Y-79208571D01*
X91495238Y-79280000D01*
X90047619Y-80208571D02*
X90047619Y-79422857D01*
X90123809Y-79280000D01*
X90276190Y-79208571D01*
X90580952Y-79208571D01*
X90733333Y-79280000D01*
X90047619Y-80137142D02*
X90200000Y-80208571D01*
X90580952Y-80208571D01*
X90733333Y-80137142D01*
X90809523Y-79994285D01*
X90809523Y-79851428D01*
X90733333Y-79708571D01*
X90580952Y-79637142D01*
X90200000Y-79637142D01*
X90047619Y-79565714D01*
X89285714Y-79637142D02*
X88066666Y-79637142D01*
X87304761Y-79208571D02*
X87304761Y-80208571D01*
X87304761Y-79351428D02*
X87228571Y-79280000D01*
X87076190Y-79208571D01*
X86847619Y-79208571D01*
X86695238Y-79280000D01*
X86619047Y-79422857D01*
X86619047Y-80208571D01*
X85171428Y-80137142D02*
X85323809Y-80208571D01*
X85628571Y-80208571D01*
X85780952Y-80137142D01*
X85857142Y-80065714D01*
X85933333Y-79922857D01*
X85933333Y-79494285D01*
X85857142Y-79351428D01*
X85780952Y-79280000D01*
X85628571Y-79208571D01*
X85323809Y-79208571D01*
X85171428Y-79280000D01*
D10*
X122893333Y-123663380D02*
X122226666Y-123663380D01*
X122893333Y-124663380D01*
X122226666Y-124663380D01*
D11*
X135640857Y-168958571D02*
X135640857Y-167458571D01*
X135283714Y-167458571D01*
X135069428Y-167530000D01*
X134926571Y-167672857D01*
X134855142Y-167815714D01*
X134783714Y-168101428D01*
X134783714Y-168315714D01*
X134855142Y-168601428D01*
X134926571Y-168744285D01*
X135069428Y-168887142D01*
X135283714Y-168958571D01*
X135640857Y-168958571D01*
X133283714Y-168815714D02*
X133355142Y-168887142D01*
X133569428Y-168958571D01*
X133712285Y-168958571D01*
X133926571Y-168887142D01*
X134069428Y-168744285D01*
X134140857Y-168601428D01*
X134212285Y-168315714D01*
X134212285Y-168101428D01*
X134140857Y-167815714D01*
X134069428Y-167672857D01*
X133926571Y-167530000D01*
X133712285Y-167458571D01*
X133569428Y-167458571D01*
X133355142Y-167530000D01*
X133283714Y-167601428D01*
X104368832Y-147942203D02*
X104368832Y-148656489D01*
X104868832Y-147156489D02*
X104368832Y-147942203D01*
X103868832Y-147156489D01*
X120273857Y-167768989D02*
X120273857Y-166268989D01*
X119916714Y-166268989D01*
X119702428Y-166340418D01*
X119559571Y-166483275D01*
X119488142Y-166626132D01*
X119416714Y-166911846D01*
X119416714Y-167126132D01*
X119488142Y-167411846D01*
X119559571Y-167554703D01*
X119702428Y-167697560D01*
X119916714Y-167768989D01*
X120273857Y-167768989D01*
X117916714Y-167626132D02*
X117988142Y-167697560D01*
X118202428Y-167768989D01*
X118345285Y-167768989D01*
X118559571Y-167697560D01*
X118702428Y-167554703D01*
X118773857Y-167411846D01*
X118845285Y-167126132D01*
X118845285Y-166911846D01*
X118773857Y-166626132D01*
X118702428Y-166483275D01*
X118559571Y-166340418D01*
X118345285Y-166268989D01*
X118202428Y-166268989D01*
X117988142Y-166340418D01*
X117916714Y-166411846D01*
X119666714Y-170183989D02*
X119666714Y-169398275D01*
X119738142Y-169255418D01*
X119881000Y-169183989D01*
X120166714Y-169183989D01*
X120309571Y-169255418D01*
X119666714Y-170112560D02*
X119809571Y-170183989D01*
X120166714Y-170183989D01*
X120309571Y-170112560D01*
X120381000Y-169969703D01*
X120381000Y-169826846D01*
X120309571Y-169683989D01*
X120166714Y-169612560D01*
X119809571Y-169612560D01*
X119666714Y-169541132D01*
X119166714Y-169183989D02*
X118595285Y-169183989D01*
X118952428Y-168683989D02*
X118952428Y-169969703D01*
X118881000Y-170112560D01*
X118738142Y-170183989D01*
X118595285Y-170183989D01*
X118309571Y-169183989D02*
X117738142Y-169183989D01*
X118095285Y-168683989D02*
X118095285Y-169969703D01*
X118023857Y-170112560D01*
X117881000Y-170183989D01*
X117738142Y-170183989D01*
D10*
X144058547Y-84405904D02*
X142358547Y-84405904D01*
X142358547Y-84810666D01*
X142439500Y-85053523D01*
X142601404Y-85215428D01*
X142763309Y-85296380D01*
X143087119Y-85377333D01*
X143329976Y-85377333D01*
X143653785Y-85296380D01*
X143815690Y-85215428D01*
X143977595Y-85053523D01*
X144058547Y-84810666D01*
X144058547Y-84405904D01*
X142358547Y-86429714D02*
X142358547Y-86753523D01*
X142439500Y-86915428D01*
X142601404Y-87077333D01*
X142925214Y-87158285D01*
X143491880Y-87158285D01*
X143815690Y-87077333D01*
X143977595Y-86915428D01*
X144058547Y-86753523D01*
X144058547Y-86429714D01*
X143977595Y-86267809D01*
X143815690Y-86105904D01*
X143491880Y-86024952D01*
X142925214Y-86024952D01*
X142601404Y-86105904D01*
X142439500Y-86267809D01*
X142358547Y-86429714D01*
X144058547Y-89182095D02*
X142358547Y-89182095D01*
X144058547Y-90153523D01*
X142358547Y-90153523D01*
X142358547Y-91286857D02*
X142358547Y-91610666D01*
X142439500Y-91772571D01*
X142601404Y-91934476D01*
X142925214Y-92015428D01*
X143491880Y-92015428D01*
X143815690Y-91934476D01*
X143977595Y-91772571D01*
X144058547Y-91610666D01*
X144058547Y-91286857D01*
X143977595Y-91124952D01*
X143815690Y-90963047D01*
X143491880Y-90882095D01*
X142925214Y-90882095D01*
X142601404Y-90963047D01*
X142439500Y-91124952D01*
X142358547Y-91286857D01*
X142358547Y-92501142D02*
X142358547Y-93472571D01*
X144058547Y-92986857D02*
X142358547Y-92986857D01*
X144058547Y-95334476D02*
X142358547Y-95334476D01*
X142358547Y-95739238D01*
X142439500Y-95982095D01*
X142601404Y-96144000D01*
X142763309Y-96224952D01*
X143087119Y-96305904D01*
X143329976Y-96305904D01*
X143653785Y-96224952D01*
X143815690Y-96144000D01*
X143977595Y-95982095D01*
X144058547Y-95739238D01*
X144058547Y-95334476D01*
X144058547Y-98005904D02*
X143249023Y-97439238D01*
X144058547Y-97034476D02*
X142358547Y-97034476D01*
X142358547Y-97682095D01*
X142439500Y-97844000D01*
X142520452Y-97924952D01*
X142682357Y-98005904D01*
X142925214Y-98005904D01*
X143087119Y-97924952D01*
X143168071Y-97844000D01*
X143249023Y-97682095D01*
X143249023Y-97034476D01*
X144058547Y-98734476D02*
X142358547Y-98734476D01*
X144058547Y-100353523D02*
X144058547Y-99544000D01*
X142358547Y-99544000D01*
X144058547Y-101729714D02*
X144058547Y-100920190D01*
X142358547Y-100920190D01*
X144058547Y-103591619D02*
X142358547Y-103591619D01*
X142358547Y-104239238D01*
X142439500Y-104401142D01*
X142520452Y-104482095D01*
X142682357Y-104563047D01*
X142925214Y-104563047D01*
X143087119Y-104482095D01*
X143168071Y-104401142D01*
X143249023Y-104239238D01*
X143249023Y-103591619D01*
X143896642Y-106263047D02*
X143977595Y-106182095D01*
X144058547Y-105939238D01*
X144058547Y-105777333D01*
X143977595Y-105534476D01*
X143815690Y-105372571D01*
X143653785Y-105291619D01*
X143329976Y-105210666D01*
X143087119Y-105210666D01*
X142763309Y-105291619D01*
X142601404Y-105372571D01*
X142439500Y-105534476D01*
X142358547Y-105777333D01*
X142358547Y-105939238D01*
X142439500Y-106182095D01*
X142520452Y-106263047D01*
X143168071Y-107558285D02*
X143249023Y-107801142D01*
X143329976Y-107882095D01*
X143491880Y-107963047D01*
X143734738Y-107963047D01*
X143896642Y-107882095D01*
X143977595Y-107801142D01*
X144058547Y-107639238D01*
X144058547Y-106991619D01*
X142358547Y-106991619D01*
X142358547Y-107558285D01*
X142439500Y-107720190D01*
X142520452Y-107801142D01*
X142682357Y-107882095D01*
X142844261Y-107882095D01*
X143006166Y-107801142D01*
X143087119Y-107720190D01*
X143168071Y-107558285D01*
X143168071Y-106991619D01*
X146795547Y-87320190D02*
X145095547Y-87320190D01*
X146795547Y-88048761D02*
X145905071Y-88048761D01*
X145743166Y-87967809D01*
X145662214Y-87805904D01*
X145662214Y-87563047D01*
X145743166Y-87401142D01*
X145824119Y-87320190D01*
X146714595Y-89505904D02*
X146795547Y-89344000D01*
X146795547Y-89020190D01*
X146714595Y-88858285D01*
X146552690Y-88777333D01*
X145905071Y-88777333D01*
X145743166Y-88858285D01*
X145662214Y-89020190D01*
X145662214Y-89344000D01*
X145743166Y-89505904D01*
X145905071Y-89586857D01*
X146066976Y-89586857D01*
X146228880Y-88777333D01*
X146795547Y-90315428D02*
X145662214Y-90315428D01*
X145986023Y-90315428D02*
X145824119Y-90396380D01*
X145743166Y-90477333D01*
X145662214Y-90639238D01*
X145662214Y-90801142D01*
X146714595Y-92015428D02*
X146795547Y-91853523D01*
X146795547Y-91529714D01*
X146714595Y-91367809D01*
X146552690Y-91286857D01*
X145905071Y-91286857D01*
X145743166Y-91367809D01*
X145662214Y-91529714D01*
X145662214Y-91853523D01*
X145743166Y-92015428D01*
X145905071Y-92096380D01*
X146066976Y-92096380D01*
X146228880Y-91286857D01*
X146795547Y-94363047D02*
X146714595Y-94201142D01*
X146633642Y-94120190D01*
X146471738Y-94039238D01*
X145986023Y-94039238D01*
X145824119Y-94120190D01*
X145743166Y-94201142D01*
X145662214Y-94363047D01*
X145662214Y-94605904D01*
X145743166Y-94767809D01*
X145824119Y-94848761D01*
X145986023Y-94929714D01*
X146471738Y-94929714D01*
X146633642Y-94848761D01*
X146714595Y-94767809D01*
X146795547Y-94605904D01*
X146795547Y-94363047D01*
X146795547Y-95658285D02*
X145662214Y-95658285D01*
X145986023Y-95658285D02*
X145824119Y-95739238D01*
X145743166Y-95820190D01*
X145662214Y-95982095D01*
X145662214Y-96144000D01*
X146795547Y-98734476D02*
X145905071Y-98734476D01*
X145743166Y-98653523D01*
X145662214Y-98491619D01*
X145662214Y-98167809D01*
X145743166Y-98005904D01*
X146714595Y-98734476D02*
X146795547Y-98572571D01*
X146795547Y-98167809D01*
X146714595Y-98005904D01*
X146552690Y-97924952D01*
X146390785Y-97924952D01*
X146228880Y-98005904D01*
X146147928Y-98167809D01*
X146147928Y-98572571D01*
X146066976Y-98734476D01*
X145662214Y-99544000D02*
X146795547Y-99544000D01*
X145824119Y-99544000D02*
X145743166Y-99624952D01*
X145662214Y-99786857D01*
X145662214Y-100029714D01*
X145743166Y-100191619D01*
X145905071Y-100272571D01*
X146795547Y-100272571D01*
X145662214Y-100920190D02*
X146795547Y-101324952D01*
X145662214Y-101729714D02*
X146795547Y-101324952D01*
X147200309Y-101163047D01*
X147281261Y-101082095D01*
X147362214Y-100920190D01*
X145662214Y-102215428D02*
X146795547Y-102539238D01*
X145986023Y-102863047D01*
X146795547Y-103186857D01*
X145662214Y-103510666D01*
X146795547Y-104158285D02*
X145095547Y-104158285D01*
X146795547Y-104886857D02*
X145905071Y-104886857D01*
X145743166Y-104805904D01*
X145662214Y-104644000D01*
X145662214Y-104401142D01*
X145743166Y-104239238D01*
X145824119Y-104158285D01*
X146714595Y-106344000D02*
X146795547Y-106182095D01*
X146795547Y-105858285D01*
X146714595Y-105696380D01*
X146552690Y-105615428D01*
X145905071Y-105615428D01*
X145743166Y-105696380D01*
X145662214Y-105858285D01*
X145662214Y-106182095D01*
X145743166Y-106344000D01*
X145905071Y-106424952D01*
X146066976Y-106424952D01*
X146228880Y-105615428D01*
X146795547Y-107153523D02*
X145662214Y-107153523D01*
X145986023Y-107153523D02*
X145824119Y-107234476D01*
X145743166Y-107315428D01*
X145662214Y-107477333D01*
X145662214Y-107639238D01*
X146714595Y-108853523D02*
X146795547Y-108691619D01*
X146795547Y-108367809D01*
X146714595Y-108205904D01*
X146552690Y-108124952D01*
X145905071Y-108124952D01*
X145743166Y-108205904D01*
X145662214Y-108367809D01*
X145662214Y-108691619D01*
X145743166Y-108853523D01*
X145905071Y-108934476D01*
X146066976Y-108934476D01*
X146228880Y-108124952D01*
X120799604Y-85847180D02*
X120799604Y-86656704D01*
X120751985Y-86751942D01*
X120704366Y-86799561D01*
X120609128Y-86847180D01*
X120418652Y-86847180D01*
X120323414Y-86799561D01*
X120275795Y-86751942D01*
X120228176Y-86656704D01*
X120228176Y-85847180D01*
X119704366Y-86847180D02*
X119513890Y-86847180D01*
X119418652Y-86799561D01*
X119371033Y-86751942D01*
X119275795Y-86609085D01*
X119228176Y-86418609D01*
X119228176Y-86037657D01*
X119275795Y-85942419D01*
X119323414Y-85894800D01*
X119418652Y-85847180D01*
X119609128Y-85847180D01*
X119704366Y-85894800D01*
X119751985Y-85942419D01*
X119799604Y-86037657D01*
X119799604Y-86275752D01*
X119751985Y-86370990D01*
X119704366Y-86418609D01*
X119609128Y-86466228D01*
X119418652Y-86466228D01*
X119323414Y-86418609D01*
X119275795Y-86370990D01*
X119228176Y-86275752D01*
X146015395Y-145892780D02*
X146015395Y-146702304D01*
X145967776Y-146797542D01*
X145920157Y-146845161D01*
X145824919Y-146892780D01*
X145634442Y-146892780D01*
X145539204Y-146845161D01*
X145491585Y-146797542D01*
X145443966Y-146702304D01*
X145443966Y-145892780D01*
X144443966Y-146892780D02*
X145015395Y-146892780D01*
X144729680Y-146892780D02*
X144729680Y-145892780D01*
X144824919Y-146035638D01*
X144920157Y-146130876D01*
X145015395Y-146178495D01*
X143824919Y-145892780D02*
X143729680Y-145892780D01*
X143634442Y-145940400D01*
X143586823Y-145988019D01*
X143539204Y-146083257D01*
X143491585Y-146273733D01*
X143491585Y-146511828D01*
X143539204Y-146702304D01*
X143586823Y-146797542D01*
X143634442Y-146845161D01*
X143729680Y-146892780D01*
X143824919Y-146892780D01*
X143920157Y-146845161D01*
X143967776Y-146797542D01*
X144015395Y-146702304D01*
X144063014Y-146511828D01*
X144063014Y-146273733D01*
X144015395Y-146083257D01*
X143967776Y-145988019D01*
X143920157Y-145940400D01*
X143824919Y-145892780D01*
X114602380Y-116241904D02*
X115411904Y-116241904D01*
X115507142Y-116289523D01*
X115554761Y-116337142D01*
X115602380Y-116432380D01*
X115602380Y-116622857D01*
X115554761Y-116718095D01*
X115507142Y-116765714D01*
X115411904Y-116813333D01*
X114602380Y-116813333D01*
X115602380Y-117813333D02*
X115602380Y-117241904D01*
X115602380Y-117527619D02*
X114602380Y-117527619D01*
X114745238Y-117432380D01*
X114840476Y-117337142D01*
X114888095Y-117241904D01*
X114697619Y-118194285D02*
X114650000Y-118241904D01*
X114602380Y-118337142D01*
X114602380Y-118575238D01*
X114650000Y-118670476D01*
X114697619Y-118718095D01*
X114792857Y-118765714D01*
X114888095Y-118765714D01*
X115030952Y-118718095D01*
X115602380Y-118146666D01*
X115602380Y-118765714D01*
X122491404Y-138873580D02*
X122491404Y-139683104D01*
X122443785Y-139778342D01*
X122396166Y-139825961D01*
X122300928Y-139873580D01*
X122110452Y-139873580D01*
X122015214Y-139825961D01*
X121967595Y-139778342D01*
X121919976Y-139683104D01*
X121919976Y-138873580D01*
X120919976Y-139873580D02*
X121491404Y-139873580D01*
X121205690Y-139873580D02*
X121205690Y-138873580D01*
X121300928Y-139016438D01*
X121396166Y-139111676D01*
X121491404Y-139159295D01*
D11*
X97889809Y-124988857D02*
X96366000Y-124988857D01*
X97127904Y-125750761D02*
X97127904Y-124226952D01*
X94366000Y-125750761D02*
X95508857Y-125750761D01*
X94937428Y-125750761D02*
X94937428Y-123750761D01*
X95127904Y-124036476D01*
X95318380Y-124226952D01*
X95508857Y-124322190D01*
X93604095Y-123941238D02*
X93508857Y-123846000D01*
X93318380Y-123750761D01*
X92842190Y-123750761D01*
X92651714Y-123846000D01*
X92556476Y-123941238D01*
X92461238Y-124131714D01*
X92461238Y-124322190D01*
X92556476Y-124607904D01*
X93699333Y-125750761D01*
X92461238Y-125750761D01*
X91889809Y-123750761D02*
X91223142Y-125750761D01*
X90556476Y-123750761D01*
X88745809Y-107716857D02*
X87222000Y-107716857D01*
X85222000Y-108478761D02*
X86364857Y-108478761D01*
X85793428Y-108478761D02*
X85793428Y-106478761D01*
X85983904Y-106764476D01*
X86174380Y-106954952D01*
X86364857Y-107050190D01*
X84460095Y-106669238D02*
X84364857Y-106574000D01*
X84174380Y-106478761D01*
X83698190Y-106478761D01*
X83507714Y-106574000D01*
X83412476Y-106669238D01*
X83317238Y-106859714D01*
X83317238Y-107050190D01*
X83412476Y-107335904D01*
X84555333Y-108478761D01*
X83317238Y-108478761D01*
X82745809Y-106478761D02*
X82079142Y-108478761D01*
X81412476Y-106478761D01*
D10*
X98735995Y-141495580D02*
X98735995Y-142305104D01*
X98688376Y-142400342D01*
X98640757Y-142447961D01*
X98545519Y-142495580D01*
X98355042Y-142495580D01*
X98259804Y-142447961D01*
X98212185Y-142400342D01*
X98164566Y-142305104D01*
X98164566Y-141495580D01*
X97164566Y-142495580D02*
X97735995Y-142495580D01*
X97450280Y-142495580D02*
X97450280Y-141495580D01*
X97545519Y-141638438D01*
X97640757Y-141733676D01*
X97735995Y-141781295D01*
X96212185Y-142495580D02*
X96783614Y-142495580D01*
X96497900Y-142495580D02*
X96497900Y-141495580D01*
X96593138Y-141638438D01*
X96688376Y-141733676D01*
X96783614Y-141781295D01*
D12*
X102447600Y-136574564D02*
X102447600Y-136790236D01*
X101727600Y-136574564D02*
X101727600Y-136790236D01*
X102498400Y-140549436D02*
X102498400Y-140333764D01*
X101778400Y-140549436D02*
X101778400Y-140333764D01*
X115215000Y-87654164D02*
X115215000Y-87869836D01*
X115935000Y-87654164D02*
X115935000Y-87869836D01*
X117382800Y-137879836D02*
X117382800Y-137664164D01*
X116662800Y-137879836D02*
X116662800Y-137664164D01*
X80322436Y-155731035D02*
X80539717Y-155948316D01*
X79785035Y-156268436D02*
X80002316Y-156485717D01*
X104626359Y-106178000D02*
X104933641Y-106178000D01*
X104626359Y-106938000D02*
X104933641Y-106938000D01*
X97209559Y-135030400D02*
X97516841Y-135030400D01*
X97209559Y-134270400D02*
X97516841Y-134270400D01*
X91598400Y-136526759D02*
X91598400Y-136834041D01*
X92358400Y-136526759D02*
X92358400Y-136834041D01*
X95689436Y-155604035D02*
X95906717Y-155821316D01*
X95152035Y-156141436D02*
X95369316Y-156358717D01*
X109732000Y-107217641D02*
X109732000Y-106910359D01*
X108972000Y-107217641D02*
X108972000Y-106910359D01*
X108972000Y-135310041D02*
X108972000Y-135002759D01*
X109732000Y-135310041D02*
X109732000Y-135002759D01*
X102774400Y-136526759D02*
X102774400Y-136834041D01*
X103534400Y-136526759D02*
X103534400Y-136834041D01*
X108057965Y-156268436D02*
X107840684Y-156485717D01*
X107520564Y-155731035D02*
X107303283Y-155948316D01*
X133608000Y-107221641D02*
X133608000Y-106914359D01*
X132848000Y-107221641D02*
X132848000Y-106914359D01*
X131476400Y-139551359D02*
X131476400Y-139858641D01*
X132236400Y-139551359D02*
X132236400Y-139858641D01*
X103585200Y-140597241D02*
X103585200Y-140289959D01*
X102825200Y-140597241D02*
X102825200Y-140289959D01*
X152687641Y-106938000D02*
X152380359Y-106938000D01*
X152687641Y-106178000D02*
X152380359Y-106178000D01*
X139124041Y-139858400D02*
X138816759Y-139858400D01*
X139124041Y-140618400D02*
X138816759Y-140618400D01*
X123424965Y-156395436D02*
X123207684Y-156612717D01*
X122887564Y-155858035D02*
X122670283Y-156075316D01*
X100388748Y-114405000D02*
X100911252Y-114405000D01*
X100388748Y-112935000D02*
X100911252Y-112935000D01*
X115291200Y-89851036D02*
X115291200Y-89635364D01*
X116011200Y-89851036D02*
X116011200Y-89635364D01*
X150546400Y-149325364D02*
X150546400Y-149541036D01*
X151266400Y-149325364D02*
X151266400Y-149541036D01*
X139256636Y-149530400D02*
X139040964Y-149530400D01*
X139256636Y-150250400D02*
X139040964Y-150250400D01*
X126792964Y-123783600D02*
X127008636Y-123783600D01*
X126792964Y-123063600D02*
X127008636Y-123063600D01*
X93456000Y-140572236D02*
X93456000Y-140356564D01*
X92736000Y-140572236D02*
X92736000Y-140356564D01*
X148870000Y-152233436D02*
X148870000Y-152017764D01*
X149590000Y-152233436D02*
X149590000Y-152017764D01*
X133608000Y-85320359D02*
X133608000Y-85627641D01*
X132848000Y-85320359D02*
X132848000Y-85627641D01*
X88753359Y-85604000D02*
X89060641Y-85604000D01*
X88753359Y-86364000D02*
X89060641Y-86364000D01*
X124333458Y-171059500D02*
X123858942Y-171059500D01*
X124333458Y-172104500D02*
X123858942Y-172104500D01*
X120037700Y-92454800D02*
X122237700Y-92454800D01*
X120037700Y-87234800D02*
X123637700Y-87234800D01*
X120037700Y-87234800D02*
X117837700Y-87234800D01*
X120037700Y-92454800D02*
X117837700Y-92454800D01*
X144777300Y-152500400D02*
X142577300Y-152500400D01*
X144777300Y-147280400D02*
X142577300Y-147280400D01*
X144777300Y-147280400D02*
X148377300Y-147280400D01*
X144777300Y-152500400D02*
X146977300Y-152500400D01*
X126490000Y-122620000D02*
X116090000Y-122620000D01*
X116150000Y-114830000D02*
X126430000Y-114830000D01*
X116150000Y-120130000D02*
X116150000Y-118480000D01*
X126430000Y-120130000D02*
X116150000Y-120130000D01*
X126490000Y-112340000D02*
X126490000Y-122620000D01*
X116090000Y-122620000D02*
X116090000Y-112340000D01*
X116150000Y-116480000D02*
X116150000Y-114830000D01*
X126430000Y-114830000D02*
X126430000Y-120130000D01*
X116090000Y-112340000D02*
X126490000Y-112340000D01*
X116150000Y-118480000D02*
G75*
G03*
X116150000Y-116480000I0J1000000D01*
G01*
X140030800Y-152357836D02*
X140030800Y-152142164D01*
X140750800Y-152357836D02*
X140750800Y-152142164D01*
X145978800Y-157468800D02*
X140838800Y-157468800D01*
X148578800Y-157468800D02*
X148578800Y-156138800D01*
X147248800Y-157468800D02*
X148578800Y-157468800D01*
X145978800Y-154808800D02*
X140838800Y-154808800D01*
X145978800Y-157468800D02*
X145978800Y-154808800D01*
X140838800Y-157468800D02*
X140838800Y-154808800D01*
X112123593Y-144351697D02*
X111788060Y-144687230D01*
X111384666Y-143612770D02*
X111049133Y-143948303D01*
X119122342Y-132937700D02*
X119596858Y-132937700D01*
X119122342Y-131892700D02*
X119596858Y-131892700D01*
X116967600Y-135507764D02*
X116967600Y-135723436D01*
X117687600Y-135507764D02*
X117687600Y-135723436D01*
X126792964Y-135560400D02*
X127008636Y-135560400D01*
X126792964Y-136280400D02*
X127008636Y-136280400D01*
X124105000Y-92088836D02*
X124105000Y-91873164D01*
X124825000Y-92088836D02*
X124825000Y-91873164D01*
X125212500Y-92286742D02*
X125212500Y-92761258D01*
X126257500Y-92286742D02*
X126257500Y-92761258D01*
X121729500Y-133361200D02*
X119529500Y-133361200D01*
X121729500Y-138581200D02*
X123929500Y-138581200D01*
X121729500Y-133361200D02*
X123929500Y-133361200D01*
X121729500Y-138581200D02*
X118129500Y-138581200D01*
X152546500Y-152921658D02*
X152546500Y-152447142D01*
X151501500Y-152921658D02*
X151501500Y-152447142D01*
X151022500Y-152447142D02*
X151022500Y-152921658D01*
X149977500Y-152447142D02*
X149977500Y-152921658D01*
X138039500Y-164537542D02*
X138039500Y-165012058D01*
X139084500Y-164537542D02*
X139084500Y-165012058D01*
X95555258Y-144516500D02*
X95080742Y-144516500D01*
X95555258Y-145561500D02*
X95080742Y-145561500D01*
X115935000Y-91905836D02*
X115935000Y-91690164D01*
X115215000Y-91905836D02*
X115215000Y-91690164D01*
X117687600Y-133526564D02*
X117687600Y-133742236D01*
X116967600Y-133526564D02*
X116967600Y-133742236D01*
X111891000Y-88929641D02*
X111891000Y-88622359D01*
X111131000Y-88929641D02*
X111131000Y-88622359D01*
X117402800Y-139934841D02*
X117402800Y-139627559D01*
X116642800Y-139934841D02*
X116642800Y-139627559D01*
X127006000Y-91342641D02*
X127006000Y-91035359D01*
X127766000Y-91342641D02*
X127766000Y-91035359D01*
X146587000Y-134831000D02*
X148748000Y-134831000D01*
X146587000Y-136392000D02*
X148095000Y-136392000D01*
X146587000Y-135192000D02*
X148678000Y-135192000D01*
X142595000Y-135712000D02*
X144507000Y-135712000D01*
X142999000Y-136392000D02*
X144507000Y-136392000D01*
X143966000Y-137232000D02*
X147128000Y-137232000D01*
X143242000Y-136672000D02*
X144507000Y-136672000D01*
X146587000Y-136152000D02*
X148263000Y-136152000D01*
X146587000Y-134631000D02*
X148769000Y-134631000D01*
X146587000Y-136432000D02*
X148063000Y-136432000D01*
X142486000Y-135432000D02*
X144507000Y-135432000D01*
X146587000Y-136232000D02*
X148211000Y-136232000D01*
X142317000Y-134471000D02*
X148777000Y-134471000D01*
X143393000Y-131205759D02*
X144023000Y-131205759D01*
X146587000Y-134911000D02*
X148736000Y-134911000D01*
X143097000Y-136512000D02*
X144507000Y-136512000D01*
X146587000Y-136112000D02*
X148289000Y-136112000D01*
X142437000Y-135272000D02*
X144507000Y-135272000D01*
X146587000Y-134951000D02*
X148729000Y-134951000D01*
X142320000Y-134551000D02*
X148774000Y-134551000D01*
X146587000Y-135552000D02*
X148565000Y-135552000D01*
X146587000Y-135071000D02*
X148706000Y-135071000D01*
X146587000Y-135912000D02*
X148403000Y-135912000D01*
X142426000Y-135232000D02*
X144507000Y-135232000D01*
X142781000Y-136072000D02*
X144507000Y-136072000D01*
X142545000Y-135592000D02*
X144507000Y-135592000D01*
X143603000Y-136992000D02*
X147491000Y-136992000D01*
X146587000Y-134991000D02*
X148722000Y-134991000D01*
X142613000Y-135752000D02*
X144507000Y-135752000D01*
X142380000Y-135031000D02*
X144507000Y-135031000D01*
X142969000Y-136352000D02*
X144507000Y-136352000D01*
X146587000Y-136472000D02*
X148031000Y-136472000D01*
X144285000Y-137392000D02*
X146809000Y-137392000D01*
X144115000Y-137312000D02*
X146979000Y-137312000D01*
X145145000Y-137632000D02*
X145949000Y-137632000D01*
X146587000Y-135312000D02*
X148645000Y-135312000D01*
X142691000Y-135912000D02*
X144507000Y-135912000D01*
X144382000Y-137432000D02*
X146712000Y-137432000D01*
X143282000Y-136712000D02*
X147812000Y-136712000D01*
X142329000Y-134671000D02*
X144507000Y-134671000D01*
X142713000Y-135952000D02*
X144507000Y-135952000D01*
X142857000Y-136192000D02*
X144507000Y-136192000D01*
X142406000Y-135152000D02*
X144507000Y-135152000D01*
X142336000Y-134751000D02*
X144507000Y-134751000D01*
X142397000Y-135112000D02*
X144507000Y-135112000D01*
X146587000Y-135392000D02*
X148621000Y-135392000D01*
X146587000Y-135992000D02*
X148359000Y-135992000D01*
X146587000Y-134711000D02*
X148762000Y-134711000D01*
X144914000Y-137592000D02*
X146180000Y-137592000D01*
X143204000Y-136632000D02*
X144507000Y-136632000D01*
X142461000Y-135352000D02*
X144507000Y-135352000D01*
X146587000Y-135792000D02*
X148463000Y-135792000D01*
X142352000Y-134871000D02*
X144507000Y-134871000D01*
X142449000Y-135312000D02*
X144507000Y-135312000D01*
X146587000Y-136272000D02*
X148183000Y-136272000D01*
X142317000Y-134431000D02*
X148777000Y-134431000D01*
X142341000Y-134791000D02*
X144507000Y-134791000D01*
X142883000Y-136232000D02*
X144507000Y-136232000D01*
X142346000Y-134831000D02*
X144507000Y-134831000D01*
X142323000Y-134591000D02*
X148771000Y-134591000D01*
X142358000Y-134911000D02*
X144507000Y-134911000D01*
X146587000Y-135872000D02*
X148423000Y-135872000D01*
X142805000Y-136112000D02*
X144507000Y-136112000D01*
X142500000Y-135472000D02*
X144507000Y-135472000D01*
X146587000Y-134671000D02*
X148765000Y-134671000D01*
X142671000Y-135872000D02*
X144507000Y-135872000D01*
X143410000Y-136832000D02*
X147684000Y-136832000D01*
X143552000Y-136952000D02*
X147542000Y-136952000D01*
X144488000Y-137472000D02*
X146606000Y-137472000D01*
X146587000Y-135952000D02*
X148381000Y-135952000D01*
X146587000Y-135832000D02*
X148443000Y-135832000D01*
X142372000Y-134991000D02*
X144507000Y-134991000D01*
X146587000Y-136592000D02*
X147927000Y-136592000D01*
X146587000Y-136072000D02*
X148313000Y-136072000D01*
X143713000Y-137072000D02*
X147381000Y-137072000D01*
X142911000Y-136272000D02*
X144507000Y-136272000D01*
X143897000Y-137192000D02*
X147197000Y-137192000D01*
X146587000Y-136192000D02*
X148237000Y-136192000D01*
X142473000Y-135392000D02*
X144507000Y-135392000D01*
X143323000Y-136752000D02*
X147771000Y-136752000D01*
X146587000Y-136032000D02*
X148337000Y-136032000D01*
X143657000Y-137032000D02*
X147437000Y-137032000D01*
X142325000Y-134631000D02*
X144507000Y-134631000D01*
X146587000Y-135712000D02*
X148499000Y-135712000D01*
X144607000Y-137512000D02*
X146487000Y-137512000D01*
X142317000Y-134391000D02*
X148777000Y-134391000D01*
X146587000Y-136512000D02*
X147997000Y-136512000D01*
X143833000Y-137152000D02*
X147261000Y-137152000D01*
X143031000Y-136432000D02*
X144507000Y-136432000D01*
X144197000Y-137352000D02*
X146897000Y-137352000D01*
X142631000Y-135792000D02*
X144507000Y-135792000D01*
X143708000Y-130890759D02*
X143708000Y-131520759D01*
X142319000Y-134511000D02*
X148775000Y-134511000D01*
X142332000Y-134711000D02*
X144507000Y-134711000D01*
X146587000Y-135152000D02*
X148688000Y-135152000D01*
X146587000Y-135672000D02*
X148517000Y-135672000D01*
X142388000Y-135071000D02*
X144507000Y-135071000D01*
X143131000Y-136552000D02*
X144507000Y-136552000D01*
X146587000Y-135352000D02*
X148633000Y-135352000D01*
X143063000Y-136472000D02*
X144507000Y-136472000D01*
X142735000Y-135992000D02*
X144507000Y-135992000D01*
X143771000Y-137112000D02*
X147323000Y-137112000D01*
X142416000Y-135192000D02*
X144507000Y-135192000D01*
X146587000Y-135232000D02*
X148668000Y-135232000D01*
X146587000Y-135512000D02*
X148580000Y-135512000D01*
X144038000Y-137272000D02*
X147056000Y-137272000D01*
X146587000Y-135752000D02*
X148481000Y-135752000D01*
X143167000Y-136592000D02*
X144507000Y-136592000D01*
X146587000Y-136632000D02*
X147890000Y-136632000D01*
X142561000Y-135632000D02*
X144507000Y-135632000D01*
X146587000Y-136352000D02*
X148125000Y-136352000D01*
X142514000Y-135512000D02*
X144507000Y-135512000D01*
X142757000Y-136032000D02*
X144507000Y-136032000D01*
X142651000Y-135832000D02*
X144507000Y-135832000D01*
X146587000Y-136312000D02*
X148154000Y-136312000D01*
X142940000Y-136312000D02*
X144507000Y-136312000D01*
X146587000Y-135112000D02*
X148697000Y-135112000D01*
X146587000Y-135432000D02*
X148608000Y-135432000D01*
X144745000Y-137552000D02*
X146349000Y-137552000D01*
X146587000Y-136672000D02*
X147852000Y-136672000D01*
X142577000Y-135672000D02*
X144507000Y-135672000D01*
X146587000Y-135592000D02*
X148549000Y-135592000D01*
X146587000Y-135272000D02*
X148657000Y-135272000D01*
X146587000Y-134751000D02*
X148758000Y-134751000D01*
X146587000Y-134871000D02*
X148742000Y-134871000D01*
X143503000Y-136912000D02*
X147591000Y-136912000D01*
X146587000Y-134791000D02*
X148753000Y-134791000D01*
X146587000Y-135031000D02*
X148714000Y-135031000D01*
X146587000Y-135632000D02*
X148533000Y-135632000D01*
X142365000Y-134951000D02*
X144507000Y-134951000D01*
X142831000Y-136152000D02*
X144507000Y-136152000D01*
X142529000Y-135552000D02*
X144507000Y-135552000D01*
X143365000Y-136792000D02*
X147729000Y-136792000D01*
X146587000Y-135472000D02*
X148594000Y-135472000D01*
X146587000Y-136552000D02*
X147963000Y-136552000D01*
X143455000Y-136872000D02*
X147639000Y-136872000D01*
X148817000Y-134391000D02*
G75*
G03*
X148817000Y-134391000I-3270000J0D01*
G01*
X138994800Y-152124359D02*
X138994800Y-152431641D01*
X139754800Y-152124359D02*
X139754800Y-152431641D01*
X144354441Y-153371200D02*
X144047159Y-153371200D01*
X144354441Y-154131200D02*
X144047159Y-154131200D01*
X149559200Y-147450759D02*
X149559200Y-147758041D01*
X148799200Y-147450759D02*
X148799200Y-147758041D01*
X93364500Y-164423742D02*
X93364500Y-164898258D01*
X92319500Y-164423742D02*
X92319500Y-164898258D01*
X146917000Y-126465000D02*
X144177000Y-126465000D01*
X144177000Y-119925000D02*
X146917000Y-119925000D01*
X146917000Y-119925000D02*
X146917000Y-126465000D01*
X145547000Y-119155000D02*
X145547000Y-119925000D01*
X144177000Y-126465000D02*
X144177000Y-119925000D01*
X145547000Y-127235000D02*
X145547000Y-126465000D01*
X100378922Y-122000000D02*
X100896078Y-122000000D01*
X100378922Y-120580000D02*
X100896078Y-120580000D01*
X100378922Y-111840000D02*
X100896078Y-111840000D01*
X100378922Y-110420000D02*
X100896078Y-110420000D01*
D10*
X89667000Y-106050000D02*
X98303000Y-106050000D01*
X89482500Y-106010000D02*
X89482500Y-126410000D01*
X97615000Y-113960000D02*
X97615000Y-118460000D01*
X89482500Y-106010000D02*
X98487500Y-106010000D01*
X89667000Y-108336000D02*
X98303000Y-108336000D01*
X89667000Y-107066000D02*
X98303000Y-107066000D01*
X89667000Y-107828000D02*
X98303000Y-107828000D01*
X89667000Y-106304000D02*
X98303000Y-106304000D01*
D12*
X93985000Y-120020000D02*
X93985000Y-122620000D01*
D10*
X89667000Y-108590000D02*
X98303000Y-108590000D01*
D12*
X91385000Y-121290000D02*
X91385000Y-122620000D01*
X93985000Y-122620000D02*
X96585000Y-122620000D01*
D10*
X98487500Y-118460000D02*
X98487500Y-126410000D01*
X89667000Y-107320000D02*
X98303000Y-107320000D01*
D12*
X91385000Y-109800000D02*
X96585000Y-109800000D01*
X91385000Y-120020000D02*
X91385000Y-109800000D01*
X91385000Y-122620000D02*
X92715000Y-122620000D01*
D10*
X89667000Y-106812000D02*
X98303000Y-106812000D01*
D12*
X97175000Y-122620000D02*
X97175000Y-109800000D01*
D10*
X89482500Y-126410000D02*
X98487500Y-126410000D01*
X98487500Y-106010000D02*
X98487500Y-113960000D01*
X89667000Y-107574000D02*
X98303000Y-107574000D01*
X89667000Y-108844000D02*
X98303000Y-108844000D01*
X89667000Y-108082000D02*
X98303000Y-108082000D01*
D12*
X91385000Y-120020000D02*
X93985000Y-120020000D01*
D10*
X89667000Y-106558000D02*
X98303000Y-106558000D01*
D12*
X150504400Y-147473764D02*
X150504400Y-147689436D01*
X149784400Y-147473764D02*
X149784400Y-147689436D01*
X127026000Y-137879836D02*
X127026000Y-137664164D01*
X127746000Y-137879836D02*
X127746000Y-137664164D01*
X125863000Y-137648359D02*
X125863000Y-137955641D01*
X126623000Y-137648359D02*
X126623000Y-137955641D01*
X100911252Y-118015000D02*
X100388748Y-118015000D01*
X100911252Y-119485000D02*
X100388748Y-119485000D01*
X93456000Y-138697836D02*
X93456000Y-138482164D01*
X92736000Y-138697836D02*
X92736000Y-138482164D01*
X102182964Y-139277600D02*
X102398636Y-139277600D01*
X102182964Y-138557600D02*
X102398636Y-138557600D01*
X125891036Y-89332400D02*
X125675364Y-89332400D01*
X125891036Y-90052400D02*
X125675364Y-90052400D01*
X116892164Y-123216000D02*
X117107836Y-123216000D01*
X116892164Y-123936000D02*
X117107836Y-123936000D01*
X100890164Y-123174000D02*
X101105836Y-123174000D01*
X100890164Y-122454000D02*
X101105836Y-122454000D01*
X101232836Y-109246000D02*
X101017164Y-109246000D01*
X101232836Y-109966000D02*
X101017164Y-109966000D01*
X124105000Y-87936164D02*
X124105000Y-88151836D01*
X124825000Y-87936164D02*
X124825000Y-88151836D01*
X107236400Y-122285600D02*
X109396400Y-122285600D01*
X107236400Y-125445600D02*
X108696400Y-125445600D01*
X107236400Y-122285600D02*
X107236400Y-123215600D01*
X107236400Y-125445600D02*
X107236400Y-124515600D01*
X113259058Y-163591900D02*
X112784542Y-163591900D01*
X113259058Y-164636900D02*
X112784542Y-164636900D01*
X91649200Y-140648041D02*
X91649200Y-140340759D01*
X92409200Y-140648041D02*
X92409200Y-140340759D01*
X153826641Y-86364000D02*
X153519359Y-86364000D01*
X153826641Y-85604000D02*
X153519359Y-85604000D01*
X109732000Y-85320359D02*
X109732000Y-85627641D01*
X108972000Y-85320359D02*
X108972000Y-85627641D01*
X111398500Y-121853342D02*
X111398500Y-122327858D01*
X110353500Y-121853342D02*
X110353500Y-122327858D01*
X110353500Y-125782258D02*
X110353500Y-125307742D01*
X111398500Y-125782258D02*
X111398500Y-125307742D01*
X125581000Y-130136452D02*
X125581000Y-129613948D01*
X124111000Y-130136452D02*
X124111000Y-129613948D01*
X124575258Y-132886900D02*
X124100742Y-132886900D01*
X124575258Y-131841900D02*
X124100742Y-131841900D01*
X126323742Y-88792500D02*
X126798258Y-88792500D01*
X126323742Y-87747500D02*
X126798258Y-87747500D01*
X114976300Y-138032142D02*
X114976300Y-138506658D01*
X116021300Y-138032142D02*
X116021300Y-138506658D01*
X113782500Y-92159742D02*
X113782500Y-92634258D01*
X114827500Y-92159742D02*
X114827500Y-92634258D01*
X115535100Y-133402258D02*
X115535100Y-132927742D01*
X116580100Y-133402258D02*
X116580100Y-132927742D01*
X97497900Y-135983200D02*
X95297900Y-135983200D01*
X97497900Y-141203200D02*
X93897900Y-141203200D01*
X97497900Y-141203200D02*
X99697900Y-141203200D01*
X97497900Y-135983200D02*
X99697900Y-135983200D01*
X93456000Y-136602564D02*
X93456000Y-136818236D01*
X92736000Y-136602564D02*
X92736000Y-136818236D01*
X113780258Y-88792500D02*
X113305742Y-88792500D01*
X113780258Y-87747500D02*
X113305742Y-87747500D01*
M02*
