G04 #@! TF.GenerationSoftware,KiCad,Pcbnew,(6.0.0)*
G04 #@! TF.CreationDate,2022-02-23T18:40:55+01:00*
G04 #@! TF.ProjectId,ad633muliply,61643633-336d-4756-9c69-706c792e6b69,rev?*
G04 #@! TF.SameCoordinates,Original*
G04 #@! TF.FileFunction,Legend,Top*
G04 #@! TF.FilePolarity,Positive*
%FSLAX46Y46*%
G04 Gerber Fmt 4.6, Leading zero omitted, Abs format (unit mm)*
G04 Created by KiCad (PCBNEW (6.0.0)) date 2022-02-23 18:40:55*
%MOMM*%
%LPD*%
G01*
G04 APERTURE LIST*
%ADD10C,0.300000*%
%ADD11C,0.150000*%
%ADD12C,0.120000*%
%ADD13C,0.381000*%
%ADD14C,0.100000*%
%ADD15O,2.800000X3.500000*%
%ADD16C,1.750000*%
G04 APERTURE END LIST*
D10*
X163029428Y-90345571D02*
X163029428Y-88845571D01*
X163029428Y-89417000D02*
X163172285Y-89345571D01*
X163458000Y-89345571D01*
X163600857Y-89417000D01*
X163672285Y-89488428D01*
X163743714Y-89631285D01*
X163743714Y-90059857D01*
X163672285Y-90202714D01*
X163600857Y-90274142D01*
X163458000Y-90345571D01*
X163172285Y-90345571D01*
X163029428Y-90274142D01*
X164386571Y-90345571D02*
X164386571Y-89345571D01*
X164386571Y-88845571D02*
X164315142Y-88917000D01*
X164386571Y-88988428D01*
X164458000Y-88917000D01*
X164386571Y-88845571D01*
X164386571Y-88988428D01*
X149023714Y-89345571D02*
X149023714Y-90345571D01*
X148380857Y-89345571D02*
X148380857Y-90131285D01*
X148452285Y-90274142D01*
X148595142Y-90345571D01*
X148809428Y-90345571D01*
X148952285Y-90274142D01*
X149023714Y-90202714D01*
X149738000Y-89345571D02*
X149738000Y-90345571D01*
X149738000Y-89488428D02*
X149809428Y-89417000D01*
X149952285Y-89345571D01*
X150166571Y-89345571D01*
X150309428Y-89417000D01*
X150380857Y-89559857D01*
X150380857Y-90345571D01*
X151095142Y-90345571D02*
X151095142Y-89345571D01*
X151095142Y-88845571D02*
X151023714Y-88917000D01*
X151095142Y-88988428D01*
X151166571Y-88917000D01*
X151095142Y-88845571D01*
X151095142Y-88988428D01*
D11*
X120742380Y-107367095D02*
X121456666Y-107367095D01*
X121599523Y-107414714D01*
X121694761Y-107509952D01*
X121742380Y-107652809D01*
X121742380Y-107748047D01*
X121742380Y-106414714D02*
X121742380Y-106890904D01*
X120742380Y-106890904D01*
X121647142Y-105509952D02*
X121694761Y-105557571D01*
X121742380Y-105700428D01*
X121742380Y-105795666D01*
X121694761Y-105938523D01*
X121599523Y-106033761D01*
X121504285Y-106081380D01*
X121313809Y-106129000D01*
X121170952Y-106129000D01*
X120980476Y-106081380D01*
X120885238Y-106033761D01*
X120790000Y-105938523D01*
X120742380Y-105795666D01*
X120742380Y-105700428D01*
X120790000Y-105557571D01*
X120837619Y-105509952D01*
X121742380Y-104605190D02*
X121742380Y-105081380D01*
X120742380Y-105081380D01*
X121647142Y-103700428D02*
X121694761Y-103748047D01*
X121742380Y-103890904D01*
X121742380Y-103986142D01*
X121694761Y-104129000D01*
X121599523Y-104224238D01*
X121504285Y-104271857D01*
X121313809Y-104319476D01*
X121170952Y-104319476D01*
X120980476Y-104271857D01*
X120885238Y-104224238D01*
X120790000Y-104129000D01*
X120742380Y-103986142D01*
X120742380Y-103890904D01*
X120790000Y-103748047D01*
X120837619Y-103700428D01*
X120742380Y-102986142D02*
X121456666Y-102986142D01*
X121599523Y-103033761D01*
X121694761Y-103129000D01*
X121742380Y-103271857D01*
X121742380Y-103367095D01*
X121742380Y-102033761D02*
X121742380Y-102509952D01*
X120742380Y-102509952D01*
X121647142Y-101129000D02*
X121694761Y-101176619D01*
X121742380Y-101319476D01*
X121742380Y-101414714D01*
X121694761Y-101557571D01*
X121599523Y-101652809D01*
X121504285Y-101700428D01*
X121313809Y-101748047D01*
X121170952Y-101748047D01*
X120980476Y-101700428D01*
X120885238Y-101652809D01*
X120790000Y-101557571D01*
X120742380Y-101414714D01*
X120742380Y-101319476D01*
X120790000Y-101176619D01*
X120837619Y-101129000D01*
X120742380Y-100414714D02*
X121456666Y-100414714D01*
X121599523Y-100462333D01*
X121694761Y-100557571D01*
X121742380Y-100700428D01*
X121742380Y-100795666D01*
X121742380Y-99462333D02*
X121742380Y-99938523D01*
X120742380Y-99938523D01*
X121647142Y-98557571D02*
X121694761Y-98605190D01*
X121742380Y-98748047D01*
X121742380Y-98843285D01*
X121694761Y-98986142D01*
X121599523Y-99081380D01*
X121504285Y-99129000D01*
X121313809Y-99176619D01*
X121170952Y-99176619D01*
X120980476Y-99129000D01*
X120885238Y-99081380D01*
X120790000Y-98986142D01*
X120742380Y-98843285D01*
X120742380Y-98748047D01*
X120790000Y-98605190D01*
X120837619Y-98557571D01*
X88611428Y-155238666D02*
X89087619Y-155238666D01*
X88516190Y-155524380D02*
X88849523Y-154524380D01*
X89182857Y-155524380D01*
X89516190Y-155524380D02*
X89516190Y-154857714D01*
X89516190Y-154524380D02*
X89468571Y-154572000D01*
X89516190Y-154619619D01*
X89563809Y-154572000D01*
X89516190Y-154524380D01*
X89516190Y-154619619D01*
X89992380Y-154857714D02*
X89992380Y-155524380D01*
X89992380Y-154952952D02*
X90040000Y-154905333D01*
X90135238Y-154857714D01*
X90278095Y-154857714D01*
X90373333Y-154905333D01*
X90420952Y-155000571D01*
X90420952Y-155524380D01*
X119639047Y-155429142D02*
X119591428Y-155476761D01*
X119448571Y-155524380D01*
X119353333Y-155524380D01*
X119210476Y-155476761D01*
X119115238Y-155381523D01*
X119067619Y-155286285D01*
X119020000Y-155095809D01*
X119020000Y-154952952D01*
X119067619Y-154762476D01*
X119115238Y-154667238D01*
X119210476Y-154572000D01*
X119353333Y-154524380D01*
X119448571Y-154524380D01*
X119591428Y-154572000D01*
X119639047Y-154619619D01*
X120067619Y-155524380D02*
X120067619Y-154857714D01*
X120067619Y-154524380D02*
X120020000Y-154572000D01*
X120067619Y-154619619D01*
X120115238Y-154572000D01*
X120067619Y-154524380D01*
X120067619Y-154619619D01*
X120543809Y-154857714D02*
X120543809Y-155524380D01*
X120543809Y-154952952D02*
X120591428Y-154905333D01*
X120686666Y-154857714D01*
X120829523Y-154857714D01*
X120924761Y-154905333D01*
X120972380Y-155000571D01*
X120972380Y-155524380D01*
X134561619Y-155524380D02*
X134561619Y-154524380D01*
X134799714Y-154524380D01*
X134942571Y-154572000D01*
X135037809Y-154667238D01*
X135085428Y-154762476D01*
X135133047Y-154952952D01*
X135133047Y-155095809D01*
X135085428Y-155286285D01*
X135037809Y-155381523D01*
X134942571Y-155476761D01*
X134799714Y-155524380D01*
X134561619Y-155524380D01*
X135561619Y-155524380D02*
X135561619Y-154857714D01*
X135561619Y-154524380D02*
X135514000Y-154572000D01*
X135561619Y-154619619D01*
X135609238Y-154572000D01*
X135561619Y-154524380D01*
X135561619Y-154619619D01*
X136037809Y-154857714D02*
X136037809Y-155524380D01*
X136037809Y-154952952D02*
X136085428Y-154905333D01*
X136180666Y-154857714D01*
X136323523Y-154857714D01*
X136418761Y-154905333D01*
X136466380Y-155000571D01*
X136466380Y-155524380D01*
X129878476Y-165176380D02*
X129783238Y-165128761D01*
X129735619Y-165081142D01*
X129688000Y-164985904D01*
X129688000Y-164700190D01*
X129735619Y-164604952D01*
X129783238Y-164557333D01*
X129878476Y-164509714D01*
X130021333Y-164509714D01*
X130116571Y-164557333D01*
X130164190Y-164604952D01*
X130211809Y-164700190D01*
X130211809Y-164985904D01*
X130164190Y-165081142D01*
X130116571Y-165128761D01*
X130021333Y-165176380D01*
X129878476Y-165176380D01*
X131068952Y-164509714D02*
X131068952Y-165176380D01*
X130640380Y-164509714D02*
X130640380Y-165033523D01*
X130688000Y-165128761D01*
X130783238Y-165176380D01*
X130926095Y-165176380D01*
X131021333Y-165128761D01*
X131068952Y-165081142D01*
X131402285Y-164509714D02*
X131783238Y-164509714D01*
X131545142Y-164176380D02*
X131545142Y-165033523D01*
X131592761Y-165128761D01*
X131688000Y-165176380D01*
X131783238Y-165176380D01*
X114654476Y-165049380D02*
X114559238Y-165001761D01*
X114511619Y-164954142D01*
X114464000Y-164858904D01*
X114464000Y-164573190D01*
X114511619Y-164477952D01*
X114559238Y-164430333D01*
X114654476Y-164382714D01*
X114797333Y-164382714D01*
X114892571Y-164430333D01*
X114940190Y-164477952D01*
X114987809Y-164573190D01*
X114987809Y-164858904D01*
X114940190Y-164954142D01*
X114892571Y-165001761D01*
X114797333Y-165049380D01*
X114654476Y-165049380D01*
X115844952Y-164382714D02*
X115844952Y-165049380D01*
X115416380Y-164382714D02*
X115416380Y-164906523D01*
X115464000Y-165001761D01*
X115559238Y-165049380D01*
X115702095Y-165049380D01*
X115797333Y-165001761D01*
X115844952Y-164954142D01*
X116178285Y-164382714D02*
X116559238Y-164382714D01*
X116321142Y-164049380D02*
X116321142Y-164906523D01*
X116368761Y-165001761D01*
X116464000Y-165049380D01*
X116559238Y-165049380D01*
X116844952Y-164763666D02*
X117321142Y-164763666D01*
X116749714Y-165049380D02*
X117083047Y-164049380D01*
X117416380Y-165049380D01*
X117606857Y-164382714D02*
X117987809Y-164382714D01*
X117749714Y-164049380D02*
X117749714Y-164906523D01*
X117797333Y-165001761D01*
X117892571Y-165049380D01*
X117987809Y-165049380D01*
X118178285Y-164382714D02*
X118559238Y-164382714D01*
X118321142Y-164049380D02*
X118321142Y-164906523D01*
X118368761Y-165001761D01*
X118464000Y-165049380D01*
X118559238Y-165049380D01*
X104160952Y-154746571D02*
X104303809Y-154794190D01*
X104351428Y-154841809D01*
X104399047Y-154937047D01*
X104399047Y-155079904D01*
X104351428Y-155175142D01*
X104303809Y-155222761D01*
X104208571Y-155270380D01*
X103827619Y-155270380D01*
X103827619Y-154270380D01*
X104160952Y-154270380D01*
X104256190Y-154318000D01*
X104303809Y-154365619D01*
X104351428Y-154460857D01*
X104351428Y-154556095D01*
X104303809Y-154651333D01*
X104256190Y-154698952D01*
X104160952Y-154746571D01*
X103827619Y-154746571D01*
X104827619Y-155270380D02*
X104827619Y-154603714D01*
X104827619Y-154270380D02*
X104780000Y-154318000D01*
X104827619Y-154365619D01*
X104875238Y-154318000D01*
X104827619Y-154270380D01*
X104827619Y-154365619D01*
X105303809Y-154603714D02*
X105303809Y-155270380D01*
X105303809Y-154698952D02*
X105351428Y-154651333D01*
X105446666Y-154603714D01*
X105589523Y-154603714D01*
X105684761Y-154651333D01*
X105732380Y-154746571D01*
X105732380Y-155270380D01*
X84547761Y-165176380D02*
X84547761Y-164652571D01*
X84500142Y-164557333D01*
X84404904Y-164509714D01*
X84214428Y-164509714D01*
X84119190Y-164557333D01*
X84547761Y-165128761D02*
X84452523Y-165176380D01*
X84214428Y-165176380D01*
X84119190Y-165128761D01*
X84071571Y-165033523D01*
X84071571Y-164938285D01*
X84119190Y-164843047D01*
X84214428Y-164795428D01*
X84452523Y-164795428D01*
X84547761Y-164747809D01*
X85452523Y-165128761D02*
X85357285Y-165176380D01*
X85166809Y-165176380D01*
X85071571Y-165128761D01*
X85023952Y-165081142D01*
X84976333Y-164985904D01*
X84976333Y-164700190D01*
X85023952Y-164604952D01*
X85071571Y-164557333D01*
X85166809Y-164509714D01*
X85357285Y-164509714D01*
X85452523Y-164557333D01*
X85643000Y-165271619D02*
X86404904Y-165271619D01*
X87166809Y-165176380D02*
X86595380Y-165176380D01*
X86881095Y-165176380D02*
X86881095Y-164176380D01*
X86785857Y-164319238D01*
X86690619Y-164414476D01*
X86595380Y-164462095D01*
X88071571Y-164176380D02*
X87595380Y-164176380D01*
X87547761Y-164652571D01*
X87595380Y-164604952D01*
X87690619Y-164557333D01*
X87928714Y-164557333D01*
X88023952Y-164604952D01*
X88071571Y-164652571D01*
X88119190Y-164747809D01*
X88119190Y-164985904D01*
X88071571Y-165081142D01*
X88023952Y-165128761D01*
X87928714Y-165176380D01*
X87690619Y-165176380D01*
X87595380Y-165128761D01*
X87547761Y-165081142D01*
X88595380Y-165176380D02*
X88785857Y-165176380D01*
X88881095Y-165128761D01*
X88928714Y-165081142D01*
X89023952Y-164938285D01*
X89071571Y-164747809D01*
X89071571Y-164366857D01*
X89023952Y-164271619D01*
X88976333Y-164224000D01*
X88881095Y-164176380D01*
X88690619Y-164176380D01*
X88595380Y-164224000D01*
X88547761Y-164271619D01*
X88500142Y-164366857D01*
X88500142Y-164604952D01*
X88547761Y-164700190D01*
X88595380Y-164747809D01*
X88690619Y-164795428D01*
X88881095Y-164795428D01*
X88976333Y-164747809D01*
X89023952Y-164700190D01*
X89071571Y-164604952D01*
X89262047Y-165271619D02*
X90023952Y-165271619D01*
X90404904Y-165176380D02*
X90309666Y-165128761D01*
X90262047Y-165081142D01*
X90214428Y-164985904D01*
X90214428Y-164700190D01*
X90262047Y-164604952D01*
X90309666Y-164557333D01*
X90404904Y-164509714D01*
X90547761Y-164509714D01*
X90643000Y-164557333D01*
X90690619Y-164604952D01*
X90738238Y-164700190D01*
X90738238Y-164985904D01*
X90690619Y-165081142D01*
X90643000Y-165128761D01*
X90547761Y-165176380D01*
X90404904Y-165176380D01*
X91595380Y-164509714D02*
X91595380Y-165176380D01*
X91166809Y-164509714D02*
X91166809Y-165033523D01*
X91214428Y-165128761D01*
X91309666Y-165176380D01*
X91452523Y-165176380D01*
X91547761Y-165128761D01*
X91595380Y-165081142D01*
X91928714Y-164509714D02*
X92309666Y-164509714D01*
X92071571Y-164176380D02*
X92071571Y-165033523D01*
X92119190Y-165128761D01*
X92214428Y-165176380D01*
X92309666Y-165176380D01*
X95334523Y-144126190D02*
X95334523Y-144602380D01*
X95001190Y-143602380D02*
X95334523Y-144126190D01*
X95667857Y-143602380D01*
X96144047Y-144602380D02*
X96048809Y-144554761D01*
X96001190Y-144507142D01*
X95953571Y-144411904D01*
X95953571Y-144126190D01*
X96001190Y-144030952D01*
X96048809Y-143983333D01*
X96144047Y-143935714D01*
X96286904Y-143935714D01*
X96382142Y-143983333D01*
X96429761Y-144030952D01*
X96477380Y-144126190D01*
X96477380Y-144411904D01*
X96429761Y-144507142D01*
X96382142Y-144554761D01*
X96286904Y-144602380D01*
X96144047Y-144602380D01*
X97334523Y-143935714D02*
X97334523Y-144602380D01*
X96905952Y-143935714D02*
X96905952Y-144459523D01*
X96953571Y-144554761D01*
X97048809Y-144602380D01*
X97191666Y-144602380D01*
X97286904Y-144554761D01*
X97334523Y-144507142D01*
X97667857Y-143935714D02*
X98048809Y-143935714D01*
X97810714Y-143602380D02*
X97810714Y-144459523D01*
X97858333Y-144554761D01*
X97953571Y-144602380D01*
X98048809Y-144602380D01*
X110368190Y-143602380D02*
X111034857Y-143602380D01*
X110368190Y-144602380D01*
X111034857Y-144602380D01*
X111558666Y-144602380D02*
X111463428Y-144554761D01*
X111415809Y-144507142D01*
X111368190Y-144411904D01*
X111368190Y-144126190D01*
X111415809Y-144030952D01*
X111463428Y-143983333D01*
X111558666Y-143935714D01*
X111701523Y-143935714D01*
X111796761Y-143983333D01*
X111844380Y-144030952D01*
X111892000Y-144126190D01*
X111892000Y-144411904D01*
X111844380Y-144507142D01*
X111796761Y-144554761D01*
X111701523Y-144602380D01*
X111558666Y-144602380D01*
X112749142Y-143935714D02*
X112749142Y-144602380D01*
X112320571Y-143935714D02*
X112320571Y-144459523D01*
X112368190Y-144554761D01*
X112463428Y-144602380D01*
X112606285Y-144602380D01*
X112701523Y-144554761D01*
X112749142Y-144507142D01*
X113082476Y-143935714D02*
X113463428Y-143935714D01*
X113225333Y-143602380D02*
X113225333Y-144459523D01*
X113272952Y-144554761D01*
X113368190Y-144602380D01*
X113463428Y-144602380D01*
X81436380Y-152323333D02*
X82150666Y-152323333D01*
X82293523Y-152370952D01*
X82388761Y-152466190D01*
X82436380Y-152609047D01*
X82436380Y-152704285D01*
X82436380Y-151323333D02*
X82436380Y-151894761D01*
X82436380Y-151609047D02*
X81436380Y-151609047D01*
X81579238Y-151704285D01*
X81674476Y-151799523D01*
X81722095Y-151894761D01*
X79380190Y-143602380D02*
X80046857Y-144602380D01*
X80046857Y-143602380D02*
X79380190Y-144602380D01*
X80570666Y-144602380D02*
X80475428Y-144554761D01*
X80427809Y-144507142D01*
X80380190Y-144411904D01*
X80380190Y-144126190D01*
X80427809Y-144030952D01*
X80475428Y-143983333D01*
X80570666Y-143935714D01*
X80713523Y-143935714D01*
X80808761Y-143983333D01*
X80856380Y-144030952D01*
X80904000Y-144126190D01*
X80904000Y-144411904D01*
X80856380Y-144507142D01*
X80808761Y-144554761D01*
X80713523Y-144602380D01*
X80570666Y-144602380D01*
X81761142Y-143935714D02*
X81761142Y-144602380D01*
X81332571Y-143935714D02*
X81332571Y-144459523D01*
X81380190Y-144554761D01*
X81475428Y-144602380D01*
X81618285Y-144602380D01*
X81713523Y-144554761D01*
X81761142Y-144507142D01*
X82094476Y-143935714D02*
X82475428Y-143935714D01*
X82237333Y-143602380D02*
X82237333Y-144459523D01*
X82284952Y-144554761D01*
X82380190Y-144602380D01*
X82475428Y-144602380D01*
X99628952Y-165049380D02*
X99628952Y-164525571D01*
X99581333Y-164430333D01*
X99486095Y-164382714D01*
X99295619Y-164382714D01*
X99200380Y-164430333D01*
X99628952Y-165001761D02*
X99533714Y-165049380D01*
X99295619Y-165049380D01*
X99200380Y-165001761D01*
X99152761Y-164906523D01*
X99152761Y-164811285D01*
X99200380Y-164716047D01*
X99295619Y-164668428D01*
X99533714Y-164668428D01*
X99628952Y-164620809D01*
X100533714Y-165001761D02*
X100438476Y-165049380D01*
X100248000Y-165049380D01*
X100152761Y-165001761D01*
X100105142Y-164954142D01*
X100057523Y-164858904D01*
X100057523Y-164573190D01*
X100105142Y-164477952D01*
X100152761Y-164430333D01*
X100248000Y-164382714D01*
X100438476Y-164382714D01*
X100533714Y-164430333D01*
X100724190Y-165144619D02*
X101486095Y-165144619D01*
X102248000Y-165049380D02*
X101676571Y-165049380D01*
X101962285Y-165049380D02*
X101962285Y-164049380D01*
X101867047Y-164192238D01*
X101771809Y-164287476D01*
X101676571Y-164335095D01*
X103152761Y-164049380D02*
X102676571Y-164049380D01*
X102628952Y-164525571D01*
X102676571Y-164477952D01*
X102771809Y-164430333D01*
X103009904Y-164430333D01*
X103105142Y-164477952D01*
X103152761Y-164525571D01*
X103200380Y-164620809D01*
X103200380Y-164858904D01*
X103152761Y-164954142D01*
X103105142Y-165001761D01*
X103009904Y-165049380D01*
X102771809Y-165049380D01*
X102676571Y-165001761D01*
X102628952Y-164954142D01*
X103390857Y-165144619D02*
X104152761Y-165144619D01*
X104533714Y-165049380D02*
X104438476Y-165001761D01*
X104390857Y-164954142D01*
X104343238Y-164858904D01*
X104343238Y-164573190D01*
X104390857Y-164477952D01*
X104438476Y-164430333D01*
X104533714Y-164382714D01*
X104676571Y-164382714D01*
X104771809Y-164430333D01*
X104819428Y-164477952D01*
X104867047Y-164573190D01*
X104867047Y-164858904D01*
X104819428Y-164954142D01*
X104771809Y-165001761D01*
X104676571Y-165049380D01*
X104533714Y-165049380D01*
X105724190Y-164382714D02*
X105724190Y-165049380D01*
X105295619Y-164382714D02*
X105295619Y-164906523D01*
X105343238Y-165001761D01*
X105438476Y-165049380D01*
X105581333Y-165049380D01*
X105676571Y-165001761D01*
X105724190Y-164954142D01*
X106057523Y-164382714D02*
X106438476Y-164382714D01*
X106200380Y-164049380D02*
X106200380Y-164906523D01*
X106248000Y-165001761D01*
X106343238Y-165049380D01*
X106438476Y-165049380D01*
D12*
X88068000Y-153874000D02*
X77568000Y-153874000D01*
X88848000Y-157954000D02*
X88248000Y-157954000D01*
X88068000Y-157474000D02*
X88068000Y-153874000D01*
X88068000Y-162874000D02*
X88068000Y-159274000D01*
X88848000Y-158794000D02*
X88248000Y-158794000D01*
X77568000Y-157374000D02*
X77568000Y-153874000D01*
X91228000Y-156974000D02*
X90128000Y-156974000D01*
X91228000Y-156974000D02*
X91228000Y-158294000D01*
X77568000Y-162874000D02*
X77568000Y-159374000D01*
X88068000Y-162874000D02*
X77568000Y-162874000D01*
X80672999Y-158374000D02*
G75*
G03*
X86156577Y-159670263I2895001J0D01*
G01*
X86156576Y-157077737D02*
G75*
G03*
X80673000Y-158374000I-2588576J-1296263D01*
G01*
X85368000Y-158374000D02*
G75*
G03*
X85368000Y-158374000I-1800000J0D01*
G01*
X118548000Y-162874000D02*
X118548000Y-159274000D01*
X118548000Y-153874000D02*
X108048000Y-153874000D01*
X118548000Y-162874000D02*
X108048000Y-162874000D01*
X121708000Y-156974000D02*
X120608000Y-156974000D01*
X119328000Y-158794000D02*
X118728000Y-158794000D01*
X121708000Y-156974000D02*
X121708000Y-158294000D01*
X119328000Y-157954000D02*
X118728000Y-157954000D01*
X118548000Y-157474000D02*
X118548000Y-153874000D01*
X108048000Y-162874000D02*
X108048000Y-159374000D01*
X108048000Y-157374000D02*
X108048000Y-153874000D01*
X111152999Y-158374000D02*
G75*
G03*
X116636577Y-159670263I2895001J0D01*
G01*
X116636576Y-157077737D02*
G75*
G03*
X111153000Y-158374000I-2588576J-1296263D01*
G01*
X115848000Y-158374000D02*
G75*
G03*
X115848000Y-158374000I-1800000J0D01*
G01*
D13*
X80476000Y-108769166D02*
X80476000Y-102769166D01*
X80476000Y-102769166D02*
X80476000Y-97769166D01*
X90476000Y-97769166D02*
X90476000Y-108769166D01*
X90476000Y-108769166D02*
X80476000Y-108769166D01*
X80476000Y-97769166D02*
X90476000Y-97769166D01*
X87712068Y-102769166D02*
G75*
G03*
X87712068Y-102769166I-2236068J0D01*
G01*
X90476000Y-135968332D02*
X80476000Y-135968332D01*
X80476000Y-124968332D02*
X90476000Y-124968332D01*
X80476000Y-135968332D02*
X80476000Y-129968332D01*
X90476000Y-124968332D02*
X90476000Y-135968332D01*
X80476000Y-129968332D02*
X80476000Y-124968332D01*
X87712068Y-129968332D02*
G75*
G03*
X87712068Y-129968332I-2236068J0D01*
G01*
X104352000Y-102769166D02*
X104352000Y-97769166D01*
X104352000Y-108769166D02*
X104352000Y-102769166D01*
X104352000Y-97769166D02*
X114352000Y-97769166D01*
X114352000Y-108769166D02*
X104352000Y-108769166D01*
X114352000Y-97769166D02*
X114352000Y-108769166D01*
X111588068Y-102769166D02*
G75*
G03*
X111588068Y-102769166I-2236068J0D01*
G01*
X114352000Y-124968332D02*
X114352000Y-135968332D01*
X114352000Y-135968332D02*
X104352000Y-135968332D01*
X104352000Y-124968332D02*
X114352000Y-124968332D01*
X104352000Y-135968332D02*
X104352000Y-129968332D01*
X104352000Y-129968332D02*
X104352000Y-124968332D01*
X111588068Y-129968332D02*
G75*
G03*
X111588068Y-129968332I-2236068J0D01*
G01*
X128228000Y-102769166D02*
X128228000Y-97769166D01*
X128228000Y-108769166D02*
X128228000Y-102769166D01*
X138228000Y-108769166D02*
X128228000Y-108769166D01*
X128228000Y-97769166D02*
X138228000Y-97769166D01*
X138228000Y-97769166D02*
X138228000Y-108769166D01*
X135464068Y-102769166D02*
G75*
G03*
X135464068Y-102769166I-2236068J0D01*
G01*
X128228000Y-124968332D02*
X138228000Y-124968332D01*
X128228000Y-135968332D02*
X128228000Y-129968332D01*
X138228000Y-135968332D02*
X128228000Y-135968332D01*
X138228000Y-124968332D02*
X138228000Y-135968332D01*
X128228000Y-129968332D02*
X128228000Y-124968332D01*
X135464068Y-129968332D02*
G75*
G03*
X135464068Y-129968332I-2236068J0D01*
G01*
X152104000Y-81570000D02*
X152104000Y-75570000D01*
X162104000Y-81570000D02*
X152104000Y-81570000D01*
X162104000Y-70570000D02*
X162104000Y-81570000D01*
X152104000Y-75570000D02*
X152104000Y-70570000D01*
X152104000Y-70570000D02*
X162104000Y-70570000D01*
X159340068Y-75570000D02*
G75*
G03*
X159340068Y-75570000I-2236068J0D01*
G01*
X152104000Y-108769166D02*
X152104000Y-102769166D01*
X162104000Y-108769166D02*
X152104000Y-108769166D01*
X162104000Y-97769166D02*
X162104000Y-108769166D01*
X152104000Y-102769166D02*
X152104000Y-97769166D01*
X152104000Y-97769166D02*
X162104000Y-97769166D01*
X159340068Y-102769166D02*
G75*
G03*
X159340068Y-102769166I-2236068J0D01*
G01*
X162104000Y-135968332D02*
X152104000Y-135968332D01*
X152104000Y-129968332D02*
X152104000Y-124968332D01*
X152104000Y-124968332D02*
X162104000Y-124968332D01*
X152104000Y-135968332D02*
X152104000Y-129968332D01*
X162104000Y-124968332D02*
X162104000Y-135968332D01*
X159340068Y-129968332D02*
G75*
G03*
X159340068Y-129968332I-2236068J0D01*
G01*
D12*
X134568000Y-158794000D02*
X133968000Y-158794000D01*
X133788000Y-157474000D02*
X133788000Y-153874000D01*
X133788000Y-153874000D02*
X123288000Y-153874000D01*
X133788000Y-162874000D02*
X133788000Y-159274000D01*
X123288000Y-162874000D02*
X123288000Y-159374000D01*
X136948000Y-156974000D02*
X136948000Y-158294000D01*
X136948000Y-156974000D02*
X135848000Y-156974000D01*
X123288000Y-157374000D02*
X123288000Y-153874000D01*
X133788000Y-162874000D02*
X123288000Y-162874000D01*
X134568000Y-157954000D02*
X133968000Y-157954000D01*
X131876576Y-157077737D02*
G75*
G03*
X126393000Y-158374000I-2588576J-1296263D01*
G01*
X126392999Y-158374000D02*
G75*
G03*
X131876577Y-159670263I2895001J0D01*
G01*
X131088000Y-158374000D02*
G75*
G03*
X131088000Y-158374000I-1800000J0D01*
G01*
X125952000Y-169680000D02*
X125952000Y-168360000D01*
X129112000Y-163780000D02*
X129112000Y-167380000D01*
X128332000Y-167860000D02*
X128932000Y-167860000D01*
X125952000Y-169680000D02*
X127052000Y-169680000D01*
X128332000Y-168700000D02*
X128932000Y-168700000D01*
X129112000Y-163780000D02*
X139612000Y-163780000D01*
X129112000Y-169180000D02*
X129112000Y-172780000D01*
X129112000Y-172780000D02*
X139612000Y-172780000D01*
X139612000Y-169280000D02*
X139612000Y-172780000D01*
X139612000Y-163780000D02*
X139612000Y-167280000D01*
X131023424Y-169576263D02*
G75*
G03*
X136507000Y-168280000I2588576J1296263D01*
G01*
X136507001Y-168280000D02*
G75*
G03*
X131023423Y-166983737I-2895001J0D01*
G01*
X135412000Y-168280000D02*
G75*
G03*
X135412000Y-168280000I-1800000J0D01*
G01*
X124372000Y-163780000D02*
X124372000Y-167280000D01*
X113872000Y-172780000D02*
X124372000Y-172780000D01*
X113872000Y-163780000D02*
X124372000Y-163780000D01*
X110712000Y-169680000D02*
X111812000Y-169680000D01*
X110712000Y-169680000D02*
X110712000Y-168360000D01*
X113872000Y-169180000D02*
X113872000Y-172780000D01*
X113872000Y-163780000D02*
X113872000Y-167380000D01*
X113092000Y-167860000D02*
X113692000Y-167860000D01*
X113092000Y-168700000D02*
X113692000Y-168700000D01*
X124372000Y-169280000D02*
X124372000Y-172780000D01*
X121267001Y-168280000D02*
G75*
G03*
X115783423Y-166983737I-2895001J0D01*
G01*
X115783424Y-169576263D02*
G75*
G03*
X121267000Y-168280000I2588576J1296263D01*
G01*
X120172000Y-168280000D02*
G75*
G03*
X120172000Y-168280000I-1800000J0D01*
G01*
X106468000Y-156974000D02*
X105368000Y-156974000D01*
X92808000Y-162874000D02*
X92808000Y-159374000D01*
X106468000Y-156974000D02*
X106468000Y-158294000D01*
X103308000Y-153874000D02*
X92808000Y-153874000D01*
X92808000Y-157374000D02*
X92808000Y-153874000D01*
X104088000Y-158794000D02*
X103488000Y-158794000D01*
X103308000Y-162874000D02*
X92808000Y-162874000D01*
X103308000Y-162874000D02*
X103308000Y-159274000D01*
X103308000Y-157474000D02*
X103308000Y-153874000D01*
X104088000Y-157954000D02*
X103488000Y-157954000D01*
X101396576Y-157077737D02*
G75*
G03*
X95913000Y-158374000I-2588576J-1296263D01*
G01*
X95912999Y-158374000D02*
G75*
G03*
X101396577Y-159670263I2895001J0D01*
G01*
X100608000Y-158374000D02*
G75*
G03*
X100608000Y-158374000I-1800000J0D01*
G01*
D13*
X162104000Y-163165000D02*
X152104000Y-163165000D01*
X162104000Y-152165000D02*
X162104000Y-163165000D01*
X152104000Y-152165000D02*
X162104000Y-152165000D01*
X152104000Y-163165000D02*
X152104000Y-157165000D01*
X152104000Y-157165000D02*
X152104000Y-152165000D01*
X159340068Y-157165000D02*
G75*
G03*
X159340068Y-157165000I-2236068J0D01*
G01*
X138228000Y-81570000D02*
X128228000Y-81570000D01*
X138228000Y-70570000D02*
X138228000Y-81570000D01*
X128228000Y-70570000D02*
X138228000Y-70570000D01*
X128228000Y-75570000D02*
X128228000Y-70570000D01*
X128228000Y-81570000D02*
X128228000Y-75570000D01*
X135464068Y-75570000D02*
G75*
G03*
X135464068Y-75570000I-2236068J0D01*
G01*
X80476000Y-81570000D02*
X80476000Y-75570000D01*
X90476000Y-81570000D02*
X80476000Y-81570000D01*
X80476000Y-70570000D02*
X90476000Y-70570000D01*
X90476000Y-70570000D02*
X90476000Y-81570000D01*
X80476000Y-75570000D02*
X80476000Y-70570000D01*
X87712068Y-75570000D02*
G75*
G03*
X87712068Y-75570000I-2236068J0D01*
G01*
X114352000Y-70570000D02*
X114352000Y-81570000D01*
X104352000Y-81570000D02*
X104352000Y-75570000D01*
X104352000Y-75570000D02*
X104352000Y-70570000D01*
X114352000Y-81570000D02*
X104352000Y-81570000D01*
X104352000Y-70570000D02*
X114352000Y-70570000D01*
X111588068Y-75570000D02*
G75*
G03*
X111588068Y-75570000I-2236068J0D01*
G01*
D12*
X93892000Y-169280000D02*
X93892000Y-172780000D01*
X80232000Y-169680000D02*
X80232000Y-168360000D01*
X93892000Y-163780000D02*
X93892000Y-167280000D01*
X83392000Y-163780000D02*
X93892000Y-163780000D01*
X82612000Y-167860000D02*
X83212000Y-167860000D01*
X83392000Y-169180000D02*
X83392000Y-172780000D01*
X82612000Y-168700000D02*
X83212000Y-168700000D01*
X80232000Y-169680000D02*
X81332000Y-169680000D01*
X83392000Y-163780000D02*
X83392000Y-167380000D01*
X83392000Y-172780000D02*
X93892000Y-172780000D01*
X85303424Y-169576263D02*
G75*
G03*
X90787000Y-168280000I2588576J1296263D01*
G01*
X90787001Y-168280000D02*
G75*
G03*
X85303423Y-166983737I-2895001J0D01*
G01*
X89692000Y-168280000D02*
G75*
G03*
X89692000Y-168280000I-1800000J0D01*
G01*
D11*
X137728000Y-88044000D02*
X137978000Y-88044000D01*
X128728000Y-91544000D02*
X128728000Y-88044000D01*
X137978000Y-91544000D02*
X137728000Y-91544000D01*
X128478000Y-88044000D02*
X128478000Y-87294000D01*
X137728000Y-88294000D02*
X137728000Y-88044000D01*
X128478000Y-91544000D02*
X128728000Y-91544000D01*
X137978000Y-92294000D02*
X137978000Y-91544000D01*
X128478000Y-92294000D02*
X128478000Y-91544000D01*
X137978000Y-87294000D02*
X128478000Y-87294000D01*
X128478000Y-92294000D02*
X137978000Y-92294000D01*
X128728000Y-88044000D02*
X128478000Y-88044000D01*
X137728000Y-91544000D02*
X137728000Y-90794000D01*
X137728000Y-90794000D02*
X137728000Y-88294000D01*
X137978000Y-88044000D02*
X137978000Y-87294000D01*
D14*
X137978000Y-90794000D02*
X137728000Y-90794000D01*
X137728000Y-90794000D02*
X137728000Y-88794000D01*
X137728000Y-88794000D02*
X137978000Y-88794000D01*
X137978000Y-88794000D02*
X137978000Y-90794000D01*
G36*
X137978000Y-90794000D02*
G01*
X137728000Y-90794000D01*
X137728000Y-88794000D01*
X137978000Y-88794000D01*
X137978000Y-90794000D01*
G37*
X137978000Y-90794000D02*
X137728000Y-90794000D01*
X137728000Y-88794000D01*
X137978000Y-88794000D01*
X137978000Y-90794000D01*
X137228000Y-87294000D02*
X129228000Y-87294000D01*
X129228000Y-87294000D02*
X129228000Y-86544000D01*
X129228000Y-86544000D02*
X137228000Y-86544000D01*
X137228000Y-86544000D02*
X137228000Y-87294000D01*
G36*
X137228000Y-87294000D02*
G01*
X129228000Y-87294000D01*
X129228000Y-86544000D01*
X137228000Y-86544000D01*
X137228000Y-87294000D01*
G37*
X137228000Y-87294000D02*
X129228000Y-87294000D01*
X129228000Y-86544000D01*
X137228000Y-86544000D01*
X137228000Y-87294000D01*
X128728000Y-90794000D02*
X128478000Y-90794000D01*
X128478000Y-90794000D02*
X128478000Y-88794000D01*
X128478000Y-88794000D02*
X128728000Y-88794000D01*
X128728000Y-88794000D02*
X128728000Y-90794000D01*
G36*
X128728000Y-90794000D02*
G01*
X128478000Y-90794000D01*
X128478000Y-88794000D01*
X128728000Y-88794000D01*
X128728000Y-90794000D01*
G37*
X128728000Y-90794000D02*
X128478000Y-90794000D01*
X128478000Y-88794000D01*
X128728000Y-88794000D01*
X128728000Y-90794000D01*
X137228000Y-93044000D02*
X129228000Y-93044000D01*
X129228000Y-93044000D02*
X129228000Y-92294000D01*
X129228000Y-92294000D02*
X137228000Y-92294000D01*
X137228000Y-92294000D02*
X137228000Y-93044000D01*
G36*
X137228000Y-93044000D02*
G01*
X129228000Y-93044000D01*
X129228000Y-92294000D01*
X137228000Y-92294000D01*
X137228000Y-93044000D01*
G37*
X137228000Y-93044000D02*
X129228000Y-93044000D01*
X129228000Y-92294000D01*
X137228000Y-92294000D01*
X137228000Y-93044000D01*
D11*
X137728000Y-118468000D02*
X137728000Y-117718000D01*
X128478000Y-119218000D02*
X137978000Y-119218000D01*
X128478000Y-119218000D02*
X128478000Y-118468000D01*
X137978000Y-114218000D02*
X128478000Y-114218000D01*
X137728000Y-114968000D02*
X137978000Y-114968000D01*
X128478000Y-118468000D02*
X128728000Y-118468000D01*
X137978000Y-119218000D02*
X137978000Y-118468000D01*
X128728000Y-118468000D02*
X128728000Y-114968000D01*
X128728000Y-114968000D02*
X128478000Y-114968000D01*
X128478000Y-114968000D02*
X128478000Y-114218000D01*
X137728000Y-115218000D02*
X137728000Y-114968000D01*
X137978000Y-118468000D02*
X137728000Y-118468000D01*
X137978000Y-114968000D02*
X137978000Y-114218000D01*
X137728000Y-117718000D02*
X137728000Y-115218000D01*
D14*
X137978000Y-117718000D02*
X137728000Y-117718000D01*
X137728000Y-117718000D02*
X137728000Y-115718000D01*
X137728000Y-115718000D02*
X137978000Y-115718000D01*
X137978000Y-115718000D02*
X137978000Y-117718000D01*
G36*
X137978000Y-117718000D02*
G01*
X137728000Y-117718000D01*
X137728000Y-115718000D01*
X137978000Y-115718000D01*
X137978000Y-117718000D01*
G37*
X137978000Y-117718000D02*
X137728000Y-117718000D01*
X137728000Y-115718000D01*
X137978000Y-115718000D01*
X137978000Y-117718000D01*
X128728000Y-117718000D02*
X128478000Y-117718000D01*
X128478000Y-117718000D02*
X128478000Y-115718000D01*
X128478000Y-115718000D02*
X128728000Y-115718000D01*
X128728000Y-115718000D02*
X128728000Y-117718000D01*
G36*
X128728000Y-117718000D02*
G01*
X128478000Y-117718000D01*
X128478000Y-115718000D01*
X128728000Y-115718000D01*
X128728000Y-117718000D01*
G37*
X128728000Y-117718000D02*
X128478000Y-117718000D01*
X128478000Y-115718000D01*
X128728000Y-115718000D01*
X128728000Y-117718000D01*
X137228000Y-114218000D02*
X129228000Y-114218000D01*
X129228000Y-114218000D02*
X129228000Y-113468000D01*
X129228000Y-113468000D02*
X137228000Y-113468000D01*
X137228000Y-113468000D02*
X137228000Y-114218000D01*
G36*
X137228000Y-114218000D02*
G01*
X129228000Y-114218000D01*
X129228000Y-113468000D01*
X137228000Y-113468000D01*
X137228000Y-114218000D01*
G37*
X137228000Y-114218000D02*
X129228000Y-114218000D01*
X129228000Y-113468000D01*
X137228000Y-113468000D01*
X137228000Y-114218000D01*
X137228000Y-119968000D02*
X129228000Y-119968000D01*
X129228000Y-119968000D02*
X129228000Y-119218000D01*
X129228000Y-119218000D02*
X137228000Y-119218000D01*
X137228000Y-119218000D02*
X137228000Y-119968000D01*
G36*
X137228000Y-119968000D02*
G01*
X129228000Y-119968000D01*
X129228000Y-119218000D01*
X137228000Y-119218000D01*
X137228000Y-119968000D01*
G37*
X137228000Y-119968000D02*
X129228000Y-119968000D01*
X129228000Y-119218000D01*
X137228000Y-119218000D01*
X137228000Y-119968000D01*
D11*
X137728000Y-145150000D02*
X137728000Y-142650000D01*
X128478000Y-142400000D02*
X128478000Y-141650000D01*
X137728000Y-145900000D02*
X137728000Y-145150000D01*
X137978000Y-145900000D02*
X137728000Y-145900000D01*
X128728000Y-142400000D02*
X128478000Y-142400000D01*
X137728000Y-142400000D02*
X137978000Y-142400000D01*
X128478000Y-145900000D02*
X128728000Y-145900000D01*
X128728000Y-145900000D02*
X128728000Y-142400000D01*
X128478000Y-146650000D02*
X128478000Y-145900000D01*
X137978000Y-142400000D02*
X137978000Y-141650000D01*
X137728000Y-142650000D02*
X137728000Y-142400000D01*
X137978000Y-141650000D02*
X128478000Y-141650000D01*
X137978000Y-146650000D02*
X137978000Y-145900000D01*
X128478000Y-146650000D02*
X137978000Y-146650000D01*
D14*
X137228000Y-147400000D02*
X129228000Y-147400000D01*
X129228000Y-147400000D02*
X129228000Y-146650000D01*
X129228000Y-146650000D02*
X137228000Y-146650000D01*
X137228000Y-146650000D02*
X137228000Y-147400000D01*
G36*
X137228000Y-147400000D02*
G01*
X129228000Y-147400000D01*
X129228000Y-146650000D01*
X137228000Y-146650000D01*
X137228000Y-147400000D01*
G37*
X137228000Y-147400000D02*
X129228000Y-147400000D01*
X129228000Y-146650000D01*
X137228000Y-146650000D01*
X137228000Y-147400000D01*
X137978000Y-145150000D02*
X137728000Y-145150000D01*
X137728000Y-145150000D02*
X137728000Y-143150000D01*
X137728000Y-143150000D02*
X137978000Y-143150000D01*
X137978000Y-143150000D02*
X137978000Y-145150000D01*
G36*
X137978000Y-145150000D02*
G01*
X137728000Y-145150000D01*
X137728000Y-143150000D01*
X137978000Y-143150000D01*
X137978000Y-145150000D01*
G37*
X137978000Y-145150000D02*
X137728000Y-145150000D01*
X137728000Y-143150000D01*
X137978000Y-143150000D01*
X137978000Y-145150000D01*
X128728000Y-145150000D02*
X128478000Y-145150000D01*
X128478000Y-145150000D02*
X128478000Y-143150000D01*
X128478000Y-143150000D02*
X128728000Y-143150000D01*
X128728000Y-143150000D02*
X128728000Y-145150000D01*
G36*
X128728000Y-145150000D02*
G01*
X128478000Y-145150000D01*
X128478000Y-143150000D01*
X128728000Y-143150000D01*
X128728000Y-145150000D01*
G37*
X128728000Y-145150000D02*
X128478000Y-145150000D01*
X128478000Y-143150000D01*
X128728000Y-143150000D01*
X128728000Y-145150000D01*
X137228000Y-141650000D02*
X129228000Y-141650000D01*
X129228000Y-141650000D02*
X129228000Y-140900000D01*
X129228000Y-140900000D02*
X137228000Y-140900000D01*
X137228000Y-140900000D02*
X137228000Y-141650000D01*
G36*
X137228000Y-141650000D02*
G01*
X129228000Y-141650000D01*
X129228000Y-140900000D01*
X137228000Y-140900000D01*
X137228000Y-141650000D01*
G37*
X137228000Y-141650000D02*
X129228000Y-141650000D01*
X129228000Y-140900000D01*
X137228000Y-140900000D01*
X137228000Y-141650000D01*
D11*
X152354000Y-91544000D02*
X152604000Y-91544000D01*
X161854000Y-91544000D02*
X161604000Y-91544000D01*
X161604000Y-88294000D02*
X161604000Y-88044000D01*
X161604000Y-88044000D02*
X161854000Y-88044000D01*
X161854000Y-88044000D02*
X161854000Y-87294000D01*
X152354000Y-88044000D02*
X152354000Y-87294000D01*
X161854000Y-92294000D02*
X161854000Y-91544000D01*
X152354000Y-92294000D02*
X152354000Y-91544000D01*
X161604000Y-91544000D02*
X161604000Y-90794000D01*
X152604000Y-91544000D02*
X152604000Y-88044000D01*
X161854000Y-87294000D02*
X152354000Y-87294000D01*
X152604000Y-88044000D02*
X152354000Y-88044000D01*
X161604000Y-90794000D02*
X161604000Y-88294000D01*
X152354000Y-92294000D02*
X161854000Y-92294000D01*
D14*
X161854000Y-90794000D02*
X161604000Y-90794000D01*
X161604000Y-90794000D02*
X161604000Y-88794000D01*
X161604000Y-88794000D02*
X161854000Y-88794000D01*
X161854000Y-88794000D02*
X161854000Y-90794000D01*
G36*
X161854000Y-90794000D02*
G01*
X161604000Y-90794000D01*
X161604000Y-88794000D01*
X161854000Y-88794000D01*
X161854000Y-90794000D01*
G37*
X161854000Y-90794000D02*
X161604000Y-90794000D01*
X161604000Y-88794000D01*
X161854000Y-88794000D01*
X161854000Y-90794000D01*
X152604000Y-90794000D02*
X152354000Y-90794000D01*
X152354000Y-90794000D02*
X152354000Y-88794000D01*
X152354000Y-88794000D02*
X152604000Y-88794000D01*
X152604000Y-88794000D02*
X152604000Y-90794000D01*
G36*
X152604000Y-90794000D02*
G01*
X152354000Y-90794000D01*
X152354000Y-88794000D01*
X152604000Y-88794000D01*
X152604000Y-90794000D01*
G37*
X152604000Y-90794000D02*
X152354000Y-90794000D01*
X152354000Y-88794000D01*
X152604000Y-88794000D01*
X152604000Y-90794000D01*
X161104000Y-87294000D02*
X153104000Y-87294000D01*
X153104000Y-87294000D02*
X153104000Y-86544000D01*
X153104000Y-86544000D02*
X161104000Y-86544000D01*
X161104000Y-86544000D02*
X161104000Y-87294000D01*
G36*
X161104000Y-87294000D02*
G01*
X153104000Y-87294000D01*
X153104000Y-86544000D01*
X161104000Y-86544000D01*
X161104000Y-87294000D01*
G37*
X161104000Y-87294000D02*
X153104000Y-87294000D01*
X153104000Y-86544000D01*
X161104000Y-86544000D01*
X161104000Y-87294000D01*
X161104000Y-93044000D02*
X153104000Y-93044000D01*
X153104000Y-93044000D02*
X153104000Y-92294000D01*
X153104000Y-92294000D02*
X161104000Y-92294000D01*
X161104000Y-92294000D02*
X161104000Y-93044000D01*
G36*
X161104000Y-93044000D02*
G01*
X153104000Y-93044000D01*
X153104000Y-92294000D01*
X161104000Y-92294000D01*
X161104000Y-93044000D01*
G37*
X161104000Y-93044000D02*
X153104000Y-93044000D01*
X153104000Y-92294000D01*
X161104000Y-92294000D01*
X161104000Y-93044000D01*
D11*
X152354000Y-119218000D02*
X152354000Y-118468000D01*
X152354000Y-118468000D02*
X152604000Y-118468000D01*
X161854000Y-114218000D02*
X152354000Y-114218000D01*
X161604000Y-115218000D02*
X161604000Y-114968000D01*
X152354000Y-119218000D02*
X161854000Y-119218000D01*
X161854000Y-118468000D02*
X161604000Y-118468000D01*
X161604000Y-114968000D02*
X161854000Y-114968000D01*
X152354000Y-114968000D02*
X152354000Y-114218000D01*
X161854000Y-114968000D02*
X161854000Y-114218000D01*
X161604000Y-117718000D02*
X161604000Y-115218000D01*
X152604000Y-118468000D02*
X152604000Y-114968000D01*
X161854000Y-119218000D02*
X161854000Y-118468000D01*
X161604000Y-118468000D02*
X161604000Y-117718000D01*
X152604000Y-114968000D02*
X152354000Y-114968000D01*
D14*
X161104000Y-119968000D02*
X153104000Y-119968000D01*
X153104000Y-119968000D02*
X153104000Y-119218000D01*
X153104000Y-119218000D02*
X161104000Y-119218000D01*
X161104000Y-119218000D02*
X161104000Y-119968000D01*
G36*
X161104000Y-119968000D02*
G01*
X153104000Y-119968000D01*
X153104000Y-119218000D01*
X161104000Y-119218000D01*
X161104000Y-119968000D01*
G37*
X161104000Y-119968000D02*
X153104000Y-119968000D01*
X153104000Y-119218000D01*
X161104000Y-119218000D01*
X161104000Y-119968000D01*
X152604000Y-117718000D02*
X152354000Y-117718000D01*
X152354000Y-117718000D02*
X152354000Y-115718000D01*
X152354000Y-115718000D02*
X152604000Y-115718000D01*
X152604000Y-115718000D02*
X152604000Y-117718000D01*
G36*
X152604000Y-117718000D02*
G01*
X152354000Y-117718000D01*
X152354000Y-115718000D01*
X152604000Y-115718000D01*
X152604000Y-117718000D01*
G37*
X152604000Y-117718000D02*
X152354000Y-117718000D01*
X152354000Y-115718000D01*
X152604000Y-115718000D01*
X152604000Y-117718000D01*
X161854000Y-117718000D02*
X161604000Y-117718000D01*
X161604000Y-117718000D02*
X161604000Y-115718000D01*
X161604000Y-115718000D02*
X161854000Y-115718000D01*
X161854000Y-115718000D02*
X161854000Y-117718000D01*
G36*
X161854000Y-117718000D02*
G01*
X161604000Y-117718000D01*
X161604000Y-115718000D01*
X161854000Y-115718000D01*
X161854000Y-117718000D01*
G37*
X161854000Y-117718000D02*
X161604000Y-117718000D01*
X161604000Y-115718000D01*
X161854000Y-115718000D01*
X161854000Y-117718000D01*
X161104000Y-114218000D02*
X153104000Y-114218000D01*
X153104000Y-114218000D02*
X153104000Y-113468000D01*
X153104000Y-113468000D02*
X161104000Y-113468000D01*
X161104000Y-113468000D02*
X161104000Y-114218000D01*
G36*
X161104000Y-114218000D02*
G01*
X153104000Y-114218000D01*
X153104000Y-113468000D01*
X161104000Y-113468000D01*
X161104000Y-114218000D01*
G37*
X161104000Y-114218000D02*
X153104000Y-114218000D01*
X153104000Y-113468000D01*
X161104000Y-113468000D01*
X161104000Y-114218000D01*
D11*
X161604000Y-142400000D02*
X161854000Y-142400000D01*
X161854000Y-141650000D02*
X152354000Y-141650000D01*
X161604000Y-145900000D02*
X161604000Y-145150000D01*
X161854000Y-145900000D02*
X161604000Y-145900000D01*
X161604000Y-142650000D02*
X161604000Y-142400000D01*
X152354000Y-142400000D02*
X152354000Y-141650000D01*
X161854000Y-142400000D02*
X161854000Y-141650000D01*
X152354000Y-146650000D02*
X152354000Y-145900000D01*
X161854000Y-146650000D02*
X161854000Y-145900000D01*
X161604000Y-145150000D02*
X161604000Y-142650000D01*
X152354000Y-146650000D02*
X161854000Y-146650000D01*
X152354000Y-145900000D02*
X152604000Y-145900000D01*
X152604000Y-142400000D02*
X152354000Y-142400000D01*
X152604000Y-145900000D02*
X152604000Y-142400000D01*
D14*
X152604000Y-145150000D02*
X152354000Y-145150000D01*
X152354000Y-145150000D02*
X152354000Y-143150000D01*
X152354000Y-143150000D02*
X152604000Y-143150000D01*
X152604000Y-143150000D02*
X152604000Y-145150000D01*
G36*
X152604000Y-145150000D02*
G01*
X152354000Y-145150000D01*
X152354000Y-143150000D01*
X152604000Y-143150000D01*
X152604000Y-145150000D01*
G37*
X152604000Y-145150000D02*
X152354000Y-145150000D01*
X152354000Y-143150000D01*
X152604000Y-143150000D01*
X152604000Y-145150000D01*
X161104000Y-147400000D02*
X153104000Y-147400000D01*
X153104000Y-147400000D02*
X153104000Y-146650000D01*
X153104000Y-146650000D02*
X161104000Y-146650000D01*
X161104000Y-146650000D02*
X161104000Y-147400000D01*
G36*
X161104000Y-147400000D02*
G01*
X153104000Y-147400000D01*
X153104000Y-146650000D01*
X161104000Y-146650000D01*
X161104000Y-147400000D01*
G37*
X161104000Y-147400000D02*
X153104000Y-147400000D01*
X153104000Y-146650000D01*
X161104000Y-146650000D01*
X161104000Y-147400000D01*
X161854000Y-145150000D02*
X161604000Y-145150000D01*
X161604000Y-145150000D02*
X161604000Y-143150000D01*
X161604000Y-143150000D02*
X161854000Y-143150000D01*
X161854000Y-143150000D02*
X161854000Y-145150000D01*
G36*
X161854000Y-145150000D02*
G01*
X161604000Y-145150000D01*
X161604000Y-143150000D01*
X161854000Y-143150000D01*
X161854000Y-145150000D01*
G37*
X161854000Y-145150000D02*
X161604000Y-145150000D01*
X161604000Y-143150000D01*
X161854000Y-143150000D01*
X161854000Y-145150000D01*
X161104000Y-141650000D02*
X153104000Y-141650000D01*
X153104000Y-141650000D02*
X153104000Y-140900000D01*
X153104000Y-140900000D02*
X161104000Y-140900000D01*
X161104000Y-140900000D02*
X161104000Y-141650000D01*
G36*
X161104000Y-141650000D02*
G01*
X153104000Y-141650000D01*
X153104000Y-140900000D01*
X161104000Y-140900000D01*
X161104000Y-141650000D01*
G37*
X161104000Y-141650000D02*
X153104000Y-141650000D01*
X153104000Y-140900000D01*
X161104000Y-140900000D01*
X161104000Y-141650000D01*
D12*
X97598000Y-148380000D02*
X98198000Y-148380000D01*
X98378000Y-143460000D02*
X108878000Y-143460000D01*
X97598000Y-147540000D02*
X98198000Y-147540000D01*
X108878000Y-143460000D02*
X108878000Y-146960000D01*
X108878000Y-148960000D02*
X108878000Y-152460000D01*
X98378000Y-143460000D02*
X98378000Y-147060000D01*
X95218000Y-149360000D02*
X96318000Y-149360000D01*
X98378000Y-152460000D02*
X108878000Y-152460000D01*
X95218000Y-149360000D02*
X95218000Y-148040000D01*
X98378000Y-148860000D02*
X98378000Y-152460000D01*
X100289424Y-149256263D02*
G75*
G03*
X105773000Y-147960000I2588576J1296263D01*
G01*
X105773001Y-147960000D02*
G75*
G03*
X100289423Y-146663737I-2895001J0D01*
G01*
X104678000Y-147960000D02*
G75*
G03*
X104678000Y-147960000I-1800000J0D01*
G01*
X113092000Y-147540000D02*
X113692000Y-147540000D01*
X124372000Y-143460000D02*
X124372000Y-146960000D01*
X113872000Y-143460000D02*
X113872000Y-147060000D01*
X110712000Y-149360000D02*
X110712000Y-148040000D01*
X113872000Y-152460000D02*
X124372000Y-152460000D01*
X110712000Y-149360000D02*
X111812000Y-149360000D01*
X113092000Y-148380000D02*
X113692000Y-148380000D01*
X113872000Y-143460000D02*
X124372000Y-143460000D01*
X113872000Y-148860000D02*
X113872000Y-152460000D01*
X124372000Y-148960000D02*
X124372000Y-152460000D01*
X115783424Y-149256263D02*
G75*
G03*
X121267000Y-147960000I2588576J1296263D01*
G01*
X121267001Y-147960000D02*
G75*
G03*
X115783423Y-146663737I-2895001J0D01*
G01*
X120172000Y-147960000D02*
G75*
G03*
X120172000Y-147960000I-1800000J0D01*
G01*
X82884000Y-143460000D02*
X93384000Y-143460000D01*
X82884000Y-143460000D02*
X82884000Y-147060000D01*
X82884000Y-152460000D02*
X93384000Y-152460000D01*
X82884000Y-148860000D02*
X82884000Y-152460000D01*
X79724000Y-149360000D02*
X79724000Y-148040000D01*
X79724000Y-149360000D02*
X80824000Y-149360000D01*
X93384000Y-148960000D02*
X93384000Y-152460000D01*
X82104000Y-147540000D02*
X82704000Y-147540000D01*
X82104000Y-148380000D02*
X82704000Y-148380000D01*
X93384000Y-143460000D02*
X93384000Y-146960000D01*
X90279001Y-147960000D02*
G75*
G03*
X84795423Y-146663737I-2895001J0D01*
G01*
X84795424Y-149256263D02*
G75*
G03*
X90279000Y-147960000I2588576J1296263D01*
G01*
X89184000Y-147960000D02*
G75*
G03*
X89184000Y-147960000I-1800000J0D01*
G01*
X98632000Y-163780000D02*
X109132000Y-163780000D01*
X98632000Y-169180000D02*
X98632000Y-172780000D01*
X95472000Y-169680000D02*
X96572000Y-169680000D01*
X95472000Y-169680000D02*
X95472000Y-168360000D01*
X109132000Y-169280000D02*
X109132000Y-172780000D01*
X98632000Y-172780000D02*
X109132000Y-172780000D01*
X97852000Y-167860000D02*
X98452000Y-167860000D01*
X97852000Y-168700000D02*
X98452000Y-168700000D01*
X98632000Y-163780000D02*
X98632000Y-167380000D01*
X109132000Y-163780000D02*
X109132000Y-167280000D01*
X100543424Y-169576263D02*
G75*
G03*
X106027000Y-168280000I2588576J1296263D01*
G01*
X106027001Y-168280000D02*
G75*
G03*
X100543423Y-166983737I-2895001J0D01*
G01*
X104932000Y-168280000D02*
G75*
G03*
X104932000Y-168280000I-1800000J0D01*
G01*
D15*
X80676000Y-102769166D03*
X90276000Y-102769166D03*
D16*
X82976000Y-110269166D03*
X85476000Y-110269166D03*
X87976000Y-110269166D03*
D15*
X90276000Y-129968332D03*
X80676000Y-129968332D03*
D16*
X82976000Y-137468332D03*
X85476000Y-137468332D03*
X87976000Y-137468332D03*
D15*
X114152000Y-102769166D03*
X104552000Y-102769166D03*
D16*
X106852000Y-110269166D03*
X109352000Y-110269166D03*
X111852000Y-110269166D03*
D15*
X104552000Y-129968332D03*
X114152000Y-129968332D03*
D16*
X106852000Y-137468332D03*
X109352000Y-137468332D03*
X111852000Y-137468332D03*
D15*
X128428000Y-102769166D03*
X138028000Y-102769166D03*
D16*
X130728000Y-110269166D03*
X133228000Y-110269166D03*
X135728000Y-110269166D03*
D15*
X128428000Y-129968332D03*
X138028000Y-129968332D03*
D16*
X130728000Y-137468332D03*
X133228000Y-137468332D03*
X135728000Y-137468332D03*
D15*
X161904000Y-75570000D03*
X152304000Y-75570000D03*
D16*
X154604000Y-83070000D03*
X157104000Y-83070000D03*
X159604000Y-83070000D03*
D15*
X152304000Y-102769166D03*
X161904000Y-102769166D03*
D16*
X154604000Y-110269166D03*
X157104000Y-110269166D03*
X159604000Y-110269166D03*
D15*
X161904000Y-129968332D03*
X152304000Y-129968332D03*
D16*
X154604000Y-137468332D03*
X157104000Y-137468332D03*
X159604000Y-137468332D03*
D15*
X161904000Y-157165000D03*
X152304000Y-157165000D03*
D16*
X154604000Y-164665000D03*
X157104000Y-164665000D03*
X159604000Y-164665000D03*
D15*
X128428000Y-75570000D03*
X138028000Y-75570000D03*
D16*
X130728000Y-83070000D03*
X133228000Y-83070000D03*
X135728000Y-83070000D03*
D15*
X80676000Y-75570000D03*
X90276000Y-75570000D03*
D16*
X82976000Y-83070000D03*
X85476000Y-83070000D03*
X87976000Y-83070000D03*
D15*
X104552000Y-75570000D03*
X114152000Y-75570000D03*
D16*
X106852000Y-83070000D03*
X109352000Y-83070000D03*
X111852000Y-83070000D03*
M02*
