M48
; DRILL file {KiCad (6.0.0)} date Wed Feb 23 18:41:02 2022
; FORMAT={-:-/ absolute / metric / decimal}
; #@! TF.CreationDate,2022-02-23T18:41:02+01:00
; #@! TF.GenerationSoftware,Kicad,Pcbnew,(6.0.0)
; #@! TF.FileFunction,Plated,1,4,PTH
FMAT,2
METRIC
; #@! TA.AperFunction,Plated,PTH,ViaDrill
T1C0.400
; #@! TA.AperFunction,Plated,PTH,ViaDrill
T2C0.450
; #@! TA.AperFunction,Plated,PTH,ComponentDrill
T3C0.762
; #@! TA.AperFunction,Plated,PTH,ComponentDrill
T4C0.800
; #@! TA.AperFunction,Plated,PTH,ComponentDrill
T5C1.000
; #@! TA.AperFunction,Plated,PTH,ComponentDrill
T6C2.200
%
G90
G05
T1
X121.138Y-132.415
X123.195Y-131.069
T2
X80.777Y-155.072
X90.175Y-112.4
X90.175Y-114.94
X90.175Y-117.48
X90.175Y-119.766
X92.08Y-138.943
X94.493Y-154.945
X94.62Y-133.736
X95.026Y-134.65
X95.509Y-162.819
X95.509Y-163.835
X97.541Y-145.039
X98.049Y-145.928
X99.954Y-105.288
X99.954Y-106.558
X100.843Y-116.591
X101.811Y-115.425
X101.811Y-116.233
X101.811Y-117.046
X101.811Y-138.077
X102.875Y-115.702
X103.256Y-105.288
X103.256Y-106.558
X103.764Y-138.943
X105.288Y-135.514
X107.574Y-154.691
X109.504Y-126.37
X112.4Y-92.588
X112.4Y-141.864
X112.781Y-89.413
X112.781Y-91.572
X113.162Y-142.626
X114.432Y-96.906
X114.686Y-89.54
X114.94Y-121.29
X115.067Y-119.766
X115.448Y-122.306
X115.448Y-123.576
X115.702Y-93.35
X115.765Y-97.224
X115.956Y-121.29
X116.21Y-135.26
X116.464Y-124.592
X117.48Y-126.751
X118.115Y-139.197
X118.623Y-90.556
X118.75Y-140.086
X119.512Y-126.751
X120.02Y-91.699
X120.274Y-134.625
X120.274Y-136.53
X120.401Y-133.609
X120.909Y-137.419
X120.909Y-138.562
X120.972Y-92.016
X121.417Y-131.45
X121.493Y-89.286
X123.322Y-128.91
X124.084Y-155.199
X124.338Y-90.505
X124.44Y-89.489
X124.465Y-93.35
X126.268Y-90.556
X127.386Y-122.306
X127.386Y-134.752
X127.513Y-139.324
X128.91Y-144.023
X129.164Y-143.007
X129.799Y-133.99
X138.669Y-150.8
X140.238Y-150.856
X140.543Y-149.89
X141.762Y-153.497
X142.22Y-154.412
X149.128Y-149.89
X149.23Y-146.182
X149.89Y-149.128
X151.262Y-144.023
X151.313Y-147.071
X151.77Y-144.912
X152.278Y-147.452
X153.294Y-153.548
T3
X130.688Y-89.794
X130.688Y-116.718
X130.688Y-144.15
X133.228Y-89.794
X133.228Y-116.718
X133.228Y-144.15
X135.768Y-89.794
X135.768Y-116.718
X135.768Y-144.15
X154.564Y-89.794
X154.564Y-116.718
X154.564Y-144.15
X157.104Y-89.794
X157.104Y-116.718
X157.104Y-144.15
X159.644Y-89.794
X159.644Y-116.718
X159.644Y-144.15
T4
X117.48Y-113.67
X117.48Y-121.29
X120.02Y-113.67
X120.02Y-121.29
X122.56Y-113.67
X122.56Y-121.29
X125.1Y-113.67
X125.1Y-121.29
X145.547Y-118.115
X145.547Y-128.275
X145.547Y-133.141
X145.547Y-135.641
T5
X78.648Y-158.374
X80.904Y-147.96
X81.412Y-168.28
X82.976Y-83.07
X82.976Y-110.269
X82.976Y-137.468
X84.004Y-147.96
X84.512Y-168.28
X85.476Y-83.07
X85.476Y-110.269
X85.476Y-137.468
X86.948Y-158.374
X87.976Y-83.07
X87.976Y-110.269
X87.976Y-137.468
X90.048Y-158.374
X92.304Y-147.96
X92.715Y-111.13
X92.715Y-113.67
X92.715Y-116.21
X92.715Y-118.75
X92.715Y-121.29
X92.812Y-168.28
X93.888Y-158.374
X95.255Y-111.13
X95.255Y-113.67
X95.255Y-116.21
X95.255Y-118.75
X95.255Y-121.29
X96.398Y-147.96
X96.652Y-168.28
X99.498Y-147.96
X99.752Y-168.28
X102.188Y-158.374
X105.288Y-158.374
X106.852Y-83.07
X106.852Y-110.269
X106.852Y-137.468
X107.798Y-147.96
X108.052Y-168.28
X109.128Y-158.374
X109.352Y-83.07
X109.352Y-110.269
X109.352Y-137.468
X111.852Y-83.07
X111.852Y-110.269
X111.852Y-137.468
X111.892Y-147.96
X111.892Y-168.28
X114.992Y-147.96
X114.992Y-168.28
X117.428Y-158.374
X120.528Y-158.374
X123.292Y-147.96
X123.292Y-168.28
X124.368Y-158.374
X127.132Y-168.28
X130.232Y-168.28
X130.728Y-83.07
X130.728Y-110.269
X130.728Y-137.468
X132.668Y-158.374
X133.228Y-83.07
X133.228Y-110.269
X133.228Y-137.468
X135.728Y-83.07
X135.728Y-110.269
X135.728Y-137.468
X135.768Y-158.374
X138.532Y-168.28
X142.169Y-156.139
X144.709Y-156.139
X147.249Y-156.139
X154.604Y-83.07
X154.604Y-110.269
X154.604Y-137.468
X154.604Y-164.665
X157.104Y-83.07
X157.104Y-110.269
X157.104Y-137.468
X157.104Y-164.665
X159.604Y-83.07
X159.604Y-110.269
X159.604Y-137.468
X159.604Y-164.665
T6
X80.676Y-75.57
X80.676Y-102.769
X80.676Y-129.968
X90.276Y-75.57
X90.276Y-102.769
X90.276Y-129.968
X104.552Y-75.57
X104.552Y-102.769
X104.552Y-129.968
X114.152Y-75.57
X114.152Y-102.769
X114.152Y-129.968
X128.428Y-75.57
X128.428Y-102.769
X128.428Y-129.968
X138.028Y-75.57
X138.028Y-102.769
X138.028Y-129.968
X152.304Y-75.57
X152.304Y-102.769
X152.304Y-129.968
X152.304Y-157.165
X161.904Y-75.57
X161.904Y-102.769
X161.904Y-129.968
X161.904Y-157.165
T0
M30
