G04 #@! TF.GenerationSoftware,KiCad,Pcbnew,(6.0.0)*
G04 #@! TF.CreationDate,2022-02-23T18:40:55+01:00*
G04 #@! TF.ProjectId,ad633muliply,61643633-336d-4756-9c69-706c792e6b69,rev?*
G04 #@! TF.SameCoordinates,Original*
G04 #@! TF.FileFunction,Soldermask,Bot*
G04 #@! TF.FilePolarity,Negative*
%FSLAX46Y46*%
G04 Gerber Fmt 4.6, Leading zero omitted, Abs format (unit mm)*
G04 Created by KiCad (PCBNEW (6.0.0)) date 2022-02-23 18:40:55*
%MOMM*%
%LPD*%
G01*
G04 APERTURE LIST*
G04 Aperture macros list*
%AMRoundRect*
0 Rectangle with rounded corners*
0 $1 Rounding radius*
0 $2 $3 $4 $5 $6 $7 $8 $9 X,Y pos of 4 corners*
0 Add a 4 corners polygon primitive as box body*
4,1,4,$2,$3,$4,$5,$6,$7,$8,$9,$2,$3,0*
0 Add four circle primitives for the rounded corners*
1,1,$1+$1,$2,$3*
1,1,$1+$1,$4,$5*
1,1,$1+$1,$6,$7*
1,1,$1+$1,$8,$9*
0 Add four rect primitives between the rounded corners*
20,1,$1+$1,$2,$3,$4,$5,0*
20,1,$1+$1,$4,$5,$6,$7,0*
20,1,$1+$1,$6,$7,$8,$9,0*
20,1,$1+$1,$8,$9,$2,$3,0*%
G04 Aperture macros list end*
%ADD10C,0.200000*%
%ADD11C,0.330000*%
%ADD12RoundRect,0.200000X1.075000X-1.300000X1.075000X1.300000X-1.075000X1.300000X-1.075000X-1.300000X0*%
%ADD13C,3.100000*%
%ADD14O,2.750000X3.200000*%
%ADD15O,3.200000X3.900000*%
%ADD16C,2.150000*%
%ADD17RoundRect,0.200000X-1.075000X1.300000X-1.075000X-1.300000X1.075000X-1.300000X1.075000X1.300000X0*%
%ADD18C,1.924000*%
%ADD19RoundRect,0.340000X-0.170000X0.140000X-0.170000X-0.140000X0.170000X-0.140000X0.170000X0.140000X0*%
%ADD20RoundRect,0.340000X0.170000X-0.140000X0.170000X0.140000X-0.170000X0.140000X-0.170000X-0.140000X0*%
%ADD21RoundRect,0.335000X-0.226274X-0.035355X-0.035355X-0.226274X0.226274X0.035355X0.035355X0.226274X0*%
%ADD22RoundRect,0.335000X-0.135000X-0.185000X0.135000X-0.185000X0.135000X0.185000X-0.135000X0.185000X0*%
%ADD23RoundRect,0.335000X-0.185000X0.135000X-0.185000X-0.135000X0.185000X-0.135000X0.185000X0.135000X0*%
%ADD24RoundRect,0.335000X0.185000X-0.135000X0.185000X0.135000X-0.185000X0.135000X-0.185000X-0.135000X0*%
%ADD25RoundRect,0.335000X-0.035355X0.226274X-0.226274X0.035355X0.035355X-0.226274X0.226274X-0.035355X0*%
%ADD26RoundRect,0.335000X0.135000X0.185000X-0.135000X0.185000X-0.135000X-0.185000X0.135000X-0.185000X0*%
%ADD27RoundRect,0.450000X-0.250000X-0.475000X0.250000X-0.475000X0.250000X0.475000X-0.250000X0.475000X0*%
%ADD28RoundRect,0.340000X0.140000X0.170000X-0.140000X0.170000X-0.140000X-0.170000X0.140000X-0.170000X0*%
%ADD29RoundRect,0.340000X-0.140000X-0.170000X0.140000X-0.170000X0.140000X0.170000X-0.140000X0.170000X0*%
%ADD30RoundRect,0.400000X0.200000X0.275000X-0.200000X0.275000X-0.200000X-0.275000X0.200000X-0.275000X0*%
%ADD31RoundRect,0.300000X0.637500X0.100000X-0.637500X0.100000X-0.637500X-0.100000X0.637500X-0.100000X0*%
%ADD32RoundRect,0.200000X-0.800000X0.800000X-0.800000X-0.800000X0.800000X-0.800000X0.800000X0.800000X0*%
%ADD33O,2.000000X2.000000*%
%ADD34RoundRect,0.200000X0.850000X-0.850000X0.850000X0.850000X-0.850000X0.850000X-0.850000X-0.850000X0*%
%ADD35O,2.100000X2.100000*%
%ADD36RoundRect,0.400000X-0.053033X0.335876X-0.335876X0.053033X0.053033X-0.335876X0.335876X-0.053033X0*%
%ADD37RoundRect,0.400000X-0.200000X-0.275000X0.200000X-0.275000X0.200000X0.275000X-0.200000X0.275000X0*%
%ADD38RoundRect,0.400000X-0.275000X0.200000X-0.275000X-0.200000X0.275000X-0.200000X0.275000X0.200000X0*%
%ADD39RoundRect,0.300000X-0.637500X-0.100000X0.637500X-0.100000X0.637500X0.100000X-0.637500X0.100000X0*%
%ADD40RoundRect,0.400000X0.275000X-0.200000X0.275000X0.200000X-0.275000X0.200000X-0.275000X-0.200000X0*%
%ADD41C,2.000000*%
%ADD42RoundRect,0.443750X-0.243750X-0.456250X0.243750X-0.456250X0.243750X0.456250X-0.243750X0.456250X0*%
%ADD43RoundRect,0.200000X-0.850000X-0.850000X0.850000X-0.850000X0.850000X0.850000X-0.850000X0.850000X0*%
%ADD44RoundRect,0.450000X0.250000X0.475000X-0.250000X0.475000X-0.250000X-0.475000X0.250000X-0.475000X0*%
%ADD45RoundRect,0.200000X0.450000X0.400000X-0.450000X0.400000X-0.450000X-0.400000X0.450000X-0.400000X0*%
%ADD46RoundRect,0.450000X0.475000X-0.250000X0.475000X0.250000X-0.475000X0.250000X-0.475000X-0.250000X0*%
G04 APERTURE END LIST*
D10*
X94455161Y-94778421D02*
G75*
G03*
X94455161Y-94778421I-359210J0D01*
G01*
X97066598Y-95616621D02*
G75*
G03*
X97066598Y-95616621I-2466432J0D01*
G01*
X96004561Y-95515021D02*
G75*
G03*
X96004561Y-95515021I-359210J0D01*
G01*
X92770001Y-95530000D02*
G75*
G03*
X95680713Y-97095654I2078634J375912D01*
G01*
X96004561Y-95515021D02*
G75*
G03*
X96004561Y-95515021I-359210J0D01*
G01*
D11*
X89678428Y-91630500D02*
X88964142Y-91630500D01*
X89821285Y-92059071D02*
X89321285Y-90559071D01*
X88821285Y-92059071D01*
X88321285Y-92059071D02*
X88321285Y-90559071D01*
X87964142Y-90559071D01*
X87749857Y-90630500D01*
X87607000Y-90773357D01*
X87535571Y-90916214D01*
X87464142Y-91201928D01*
X87464142Y-91416214D01*
X87535571Y-91701928D01*
X87607000Y-91844785D01*
X87749857Y-91987642D01*
X87964142Y-92059071D01*
X88321285Y-92059071D01*
X86178428Y-90559071D02*
X86464142Y-90559071D01*
X86607000Y-90630500D01*
X86678428Y-90701928D01*
X86821285Y-90916214D01*
X86892714Y-91201928D01*
X86892714Y-91773357D01*
X86821285Y-91916214D01*
X86749857Y-91987642D01*
X86607000Y-92059071D01*
X86321285Y-92059071D01*
X86178428Y-91987642D01*
X86107000Y-91916214D01*
X86035571Y-91773357D01*
X86035571Y-91416214D01*
X86107000Y-91273357D01*
X86178428Y-91201928D01*
X86321285Y-91130500D01*
X86607000Y-91130500D01*
X86749857Y-91201928D01*
X86821285Y-91273357D01*
X86892714Y-91416214D01*
X85535571Y-90559071D02*
X84607000Y-90559071D01*
X85107000Y-91130500D01*
X84892714Y-91130500D01*
X84749857Y-91201928D01*
X84678428Y-91273357D01*
X84607000Y-91416214D01*
X84607000Y-91773357D01*
X84678428Y-91916214D01*
X84749857Y-91987642D01*
X84892714Y-92059071D01*
X85321285Y-92059071D01*
X85464142Y-91987642D01*
X85535571Y-91916214D01*
X84107000Y-90559071D02*
X83178428Y-90559071D01*
X83678428Y-91130500D01*
X83464142Y-91130500D01*
X83321285Y-91201928D01*
X83249857Y-91273357D01*
X83178428Y-91416214D01*
X83178428Y-91773357D01*
X83249857Y-91916214D01*
X83321285Y-91987642D01*
X83464142Y-92059071D01*
X83892714Y-92059071D01*
X84035571Y-91987642D01*
X84107000Y-91916214D01*
X89999857Y-94474071D02*
X89999857Y-93474071D01*
X89999857Y-93616928D02*
X89928428Y-93545500D01*
X89785571Y-93474071D01*
X89571285Y-93474071D01*
X89428428Y-93545500D01*
X89357000Y-93688357D01*
X89357000Y-94474071D01*
X89357000Y-93688357D02*
X89285571Y-93545500D01*
X89142714Y-93474071D01*
X88928428Y-93474071D01*
X88785571Y-93545500D01*
X88714142Y-93688357D01*
X88714142Y-94474071D01*
X87357000Y-93474071D02*
X87357000Y-94474071D01*
X87999857Y-93474071D02*
X87999857Y-94259785D01*
X87928428Y-94402642D01*
X87785571Y-94474071D01*
X87571285Y-94474071D01*
X87428428Y-94402642D01*
X87357000Y-94331214D01*
X86428428Y-94474071D02*
X86571285Y-94402642D01*
X86642714Y-94259785D01*
X86642714Y-92974071D01*
X86071285Y-93474071D02*
X85499857Y-93474071D01*
X85857000Y-92974071D02*
X85857000Y-94259785D01*
X85785571Y-94402642D01*
X85642714Y-94474071D01*
X85499857Y-94474071D01*
X84999857Y-94474071D02*
X84999857Y-93474071D01*
X84999857Y-92974071D02*
X85071285Y-93045500D01*
X84999857Y-93116928D01*
X84928428Y-93045500D01*
X84999857Y-92974071D01*
X84999857Y-93116928D01*
X84285571Y-93474071D02*
X84285571Y-94974071D01*
X84285571Y-93545500D02*
X84142714Y-93474071D01*
X83857000Y-93474071D01*
X83714142Y-93545500D01*
X83642714Y-93616928D01*
X83571285Y-93759785D01*
X83571285Y-94188357D01*
X83642714Y-94331214D01*
X83714142Y-94402642D01*
X83857000Y-94474071D01*
X84142714Y-94474071D01*
X84285571Y-94402642D01*
X82714142Y-94474071D02*
X82857000Y-94402642D01*
X82928428Y-94259785D01*
X82928428Y-92974071D01*
X82285571Y-93474071D02*
X81928428Y-94474071D01*
X81571285Y-93474071D02*
X81928428Y-94474071D01*
X82071285Y-94831214D01*
X82142714Y-94902642D01*
X82285571Y-94974071D01*
X86039428Y-97981571D02*
X85682285Y-98981571D01*
X85325142Y-97981571D01*
X84825142Y-97624428D02*
X84753714Y-97553000D01*
X84610857Y-97481571D01*
X84253714Y-97481571D01*
X84110857Y-97553000D01*
X84039428Y-97624428D01*
X83968000Y-97767285D01*
X83968000Y-97910142D01*
X84039428Y-98124428D01*
X84896571Y-98981571D01*
X83968000Y-98981571D01*
D12*
X90048000Y-158374000D03*
D13*
X78648000Y-158374000D03*
D14*
X86948000Y-158374000D03*
D12*
X120528000Y-158374000D03*
D13*
X109128000Y-158374000D03*
D14*
X117428000Y-158374000D03*
D15*
X80676000Y-102769166D03*
X90276000Y-102769166D03*
D16*
X82976000Y-110269166D03*
X85476000Y-110269166D03*
X87976000Y-110269166D03*
D15*
X90276000Y-129968332D03*
X80676000Y-129968332D03*
D16*
X82976000Y-137468332D03*
X85476000Y-137468332D03*
X87976000Y-137468332D03*
D15*
X114152000Y-102769166D03*
X104552000Y-102769166D03*
D16*
X106852000Y-110269166D03*
X109352000Y-110269166D03*
X111852000Y-110269166D03*
D15*
X104552000Y-129968332D03*
X114152000Y-129968332D03*
D16*
X106852000Y-137468332D03*
X109352000Y-137468332D03*
X111852000Y-137468332D03*
D15*
X128428000Y-102769166D03*
X138028000Y-102769166D03*
D16*
X130728000Y-110269166D03*
X133228000Y-110269166D03*
X135728000Y-110269166D03*
D15*
X128428000Y-129968332D03*
X138028000Y-129968332D03*
D16*
X130728000Y-137468332D03*
X133228000Y-137468332D03*
X135728000Y-137468332D03*
D15*
X161904000Y-75570000D03*
X152304000Y-75570000D03*
D16*
X154604000Y-83070000D03*
X157104000Y-83070000D03*
X159604000Y-83070000D03*
D15*
X152304000Y-102769166D03*
X161904000Y-102769166D03*
D16*
X154604000Y-110269166D03*
X157104000Y-110269166D03*
X159604000Y-110269166D03*
D15*
X161904000Y-129968332D03*
X152304000Y-129968332D03*
D16*
X154604000Y-137468332D03*
X157104000Y-137468332D03*
X159604000Y-137468332D03*
D12*
X135768000Y-158374000D03*
D13*
X124368000Y-158374000D03*
D14*
X132668000Y-158374000D03*
D17*
X127132000Y-168280000D03*
D13*
X138532000Y-168280000D03*
D14*
X130232000Y-168280000D03*
D17*
X111892000Y-168280000D03*
D13*
X123292000Y-168280000D03*
D14*
X114992000Y-168280000D03*
D12*
X105288000Y-158374000D03*
D13*
X93888000Y-158374000D03*
D14*
X102188000Y-158374000D03*
D15*
X161904000Y-157165000D03*
X152304000Y-157165000D03*
D16*
X154604000Y-164665000D03*
X157104000Y-164665000D03*
X159604000Y-164665000D03*
D15*
X128428000Y-75570000D03*
X138028000Y-75570000D03*
D16*
X130728000Y-83070000D03*
X133228000Y-83070000D03*
X135728000Y-83070000D03*
D15*
X80676000Y-75570000D03*
X90276000Y-75570000D03*
D16*
X82976000Y-83070000D03*
X85476000Y-83070000D03*
X87976000Y-83070000D03*
D15*
X104552000Y-75570000D03*
X114152000Y-75570000D03*
D16*
X106852000Y-83070000D03*
X109352000Y-83070000D03*
X111852000Y-83070000D03*
D17*
X81412000Y-168280000D03*
D13*
X92812000Y-168280000D03*
D14*
X84512000Y-168280000D03*
D18*
X130688000Y-89794000D03*
X133228000Y-89794000D03*
X135768000Y-89794000D03*
X130688000Y-116718000D03*
X133228000Y-116718000D03*
X135768000Y-116718000D03*
X130688000Y-144150000D03*
X133228000Y-144150000D03*
X135768000Y-144150000D03*
X154564000Y-89794000D03*
X157104000Y-89794000D03*
X159644000Y-89794000D03*
X154564000Y-116718000D03*
X157104000Y-116718000D03*
X159644000Y-116718000D03*
X154564000Y-144150000D03*
X157104000Y-144150000D03*
X159644000Y-144150000D03*
D17*
X96398000Y-147960000D03*
D13*
X107798000Y-147960000D03*
D14*
X99498000Y-147960000D03*
D17*
X111892000Y-147960000D03*
D13*
X123292000Y-147960000D03*
D14*
X114992000Y-147960000D03*
D17*
X80904000Y-147960000D03*
D13*
X92304000Y-147960000D03*
D14*
X84004000Y-147960000D03*
D17*
X96652000Y-168280000D03*
D13*
X108052000Y-168280000D03*
D14*
X99752000Y-168280000D03*
D19*
X102087600Y-136202400D03*
X102087600Y-137162400D03*
D20*
X102138400Y-140921600D03*
X102138400Y-139961600D03*
D19*
X115575000Y-87282000D03*
X115575000Y-88242000D03*
D20*
X117022800Y-138252000D03*
X117022800Y-137292000D03*
D21*
X79801752Y-155747752D03*
X80523000Y-156469000D03*
D22*
X104270000Y-106558000D03*
X105290000Y-106558000D03*
X96853200Y-134650400D03*
X97873200Y-134650400D03*
D23*
X91978400Y-136170400D03*
X91978400Y-137190400D03*
D21*
X95168752Y-155620752D03*
X95890000Y-156342000D03*
D24*
X109352000Y-107574000D03*
X109352000Y-106554000D03*
X109352000Y-135666400D03*
X109352000Y-134646400D03*
D23*
X103154400Y-136170400D03*
X103154400Y-137190400D03*
D25*
X108041248Y-155747752D03*
X107320000Y-156469000D03*
D24*
X133228000Y-107578000D03*
X133228000Y-106558000D03*
D23*
X131856400Y-139195000D03*
X131856400Y-140215000D03*
D24*
X103205200Y-140953600D03*
X103205200Y-139933600D03*
D26*
X153044000Y-106558000D03*
X152024000Y-106558000D03*
X139480400Y-140238400D03*
X138460400Y-140238400D03*
D25*
X123408248Y-155874752D03*
X122687000Y-156596000D03*
D27*
X99700000Y-113670000D03*
X101600000Y-113670000D03*
D20*
X115651200Y-90223200D03*
X115651200Y-89263200D03*
D19*
X150906400Y-148953200D03*
X150906400Y-149913200D03*
D28*
X139628800Y-149890400D03*
X138668800Y-149890400D03*
D29*
X126420800Y-123423600D03*
X127380800Y-123423600D03*
D20*
X93096000Y-140944400D03*
X93096000Y-139984400D03*
X149230000Y-152605600D03*
X149230000Y-151645600D03*
D23*
X133228000Y-84964000D03*
X133228000Y-85984000D03*
D22*
X88397000Y-85984000D03*
X89417000Y-85984000D03*
D30*
X124921200Y-171582000D03*
X123271200Y-171582000D03*
D31*
X122900200Y-87894800D03*
X122900200Y-88544800D03*
X122900200Y-89194800D03*
X122900200Y-89844800D03*
X122900200Y-90494800D03*
X122900200Y-91144800D03*
X122900200Y-91794800D03*
X117175200Y-91794800D03*
X117175200Y-91144800D03*
X117175200Y-90494800D03*
X117175200Y-89844800D03*
X117175200Y-89194800D03*
X117175200Y-88544800D03*
X117175200Y-87894800D03*
X147639800Y-147940400D03*
X147639800Y-148590400D03*
X147639800Y-149240400D03*
X147639800Y-149890400D03*
X147639800Y-150540400D03*
X147639800Y-151190400D03*
X147639800Y-151840400D03*
X141914800Y-151840400D03*
X141914800Y-151190400D03*
X141914800Y-150540400D03*
X141914800Y-149890400D03*
X141914800Y-149240400D03*
X141914800Y-148590400D03*
X141914800Y-147940400D03*
D32*
X117480000Y-113670000D03*
D33*
X120020000Y-113670000D03*
X122560000Y-113670000D03*
X125100000Y-113670000D03*
X125100000Y-121290000D03*
X122560000Y-121290000D03*
X120020000Y-121290000D03*
X117480000Y-121290000D03*
D20*
X140390800Y-152730000D03*
X140390800Y-151770000D03*
D34*
X147248800Y-156138800D03*
D35*
X144708800Y-156138800D03*
X142168800Y-156138800D03*
D36*
X112169726Y-143566637D03*
X111003000Y-144733363D03*
D37*
X118534600Y-132415200D03*
X120184600Y-132415200D03*
D19*
X117327600Y-135135600D03*
X117327600Y-136095600D03*
D29*
X126420800Y-135920400D03*
X127380800Y-135920400D03*
D20*
X124465000Y-92461000D03*
X124465000Y-91501000D03*
D38*
X125735000Y-91699000D03*
X125735000Y-93349000D03*
D39*
X118867000Y-137921200D03*
X118867000Y-137271200D03*
X118867000Y-136621200D03*
X118867000Y-135971200D03*
X118867000Y-135321200D03*
X118867000Y-134671200D03*
X118867000Y-134021200D03*
X124592000Y-134021200D03*
X124592000Y-134671200D03*
X124592000Y-135321200D03*
X124592000Y-135971200D03*
X124592000Y-136621200D03*
X124592000Y-137271200D03*
X124592000Y-137921200D03*
D40*
X152024000Y-153509400D03*
X152024000Y-151859400D03*
D38*
X150500000Y-151859400D03*
X150500000Y-153509400D03*
X138562000Y-163949800D03*
X138562000Y-165599800D03*
D30*
X96143000Y-145039000D03*
X94493000Y-145039000D03*
D20*
X115575000Y-92278000D03*
X115575000Y-91318000D03*
D19*
X117327600Y-133154400D03*
X117327600Y-134114400D03*
D24*
X111511000Y-89286000D03*
X111511000Y-88266000D03*
X117022800Y-140291200D03*
X117022800Y-139271200D03*
X127386000Y-91699000D03*
X127386000Y-90679000D03*
D32*
X145547000Y-133141000D03*
D41*
X145547000Y-135641000D03*
D23*
X139374800Y-151768000D03*
X139374800Y-152788000D03*
D26*
X144710800Y-153751200D03*
X143690800Y-153751200D03*
D23*
X149179200Y-147094400D03*
X149179200Y-148114400D03*
D38*
X92842000Y-163836000D03*
X92842000Y-165486000D03*
D41*
X145547000Y-118115000D03*
D33*
X145547000Y-128275000D03*
D42*
X99700000Y-121290000D03*
X101575000Y-121290000D03*
X99700000Y-111130000D03*
X101575000Y-111130000D03*
D35*
X95255000Y-121290000D03*
D43*
X92715000Y-121290000D03*
D35*
X95255000Y-118750000D03*
X92715000Y-116210000D03*
X95255000Y-116210000D03*
X92715000Y-113670000D03*
X95255000Y-113670000D03*
X92715000Y-118750000D03*
X95255000Y-111130000D03*
X92715000Y-111130000D03*
D19*
X150144400Y-147101600D03*
X150144400Y-148061600D03*
D20*
X127386000Y-138252000D03*
X127386000Y-137292000D03*
D23*
X126243000Y-137292000D03*
X126243000Y-138312000D03*
D44*
X101600000Y-118750000D03*
X99700000Y-118750000D03*
D20*
X93096000Y-139070000D03*
X93096000Y-138110000D03*
D29*
X101810800Y-138917600D03*
X102770800Y-138917600D03*
D28*
X126263200Y-89692400D03*
X125303200Y-89692400D03*
D29*
X116520000Y-123576000D03*
X117480000Y-123576000D03*
X100518000Y-122814000D03*
X101478000Y-122814000D03*
D28*
X101605000Y-109606000D03*
X100645000Y-109606000D03*
D19*
X124465000Y-87564000D03*
X124465000Y-88524000D03*
D45*
X108996400Y-122915600D03*
X108996400Y-124815600D03*
X106996400Y-123865600D03*
D30*
X113846800Y-164114400D03*
X112196800Y-164114400D03*
D24*
X92029200Y-141004400D03*
X92029200Y-139984400D03*
D26*
X154183000Y-85984000D03*
X153163000Y-85984000D03*
D23*
X109352000Y-84964000D03*
X109352000Y-85984000D03*
D38*
X110876000Y-121265600D03*
X110876000Y-122915600D03*
D40*
X110876000Y-126370000D03*
X110876000Y-124720000D03*
D46*
X124846000Y-130825200D03*
X124846000Y-128925200D03*
D30*
X125163000Y-132364400D03*
X123513000Y-132364400D03*
D37*
X125736000Y-88270000D03*
X127386000Y-88270000D03*
D38*
X115498800Y-137444400D03*
X115498800Y-139094400D03*
X114305000Y-91572000D03*
X114305000Y-93222000D03*
D40*
X116057600Y-133990000D03*
X116057600Y-132340000D03*
D39*
X94635400Y-140543200D03*
X94635400Y-139893200D03*
X94635400Y-139243200D03*
X94635400Y-138593200D03*
X94635400Y-137943200D03*
X94635400Y-137293200D03*
X94635400Y-136643200D03*
X100360400Y-136643200D03*
X100360400Y-137293200D03*
X100360400Y-137943200D03*
X100360400Y-138593200D03*
X100360400Y-139243200D03*
X100360400Y-139893200D03*
X100360400Y-140543200D03*
D19*
X93096000Y-136230400D03*
X93096000Y-137190400D03*
D30*
X114368000Y-88270000D03*
X112718000Y-88270000D03*
M02*
