G04 #@! TF.GenerationSoftware,KiCad,Pcbnew,(6.0.0)*
G04 #@! TF.CreationDate,2022-02-23T18:40:55+01:00*
G04 #@! TF.ProjectId,ad633muliply,61643633-336d-4756-9c69-706c792e6b69,rev?*
G04 #@! TF.SameCoordinates,Original*
G04 #@! TF.FileFunction,Copper,L4,Bot*
G04 #@! TF.FilePolarity,Positive*
%FSLAX46Y46*%
G04 Gerber Fmt 4.6, Leading zero omitted, Abs format (unit mm)*
G04 Created by KiCad (PCBNEW (6.0.0)) date 2022-02-23 18:40:55*
%MOMM*%
%LPD*%
G01*
G04 APERTURE LIST*
G04 Aperture macros list*
%AMRoundRect*
0 Rectangle with rounded corners*
0 $1 Rounding radius*
0 $2 $3 $4 $5 $6 $7 $8 $9 X,Y pos of 4 corners*
0 Add a 4 corners polygon primitive as box body*
4,1,4,$2,$3,$4,$5,$6,$7,$8,$9,$2,$3,0*
0 Add four circle primitives for the rounded corners*
1,1,$1+$1,$2,$3*
1,1,$1+$1,$4,$5*
1,1,$1+$1,$6,$7*
1,1,$1+$1,$8,$9*
0 Add four rect primitives between the rounded corners*
20,1,$1+$1,$2,$3,$4,$5,0*
20,1,$1+$1,$4,$5,$6,$7,0*
20,1,$1+$1,$6,$7,$8,$9,0*
20,1,$1+$1,$8,$9,$2,$3,0*%
G04 Aperture macros list end*
G04 #@! TA.AperFunction,NonConductor*
%ADD10C,0.200000*%
G04 #@! TD*
%ADD11C,0.300000*%
G04 #@! TA.AperFunction,NonConductor*
%ADD12C,0.300000*%
G04 #@! TD*
G04 #@! TA.AperFunction,ComponentPad*
%ADD13R,2.150000X2.600000*%
G04 #@! TD*
G04 #@! TA.AperFunction,ComponentPad*
%ADD14C,2.700000*%
G04 #@! TD*
G04 #@! TA.AperFunction,ComponentPad*
%ADD15O,2.350000X2.800000*%
G04 #@! TD*
G04 #@! TA.AperFunction,ComponentPad*
%ADD16O,2.800000X3.500000*%
G04 #@! TD*
G04 #@! TA.AperFunction,ComponentPad*
%ADD17C,1.750000*%
G04 #@! TD*
G04 #@! TA.AperFunction,ComponentPad*
%ADD18C,1.524000*%
G04 #@! TD*
G04 #@! TA.AperFunction,SMDPad,CuDef*
%ADD19RoundRect,0.140000X-0.170000X0.140000X-0.170000X-0.140000X0.170000X-0.140000X0.170000X0.140000X0*%
G04 #@! TD*
G04 #@! TA.AperFunction,SMDPad,CuDef*
%ADD20RoundRect,0.140000X0.170000X-0.140000X0.170000X0.140000X-0.170000X0.140000X-0.170000X-0.140000X0*%
G04 #@! TD*
G04 #@! TA.AperFunction,SMDPad,CuDef*
%ADD21RoundRect,0.135000X-0.226274X-0.035355X-0.035355X-0.226274X0.226274X0.035355X0.035355X0.226274X0*%
G04 #@! TD*
G04 #@! TA.AperFunction,SMDPad,CuDef*
%ADD22RoundRect,0.135000X-0.135000X-0.185000X0.135000X-0.185000X0.135000X0.185000X-0.135000X0.185000X0*%
G04 #@! TD*
G04 #@! TA.AperFunction,SMDPad,CuDef*
%ADD23RoundRect,0.135000X-0.185000X0.135000X-0.185000X-0.135000X0.185000X-0.135000X0.185000X0.135000X0*%
G04 #@! TD*
G04 #@! TA.AperFunction,SMDPad,CuDef*
%ADD24RoundRect,0.135000X0.185000X-0.135000X0.185000X0.135000X-0.185000X0.135000X-0.185000X-0.135000X0*%
G04 #@! TD*
G04 #@! TA.AperFunction,SMDPad,CuDef*
%ADD25RoundRect,0.135000X-0.035355X0.226274X-0.226274X0.035355X0.035355X-0.226274X0.226274X-0.035355X0*%
G04 #@! TD*
G04 #@! TA.AperFunction,SMDPad,CuDef*
%ADD26RoundRect,0.135000X0.135000X0.185000X-0.135000X0.185000X-0.135000X-0.185000X0.135000X-0.185000X0*%
G04 #@! TD*
G04 #@! TA.AperFunction,SMDPad,CuDef*
%ADD27RoundRect,0.250000X-0.250000X-0.475000X0.250000X-0.475000X0.250000X0.475000X-0.250000X0.475000X0*%
G04 #@! TD*
G04 #@! TA.AperFunction,SMDPad,CuDef*
%ADD28RoundRect,0.140000X0.140000X0.170000X-0.140000X0.170000X-0.140000X-0.170000X0.140000X-0.170000X0*%
G04 #@! TD*
G04 #@! TA.AperFunction,SMDPad,CuDef*
%ADD29RoundRect,0.140000X-0.140000X-0.170000X0.140000X-0.170000X0.140000X0.170000X-0.140000X0.170000X0*%
G04 #@! TD*
G04 #@! TA.AperFunction,SMDPad,CuDef*
%ADD30RoundRect,0.200000X0.200000X0.275000X-0.200000X0.275000X-0.200000X-0.275000X0.200000X-0.275000X0*%
G04 #@! TD*
G04 #@! TA.AperFunction,SMDPad,CuDef*
%ADD31RoundRect,0.100000X0.637500X0.100000X-0.637500X0.100000X-0.637500X-0.100000X0.637500X-0.100000X0*%
G04 #@! TD*
G04 #@! TA.AperFunction,ComponentPad*
%ADD32R,1.600000X1.600000*%
G04 #@! TD*
G04 #@! TA.AperFunction,ComponentPad*
%ADD33O,1.600000X1.600000*%
G04 #@! TD*
G04 #@! TA.AperFunction,ComponentPad*
%ADD34R,1.700000X1.700000*%
G04 #@! TD*
G04 #@! TA.AperFunction,ComponentPad*
%ADD35O,1.700000X1.700000*%
G04 #@! TD*
G04 #@! TA.AperFunction,SMDPad,CuDef*
%ADD36RoundRect,0.200000X-0.053033X0.335876X-0.335876X0.053033X0.053033X-0.335876X0.335876X-0.053033X0*%
G04 #@! TD*
G04 #@! TA.AperFunction,SMDPad,CuDef*
%ADD37RoundRect,0.200000X-0.200000X-0.275000X0.200000X-0.275000X0.200000X0.275000X-0.200000X0.275000X0*%
G04 #@! TD*
G04 #@! TA.AperFunction,SMDPad,CuDef*
%ADD38RoundRect,0.200000X-0.275000X0.200000X-0.275000X-0.200000X0.275000X-0.200000X0.275000X0.200000X0*%
G04 #@! TD*
G04 #@! TA.AperFunction,SMDPad,CuDef*
%ADD39RoundRect,0.100000X-0.637500X-0.100000X0.637500X-0.100000X0.637500X0.100000X-0.637500X0.100000X0*%
G04 #@! TD*
G04 #@! TA.AperFunction,SMDPad,CuDef*
%ADD40RoundRect,0.200000X0.275000X-0.200000X0.275000X0.200000X-0.275000X0.200000X-0.275000X-0.200000X0*%
G04 #@! TD*
G04 #@! TA.AperFunction,ComponentPad*
%ADD41C,1.600000*%
G04 #@! TD*
G04 #@! TA.AperFunction,SMDPad,CuDef*
%ADD42RoundRect,0.243750X-0.243750X-0.456250X0.243750X-0.456250X0.243750X0.456250X-0.243750X0.456250X0*%
G04 #@! TD*
G04 #@! TA.AperFunction,SMDPad,CuDef*
%ADD43RoundRect,0.250000X0.250000X0.475000X-0.250000X0.475000X-0.250000X-0.475000X0.250000X-0.475000X0*%
G04 #@! TD*
G04 #@! TA.AperFunction,SMDPad,CuDef*
%ADD44R,0.900000X0.800000*%
G04 #@! TD*
G04 #@! TA.AperFunction,SMDPad,CuDef*
%ADD45RoundRect,0.250000X0.475000X-0.250000X0.475000X0.250000X-0.475000X0.250000X-0.475000X-0.250000X0*%
G04 #@! TD*
G04 #@! TA.AperFunction,ViaPad*
%ADD46C,0.800000*%
G04 #@! TD*
G04 #@! TA.AperFunction,Conductor*
%ADD47C,0.250000*%
G04 #@! TD*
G04 #@! TA.AperFunction,Conductor*
%ADD48C,0.400000*%
G04 #@! TD*
G04 #@! TA.AperFunction,Conductor*
%ADD49C,0.500000*%
G04 #@! TD*
G04 #@! TA.AperFunction,Conductor*
%ADD50C,0.750000*%
G04 #@! TD*
G04 APERTURE END LIST*
D10*
X96004561Y-95489621D02*
G75*
G03*
X96004561Y-95489621I-359210J0D01*
G01*
X92778000Y-95510000D02*
G75*
G03*
X95690000Y-97080000I2039394J297066D01*
G01*
X94455161Y-94778421D02*
G75*
G03*
X94455161Y-94778421I-359210J0D01*
G01*
X97066598Y-95642021D02*
G75*
G03*
X97066598Y-95642021I-2466432J0D01*
G01*
D11*
D12*
X89678428Y-91630500D02*
X88964142Y-91630500D01*
X89821285Y-92059071D02*
X89321285Y-90559071D01*
X88821285Y-92059071D01*
X88321285Y-92059071D02*
X88321285Y-90559071D01*
X87964142Y-90559071D01*
X87749857Y-90630500D01*
X87607000Y-90773357D01*
X87535571Y-90916214D01*
X87464142Y-91201928D01*
X87464142Y-91416214D01*
X87535571Y-91701928D01*
X87607000Y-91844785D01*
X87749857Y-91987642D01*
X87964142Y-92059071D01*
X88321285Y-92059071D01*
X86178428Y-90559071D02*
X86464142Y-90559071D01*
X86607000Y-90630500D01*
X86678428Y-90701928D01*
X86821285Y-90916214D01*
X86892714Y-91201928D01*
X86892714Y-91773357D01*
X86821285Y-91916214D01*
X86749857Y-91987642D01*
X86607000Y-92059071D01*
X86321285Y-92059071D01*
X86178428Y-91987642D01*
X86107000Y-91916214D01*
X86035571Y-91773357D01*
X86035571Y-91416214D01*
X86107000Y-91273357D01*
X86178428Y-91201928D01*
X86321285Y-91130500D01*
X86607000Y-91130500D01*
X86749857Y-91201928D01*
X86821285Y-91273357D01*
X86892714Y-91416214D01*
X85535571Y-90559071D02*
X84607000Y-90559071D01*
X85107000Y-91130500D01*
X84892714Y-91130500D01*
X84749857Y-91201928D01*
X84678428Y-91273357D01*
X84607000Y-91416214D01*
X84607000Y-91773357D01*
X84678428Y-91916214D01*
X84749857Y-91987642D01*
X84892714Y-92059071D01*
X85321285Y-92059071D01*
X85464142Y-91987642D01*
X85535571Y-91916214D01*
X84107000Y-90559071D02*
X83178428Y-90559071D01*
X83678428Y-91130500D01*
X83464142Y-91130500D01*
X83321285Y-91201928D01*
X83249857Y-91273357D01*
X83178428Y-91416214D01*
X83178428Y-91773357D01*
X83249857Y-91916214D01*
X83321285Y-91987642D01*
X83464142Y-92059071D01*
X83892714Y-92059071D01*
X84035571Y-91987642D01*
X84107000Y-91916214D01*
X89999857Y-94474071D02*
X89999857Y-93474071D01*
X89999857Y-93616928D02*
X89928428Y-93545500D01*
X89785571Y-93474071D01*
X89571285Y-93474071D01*
X89428428Y-93545500D01*
X89357000Y-93688357D01*
X89357000Y-94474071D01*
X89357000Y-93688357D02*
X89285571Y-93545500D01*
X89142714Y-93474071D01*
X88928428Y-93474071D01*
X88785571Y-93545500D01*
X88714142Y-93688357D01*
X88714142Y-94474071D01*
X87357000Y-93474071D02*
X87357000Y-94474071D01*
X87999857Y-93474071D02*
X87999857Y-94259785D01*
X87928428Y-94402642D01*
X87785571Y-94474071D01*
X87571285Y-94474071D01*
X87428428Y-94402642D01*
X87357000Y-94331214D01*
X86428428Y-94474071D02*
X86571285Y-94402642D01*
X86642714Y-94259785D01*
X86642714Y-92974071D01*
X86071285Y-93474071D02*
X85499857Y-93474071D01*
X85857000Y-92974071D02*
X85857000Y-94259785D01*
X85785571Y-94402642D01*
X85642714Y-94474071D01*
X85499857Y-94474071D01*
X84999857Y-94474071D02*
X84999857Y-93474071D01*
X84999857Y-92974071D02*
X85071285Y-93045500D01*
X84999857Y-93116928D01*
X84928428Y-93045500D01*
X84999857Y-92974071D01*
X84999857Y-93116928D01*
X84285571Y-93474071D02*
X84285571Y-94974071D01*
X84285571Y-93545500D02*
X84142714Y-93474071D01*
X83857000Y-93474071D01*
X83714142Y-93545500D01*
X83642714Y-93616928D01*
X83571285Y-93759785D01*
X83571285Y-94188357D01*
X83642714Y-94331214D01*
X83714142Y-94402642D01*
X83857000Y-94474071D01*
X84142714Y-94474071D01*
X84285571Y-94402642D01*
X82714142Y-94474071D02*
X82857000Y-94402642D01*
X82928428Y-94259785D01*
X82928428Y-92974071D01*
X82285571Y-93474071D02*
X81928428Y-94474071D01*
X81571285Y-93474071D02*
X81928428Y-94474071D01*
X82071285Y-94831214D01*
X82142714Y-94902642D01*
X82285571Y-94974071D01*
D11*
D12*
X86039428Y-97981571D02*
X85682285Y-98981571D01*
X85325142Y-97981571D01*
X84825142Y-97624428D02*
X84753714Y-97553000D01*
X84610857Y-97481571D01*
X84253714Y-97481571D01*
X84110857Y-97553000D01*
X84039428Y-97624428D01*
X83968000Y-97767285D01*
X83968000Y-97910142D01*
X84039428Y-98124428D01*
X84896571Y-98981571D01*
X83968000Y-98981571D01*
D13*
X90048000Y-158374000D03*
D14*
X78648000Y-158374000D03*
D15*
X86948000Y-158374000D03*
D13*
X120528000Y-158374000D03*
D14*
X109128000Y-158374000D03*
D15*
X117428000Y-158374000D03*
D16*
X80676000Y-102769166D03*
X90276000Y-102769166D03*
D17*
X82976000Y-110269166D03*
X85476000Y-110269166D03*
X87976000Y-110269166D03*
D16*
X90276000Y-129968332D03*
X80676000Y-129968332D03*
D17*
X82976000Y-137468332D03*
X85476000Y-137468332D03*
X87976000Y-137468332D03*
D16*
X114152000Y-102769166D03*
X104552000Y-102769166D03*
D17*
X106852000Y-110269166D03*
X109352000Y-110269166D03*
X111852000Y-110269166D03*
D16*
X104552000Y-129968332D03*
X114152000Y-129968332D03*
D17*
X106852000Y-137468332D03*
X109352000Y-137468332D03*
X111852000Y-137468332D03*
D16*
X128428000Y-102769166D03*
X138028000Y-102769166D03*
D17*
X130728000Y-110269166D03*
X133228000Y-110269166D03*
X135728000Y-110269166D03*
D16*
X128428000Y-129968332D03*
X138028000Y-129968332D03*
D17*
X130728000Y-137468332D03*
X133228000Y-137468332D03*
X135728000Y-137468332D03*
D16*
X161904000Y-75570000D03*
X152304000Y-75570000D03*
D17*
X154604000Y-83070000D03*
X157104000Y-83070000D03*
X159604000Y-83070000D03*
D16*
X152304000Y-102769166D03*
X161904000Y-102769166D03*
D17*
X154604000Y-110269166D03*
X157104000Y-110269166D03*
X159604000Y-110269166D03*
D16*
X161904000Y-129968332D03*
X152304000Y-129968332D03*
D17*
X154604000Y-137468332D03*
X157104000Y-137468332D03*
X159604000Y-137468332D03*
D13*
X135768000Y-158374000D03*
D14*
X124368000Y-158374000D03*
D15*
X132668000Y-158374000D03*
D13*
X127132000Y-168280000D03*
D14*
X138532000Y-168280000D03*
D15*
X130232000Y-168280000D03*
D13*
X111892000Y-168280000D03*
D14*
X123292000Y-168280000D03*
D15*
X114992000Y-168280000D03*
D13*
X105288000Y-158374000D03*
D14*
X93888000Y-158374000D03*
D15*
X102188000Y-158374000D03*
D16*
X161904000Y-157165000D03*
X152304000Y-157165000D03*
D17*
X154604000Y-164665000D03*
X157104000Y-164665000D03*
X159604000Y-164665000D03*
D16*
X128428000Y-75570000D03*
X138028000Y-75570000D03*
D17*
X130728000Y-83070000D03*
X133228000Y-83070000D03*
X135728000Y-83070000D03*
D16*
X80676000Y-75570000D03*
X90276000Y-75570000D03*
D17*
X82976000Y-83070000D03*
X85476000Y-83070000D03*
X87976000Y-83070000D03*
D16*
X104552000Y-75570000D03*
X114152000Y-75570000D03*
D17*
X106852000Y-83070000D03*
X109352000Y-83070000D03*
X111852000Y-83070000D03*
D13*
X81412000Y-168280000D03*
D14*
X92812000Y-168280000D03*
D15*
X84512000Y-168280000D03*
D18*
X130688000Y-89794000D03*
X133228000Y-89794000D03*
X135768000Y-89794000D03*
X130688000Y-116718000D03*
X133228000Y-116718000D03*
X135768000Y-116718000D03*
X130688000Y-144150000D03*
X133228000Y-144150000D03*
X135768000Y-144150000D03*
X154564000Y-89794000D03*
X157104000Y-89794000D03*
X159644000Y-89794000D03*
X154564000Y-116718000D03*
X157104000Y-116718000D03*
X159644000Y-116718000D03*
X154564000Y-144150000D03*
X157104000Y-144150000D03*
X159644000Y-144150000D03*
D13*
X96398000Y-147960000D03*
D14*
X107798000Y-147960000D03*
D15*
X99498000Y-147960000D03*
D13*
X111892000Y-147960000D03*
D14*
X123292000Y-147960000D03*
D15*
X114992000Y-147960000D03*
D13*
X80904000Y-147960000D03*
D14*
X92304000Y-147960000D03*
D15*
X84004000Y-147960000D03*
D13*
X96652000Y-168280000D03*
D14*
X108052000Y-168280000D03*
D15*
X99752000Y-168280000D03*
D19*
X102087600Y-136202400D03*
X102087600Y-137162400D03*
D20*
X102138400Y-140921600D03*
X102138400Y-139961600D03*
D19*
X115575000Y-87282000D03*
X115575000Y-88242000D03*
D20*
X117022800Y-138252000D03*
X117022800Y-137292000D03*
D21*
X79801752Y-155747752D03*
X80523000Y-156469000D03*
D22*
X104270000Y-106558000D03*
X105290000Y-106558000D03*
X96853200Y-134650400D03*
X97873200Y-134650400D03*
D23*
X91978400Y-136170400D03*
X91978400Y-137190400D03*
D21*
X95168752Y-155620752D03*
X95890000Y-156342000D03*
D24*
X109352000Y-107574000D03*
X109352000Y-106554000D03*
X109352000Y-135666400D03*
X109352000Y-134646400D03*
D23*
X103154400Y-136170400D03*
X103154400Y-137190400D03*
D25*
X108041248Y-155747752D03*
X107320000Y-156469000D03*
D24*
X133228000Y-107578000D03*
X133228000Y-106558000D03*
D23*
X131856400Y-139195000D03*
X131856400Y-140215000D03*
D24*
X103205200Y-140953600D03*
X103205200Y-139933600D03*
D26*
X153044000Y-106558000D03*
X152024000Y-106558000D03*
X139480400Y-140238400D03*
X138460400Y-140238400D03*
D25*
X123408248Y-155874752D03*
X122687000Y-156596000D03*
D27*
X99700000Y-113670000D03*
X101600000Y-113670000D03*
D20*
X115651200Y-90223200D03*
X115651200Y-89263200D03*
D19*
X150906400Y-148953200D03*
X150906400Y-149913200D03*
D28*
X139628800Y-149890400D03*
X138668800Y-149890400D03*
D29*
X126420800Y-123423600D03*
X127380800Y-123423600D03*
D20*
X93096000Y-140944400D03*
X93096000Y-139984400D03*
X149230000Y-152605600D03*
X149230000Y-151645600D03*
D23*
X133228000Y-84964000D03*
X133228000Y-85984000D03*
D22*
X88397000Y-85984000D03*
X89417000Y-85984000D03*
D30*
X124921200Y-171582000D03*
X123271200Y-171582000D03*
D31*
X122900200Y-87894800D03*
X122900200Y-88544800D03*
X122900200Y-89194800D03*
X122900200Y-89844800D03*
X122900200Y-90494800D03*
X122900200Y-91144800D03*
X122900200Y-91794800D03*
X117175200Y-91794800D03*
X117175200Y-91144800D03*
X117175200Y-90494800D03*
X117175200Y-89844800D03*
X117175200Y-89194800D03*
X117175200Y-88544800D03*
X117175200Y-87894800D03*
X147639800Y-147940400D03*
X147639800Y-148590400D03*
X147639800Y-149240400D03*
X147639800Y-149890400D03*
X147639800Y-150540400D03*
X147639800Y-151190400D03*
X147639800Y-151840400D03*
X141914800Y-151840400D03*
X141914800Y-151190400D03*
X141914800Y-150540400D03*
X141914800Y-149890400D03*
X141914800Y-149240400D03*
X141914800Y-148590400D03*
X141914800Y-147940400D03*
D32*
X117480000Y-113670000D03*
D33*
X120020000Y-113670000D03*
X122560000Y-113670000D03*
X125100000Y-113670000D03*
X125100000Y-121290000D03*
X122560000Y-121290000D03*
X120020000Y-121290000D03*
X117480000Y-121290000D03*
D20*
X140390800Y-152730000D03*
X140390800Y-151770000D03*
D34*
X147248800Y-156138800D03*
D35*
X144708800Y-156138800D03*
X142168800Y-156138800D03*
D36*
X112169726Y-143566637D03*
X111003000Y-144733363D03*
D37*
X118534600Y-132415200D03*
X120184600Y-132415200D03*
D19*
X117327600Y-135135600D03*
X117327600Y-136095600D03*
D29*
X126420800Y-135920400D03*
X127380800Y-135920400D03*
D20*
X124465000Y-92461000D03*
X124465000Y-91501000D03*
D38*
X125735000Y-91699000D03*
X125735000Y-93349000D03*
D39*
X118867000Y-137921200D03*
X118867000Y-137271200D03*
X118867000Y-136621200D03*
X118867000Y-135971200D03*
X118867000Y-135321200D03*
X118867000Y-134671200D03*
X118867000Y-134021200D03*
X124592000Y-134021200D03*
X124592000Y-134671200D03*
X124592000Y-135321200D03*
X124592000Y-135971200D03*
X124592000Y-136621200D03*
X124592000Y-137271200D03*
X124592000Y-137921200D03*
D40*
X152024000Y-153509400D03*
X152024000Y-151859400D03*
D38*
X150500000Y-151859400D03*
X150500000Y-153509400D03*
X138562000Y-163949800D03*
X138562000Y-165599800D03*
D30*
X96143000Y-145039000D03*
X94493000Y-145039000D03*
D20*
X115575000Y-92278000D03*
X115575000Y-91318000D03*
D19*
X117327600Y-133154400D03*
X117327600Y-134114400D03*
D24*
X111511000Y-89286000D03*
X111511000Y-88266000D03*
X117022800Y-140291200D03*
X117022800Y-139271200D03*
X127386000Y-91699000D03*
X127386000Y-90679000D03*
D32*
X145547000Y-133141000D03*
D41*
X145547000Y-135641000D03*
D23*
X139374800Y-151768000D03*
X139374800Y-152788000D03*
D26*
X144710800Y-153751200D03*
X143690800Y-153751200D03*
D23*
X149179200Y-147094400D03*
X149179200Y-148114400D03*
D38*
X92842000Y-163836000D03*
X92842000Y-165486000D03*
D41*
X145547000Y-118115000D03*
D33*
X145547000Y-128275000D03*
D42*
X99700000Y-121290000D03*
X101575000Y-121290000D03*
X99700000Y-111130000D03*
X101575000Y-111130000D03*
D35*
X95255000Y-121290000D03*
D34*
X92715000Y-121290000D03*
D35*
X95255000Y-118750000D03*
X92715000Y-116210000D03*
X95255000Y-116210000D03*
X92715000Y-113670000D03*
X95255000Y-113670000D03*
X92715000Y-118750000D03*
X95255000Y-111130000D03*
X92715000Y-111130000D03*
D19*
X150144400Y-147101600D03*
X150144400Y-148061600D03*
D20*
X127386000Y-138252000D03*
X127386000Y-137292000D03*
D23*
X126243000Y-137292000D03*
X126243000Y-138312000D03*
D43*
X101600000Y-118750000D03*
X99700000Y-118750000D03*
D20*
X93096000Y-139070000D03*
X93096000Y-138110000D03*
D29*
X101810800Y-138917600D03*
X102770800Y-138917600D03*
D28*
X126263200Y-89692400D03*
X125303200Y-89692400D03*
D29*
X116520000Y-123576000D03*
X117480000Y-123576000D03*
X100518000Y-122814000D03*
X101478000Y-122814000D03*
D28*
X101605000Y-109606000D03*
X100645000Y-109606000D03*
D19*
X124465000Y-87564000D03*
X124465000Y-88524000D03*
D44*
X108996400Y-122915600D03*
X108996400Y-124815600D03*
X106996400Y-123865600D03*
D30*
X113846800Y-164114400D03*
X112196800Y-164114400D03*
D24*
X92029200Y-141004400D03*
X92029200Y-139984400D03*
D26*
X154183000Y-85984000D03*
X153163000Y-85984000D03*
D23*
X109352000Y-84964000D03*
X109352000Y-85984000D03*
D38*
X110876000Y-121265600D03*
X110876000Y-122915600D03*
D40*
X110876000Y-126370000D03*
X110876000Y-124720000D03*
D45*
X124846000Y-130825200D03*
X124846000Y-128925200D03*
D30*
X125163000Y-132364400D03*
X123513000Y-132364400D03*
D37*
X125736000Y-88270000D03*
X127386000Y-88270000D03*
D38*
X115498800Y-137444400D03*
X115498800Y-139094400D03*
X114305000Y-91572000D03*
X114305000Y-93222000D03*
D40*
X116057600Y-133990000D03*
X116057600Y-132340000D03*
D39*
X94635400Y-140543200D03*
X94635400Y-139893200D03*
X94635400Y-139243200D03*
X94635400Y-138593200D03*
X94635400Y-137943200D03*
X94635400Y-137293200D03*
X94635400Y-136643200D03*
X100360400Y-136643200D03*
X100360400Y-137293200D03*
X100360400Y-137943200D03*
X100360400Y-138593200D03*
X100360400Y-139243200D03*
X100360400Y-139893200D03*
X100360400Y-140543200D03*
D19*
X93096000Y-136230400D03*
X93096000Y-137190400D03*
D30*
X114368000Y-88270000D03*
X112718000Y-88270000D03*
D46*
X140238400Y-150855600D03*
X126268400Y-90556000D03*
X121493200Y-89286000D03*
X149890400Y-149128400D03*
X142219600Y-154411600D03*
X99954000Y-105288000D03*
X112400000Y-92588000D03*
X115702000Y-93350000D03*
X80777000Y-155072000D03*
X94620000Y-133736000D03*
X103764000Y-138943000D03*
X115067000Y-119766000D03*
X138668800Y-150799600D03*
X151770000Y-144912000D03*
X129799000Y-133990000D03*
X92080000Y-138943000D03*
X120401000Y-133609000D03*
X114686000Y-89540000D03*
X118750000Y-140086000D03*
X124084000Y-155199000D03*
X121417000Y-131450000D03*
X123322000Y-128910000D03*
X118623000Y-90556000D03*
X124338000Y-90505200D03*
X120274000Y-136530000D03*
X98049000Y-145928000D03*
X95509000Y-162819000D03*
X114432000Y-96906000D03*
X103256000Y-105288000D03*
X116210000Y-135260000D03*
X94493000Y-154945000D03*
X90175000Y-114940000D03*
X120909000Y-137419000D03*
X112400000Y-141864000D03*
X90175000Y-117480000D03*
X107574000Y-154691000D03*
X90175000Y-119766000D03*
X127386000Y-122306000D03*
X149230000Y-146182000D03*
X100843000Y-116591000D03*
X115448000Y-122306000D03*
X116464000Y-124592000D03*
X128910000Y-144023000D03*
X127386000Y-134752000D03*
X120020000Y-91699000D03*
X152278000Y-147452000D03*
X127513000Y-139324000D03*
X90175000Y-112400000D03*
X102875000Y-115702000D03*
X109504400Y-126370000D03*
X153294000Y-153548000D03*
X115448000Y-123576000D03*
X114940000Y-121290000D03*
X149128400Y-149890400D03*
X115956000Y-121290000D03*
X124439600Y-89489200D03*
X101810800Y-116232800D03*
X101810800Y-115425200D03*
X101810800Y-117045600D03*
X140543200Y-149890400D03*
X101810800Y-138076800D03*
X105288000Y-135514000D03*
X129164000Y-143007000D03*
X151262000Y-144023000D03*
X115765500Y-97223500D03*
X120972500Y-92016500D03*
X99954000Y-106558000D03*
X103256000Y-106558000D03*
X95026400Y-134650400D03*
X112781000Y-91572000D03*
X112781000Y-89413000D03*
X118115000Y-139197000D03*
X120274000Y-134625000D03*
X97541000Y-145039000D03*
X124465000Y-93350000D03*
X113162000Y-142626000D03*
X121137600Y-132415200D03*
X141762400Y-153497200D03*
X151312800Y-147071000D03*
X120909000Y-138562000D03*
X95509000Y-163835000D03*
X119512000Y-126751000D03*
X117480000Y-126751000D03*
X123195000Y-131069000D03*
D47*
X128656000Y-143007000D02*
X129164000Y-143007000D01*
X127894000Y-143769000D02*
X128656000Y-143007000D01*
X106685000Y-139578000D02*
X113416000Y-139578000D01*
X113416000Y-139578000D02*
X117607000Y-143769000D01*
X103277400Y-136170400D02*
X106685000Y-139578000D01*
X103154400Y-136170400D02*
X103277400Y-136170400D01*
X117607000Y-143769000D02*
X127894000Y-143769000D01*
X127386000Y-91699000D02*
X135895000Y-91699000D01*
X135768000Y-91572000D02*
X135895000Y-91699000D01*
X135768000Y-89794000D02*
X135768000Y-91572000D01*
X135895000Y-91699000D02*
X157739000Y-91699000D01*
X157739000Y-91699000D02*
X159644000Y-89794000D01*
X135822800Y-113314400D02*
X135818800Y-113310400D01*
X156240400Y-113314400D02*
X135822800Y-113314400D01*
X159644000Y-116718000D02*
X156240400Y-113314400D01*
X135818800Y-116667200D02*
X135818800Y-113310400D01*
X135768000Y-116718000D02*
X135818800Y-116667200D01*
X135768000Y-141864000D02*
X135895000Y-141737000D01*
X135768000Y-144150000D02*
X135768000Y-141864000D01*
X137524600Y-141737000D02*
X135895000Y-141737000D01*
X135895000Y-141737000D02*
X128529000Y-141737000D01*
X119048800Y-142317200D02*
X117022800Y-140291200D01*
X127966200Y-142317200D02*
X119048800Y-142317200D01*
X127966200Y-142299800D02*
X127966200Y-142317200D01*
X138104800Y-142317200D02*
X137524600Y-141737000D01*
X148722000Y-142321200D02*
X148718000Y-142317200D01*
X157815200Y-142321200D02*
X148722000Y-142321200D01*
X159644000Y-144150000D02*
X157815200Y-142321200D01*
X148718000Y-142317200D02*
X138104800Y-142317200D01*
X128529000Y-141737000D02*
X127966200Y-142299800D01*
X109504400Y-126370000D02*
X110876000Y-126370000D01*
X117203200Y-135260000D02*
X117327600Y-135135600D01*
X123322000Y-128910000D02*
X124830800Y-128910000D01*
X95168752Y-155620752D02*
X94493000Y-154945000D01*
X80777000Y-155072000D02*
X80477504Y-155072000D01*
X127386000Y-135915200D02*
X127380800Y-135920400D01*
X123408248Y-155874752D02*
X124084000Y-155199000D01*
X117175200Y-89194800D02*
X115719600Y-89194800D01*
X108996400Y-125862000D02*
X109504400Y-126370000D01*
X118867000Y-136621200D02*
X120182800Y-136621200D01*
X117513200Y-135321200D02*
X117327600Y-135135600D01*
X122900200Y-89194800D02*
X121584400Y-89194800D01*
X93096000Y-139070000D02*
X92207000Y-139070000D01*
X127386000Y-122306000D02*
X127386000Y-123418400D01*
X126263200Y-90550800D02*
X126268400Y-90556000D01*
X149179200Y-147094400D02*
X149179200Y-146232800D01*
X127386000Y-134752000D02*
X127386000Y-135915200D01*
X121584400Y-89194800D02*
X121493200Y-89286000D01*
X127386000Y-123418400D02*
X127380800Y-123423600D01*
X116520000Y-123576000D02*
X115448000Y-123576000D01*
X120182800Y-136621200D02*
X120274000Y-136530000D01*
X149179200Y-146232800D02*
X149230000Y-146182000D01*
X141722000Y-150540400D02*
X141597010Y-150665390D01*
X124830800Y-128910000D02*
X124846000Y-128925200D01*
X126243000Y-138689000D02*
X126878000Y-139324000D01*
X108041248Y-155747752D02*
X108041248Y-155158248D01*
X108041248Y-155158248D02*
X107574000Y-154691000D01*
X138668800Y-149890400D02*
X138668800Y-150799600D01*
X126878000Y-139324000D02*
X127513000Y-139324000D01*
X117236400Y-90556000D02*
X117175200Y-90494800D01*
X153255400Y-153509400D02*
X153294000Y-153548000D01*
X115374400Y-89540000D02*
X115651200Y-89263200D01*
X140238400Y-150855600D02*
X140289200Y-150855600D01*
X149890400Y-149128400D02*
X150731200Y-149128400D01*
X102770800Y-138917600D02*
X103662400Y-138917600D01*
X92207000Y-139070000D02*
X92080000Y-138943000D01*
X80477504Y-155072000D02*
X79801752Y-155747752D01*
X141914800Y-150540400D02*
X141722000Y-150540400D01*
X115719600Y-89194800D02*
X115651200Y-89263200D01*
X108996400Y-124815600D02*
X108996400Y-125862000D01*
X126263200Y-89692400D02*
X126263200Y-90550800D01*
X122900200Y-90494800D02*
X124276800Y-90494800D01*
X118867000Y-135321200D02*
X117513200Y-135321200D01*
X118623000Y-90556000D02*
X117236400Y-90556000D01*
X126243000Y-138312000D02*
X126243000Y-138689000D01*
X116464000Y-124592000D02*
X116464000Y-123632000D01*
X116464000Y-123632000D02*
X116520000Y-123576000D01*
X150731200Y-149128400D02*
X150906400Y-148953200D01*
X114686000Y-89540000D02*
X115374400Y-89540000D01*
X152024000Y-153509400D02*
X153255400Y-153509400D01*
X141597010Y-150665390D02*
X140479410Y-150665390D01*
X140289200Y-150855600D02*
X140479410Y-150665390D01*
X116210000Y-135260000D02*
X117203200Y-135260000D01*
X124368000Y-158374000D02*
X120558000Y-154564000D01*
X99083739Y-139832000D02*
X99672539Y-139243200D01*
X99065000Y-141229000D02*
X99065000Y-139832000D01*
X99672539Y-139243200D02*
X100360400Y-139243200D01*
X120558000Y-154564000D02*
X109352000Y-154564000D01*
X99065000Y-139832000D02*
X99083739Y-139832000D01*
X109352000Y-154564000D02*
X105542000Y-150754000D01*
X105542000Y-147706000D02*
X105542000Y-147833000D01*
X99065000Y-141229000D02*
X105542000Y-147706000D01*
X105542000Y-150754000D02*
X105542000Y-147833000D01*
X101224000Y-151038000D02*
X93888000Y-158374000D01*
X97160000Y-139451000D02*
X97160000Y-142626000D01*
X97160000Y-142626000D02*
X101224000Y-146690000D01*
X95652200Y-137943200D02*
X97160000Y-139451000D01*
X94635400Y-137943200D02*
X95652200Y-137943200D01*
X101224000Y-146690000D02*
X101224000Y-151038000D01*
X143809000Y-134879000D02*
X145547000Y-133141000D01*
X127386000Y-137292000D02*
X129799000Y-134879000D01*
X126243000Y-137292000D02*
X127386000Y-137292000D01*
X129799000Y-134879000D02*
X143809000Y-134879000D01*
X124592000Y-136621200D02*
X125572200Y-136621200D01*
X145547000Y-133141000D02*
X145547000Y-128275000D01*
X125572200Y-136621200D02*
X126243000Y-137292000D01*
X120052179Y-139356179D02*
X120052179Y-137767821D01*
X120936400Y-140240400D02*
X120052179Y-139356179D01*
X138460400Y-140238400D02*
X138458400Y-140240400D01*
X120052179Y-137767821D02*
X119555558Y-137271200D01*
X109402800Y-134646400D02*
X97920000Y-134646400D01*
X110270400Y-135514000D02*
X109402800Y-134646400D01*
X118867000Y-137271200D02*
X115672000Y-137271200D01*
X119555558Y-137271200D02*
X118867000Y-137271200D01*
X117022800Y-137292000D02*
X114127200Y-137292000D01*
X138458400Y-140240400D02*
X120936400Y-140240400D01*
X112349200Y-135514000D02*
X110270400Y-135514000D01*
X114127200Y-137292000D02*
X112349200Y-135514000D01*
X125461200Y-88544800D02*
X125736000Y-88270000D01*
X122900200Y-88544800D02*
X125461200Y-88544800D01*
X89417000Y-85984000D02*
X109352000Y-85984000D01*
X122900200Y-88544800D02*
X122212339Y-88544800D01*
X121544000Y-85984000D02*
X109352000Y-85984000D01*
X122212339Y-88544800D02*
X121544000Y-87876461D01*
X121544000Y-87876461D02*
X121544000Y-85984000D01*
X153163000Y-85984000D02*
X133228000Y-85984000D01*
X133228000Y-85984000D02*
X127894000Y-85984000D01*
X127894000Y-85984000D02*
X121544000Y-85984000D01*
X122900200Y-87894800D02*
X124134200Y-87894800D01*
X127386000Y-88270000D02*
X126586480Y-87470480D01*
X126586480Y-87470480D02*
X124558520Y-87470480D01*
X124134200Y-87894800D02*
X124465000Y-87564000D01*
X127386000Y-88270000D02*
X127386000Y-90679000D01*
X124558520Y-87470480D02*
X124465000Y-87564000D01*
X150500000Y-151859400D02*
X150500000Y-151724400D01*
X150500000Y-151724400D02*
X150421200Y-151645600D01*
X147639800Y-151190400D02*
X148774800Y-151190400D01*
X148774800Y-151190400D02*
X149230000Y-151645600D01*
X150421200Y-151645600D02*
X151810200Y-151645600D01*
X151810200Y-151645600D02*
X152024000Y-151859400D01*
X149230000Y-151645600D02*
X150421200Y-151645600D01*
X93096000Y-140944400D02*
X94234200Y-140944400D01*
X91512068Y-141004400D02*
X92029200Y-141004400D01*
X92029200Y-141004400D02*
X93036000Y-141004400D01*
X87976000Y-137468332D02*
X87976000Y-110269166D01*
X93036000Y-141004400D02*
X93096000Y-140944400D01*
X94234200Y-140944400D02*
X94635400Y-140543200D01*
X87976000Y-137468332D02*
X91512068Y-141004400D01*
X139019200Y-171582000D02*
X126674800Y-171582000D01*
X148405000Y-152605600D02*
X149230000Y-152605600D01*
X147248800Y-163352400D02*
X139019200Y-171582000D01*
X148405000Y-153430600D02*
X147248800Y-154586800D01*
X147639800Y-151840400D02*
X148405000Y-152605600D01*
X148405000Y-152605600D02*
X148405000Y-153430600D01*
X126674800Y-171582000D02*
X124921200Y-171582000D01*
X149230000Y-152605600D02*
X149596200Y-152605600D01*
X147248800Y-156138800D02*
X147248800Y-154586800D01*
X149596200Y-152605600D02*
X150500000Y-153509400D01*
X147248800Y-156138800D02*
X147248800Y-163352400D01*
D48*
X115956000Y-121290000D02*
X117480000Y-121290000D01*
D47*
X123993300Y-89489200D02*
X124439600Y-89489200D01*
X118867000Y-135971200D02*
X117429200Y-135971200D01*
X93102930Y-138110000D02*
X93096000Y-138110000D01*
X101575000Y-118775000D02*
X101600000Y-118750000D01*
X147639800Y-149890400D02*
X150883600Y-149890400D01*
X123588758Y-89844800D02*
X122900200Y-89844800D01*
D48*
X101575000Y-121290000D02*
X115956000Y-121290000D01*
D47*
X124439600Y-89489200D02*
X125100000Y-89489200D01*
X94635400Y-138593200D02*
X93586130Y-138593200D01*
X93586130Y-138593200D02*
X93102930Y-138110000D01*
X117429200Y-135971200D02*
X117327600Y-136072800D01*
D49*
X101575000Y-121290000D02*
X101575000Y-118775000D01*
D47*
X123637700Y-89844800D02*
X123993300Y-89489200D01*
X101575000Y-124495000D02*
X90149600Y-135920400D01*
X150883600Y-149890400D02*
X150906400Y-149913200D01*
X90149600Y-135920400D02*
X90149600Y-137292000D01*
D48*
X117480000Y-121290000D02*
X117480000Y-123576000D01*
D47*
X122900200Y-89844800D02*
X123637700Y-89844800D01*
X101575000Y-121290000D02*
X101575000Y-124495000D01*
X117327600Y-136072800D02*
X114482800Y-136072800D01*
X114482800Y-136072800D02*
X101575000Y-123165000D01*
X101575000Y-123165000D02*
X101575000Y-121290000D01*
X125100000Y-89489200D02*
X125303200Y-89692400D01*
X90967600Y-138110000D02*
X93096000Y-138110000D01*
X90149600Y-137292000D02*
X90967600Y-138110000D01*
D48*
X101600000Y-94498000D02*
X105758489Y-90339511D01*
D47*
X116029600Y-89844800D02*
X115651200Y-90223200D01*
X124592000Y-135971200D02*
X126370000Y-135971200D01*
D48*
X115651200Y-116819600D02*
X120629600Y-116819600D01*
X120629600Y-116819600D02*
X125100000Y-121290000D01*
D47*
X139628800Y-149890400D02*
X141914800Y-149890400D01*
X100360400Y-138593200D02*
X101319800Y-138593200D01*
X126370000Y-135971200D02*
X126420800Y-135920400D01*
X126402990Y-122592990D02*
X126402990Y-135877190D01*
D48*
X101575000Y-111130000D02*
X101575000Y-113645000D01*
X103205200Y-113675200D02*
X101605200Y-113675200D01*
X115651200Y-116819600D02*
X112506800Y-113675200D01*
X101810800Y-114955908D02*
X101810800Y-113880800D01*
D47*
X117175200Y-89844800D02*
X116029600Y-89844800D01*
X101810800Y-138102200D02*
X101319800Y-138593200D01*
D48*
X105758489Y-90339511D02*
X115534889Y-90339511D01*
X101810800Y-114955908D02*
X101810800Y-117045600D01*
D47*
X101600000Y-111155000D02*
X101575000Y-111130000D01*
D48*
X101600000Y-113670000D02*
X101600000Y-94498000D01*
D47*
X101486400Y-138593200D02*
X101810800Y-138917600D01*
D48*
X112506800Y-113675200D02*
X103205200Y-113675200D01*
D47*
X125100000Y-121290000D02*
X126402990Y-122592990D01*
X101486400Y-138593200D02*
X101497600Y-138593200D01*
D48*
X101810800Y-113880800D02*
X101600000Y-113670000D01*
D47*
X101319800Y-138593200D02*
X101486400Y-138593200D01*
X126402990Y-135877190D02*
X126420800Y-135895000D01*
D48*
X115534889Y-90339511D02*
X115651200Y-90223200D01*
D47*
X140966202Y-149240400D02*
X140651002Y-148925200D01*
X141914800Y-149240400D02*
X140966202Y-149240400D01*
X140651002Y-148925200D02*
X138054000Y-148925200D01*
X137943799Y-153539399D02*
X140543200Y-156138800D01*
X137943799Y-149035401D02*
X137943799Y-153539399D01*
X138054000Y-148925200D02*
X137943799Y-149035401D01*
X140543200Y-156138800D02*
X142168800Y-156138800D01*
X115675600Y-139271200D02*
X115498800Y-139094400D01*
X118867000Y-137921200D02*
X117353600Y-137921200D01*
X117022800Y-138252000D02*
X117022800Y-139271200D01*
X117022800Y-139271200D02*
X115675600Y-139271200D01*
X117353600Y-137921200D02*
X117022800Y-138252000D01*
X94635400Y-137293200D02*
X92081200Y-137293200D01*
X92081200Y-137293200D02*
X91978400Y-137190400D01*
X94635400Y-136643200D02*
X94162600Y-136170400D01*
X94162600Y-136170400D02*
X91978400Y-136170400D01*
X94635400Y-136643200D02*
X95925034Y-135353566D01*
X105127566Y-135353566D02*
X105288000Y-135514000D01*
X95925034Y-135353566D02*
X105127566Y-135353566D01*
X100360400Y-137293200D02*
X101349800Y-137293200D01*
X103154400Y-137190400D02*
X101452600Y-137190400D01*
X101452600Y-137190400D02*
X101349800Y-137293200D01*
X100360400Y-136643200D02*
X100833200Y-136170400D01*
X100833200Y-136170400D02*
X103154400Y-136170400D01*
X100360400Y-139893200D02*
X103164800Y-139893200D01*
X103164800Y-139893200D02*
X103205200Y-139933600D01*
X101760000Y-140543200D02*
X102138400Y-140921600D01*
X137673000Y-145928000D02*
X138435000Y-145166000D01*
X135514000Y-145928000D02*
X137546000Y-145928000D01*
X127894000Y-146309000D02*
X135133000Y-146309000D01*
X148341000Y-144785000D02*
X150500000Y-144785000D01*
X137546000Y-145928000D02*
X137673000Y-145928000D01*
X138816000Y-144785000D02*
X148341000Y-144785000D01*
X127894000Y-146309000D02*
X126821511Y-145236511D01*
X138435000Y-145166000D02*
X138816000Y-144785000D01*
X103173200Y-140921600D02*
X103205200Y-140953600D01*
X113140600Y-140953600D02*
X103205200Y-140953600D01*
X100360400Y-140543200D02*
X101760000Y-140543200D01*
X117423511Y-145236511D02*
X113140600Y-140953600D01*
X135133000Y-146309000D02*
X135387000Y-146055000D01*
X126821511Y-145236511D02*
X117423511Y-145236511D01*
X135387000Y-146055000D02*
X135514000Y-145928000D01*
X150500000Y-144785000D02*
X151262000Y-144023000D01*
X102138400Y-140921600D02*
X103173200Y-140921600D01*
X117175200Y-88544800D02*
X118135800Y-88544800D01*
X109352000Y-103637000D02*
X115765500Y-97223500D01*
X133228000Y-104272000D02*
X120972500Y-92016500D01*
X115877800Y-88544800D02*
X115575000Y-88242000D01*
X133228000Y-106558000D02*
X152024000Y-106558000D01*
X109352000Y-106554000D02*
X109352000Y-103637000D01*
X118135800Y-88544800D02*
X120972500Y-91381500D01*
X115547000Y-88270000D02*
X115575000Y-88242000D01*
X133228000Y-106558000D02*
X133228000Y-104272000D01*
X109348000Y-106558000D02*
X109352000Y-106554000D01*
X120972500Y-91381500D02*
X120972500Y-92016500D01*
X105290000Y-106558000D02*
X109348000Y-106558000D01*
X117175200Y-88544800D02*
X115877800Y-88544800D01*
X114368000Y-88270000D02*
X115547000Y-88270000D01*
X115603000Y-87282000D02*
X115575000Y-87282000D01*
X111511000Y-88266000D02*
X112714000Y-88266000D01*
X112714000Y-88266000D02*
X112718000Y-88270000D01*
X113706000Y-87282000D02*
X112718000Y-88270000D01*
X116215800Y-87894800D02*
X115603000Y-87282000D01*
X115575000Y-87282000D02*
X113706000Y-87282000D01*
X117175200Y-87894800D02*
X116215800Y-87894800D01*
X94544200Y-139984400D02*
X94635400Y-139893200D01*
X92029200Y-139984400D02*
X94544200Y-139984400D01*
X95809200Y-139243200D02*
X96144000Y-139578000D01*
X96144000Y-139578000D02*
X96144000Y-140878000D01*
X96144000Y-140878000D02*
X78648000Y-158374000D01*
X94635400Y-139243200D02*
X95809200Y-139243200D01*
X98176000Y-141991000D02*
X98176000Y-139197000D01*
X104653000Y-153899000D02*
X104653000Y-148468000D01*
X98176000Y-139197000D02*
X99429800Y-137943200D01*
X109128000Y-158374000D02*
X104653000Y-153899000D01*
X99429800Y-137943200D02*
X100360400Y-137943200D01*
X104653000Y-148468000D02*
X98176000Y-141991000D01*
X104270000Y-106558000D02*
X103256000Y-106558000D01*
X99954000Y-106558000D02*
X89187166Y-106558000D01*
X89187166Y-106558000D02*
X85476000Y-110269166D01*
X96853200Y-134650400D02*
X95026400Y-134650400D01*
X109352000Y-107574000D02*
X109352000Y-110269166D01*
X109352000Y-137468332D02*
X109352000Y-135666400D01*
X133228000Y-107578000D02*
X133228000Y-110269166D01*
X131856400Y-138839932D02*
X133228000Y-137468332D01*
X131856400Y-139195000D02*
X131856400Y-138839932D01*
X153044000Y-106558000D02*
X153392834Y-106558000D01*
X153392834Y-106558000D02*
X157104000Y-110269166D01*
X139480400Y-140238400D02*
X154333932Y-140238400D01*
X154333932Y-140238400D02*
X157104000Y-137468332D01*
X133228000Y-84964000D02*
X133228000Y-83070000D01*
X154190000Y-85984000D02*
X157104000Y-83070000D01*
X154183000Y-85984000D02*
X154190000Y-85984000D01*
X85476000Y-83070000D02*
X88390000Y-85984000D01*
X109352000Y-84964000D02*
X109352000Y-83070000D01*
X92842000Y-165486000D02*
X92812000Y-165516000D01*
X92812000Y-165516000D02*
X92812000Y-168280000D01*
X127386000Y-91699000D02*
X125735000Y-91699000D01*
X122900200Y-91144800D02*
X123910800Y-91144800D01*
X124211000Y-91445000D02*
X124465000Y-91445000D01*
X125481000Y-91445000D02*
X125735000Y-91699000D01*
X124465000Y-91445000D02*
X125481000Y-91445000D01*
X123910800Y-91144800D02*
X124211000Y-91445000D01*
X111511000Y-89286000D02*
X112654000Y-89286000D01*
X124211000Y-106939000D02*
X124211000Y-97492739D01*
X114305000Y-91572000D02*
X115321000Y-91572000D01*
X130582400Y-113310400D02*
X124211000Y-106939000D01*
X115748200Y-91144800D02*
X117175200Y-91144800D01*
X135818800Y-113310400D02*
X130582400Y-113310400D01*
X115575000Y-91318000D02*
X115748200Y-91144800D01*
X124211000Y-97492739D02*
X117863061Y-91144800D01*
X115321000Y-91572000D02*
X115575000Y-91318000D01*
X117863061Y-91144800D02*
X117175200Y-91144800D01*
X112654000Y-89286000D02*
X112781000Y-89413000D01*
X112781000Y-91572000D02*
X114305000Y-91572000D01*
X117327600Y-134114400D02*
X116182000Y-134114400D01*
X117327600Y-134114400D02*
X117884400Y-134671200D01*
X118117000Y-139197000D02*
X117022800Y-140291200D01*
X117884400Y-134671200D02*
X118867000Y-134671200D01*
X120227800Y-134671200D02*
X120274000Y-134625000D01*
X116182000Y-134114400D02*
X116057600Y-133990000D01*
X118867000Y-134671200D02*
X120227800Y-134671200D01*
X124458070Y-92461000D02*
X124465000Y-92461000D01*
X124465000Y-92461000D02*
X124465000Y-93350000D01*
X124466000Y-93349000D02*
X124465000Y-93350000D01*
X97541000Y-145039000D02*
X96143000Y-145039000D01*
X125735000Y-93349000D02*
X124466000Y-93349000D01*
X123798800Y-91801730D02*
X124458070Y-92461000D01*
X123798800Y-91794800D02*
X123798800Y-91801730D01*
X122900200Y-91794800D02*
X123798800Y-91794800D01*
X115631000Y-92278000D02*
X116114200Y-91794800D01*
X114305000Y-93222000D02*
X114631000Y-93222000D01*
X114631000Y-93222000D02*
X115575000Y-92278000D01*
X116114200Y-91794800D02*
X117175200Y-91794800D01*
X115575000Y-92278000D02*
X115631000Y-92278000D01*
X112221363Y-143566637D02*
X113162000Y-142626000D01*
X122560000Y-113670000D02*
X122560000Y-101477000D01*
X122560000Y-101477000D02*
X114305000Y-93222000D01*
X118000200Y-132949600D02*
X118534600Y-132415200D01*
X118000200Y-133154400D02*
X117812800Y-133154400D01*
X116872000Y-133154400D02*
X116057600Y-132340000D01*
X118000200Y-132967000D02*
X117812800Y-133154400D01*
X118000200Y-133154400D02*
X118000200Y-132949600D01*
X117812800Y-133154400D02*
X117327600Y-133154400D01*
X118867000Y-134021200D02*
X118000200Y-133154400D01*
X118534600Y-125315400D02*
X122560000Y-121290000D01*
X117327600Y-133154400D02*
X116872000Y-133154400D01*
X118534600Y-132415200D02*
X118534600Y-125315400D01*
X118000200Y-132949600D02*
X118000200Y-132967000D01*
X108052000Y-168280000D02*
X112217600Y-164114400D01*
X94493000Y-145039000D02*
X94493000Y-145771000D01*
X94493000Y-145771000D02*
X92304000Y-147960000D01*
X107798000Y-147960000D02*
X111003000Y-144755000D01*
X121137600Y-132415200D02*
X120184600Y-132415200D01*
X149179200Y-148438500D02*
X149179200Y-148114400D01*
X149179200Y-148114400D02*
X149179200Y-148389558D01*
X149232000Y-148061600D02*
X149179200Y-148114400D01*
X148377300Y-149240400D02*
X149179200Y-148438500D01*
X147639800Y-149240400D02*
X148377300Y-149240400D01*
X149179200Y-148389558D02*
X149179200Y-148266800D01*
X150144400Y-148061600D02*
X149232000Y-148061600D01*
X139374800Y-152788000D02*
X140332800Y-152788000D01*
X150144400Y-147101600D02*
X151282200Y-147101600D01*
X140332800Y-152788000D02*
X140390800Y-152730000D01*
X130053000Y-135641000D02*
X145547000Y-135641000D01*
X141025200Y-152730000D02*
X141914800Y-151840400D01*
X127386000Y-138252000D02*
X127442000Y-138252000D01*
X141025200Y-152760000D02*
X141762400Y-153497200D01*
X140390800Y-152730000D02*
X141025200Y-152730000D01*
X127442000Y-138252000D02*
X130053000Y-135641000D01*
X151282200Y-147101600D02*
X151312800Y-147071000D01*
X141025200Y-152730000D02*
X141025200Y-152760000D01*
X138562000Y-165599800D02*
X138562000Y-168250000D01*
X138562000Y-168250000D02*
X138532000Y-168280000D01*
X123271200Y-171582000D02*
X123271200Y-168300800D01*
X123271200Y-168300800D02*
X123292000Y-168280000D01*
X127944800Y-154716400D02*
X135806100Y-146855100D01*
X123271200Y-164114400D02*
X127944800Y-159440800D01*
X135806100Y-146855100D02*
X135918300Y-146967300D01*
X147639800Y-148590400D02*
X147639800Y-147940400D01*
X113846800Y-164114400D02*
X123271200Y-164114400D01*
X146666700Y-146967300D02*
X147639800Y-147940400D01*
X135918300Y-146967300D02*
X146666700Y-146967300D01*
X127944800Y-159440800D02*
X127944800Y-154716400D01*
X144710800Y-153751200D02*
X144710800Y-156136800D01*
X144710800Y-156136800D02*
X144708800Y-156138800D01*
X121549800Y-137921200D02*
X120909000Y-138562000D01*
X92843000Y-163835000D02*
X92842000Y-163836000D01*
X95509000Y-163835000D02*
X92843000Y-163835000D01*
X124592000Y-137271200D02*
X124592000Y-137921200D01*
X124592000Y-137921200D02*
X121549800Y-137921200D01*
X138562000Y-156850000D02*
X138562000Y-163949800D01*
X141914800Y-148590400D02*
X141914800Y-147940400D01*
X136580800Y-154868800D02*
X138562000Y-156850000D01*
X141914800Y-147940400D02*
X137413200Y-147940400D01*
X136580800Y-148772800D02*
X136580800Y-154868800D01*
X137413200Y-147940400D02*
X136580800Y-148772800D01*
X148403359Y-150615401D02*
X153635799Y-150615401D01*
X157104000Y-154083602D02*
X157104000Y-164665000D01*
X148328358Y-150540400D02*
X148403359Y-150615401D01*
X147639800Y-150540400D02*
X148328358Y-150540400D01*
X153635799Y-150615401D02*
X157104000Y-154083602D01*
X140388800Y-151768000D02*
X140390800Y-151770000D01*
X139374800Y-151768000D02*
X140388800Y-151768000D01*
X143029600Y-151190400D02*
X141914800Y-151190400D01*
X140390800Y-151770000D02*
X140646642Y-151770000D01*
X140646642Y-151770000D02*
X141226242Y-151190400D01*
X141226242Y-151190400D02*
X141914800Y-151190400D01*
X143690800Y-151851600D02*
X143029600Y-151190400D01*
X143690800Y-153751200D02*
X143690800Y-151851600D01*
D50*
X99700000Y-121290000D02*
X92715000Y-121290000D01*
X99700000Y-111130000D02*
X92715000Y-111130000D01*
D47*
X110876000Y-124720000D02*
X112907000Y-126751000D01*
X124592000Y-135321200D02*
X123510200Y-135321200D01*
X122179000Y-133990000D02*
X122179000Y-130307000D01*
X122179000Y-130307000D02*
X122179000Y-129418000D01*
X123510200Y-135321200D02*
X122179000Y-133990000D01*
X110876000Y-122915600D02*
X110876000Y-124720000D01*
X122179000Y-129418000D02*
X119512000Y-126751000D01*
X108996400Y-122915600D02*
X110876000Y-122915600D01*
X112907000Y-126751000D02*
X117480000Y-126751000D01*
X123513000Y-131387000D02*
X123195000Y-131069000D01*
X124846000Y-130825200D02*
X124846000Y-131031400D01*
X123513000Y-132364400D02*
X123513000Y-131387000D01*
X124846000Y-131031400D02*
X123513000Y-132364400D01*
X124592000Y-134021200D02*
X124592000Y-134671200D01*
X124592000Y-134021200D02*
X124592000Y-132935400D01*
X124592000Y-132935400D02*
X125163000Y-132364400D01*
G04 #@! TA.AperFunction,Conductor*
G36*
X100803293Y-107082574D02*
G01*
X100862278Y-107122087D01*
X100890536Y-107187218D01*
X100891500Y-107202772D01*
X100891500Y-109097303D01*
X100873953Y-109161443D01*
X100865106Y-109176403D01*
X100819394Y-109333746D01*
X100818890Y-109340151D01*
X100818889Y-109340156D01*
X100818191Y-109349031D01*
X100816500Y-109370516D01*
X100816500Y-109734000D01*
X100796498Y-109802121D01*
X100742842Y-109848614D01*
X100690500Y-109860000D01*
X99876576Y-109860000D01*
X99861337Y-109864475D01*
X99849607Y-109878012D01*
X99789881Y-109916396D01*
X99754382Y-109921500D01*
X99414183Y-109921501D01*
X99406270Y-109921501D01*
X99301371Y-109932384D01*
X99294840Y-109934563D01*
X99294835Y-109934564D01*
X99176278Y-109974118D01*
X99134974Y-109987898D01*
X98985811Y-110080203D01*
X98861883Y-110204347D01*
X98860848Y-110203314D01*
X98809588Y-110239656D01*
X98768626Y-110246500D01*
X96343605Y-110246500D01*
X96275484Y-110226498D01*
X96250412Y-110205300D01*
X96188148Y-110136873D01*
X96188146Y-110136872D01*
X96184670Y-110133051D01*
X96180619Y-110129852D01*
X96180615Y-110129848D01*
X96013414Y-109997800D01*
X96013410Y-109997798D01*
X96009359Y-109994598D01*
X95996210Y-109987339D01*
X95896658Y-109932384D01*
X95813789Y-109886638D01*
X95808920Y-109884914D01*
X95808916Y-109884912D01*
X95608087Y-109813795D01*
X95608083Y-109813794D01*
X95603212Y-109812069D01*
X95598119Y-109811162D01*
X95598116Y-109811161D01*
X95388373Y-109773800D01*
X95388367Y-109773799D01*
X95383284Y-109772894D01*
X95309452Y-109771992D01*
X95165081Y-109770228D01*
X95165079Y-109770228D01*
X95159911Y-109770165D01*
X94939091Y-109803955D01*
X94726756Y-109873357D01*
X94528607Y-109976507D01*
X94524474Y-109979610D01*
X94524471Y-109979612D01*
X94354100Y-110107530D01*
X94349965Y-110110635D01*
X94260412Y-110204347D01*
X94257350Y-110207551D01*
X94195826Y-110242981D01*
X94166256Y-110246500D01*
X93803605Y-110246500D01*
X93735484Y-110226498D01*
X93710412Y-110205300D01*
X93648148Y-110136873D01*
X93648146Y-110136872D01*
X93644670Y-110133051D01*
X93640619Y-110129852D01*
X93640615Y-110129848D01*
X93473414Y-109997800D01*
X93473410Y-109997798D01*
X93469359Y-109994598D01*
X93456210Y-109987339D01*
X93356658Y-109932384D01*
X93273789Y-109886638D01*
X93268920Y-109884914D01*
X93268916Y-109884912D01*
X93068087Y-109813795D01*
X93068083Y-109813794D01*
X93063212Y-109812069D01*
X93058119Y-109811162D01*
X93058116Y-109811161D01*
X92848373Y-109773800D01*
X92848367Y-109773799D01*
X92843284Y-109772894D01*
X92769452Y-109771992D01*
X92625081Y-109770228D01*
X92625079Y-109770228D01*
X92619911Y-109770165D01*
X92399091Y-109803955D01*
X92186756Y-109873357D01*
X91988607Y-109976507D01*
X91984474Y-109979610D01*
X91984471Y-109979612D01*
X91814100Y-110107530D01*
X91809965Y-110110635D01*
X91806393Y-110114373D01*
X91686670Y-110239656D01*
X91655629Y-110272138D01*
X91652715Y-110276410D01*
X91652714Y-110276411D01*
X91600011Y-110353671D01*
X91529743Y-110456680D01*
X91527564Y-110461375D01*
X91452183Y-110623770D01*
X91435688Y-110659305D01*
X91375989Y-110874570D01*
X91352251Y-111096695D01*
X91365110Y-111319715D01*
X91366247Y-111324761D01*
X91366248Y-111324767D01*
X91367315Y-111329500D01*
X91414222Y-111537639D01*
X91498266Y-111744616D01*
X91500965Y-111749020D01*
X91597364Y-111906329D01*
X91614987Y-111935088D01*
X91761250Y-112103938D01*
X91933126Y-112246632D01*
X92006955Y-112289774D01*
X92055679Y-112341412D01*
X92068750Y-112411195D01*
X92042019Y-112476967D01*
X92001562Y-112510327D01*
X91993457Y-112514546D01*
X91984738Y-112520036D01*
X91814433Y-112647905D01*
X91806726Y-112654748D01*
X91659590Y-112808717D01*
X91653104Y-112816727D01*
X91533098Y-112992649D01*
X91528000Y-113001623D01*
X91438338Y-113194783D01*
X91434775Y-113204470D01*
X91379389Y-113404183D01*
X91380912Y-113412607D01*
X91393292Y-113416000D01*
X96573344Y-113416000D01*
X96586875Y-113412027D01*
X96588180Y-113402947D01*
X96546214Y-113235875D01*
X96542894Y-113226124D01*
X96457972Y-113030814D01*
X96453105Y-113021739D01*
X96337426Y-112842926D01*
X96331136Y-112834757D01*
X96187806Y-112677240D01*
X96180273Y-112670215D01*
X96013139Y-112538222D01*
X96004556Y-112532520D01*
X95967602Y-112512120D01*
X95917631Y-112461687D01*
X95902859Y-112392245D01*
X95927975Y-112325839D01*
X95955327Y-112299232D01*
X95998762Y-112268250D01*
X96134860Y-112171173D01*
X96256208Y-112050249D01*
X96318579Y-112016333D01*
X96345147Y-112013500D01*
X98768642Y-112013500D01*
X98836763Y-112033502D01*
X98862544Y-112056848D01*
X98862703Y-112056689D01*
X98986847Y-112180617D01*
X99136171Y-112272661D01*
X99137944Y-112273249D01*
X99189549Y-112318684D01*
X99209011Y-112386961D01*
X99188471Y-112454921D01*
X99136467Y-112500065D01*
X99120038Y-112507762D01*
X98982193Y-112593063D01*
X98970792Y-112602099D01*
X98856261Y-112716829D01*
X98847249Y-112728240D01*
X98762184Y-112866243D01*
X98756037Y-112879424D01*
X98704862Y-113033710D01*
X98701995Y-113047086D01*
X98692328Y-113141438D01*
X98692000Y-113147855D01*
X98692000Y-113397885D01*
X98696475Y-113413124D01*
X98697865Y-113414329D01*
X98705548Y-113416000D01*
X99828000Y-113416000D01*
X99896121Y-113436002D01*
X99942614Y-113489658D01*
X99954000Y-113542000D01*
X99954000Y-114884884D01*
X99958475Y-114900123D01*
X99959865Y-114901328D01*
X99967548Y-114902999D01*
X99997095Y-114902999D01*
X100003614Y-114902662D01*
X100099206Y-114892743D01*
X100112600Y-114889851D01*
X100266784Y-114838412D01*
X100279962Y-114832239D01*
X100417807Y-114746937D01*
X100429208Y-114737901D01*
X100543738Y-114623172D01*
X100550794Y-114614238D01*
X100608712Y-114573177D01*
X100679635Y-114569947D01*
X100741046Y-114605574D01*
X100747846Y-114613407D01*
X100751522Y-114619348D01*
X100876697Y-114744305D01*
X100882927Y-114748145D01*
X100882928Y-114748146D01*
X100977642Y-114806529D01*
X101025136Y-114859302D01*
X101036559Y-114929373D01*
X101020645Y-114976789D01*
X100976273Y-115053644D01*
X100917258Y-115235272D01*
X100897296Y-115425200D01*
X100917258Y-115615128D01*
X100974099Y-115790065D01*
X100976127Y-115861031D01*
X100974106Y-115867914D01*
X100917258Y-116042872D01*
X100897296Y-116232800D01*
X100917258Y-116422728D01*
X100919298Y-116429006D01*
X100974943Y-116600264D01*
X100976971Y-116671231D01*
X100974943Y-116678136D01*
X100917258Y-116855672D01*
X100897296Y-117045600D01*
X100897986Y-117052165D01*
X100902679Y-117096812D01*
X100917258Y-117235528D01*
X100976273Y-117417156D01*
X100999011Y-117456539D01*
X101015748Y-117525531D01*
X100992528Y-117592623D01*
X100956194Y-117626681D01*
X100875652Y-117676522D01*
X100750695Y-117801697D01*
X100747898Y-117806235D01*
X100690647Y-117846824D01*
X100619724Y-117850054D01*
X100558313Y-117814428D01*
X100550938Y-117805932D01*
X100542902Y-117795793D01*
X100428171Y-117681261D01*
X100416760Y-117672249D01*
X100278757Y-117587184D01*
X100265576Y-117581037D01*
X100111290Y-117529862D01*
X100097914Y-117526995D01*
X100003562Y-117517328D01*
X99997145Y-117517000D01*
X99972115Y-117517000D01*
X99956876Y-117521475D01*
X99955671Y-117522865D01*
X99954000Y-117530548D01*
X99954000Y-118878000D01*
X99933998Y-118946121D01*
X99880342Y-118992614D01*
X99828000Y-119004000D01*
X98710116Y-119004000D01*
X98694877Y-119008475D01*
X98693672Y-119009865D01*
X98692001Y-119017548D01*
X98692001Y-119272095D01*
X98692338Y-119278614D01*
X98702257Y-119374206D01*
X98705149Y-119387600D01*
X98756588Y-119541784D01*
X98762761Y-119554962D01*
X98848063Y-119692807D01*
X98857099Y-119704208D01*
X98971829Y-119818739D01*
X98983240Y-119827751D01*
X99121245Y-119912818D01*
X99136283Y-119919830D01*
X99189568Y-119966746D01*
X99209030Y-120035024D01*
X99188489Y-120102984D01*
X99137858Y-120146936D01*
X99134974Y-120147898D01*
X99128750Y-120151750D01*
X99128749Y-120151750D01*
X99073226Y-120186109D01*
X98985811Y-120240203D01*
X98861883Y-120364347D01*
X98860848Y-120363314D01*
X98809588Y-120399656D01*
X98768626Y-120406500D01*
X96343605Y-120406500D01*
X96275484Y-120386498D01*
X96250412Y-120365300D01*
X96188148Y-120296873D01*
X96188146Y-120296872D01*
X96184670Y-120293051D01*
X96180619Y-120289852D01*
X96180615Y-120289848D01*
X96013414Y-120157800D01*
X96013410Y-120157798D01*
X96009359Y-120154598D01*
X96003168Y-120151180D01*
X95967569Y-120131529D01*
X95917598Y-120081097D01*
X95902826Y-120011654D01*
X95927942Y-119945248D01*
X95955294Y-119918641D01*
X96130328Y-119793792D01*
X96138200Y-119787139D01*
X96289052Y-119636812D01*
X96295730Y-119628965D01*
X96420003Y-119456020D01*
X96425313Y-119447183D01*
X96519670Y-119256267D01*
X96523469Y-119246672D01*
X96585377Y-119042910D01*
X96587555Y-119032837D01*
X96588986Y-119021962D01*
X96586775Y-119007778D01*
X96573617Y-119004000D01*
X91398225Y-119004000D01*
X91384694Y-119007973D01*
X91383257Y-119017966D01*
X91413565Y-119152446D01*
X91416645Y-119162275D01*
X91496770Y-119359603D01*
X91501413Y-119368794D01*
X91612694Y-119550388D01*
X91618777Y-119558699D01*
X91758213Y-119719667D01*
X91765577Y-119726879D01*
X91770522Y-119730985D01*
X91810156Y-119789889D01*
X91811653Y-119860870D01*
X91774537Y-119921392D01*
X91734264Y-119945910D01*
X91626705Y-119986232D01*
X91626704Y-119986233D01*
X91618295Y-119989385D01*
X91501739Y-120076739D01*
X91414385Y-120193295D01*
X91363255Y-120329684D01*
X91356500Y-120391866D01*
X91356500Y-122188134D01*
X91363255Y-122250316D01*
X91414385Y-122386705D01*
X91501739Y-122503261D01*
X91618295Y-122590615D01*
X91754684Y-122641745D01*
X91816866Y-122648500D01*
X93613134Y-122648500D01*
X93675316Y-122641745D01*
X93811705Y-122590615D01*
X93928261Y-122503261D01*
X94015615Y-122386705D01*
X94059598Y-122269381D01*
X94102240Y-122212617D01*
X94168801Y-122187917D01*
X94238150Y-122203124D01*
X94272814Y-122231111D01*
X94301250Y-122263938D01*
X94473126Y-122406632D01*
X94666000Y-122519338D01*
X94670825Y-122521180D01*
X94670826Y-122521181D01*
X94743612Y-122548975D01*
X94874692Y-122599030D01*
X94879760Y-122600061D01*
X94879763Y-122600062D01*
X94987017Y-122621883D01*
X95093597Y-122643567D01*
X95098772Y-122643757D01*
X95098774Y-122643757D01*
X95311673Y-122651564D01*
X95311677Y-122651564D01*
X95316837Y-122651753D01*
X95321957Y-122651097D01*
X95321959Y-122651097D01*
X95533288Y-122624025D01*
X95533289Y-122624025D01*
X95538416Y-122623368D01*
X95543366Y-122621883D01*
X95747429Y-122560661D01*
X95747434Y-122560659D01*
X95752384Y-122559174D01*
X95952994Y-122460896D01*
X96134860Y-122331173D01*
X96256208Y-122210249D01*
X96318579Y-122176333D01*
X96345147Y-122173500D01*
X98768642Y-122173500D01*
X98836763Y-122193502D01*
X98862544Y-122216848D01*
X98862703Y-122216689D01*
X98986847Y-122340617D01*
X99136171Y-122432661D01*
X99143119Y-122434966D01*
X99143120Y-122434966D01*
X99296134Y-122485719D01*
X99296136Y-122485719D01*
X99302665Y-122487885D01*
X99406269Y-122498500D01*
X99625280Y-122498500D01*
X99693399Y-122518501D01*
X99715006Y-122536040D01*
X99735580Y-122556909D01*
X99747513Y-122560000D01*
X100563500Y-122560000D01*
X100631621Y-122580002D01*
X100678114Y-122633658D01*
X100689500Y-122686000D01*
X100689500Y-123049484D01*
X100689693Y-123051932D01*
X100689693Y-123051940D01*
X100691184Y-123070876D01*
X100692394Y-123086254D01*
X100738106Y-123243597D01*
X100742141Y-123250419D01*
X100742141Y-123250420D01*
X100754454Y-123271240D01*
X100772000Y-123335379D01*
X100772000Y-123607558D01*
X100775973Y-123621089D01*
X100791207Y-123623279D01*
X100851344Y-123623451D01*
X100910960Y-123662005D01*
X100940268Y-123726670D01*
X100941500Y-123744245D01*
X100941500Y-124180406D01*
X100921498Y-124248527D01*
X100904595Y-124269501D01*
X98079001Y-127095095D01*
X98016689Y-127129121D01*
X97989906Y-127132000D01*
X93529190Y-127132000D01*
X93461069Y-127111998D01*
X93440095Y-127095095D01*
X89427775Y-123082775D01*
X99732937Y-123082775D01*
X99734688Y-123092359D01*
X99776357Y-123235784D01*
X99782604Y-123250220D01*
X99857876Y-123377499D01*
X99867516Y-123389926D01*
X99972074Y-123494484D01*
X99984501Y-123504124D01*
X100111780Y-123579396D01*
X100126216Y-123585643D01*
X100246605Y-123620619D01*
X100260705Y-123620579D01*
X100264000Y-123613309D01*
X100264000Y-123086115D01*
X100259525Y-123070876D01*
X100258135Y-123069671D01*
X100250452Y-123068000D01*
X99749576Y-123068000D01*
X99734781Y-123072344D01*
X99732937Y-123082775D01*
X89427775Y-123082775D01*
X89195905Y-122850905D01*
X89161879Y-122788593D01*
X89159000Y-122761810D01*
X89159000Y-118484183D01*
X91379389Y-118484183D01*
X91380912Y-118492607D01*
X91393292Y-118496000D01*
X92442885Y-118496000D01*
X92458124Y-118491525D01*
X92459329Y-118490135D01*
X92461000Y-118482452D01*
X92461000Y-118477885D01*
X92969000Y-118477885D01*
X92973475Y-118493124D01*
X92974865Y-118494329D01*
X92982548Y-118496000D01*
X94982885Y-118496000D01*
X94998124Y-118491525D01*
X94999329Y-118490135D01*
X95001000Y-118482452D01*
X95001000Y-118477885D01*
X95509000Y-118477885D01*
X95513475Y-118493124D01*
X95514865Y-118494329D01*
X95522548Y-118496000D01*
X96573344Y-118496000D01*
X96586875Y-118492027D01*
X96588180Y-118482947D01*
X96586909Y-118477885D01*
X98692000Y-118477885D01*
X98696475Y-118493124D01*
X98697865Y-118494329D01*
X98705548Y-118496000D01*
X99427885Y-118496000D01*
X99443124Y-118491525D01*
X99444329Y-118490135D01*
X99446000Y-118482452D01*
X99446000Y-117535116D01*
X99441525Y-117519877D01*
X99440135Y-117518672D01*
X99432452Y-117517001D01*
X99402905Y-117517001D01*
X99396386Y-117517338D01*
X99300794Y-117527257D01*
X99287400Y-117530149D01*
X99133216Y-117581588D01*
X99120038Y-117587761D01*
X98982193Y-117673063D01*
X98970792Y-117682099D01*
X98856261Y-117796829D01*
X98847249Y-117808240D01*
X98762184Y-117946243D01*
X98756037Y-117959424D01*
X98704862Y-118113710D01*
X98701995Y-118127086D01*
X98692328Y-118221438D01*
X98692000Y-118227855D01*
X98692000Y-118477885D01*
X96586909Y-118477885D01*
X96546214Y-118315875D01*
X96542894Y-118306124D01*
X96457972Y-118110814D01*
X96453105Y-118101739D01*
X96337426Y-117922926D01*
X96331136Y-117914757D01*
X96187806Y-117757240D01*
X96180273Y-117750215D01*
X96013139Y-117618222D01*
X96004552Y-117612517D01*
X95967116Y-117591851D01*
X95917146Y-117541419D01*
X95902374Y-117471976D01*
X95927490Y-117405571D01*
X95954842Y-117378964D01*
X96130327Y-117253792D01*
X96138200Y-117247139D01*
X96289052Y-117096812D01*
X96295730Y-117088965D01*
X96420003Y-116916020D01*
X96425313Y-116907183D01*
X96519670Y-116716267D01*
X96523469Y-116706672D01*
X96585377Y-116502910D01*
X96587555Y-116492837D01*
X96588986Y-116481962D01*
X96586775Y-116467778D01*
X96573617Y-116464000D01*
X95527115Y-116464000D01*
X95511876Y-116468475D01*
X95510671Y-116469865D01*
X95509000Y-116477548D01*
X95509000Y-118477885D01*
X95001000Y-118477885D01*
X95001000Y-116482115D01*
X94996525Y-116466876D01*
X94995135Y-116465671D01*
X94987452Y-116464000D01*
X92987115Y-116464000D01*
X92971876Y-116468475D01*
X92970671Y-116469865D01*
X92969000Y-116477548D01*
X92969000Y-118477885D01*
X92461000Y-118477885D01*
X92461000Y-116482115D01*
X92456525Y-116466876D01*
X92455135Y-116465671D01*
X92447452Y-116464000D01*
X91398225Y-116464000D01*
X91384694Y-116467973D01*
X91383257Y-116477966D01*
X91413565Y-116612446D01*
X91416645Y-116622275D01*
X91496770Y-116819603D01*
X91501413Y-116828794D01*
X91612694Y-117010388D01*
X91618777Y-117018699D01*
X91758213Y-117179667D01*
X91765580Y-117186883D01*
X91929434Y-117322916D01*
X91937881Y-117328831D01*
X92007479Y-117369501D01*
X92056203Y-117421140D01*
X92069274Y-117490923D01*
X92042543Y-117556694D01*
X92002087Y-117590053D01*
X91993462Y-117594542D01*
X91984738Y-117600036D01*
X91814433Y-117727905D01*
X91806726Y-117734748D01*
X91659590Y-117888717D01*
X91653104Y-117896727D01*
X91533098Y-118072649D01*
X91528000Y-118081623D01*
X91438338Y-118274783D01*
X91434775Y-118284470D01*
X91379389Y-118484183D01*
X89159000Y-118484183D01*
X89159000Y-115944183D01*
X91379389Y-115944183D01*
X91380912Y-115952607D01*
X91393292Y-115956000D01*
X92442885Y-115956000D01*
X92458124Y-115951525D01*
X92459329Y-115950135D01*
X92461000Y-115942452D01*
X92461000Y-115937885D01*
X92969000Y-115937885D01*
X92973475Y-115953124D01*
X92974865Y-115954329D01*
X92982548Y-115956000D01*
X94982885Y-115956000D01*
X94998124Y-115951525D01*
X94999329Y-115950135D01*
X95001000Y-115942452D01*
X95001000Y-115937885D01*
X95509000Y-115937885D01*
X95513475Y-115953124D01*
X95514865Y-115954329D01*
X95522548Y-115956000D01*
X96573344Y-115956000D01*
X96586875Y-115952027D01*
X96588180Y-115942947D01*
X96546214Y-115775875D01*
X96542894Y-115766124D01*
X96457972Y-115570814D01*
X96453105Y-115561739D01*
X96337426Y-115382926D01*
X96331136Y-115374757D01*
X96187806Y-115217240D01*
X96180273Y-115210215D01*
X96013139Y-115078222D01*
X96004552Y-115072517D01*
X95967116Y-115051851D01*
X95917146Y-115001419D01*
X95902374Y-114931976D01*
X95927490Y-114865571D01*
X95954842Y-114838964D01*
X96130327Y-114713792D01*
X96138200Y-114707139D01*
X96289052Y-114556812D01*
X96295730Y-114548965D01*
X96420003Y-114376020D01*
X96425313Y-114367183D01*
X96511847Y-114192095D01*
X98692001Y-114192095D01*
X98692338Y-114198614D01*
X98702257Y-114294206D01*
X98705149Y-114307600D01*
X98756588Y-114461784D01*
X98762761Y-114474962D01*
X98848063Y-114612807D01*
X98857099Y-114624208D01*
X98971829Y-114738739D01*
X98983240Y-114747751D01*
X99121243Y-114832816D01*
X99134424Y-114838963D01*
X99288710Y-114890138D01*
X99302086Y-114893005D01*
X99396438Y-114902672D01*
X99402854Y-114903000D01*
X99427885Y-114903000D01*
X99443124Y-114898525D01*
X99444329Y-114897135D01*
X99446000Y-114889452D01*
X99446000Y-113942115D01*
X99441525Y-113926876D01*
X99440135Y-113925671D01*
X99432452Y-113924000D01*
X98710116Y-113924000D01*
X98694877Y-113928475D01*
X98693672Y-113929865D01*
X98692001Y-113937548D01*
X98692001Y-114192095D01*
X96511847Y-114192095D01*
X96519670Y-114176267D01*
X96523469Y-114166672D01*
X96585377Y-113962910D01*
X96587555Y-113952837D01*
X96588986Y-113941962D01*
X96586775Y-113927778D01*
X96573617Y-113924000D01*
X95527115Y-113924000D01*
X95511876Y-113928475D01*
X95510671Y-113929865D01*
X95509000Y-113937548D01*
X95509000Y-115937885D01*
X95001000Y-115937885D01*
X95001000Y-113942115D01*
X94996525Y-113926876D01*
X94995135Y-113925671D01*
X94987452Y-113924000D01*
X92987115Y-113924000D01*
X92971876Y-113928475D01*
X92970671Y-113929865D01*
X92969000Y-113937548D01*
X92969000Y-115937885D01*
X92461000Y-115937885D01*
X92461000Y-113942115D01*
X92456525Y-113926876D01*
X92455135Y-113925671D01*
X92447452Y-113924000D01*
X91398225Y-113924000D01*
X91384694Y-113927973D01*
X91383257Y-113937966D01*
X91413565Y-114072446D01*
X91416645Y-114082275D01*
X91496770Y-114279603D01*
X91501413Y-114288794D01*
X91612694Y-114470388D01*
X91618777Y-114478699D01*
X91758213Y-114639667D01*
X91765580Y-114646883D01*
X91929434Y-114782916D01*
X91937881Y-114788831D01*
X92007479Y-114829501D01*
X92056203Y-114881140D01*
X92069274Y-114950923D01*
X92042543Y-115016694D01*
X92002087Y-115050053D01*
X91993462Y-115054542D01*
X91984738Y-115060036D01*
X91814433Y-115187905D01*
X91806726Y-115194748D01*
X91659590Y-115348717D01*
X91653104Y-115356727D01*
X91533098Y-115532649D01*
X91528000Y-115541623D01*
X91438338Y-115734783D01*
X91434775Y-115744470D01*
X91379389Y-115944183D01*
X89159000Y-115944183D01*
X89159000Y-111027674D01*
X89172043Y-110971847D01*
X89264461Y-110784854D01*
X89264462Y-110784852D01*
X89266755Y-110780212D01*
X89332890Y-110562536D01*
X89360388Y-110353671D01*
X89362148Y-110340302D01*
X89362148Y-110340298D01*
X89362585Y-110336981D01*
X89364242Y-110269166D01*
X89345601Y-110042430D01*
X89300753Y-109863882D01*
X89291437Y-109826795D01*
X89291437Y-109826794D01*
X89290178Y-109821783D01*
X89199462Y-109613151D01*
X89179208Y-109581843D01*
X89159000Y-109513403D01*
X89159000Y-109335609D01*
X99860232Y-109335609D01*
X99863052Y-109349031D01*
X99874513Y-109352000D01*
X100372885Y-109352000D01*
X100388124Y-109347525D01*
X100389329Y-109346135D01*
X100391000Y-109338452D01*
X100391000Y-108812442D01*
X100387027Y-108798911D01*
X100379129Y-108797776D01*
X100253216Y-108834357D01*
X100238780Y-108840604D01*
X100111501Y-108915876D01*
X100099074Y-108925516D01*
X99994516Y-109030074D01*
X99984876Y-109042501D01*
X99909604Y-109169780D01*
X99903357Y-109184216D01*
X99861688Y-109327641D01*
X99860232Y-109335609D01*
X89159000Y-109335609D01*
X89159000Y-107534260D01*
X89179002Y-107466139D01*
X89195905Y-107445165D01*
X89412665Y-107228405D01*
X89474977Y-107194379D01*
X89501760Y-107191500D01*
X99245800Y-107191500D01*
X99313921Y-107211502D01*
X99333147Y-107227843D01*
X99333420Y-107227540D01*
X99338332Y-107231963D01*
X99342747Y-107236866D01*
X99497248Y-107349118D01*
X99503276Y-107351802D01*
X99503278Y-107351803D01*
X99665681Y-107424109D01*
X99671712Y-107426794D01*
X99758140Y-107445165D01*
X99852056Y-107465128D01*
X99852061Y-107465128D01*
X99858513Y-107466500D01*
X100049487Y-107466500D01*
X100055939Y-107465128D01*
X100055944Y-107465128D01*
X100149860Y-107445165D01*
X100236288Y-107426794D01*
X100242319Y-107424109D01*
X100404722Y-107351803D01*
X100404724Y-107351802D01*
X100410752Y-107349118D01*
X100565253Y-107236866D01*
X100671865Y-107118462D01*
X100732310Y-107081222D01*
X100803293Y-107082574D01*
G37*
G04 #@! TD.AperFunction*
G04 #@! TA.AperFunction,Conductor*
G36*
X100833621Y-105054002D02*
G01*
X100880114Y-105107658D01*
X100891500Y-105160000D01*
X100891500Y-105913228D01*
X100871498Y-105981349D01*
X100817842Y-106027842D01*
X100747568Y-106037946D01*
X100682988Y-106008452D01*
X100671864Y-105997538D01*
X100657288Y-105981349D01*
X100565253Y-105879134D01*
X100410752Y-105766882D01*
X100404724Y-105764198D01*
X100404722Y-105764197D01*
X100242319Y-105691891D01*
X100242318Y-105691891D01*
X100236288Y-105689206D01*
X100142887Y-105669353D01*
X100055944Y-105650872D01*
X100055939Y-105650872D01*
X100049487Y-105649500D01*
X99858513Y-105649500D01*
X99852061Y-105650872D01*
X99852056Y-105650872D01*
X99765113Y-105669353D01*
X99671712Y-105689206D01*
X99665682Y-105691891D01*
X99665681Y-105691891D01*
X99503278Y-105764197D01*
X99503276Y-105764198D01*
X99497248Y-105766882D01*
X99342747Y-105879134D01*
X99338332Y-105884037D01*
X99333420Y-105888460D01*
X99332295Y-105887211D01*
X99278986Y-105920051D01*
X99245800Y-105924500D01*
X89285000Y-105924500D01*
X89216879Y-105904498D01*
X89170386Y-105850842D01*
X89159000Y-105798500D01*
X89159000Y-105160000D01*
X89179002Y-105091879D01*
X89232658Y-105045386D01*
X89285000Y-105034000D01*
X100765500Y-105034000D01*
X100833621Y-105054002D01*
G37*
G04 #@! TD.AperFunction*
M02*
