G04 #@! TF.GenerationSoftware,KiCad,Pcbnew,(6.0.0)*
G04 #@! TF.CreationDate,2022-02-23T18:40:55+01:00*
G04 #@! TF.ProjectId,ad633muliply,61643633-336d-4756-9c69-706c792e6b69,rev?*
G04 #@! TF.SameCoordinates,Original*
G04 #@! TF.FileFunction,Paste,Bot*
G04 #@! TF.FilePolarity,Positive*
%FSLAX46Y46*%
G04 Gerber Fmt 4.6, Leading zero omitted, Abs format (unit mm)*
G04 Created by KiCad (PCBNEW (6.0.0)) date 2022-02-23 18:40:55*
%MOMM*%
%LPD*%
G01*
G04 APERTURE LIST*
G04 Aperture macros list*
%AMRoundRect*
0 Rectangle with rounded corners*
0 $1 Rounding radius*
0 $2 $3 $4 $5 $6 $7 $8 $9 X,Y pos of 4 corners*
0 Add a 4 corners polygon primitive as box body*
4,1,4,$2,$3,$4,$5,$6,$7,$8,$9,$2,$3,0*
0 Add four circle primitives for the rounded corners*
1,1,$1+$1,$2,$3*
1,1,$1+$1,$4,$5*
1,1,$1+$1,$6,$7*
1,1,$1+$1,$8,$9*
0 Add four rect primitives between the rounded corners*
20,1,$1+$1,$2,$3,$4,$5,0*
20,1,$1+$1,$4,$5,$6,$7,0*
20,1,$1+$1,$6,$7,$8,$9,0*
20,1,$1+$1,$8,$9,$2,$3,0*%
G04 Aperture macros list end*
%ADD10RoundRect,0.140000X-0.170000X0.140000X-0.170000X-0.140000X0.170000X-0.140000X0.170000X0.140000X0*%
%ADD11RoundRect,0.140000X0.170000X-0.140000X0.170000X0.140000X-0.170000X0.140000X-0.170000X-0.140000X0*%
%ADD12RoundRect,0.135000X-0.226274X-0.035355X-0.035355X-0.226274X0.226274X0.035355X0.035355X0.226274X0*%
%ADD13RoundRect,0.135000X-0.135000X-0.185000X0.135000X-0.185000X0.135000X0.185000X-0.135000X0.185000X0*%
%ADD14RoundRect,0.135000X-0.185000X0.135000X-0.185000X-0.135000X0.185000X-0.135000X0.185000X0.135000X0*%
%ADD15RoundRect,0.135000X0.185000X-0.135000X0.185000X0.135000X-0.185000X0.135000X-0.185000X-0.135000X0*%
%ADD16RoundRect,0.135000X-0.035355X0.226274X-0.226274X0.035355X0.035355X-0.226274X0.226274X-0.035355X0*%
%ADD17RoundRect,0.135000X0.135000X0.185000X-0.135000X0.185000X-0.135000X-0.185000X0.135000X-0.185000X0*%
%ADD18RoundRect,0.250000X-0.250000X-0.475000X0.250000X-0.475000X0.250000X0.475000X-0.250000X0.475000X0*%
%ADD19RoundRect,0.140000X0.140000X0.170000X-0.140000X0.170000X-0.140000X-0.170000X0.140000X-0.170000X0*%
%ADD20RoundRect,0.140000X-0.140000X-0.170000X0.140000X-0.170000X0.140000X0.170000X-0.140000X0.170000X0*%
%ADD21RoundRect,0.200000X0.200000X0.275000X-0.200000X0.275000X-0.200000X-0.275000X0.200000X-0.275000X0*%
%ADD22RoundRect,0.100000X0.637500X0.100000X-0.637500X0.100000X-0.637500X-0.100000X0.637500X-0.100000X0*%
%ADD23RoundRect,0.200000X-0.053033X0.335876X-0.335876X0.053033X0.053033X-0.335876X0.335876X-0.053033X0*%
%ADD24RoundRect,0.200000X-0.200000X-0.275000X0.200000X-0.275000X0.200000X0.275000X-0.200000X0.275000X0*%
%ADD25RoundRect,0.200000X-0.275000X0.200000X-0.275000X-0.200000X0.275000X-0.200000X0.275000X0.200000X0*%
%ADD26RoundRect,0.100000X-0.637500X-0.100000X0.637500X-0.100000X0.637500X0.100000X-0.637500X0.100000X0*%
%ADD27RoundRect,0.200000X0.275000X-0.200000X0.275000X0.200000X-0.275000X0.200000X-0.275000X-0.200000X0*%
%ADD28RoundRect,0.243750X-0.243750X-0.456250X0.243750X-0.456250X0.243750X0.456250X-0.243750X0.456250X0*%
%ADD29RoundRect,0.250000X0.250000X0.475000X-0.250000X0.475000X-0.250000X-0.475000X0.250000X-0.475000X0*%
%ADD30R,0.900000X0.800000*%
%ADD31RoundRect,0.250000X0.475000X-0.250000X0.475000X0.250000X-0.475000X0.250000X-0.475000X-0.250000X0*%
G04 APERTURE END LIST*
D10*
X102087600Y-136202400D03*
X102087600Y-137162400D03*
D11*
X102138400Y-140921600D03*
X102138400Y-139961600D03*
D10*
X115575000Y-87282000D03*
X115575000Y-88242000D03*
D11*
X117022800Y-138252000D03*
X117022800Y-137292000D03*
D12*
X79801752Y-155747752D03*
X80523000Y-156469000D03*
D13*
X104270000Y-106558000D03*
X105290000Y-106558000D03*
X96853200Y-134650400D03*
X97873200Y-134650400D03*
D14*
X91978400Y-136170400D03*
X91978400Y-137190400D03*
D12*
X95168752Y-155620752D03*
X95890000Y-156342000D03*
D15*
X109352000Y-107574000D03*
X109352000Y-106554000D03*
X109352000Y-135666400D03*
X109352000Y-134646400D03*
D14*
X103154400Y-136170400D03*
X103154400Y-137190400D03*
D16*
X108041248Y-155747752D03*
X107320000Y-156469000D03*
D15*
X133228000Y-107578000D03*
X133228000Y-106558000D03*
D14*
X131856400Y-139195000D03*
X131856400Y-140215000D03*
D15*
X103205200Y-140953600D03*
X103205200Y-139933600D03*
D17*
X153044000Y-106558000D03*
X152024000Y-106558000D03*
X139480400Y-140238400D03*
X138460400Y-140238400D03*
D16*
X123408248Y-155874752D03*
X122687000Y-156596000D03*
D18*
X99700000Y-113670000D03*
X101600000Y-113670000D03*
D11*
X115651200Y-90223200D03*
X115651200Y-89263200D03*
D10*
X150906400Y-148953200D03*
X150906400Y-149913200D03*
D19*
X139628800Y-149890400D03*
X138668800Y-149890400D03*
D20*
X126420800Y-123423600D03*
X127380800Y-123423600D03*
D11*
X93096000Y-140944400D03*
X93096000Y-139984400D03*
X149230000Y-152605600D03*
X149230000Y-151645600D03*
D14*
X133228000Y-84964000D03*
X133228000Y-85984000D03*
D13*
X88397000Y-85984000D03*
X89417000Y-85984000D03*
D21*
X124921200Y-171582000D03*
X123271200Y-171582000D03*
D22*
X122900200Y-87894800D03*
X122900200Y-88544800D03*
X122900200Y-89194800D03*
X122900200Y-89844800D03*
X122900200Y-90494800D03*
X122900200Y-91144800D03*
X122900200Y-91794800D03*
X117175200Y-91794800D03*
X117175200Y-91144800D03*
X117175200Y-90494800D03*
X117175200Y-89844800D03*
X117175200Y-89194800D03*
X117175200Y-88544800D03*
X117175200Y-87894800D03*
X147639800Y-147940400D03*
X147639800Y-148590400D03*
X147639800Y-149240400D03*
X147639800Y-149890400D03*
X147639800Y-150540400D03*
X147639800Y-151190400D03*
X147639800Y-151840400D03*
X141914800Y-151840400D03*
X141914800Y-151190400D03*
X141914800Y-150540400D03*
X141914800Y-149890400D03*
X141914800Y-149240400D03*
X141914800Y-148590400D03*
X141914800Y-147940400D03*
D11*
X140390800Y-152730000D03*
X140390800Y-151770000D03*
D23*
X112169726Y-143566637D03*
X111003000Y-144733363D03*
D24*
X118534600Y-132415200D03*
X120184600Y-132415200D03*
D10*
X117327600Y-135135600D03*
X117327600Y-136095600D03*
D20*
X126420800Y-135920400D03*
X127380800Y-135920400D03*
D11*
X124465000Y-92461000D03*
X124465000Y-91501000D03*
D25*
X125735000Y-91699000D03*
X125735000Y-93349000D03*
D26*
X118867000Y-137921200D03*
X118867000Y-137271200D03*
X118867000Y-136621200D03*
X118867000Y-135971200D03*
X118867000Y-135321200D03*
X118867000Y-134671200D03*
X118867000Y-134021200D03*
X124592000Y-134021200D03*
X124592000Y-134671200D03*
X124592000Y-135321200D03*
X124592000Y-135971200D03*
X124592000Y-136621200D03*
X124592000Y-137271200D03*
X124592000Y-137921200D03*
D27*
X152024000Y-153509400D03*
X152024000Y-151859400D03*
D25*
X150500000Y-151859400D03*
X150500000Y-153509400D03*
X138562000Y-163949800D03*
X138562000Y-165599800D03*
D21*
X96143000Y-145039000D03*
X94493000Y-145039000D03*
D11*
X115575000Y-92278000D03*
X115575000Y-91318000D03*
D10*
X117327600Y-133154400D03*
X117327600Y-134114400D03*
D15*
X111511000Y-89286000D03*
X111511000Y-88266000D03*
X117022800Y-140291200D03*
X117022800Y-139271200D03*
X127386000Y-91699000D03*
X127386000Y-90679000D03*
D14*
X139374800Y-151768000D03*
X139374800Y-152788000D03*
D17*
X144710800Y-153751200D03*
X143690800Y-153751200D03*
D14*
X149179200Y-147094400D03*
X149179200Y-148114400D03*
D25*
X92842000Y-163836000D03*
X92842000Y-165486000D03*
D28*
X99700000Y-121290000D03*
X101575000Y-121290000D03*
X99700000Y-111130000D03*
X101575000Y-111130000D03*
D10*
X150144400Y-147101600D03*
X150144400Y-148061600D03*
D11*
X127386000Y-138252000D03*
X127386000Y-137292000D03*
D14*
X126243000Y-137292000D03*
X126243000Y-138312000D03*
D29*
X101600000Y-118750000D03*
X99700000Y-118750000D03*
D11*
X93096000Y-139070000D03*
X93096000Y-138110000D03*
D20*
X101810800Y-138917600D03*
X102770800Y-138917600D03*
D19*
X126263200Y-89692400D03*
X125303200Y-89692400D03*
D20*
X116520000Y-123576000D03*
X117480000Y-123576000D03*
X100518000Y-122814000D03*
X101478000Y-122814000D03*
D19*
X101605000Y-109606000D03*
X100645000Y-109606000D03*
D10*
X124465000Y-87564000D03*
X124465000Y-88524000D03*
D30*
X108996400Y-122915600D03*
X108996400Y-124815600D03*
X106996400Y-123865600D03*
D21*
X113846800Y-164114400D03*
X112196800Y-164114400D03*
D15*
X92029200Y-141004400D03*
X92029200Y-139984400D03*
D17*
X154183000Y-85984000D03*
X153163000Y-85984000D03*
D14*
X109352000Y-84964000D03*
X109352000Y-85984000D03*
D25*
X110876000Y-121265600D03*
X110876000Y-122915600D03*
D27*
X110876000Y-126370000D03*
X110876000Y-124720000D03*
D31*
X124846000Y-130825200D03*
X124846000Y-128925200D03*
D21*
X125163000Y-132364400D03*
X123513000Y-132364400D03*
D24*
X125736000Y-88270000D03*
X127386000Y-88270000D03*
D25*
X115498800Y-137444400D03*
X115498800Y-139094400D03*
X114305000Y-91572000D03*
X114305000Y-93222000D03*
D27*
X116057600Y-133990000D03*
X116057600Y-132340000D03*
D26*
X94635400Y-140543200D03*
X94635400Y-139893200D03*
X94635400Y-139243200D03*
X94635400Y-138593200D03*
X94635400Y-137943200D03*
X94635400Y-137293200D03*
X94635400Y-136643200D03*
X100360400Y-136643200D03*
X100360400Y-137293200D03*
X100360400Y-137943200D03*
X100360400Y-138593200D03*
X100360400Y-139243200D03*
X100360400Y-139893200D03*
X100360400Y-140543200D03*
D10*
X93096000Y-136230400D03*
X93096000Y-137190400D03*
D21*
X114368000Y-88270000D03*
X112718000Y-88270000D03*
M02*
