%FSLAX45Y45*%
G04 Gerber Fmt 4.5, Leading zero omitted, Abs format (unit mm)*
G04 Created by KiCad (PCBNEW (6.0.0)) date 2022-02-23 18:41:03*
%MOMM*%
%LPD*%
G01*
G04 APERTURE LIST*
%TA.AperFunction,Profile*%
%ADD10C,0.200000*%
%TD*%
%ADD11C,0.200000*%
%ADD12C,0.040000*%
%ADD13C,0.045000*%
%ADD14C,0.076200*%
%ADD15C,0.080000*%
%ADD16C,0.100000*%
%ADD17C,0.220000*%
G04 APERTURE END LIST*
D10*
X16675600Y-6922000D02*
X16675600Y-17336000D01*
X7557000Y-17336000D02*
X7557000Y-6922000D01*
X7557000Y-6922000D02*
X16675600Y-6922000D01*
X16675600Y-17336000D02*
X7557000Y-17336000D01*
D11*
D12*
X12093760Y-13221520D02*
X12133760Y-13261520D01*
X12133760Y-13221520D02*
X12093760Y-13261520D01*
X12299500Y-13086900D02*
X12339500Y-13126900D01*
X12339500Y-13086900D02*
X12299500Y-13126900D01*
D13*
X8100200Y-15507200D02*
G75*
G03*
X8100200Y-15507200I-22500J0D01*
G01*
X9040000Y-11240000D02*
G75*
G03*
X9040000Y-11240000I-22500J0D01*
G01*
X9040000Y-11494000D02*
G75*
G03*
X9040000Y-11494000I-22500J0D01*
G01*
X9040000Y-11748000D02*
G75*
G03*
X9040000Y-11748000I-22500J0D01*
G01*
X9040000Y-11976600D02*
G75*
G03*
X9040000Y-11976600I-22500J0D01*
G01*
X9230500Y-13894300D02*
G75*
G03*
X9230500Y-13894300I-22500J0D01*
G01*
X9471800Y-15494500D02*
G75*
G03*
X9471800Y-15494500I-22500J0D01*
G01*
X9484500Y-13373600D02*
G75*
G03*
X9484500Y-13373600I-22500J0D01*
G01*
X9525140Y-13465040D02*
G75*
G03*
X9525140Y-13465040I-22500J0D01*
G01*
X9573400Y-16281900D02*
G75*
G03*
X9573400Y-16281900I-22500J0D01*
G01*
X9573400Y-16383500D02*
G75*
G03*
X9573400Y-16383500I-22500J0D01*
G01*
X9776600Y-14503900D02*
G75*
G03*
X9776600Y-14503900I-22500J0D01*
G01*
X9827400Y-14592800D02*
G75*
G03*
X9827400Y-14592800I-22500J0D01*
G01*
X10017900Y-10528800D02*
G75*
G03*
X10017900Y-10528800I-22500J0D01*
G01*
X10017900Y-10655800D02*
G75*
G03*
X10017900Y-10655800I-22500J0D01*
G01*
X10106800Y-11659100D02*
G75*
G03*
X10106800Y-11659100I-22500J0D01*
G01*
X10203580Y-11542520D02*
G75*
G03*
X10203580Y-11542520I-22500J0D01*
G01*
X10203580Y-11623280D02*
G75*
G03*
X10203580Y-11623280I-22500J0D01*
G01*
X10203580Y-11704560D02*
G75*
G03*
X10203580Y-11704560I-22500J0D01*
G01*
X10203580Y-13807680D02*
G75*
G03*
X10203580Y-13807680I-22500J0D01*
G01*
X10310000Y-11570200D02*
G75*
G03*
X10310000Y-11570200I-22500J0D01*
G01*
X10348100Y-10528800D02*
G75*
G03*
X10348100Y-10528800I-22500J0D01*
G01*
X10348100Y-10655800D02*
G75*
G03*
X10348100Y-10655800I-22500J0D01*
G01*
X10398900Y-13894300D02*
G75*
G03*
X10398900Y-13894300I-22500J0D01*
G01*
X10551300Y-13551400D02*
G75*
G03*
X10551300Y-13551400I-22500J0D01*
G01*
X10779900Y-15469100D02*
G75*
G03*
X10779900Y-15469100I-22500J0D01*
G01*
X10972940Y-12637000D02*
G75*
G03*
X10972940Y-12637000I-22500J0D01*
G01*
X11262500Y-9258800D02*
G75*
G03*
X11262500Y-9258800I-22500J0D01*
G01*
X11262500Y-14186400D02*
G75*
G03*
X11262500Y-14186400I-22500J0D01*
G01*
X11300600Y-8941300D02*
G75*
G03*
X11300600Y-8941300I-22500J0D01*
G01*
X11300600Y-9157200D02*
G75*
G03*
X11300600Y-9157200I-22500J0D01*
G01*
X11338700Y-14262600D02*
G75*
G03*
X11338700Y-14262600I-22500J0D01*
G01*
X11465700Y-9690600D02*
G75*
G03*
X11465700Y-9690600I-22500J0D01*
G01*
X11491100Y-8954000D02*
G75*
G03*
X11491100Y-8954000I-22500J0D01*
G01*
X11516500Y-12129000D02*
G75*
G03*
X11516500Y-12129000I-22500J0D01*
G01*
X11529200Y-11976600D02*
G75*
G03*
X11529200Y-11976600I-22500J0D01*
G01*
X11567300Y-12230600D02*
G75*
G03*
X11567300Y-12230600I-22500J0D01*
G01*
X11567300Y-12357600D02*
G75*
G03*
X11567300Y-12357600I-22500J0D01*
G01*
X11592700Y-9335000D02*
G75*
G03*
X11592700Y-9335000I-22500J0D01*
G01*
X11599050Y-9722350D02*
G75*
G03*
X11599050Y-9722350I-22500J0D01*
G01*
X11618100Y-12129000D02*
G75*
G03*
X11618100Y-12129000I-22500J0D01*
G01*
X11643500Y-13526000D02*
G75*
G03*
X11643500Y-13526000I-22500J0D01*
G01*
X11668900Y-12459200D02*
G75*
G03*
X11668900Y-12459200I-22500J0D01*
G01*
X11770500Y-12675100D02*
G75*
G03*
X11770500Y-12675100I-22500J0D01*
G01*
X11834000Y-13919700D02*
G75*
G03*
X11834000Y-13919700I-22500J0D01*
G01*
X11884800Y-9055600D02*
G75*
G03*
X11884800Y-9055600I-22500J0D01*
G01*
X11897500Y-14008600D02*
G75*
G03*
X11897500Y-14008600I-22500J0D01*
G01*
X11973700Y-12675100D02*
G75*
G03*
X11973700Y-12675100I-22500J0D01*
G01*
X12024500Y-9169900D02*
G75*
G03*
X12024500Y-9169900I-22500J0D01*
G01*
X12049900Y-13462500D02*
G75*
G03*
X12049900Y-13462500I-22500J0D01*
G01*
X12049900Y-13653000D02*
G75*
G03*
X12049900Y-13653000I-22500J0D01*
G01*
X12062600Y-13360900D02*
G75*
G03*
X12062600Y-13360900I-22500J0D01*
G01*
X12113400Y-13741900D02*
G75*
G03*
X12113400Y-13741900I-22500J0D01*
G01*
X12113400Y-13856200D02*
G75*
G03*
X12113400Y-13856200I-22500J0D01*
G01*
X12119750Y-9201650D02*
G75*
G03*
X12119750Y-9201650I-22500J0D01*
G01*
X12164200Y-13145000D02*
G75*
G03*
X12164200Y-13145000I-22500J0D01*
G01*
X12171820Y-8928600D02*
G75*
G03*
X12171820Y-8928600I-22500J0D01*
G01*
X12354700Y-12891000D02*
G75*
G03*
X12354700Y-12891000I-22500J0D01*
G01*
X12430900Y-15519900D02*
G75*
G03*
X12430900Y-15519900I-22500J0D01*
G01*
X12456300Y-9050520D02*
G75*
G03*
X12456300Y-9050520I-22500J0D01*
G01*
X12466460Y-8948920D02*
G75*
G03*
X12466460Y-8948920I-22500J0D01*
G01*
X12469000Y-9335000D02*
G75*
G03*
X12469000Y-9335000I-22500J0D01*
G01*
X12649340Y-9055600D02*
G75*
G03*
X12649340Y-9055600I-22500J0D01*
G01*
X12761100Y-12230600D02*
G75*
G03*
X12761100Y-12230600I-22500J0D01*
G01*
X12761100Y-13475200D02*
G75*
G03*
X12761100Y-13475200I-22500J0D01*
G01*
X12773800Y-13932400D02*
G75*
G03*
X12773800Y-13932400I-22500J0D01*
G01*
X12913500Y-14402300D02*
G75*
G03*
X12913500Y-14402300I-22500J0D01*
G01*
X12938900Y-14300700D02*
G75*
G03*
X12938900Y-14300700I-22500J0D01*
G01*
X13002400Y-13399000D02*
G75*
G03*
X13002400Y-13399000I-22500J0D01*
G01*
X13889380Y-15079960D02*
G75*
G03*
X13889380Y-15079960I-22500J0D01*
G01*
X14046340Y-15085560D02*
G75*
G03*
X14046340Y-15085560I-22500J0D01*
G01*
X14076820Y-14989040D02*
G75*
G03*
X14076820Y-14989040I-22500J0D01*
G01*
X14198740Y-15349720D02*
G75*
G03*
X14198740Y-15349720I-22500J0D01*
G01*
X14244460Y-15441160D02*
G75*
G03*
X14244460Y-15441160I-22500J0D01*
G01*
X14935340Y-14989040D02*
G75*
G03*
X14935340Y-14989040I-22500J0D01*
G01*
X14945500Y-14618200D02*
G75*
G03*
X14945500Y-14618200I-22500J0D01*
G01*
X15011540Y-14912840D02*
G75*
G03*
X15011540Y-14912840I-22500J0D01*
G01*
X15148700Y-14402300D02*
G75*
G03*
X15148700Y-14402300I-22500J0D01*
G01*
X15153780Y-14707100D02*
G75*
G03*
X15153780Y-14707100I-22500J0D01*
G01*
X15199500Y-14491200D02*
G75*
G03*
X15199500Y-14491200I-22500J0D01*
G01*
X15250300Y-14745200D02*
G75*
G03*
X15250300Y-14745200I-22500J0D01*
G01*
X15351900Y-15354800D02*
G75*
G03*
X15351900Y-15354800I-22500J0D01*
G01*
D14*
X13068800Y-8941300D02*
X13068800Y-9017500D01*
X13030700Y-8979400D02*
X13106900Y-8979400D01*
X13068800Y-11633700D02*
X13068800Y-11709900D01*
X13030700Y-11671800D02*
X13106900Y-11671800D01*
X13068800Y-14376900D02*
X13068800Y-14453100D01*
X13030700Y-14415000D02*
X13106900Y-14415000D01*
X13322800Y-8941300D02*
X13322800Y-9017500D01*
X13284700Y-8979400D02*
X13360900Y-8979400D01*
X13322800Y-11633700D02*
X13322800Y-11709900D01*
X13284700Y-11671800D02*
X13360900Y-11671800D01*
X13322800Y-14376900D02*
X13322800Y-14453100D01*
X13284700Y-14415000D02*
X13360900Y-14415000D01*
X13576800Y-8941300D02*
X13576800Y-9017500D01*
X13538700Y-8979400D02*
X13614900Y-8979400D01*
X13576800Y-11633700D02*
X13576800Y-11709900D01*
X13538700Y-11671800D02*
X13614900Y-11671800D01*
X13576800Y-14376900D02*
X13576800Y-14453100D01*
X13538700Y-14415000D02*
X13614900Y-14415000D01*
X15456400Y-8941300D02*
X15456400Y-9017500D01*
X15418300Y-8979400D02*
X15494500Y-8979400D01*
X15456400Y-11633700D02*
X15456400Y-11709900D01*
X15418300Y-11671800D02*
X15494500Y-11671800D01*
X15456400Y-14376900D02*
X15456400Y-14453100D01*
X15418300Y-14415000D02*
X15494500Y-14415000D01*
X15710400Y-8941300D02*
X15710400Y-9017500D01*
X15672300Y-8979400D02*
X15748500Y-8979400D01*
X15710400Y-11633700D02*
X15710400Y-11709900D01*
X15672300Y-11671800D02*
X15748500Y-11671800D01*
X15710400Y-14376900D02*
X15710400Y-14453100D01*
X15672300Y-14415000D02*
X15748500Y-14415000D01*
X15964400Y-8941300D02*
X15964400Y-9017500D01*
X15926300Y-8979400D02*
X16002500Y-8979400D01*
X15964400Y-11633700D02*
X15964400Y-11709900D01*
X15926300Y-11671800D02*
X16002500Y-11671800D01*
X15964400Y-14376900D02*
X15964400Y-14453100D01*
X15926300Y-14415000D02*
X16002500Y-14415000D01*
D15*
X11776284Y-11395284D02*
X11776284Y-11338715D01*
X11719715Y-11338715D01*
X11719715Y-11395284D01*
X11776284Y-11395284D01*
X11776284Y-12157284D02*
X11776284Y-12100715D01*
X11719715Y-12100715D01*
X11719715Y-12157284D01*
X11776284Y-12157284D01*
X12030284Y-11395284D02*
X12030284Y-11338715D01*
X11973715Y-11338715D01*
X11973715Y-11395284D01*
X12030284Y-11395284D01*
X12030284Y-12157284D02*
X12030284Y-12100715D01*
X11973715Y-12100715D01*
X11973715Y-12157284D01*
X12030284Y-12157284D01*
X12284284Y-11395284D02*
X12284284Y-11338715D01*
X12227715Y-11338715D01*
X12227715Y-11395284D01*
X12284284Y-11395284D01*
X12284284Y-12157284D02*
X12284284Y-12100715D01*
X12227715Y-12100715D01*
X12227715Y-12157284D01*
X12284284Y-12157284D01*
X12538284Y-11395284D02*
X12538284Y-11338715D01*
X12481715Y-11338715D01*
X12481715Y-11395284D01*
X12538284Y-11395284D01*
X12538284Y-12157284D02*
X12538284Y-12100715D01*
X12481715Y-12100715D01*
X12481715Y-12157284D01*
X12538284Y-12157284D01*
X14582984Y-11839784D02*
X14582984Y-11783215D01*
X14526415Y-11783215D01*
X14526415Y-11839784D01*
X14582984Y-11839784D01*
X14582984Y-12855784D02*
X14582984Y-12799215D01*
X14526415Y-12799215D01*
X14526415Y-12855784D01*
X14582984Y-12855784D01*
X14582984Y-13342384D02*
X14582984Y-13285815D01*
X14526415Y-13285815D01*
X14526415Y-13342384D01*
X14582984Y-13342384D01*
X14582984Y-13592384D02*
X14582984Y-13535815D01*
X14526415Y-13535815D01*
X14526415Y-13592384D01*
X14582984Y-13592384D01*
D16*
X7864800Y-15887400D02*
X7914800Y-15837400D01*
X7864800Y-15787400D01*
X7814800Y-15837400D01*
X7864800Y-15887400D01*
X8090400Y-14846000D02*
X8140400Y-14796000D01*
X8090400Y-14746000D01*
X8040400Y-14796000D01*
X8090400Y-14846000D01*
X8141200Y-16878000D02*
X8191200Y-16828000D01*
X8141200Y-16778000D01*
X8091200Y-16828000D01*
X8141200Y-16878000D01*
X8297600Y-8357000D02*
X8347600Y-8307000D01*
X8297600Y-8257000D01*
X8247600Y-8307000D01*
X8297600Y-8357000D01*
X8297600Y-11076917D02*
X8347600Y-11026917D01*
X8297600Y-10976917D01*
X8247600Y-11026917D01*
X8297600Y-11076917D01*
X8297600Y-13796833D02*
X8347600Y-13746833D01*
X8297600Y-13696833D01*
X8247600Y-13746833D01*
X8297600Y-13796833D01*
X8400400Y-14846000D02*
X8450400Y-14796000D01*
X8400400Y-14746000D01*
X8350400Y-14796000D01*
X8400400Y-14846000D01*
X8451200Y-16878000D02*
X8501200Y-16828000D01*
X8451200Y-16778000D01*
X8401200Y-16828000D01*
X8451200Y-16878000D01*
X8547600Y-8357000D02*
X8597600Y-8307000D01*
X8547600Y-8257000D01*
X8497600Y-8307000D01*
X8547600Y-8357000D01*
X8547600Y-11076917D02*
X8597600Y-11026917D01*
X8547600Y-10976917D01*
X8497600Y-11026917D01*
X8547600Y-11076917D01*
X8547600Y-13796833D02*
X8597600Y-13746833D01*
X8547600Y-13696833D01*
X8497600Y-13746833D01*
X8547600Y-13796833D01*
X8694800Y-15887400D02*
X8744800Y-15837400D01*
X8694800Y-15787400D01*
X8644800Y-15837400D01*
X8694800Y-15887400D01*
X8797600Y-8357000D02*
X8847600Y-8307000D01*
X8797600Y-8257000D01*
X8747600Y-8307000D01*
X8797600Y-8357000D01*
X8797600Y-11076917D02*
X8847600Y-11026917D01*
X8797600Y-10976917D01*
X8747600Y-11026917D01*
X8797600Y-11076917D01*
X8797600Y-13796833D02*
X8847600Y-13746833D01*
X8797600Y-13696833D01*
X8747600Y-13746833D01*
X8797600Y-13796833D01*
X9004800Y-15887400D02*
X9054800Y-15837400D01*
X9004800Y-15787400D01*
X8954800Y-15837400D01*
X9004800Y-15887400D01*
X9230400Y-14846000D02*
X9280400Y-14796000D01*
X9230400Y-14746000D01*
X9180400Y-14796000D01*
X9230400Y-14846000D01*
X9271500Y-11163000D02*
X9321500Y-11113000D01*
X9271500Y-11063000D01*
X9221500Y-11113000D01*
X9271500Y-11163000D01*
X9271500Y-11417000D02*
X9321500Y-11367000D01*
X9271500Y-11317000D01*
X9221500Y-11367000D01*
X9271500Y-11417000D01*
X9271500Y-11671000D02*
X9321500Y-11621000D01*
X9271500Y-11571000D01*
X9221500Y-11621000D01*
X9271500Y-11671000D01*
X9271500Y-11925000D02*
X9321500Y-11875000D01*
X9271500Y-11825000D01*
X9221500Y-11875000D01*
X9271500Y-11925000D01*
X9271500Y-12179000D02*
X9321500Y-12129000D01*
X9271500Y-12079000D01*
X9221500Y-12129000D01*
X9271500Y-12179000D01*
X9281200Y-16878000D02*
X9331200Y-16828000D01*
X9281200Y-16778000D01*
X9231200Y-16828000D01*
X9281200Y-16878000D01*
X9388800Y-15887400D02*
X9438800Y-15837400D01*
X9388800Y-15787400D01*
X9338800Y-15837400D01*
X9388800Y-15887400D01*
X9525500Y-11163000D02*
X9575500Y-11113000D01*
X9525500Y-11063000D01*
X9475500Y-11113000D01*
X9525500Y-11163000D01*
X9525500Y-11417000D02*
X9575500Y-11367000D01*
X9525500Y-11317000D01*
X9475500Y-11367000D01*
X9525500Y-11417000D01*
X9525500Y-11671000D02*
X9575500Y-11621000D01*
X9525500Y-11571000D01*
X9475500Y-11621000D01*
X9525500Y-11671000D01*
X9525500Y-11925000D02*
X9575500Y-11875000D01*
X9525500Y-11825000D01*
X9475500Y-11875000D01*
X9525500Y-11925000D01*
X9525500Y-12179000D02*
X9575500Y-12129000D01*
X9525500Y-12079000D01*
X9475500Y-12129000D01*
X9525500Y-12179000D01*
X9639800Y-14846000D02*
X9689800Y-14796000D01*
X9639800Y-14746000D01*
X9589800Y-14796000D01*
X9639800Y-14846000D01*
X9665200Y-16878000D02*
X9715200Y-16828000D01*
X9665200Y-16778000D01*
X9615200Y-16828000D01*
X9665200Y-16878000D01*
X9949800Y-14846000D02*
X9999800Y-14796000D01*
X9949800Y-14746000D01*
X9899800Y-14796000D01*
X9949800Y-14846000D01*
X9975200Y-16878000D02*
X10025200Y-16828000D01*
X9975200Y-16778000D01*
X9925200Y-16828000D01*
X9975200Y-16878000D01*
X10218800Y-15887400D02*
X10268800Y-15837400D01*
X10218800Y-15787400D01*
X10168800Y-15837400D01*
X10218800Y-15887400D01*
X10528800Y-15887400D02*
X10578800Y-15837400D01*
X10528800Y-15787400D01*
X10478800Y-15837400D01*
X10528800Y-15887400D01*
X10685200Y-8357000D02*
X10735200Y-8307000D01*
X10685200Y-8257000D01*
X10635200Y-8307000D01*
X10685200Y-8357000D01*
X10685200Y-11076917D02*
X10735200Y-11026917D01*
X10685200Y-10976917D01*
X10635200Y-11026917D01*
X10685200Y-11076917D01*
X10685200Y-13796833D02*
X10735200Y-13746833D01*
X10685200Y-13696833D01*
X10635200Y-13746833D01*
X10685200Y-13796833D01*
X10779800Y-14846000D02*
X10829800Y-14796000D01*
X10779800Y-14746000D01*
X10729800Y-14796000D01*
X10779800Y-14846000D01*
X10805200Y-16878000D02*
X10855200Y-16828000D01*
X10805200Y-16778000D01*
X10755200Y-16828000D01*
X10805200Y-16878000D01*
X10912800Y-15887400D02*
X10962800Y-15837400D01*
X10912800Y-15787400D01*
X10862800Y-15837400D01*
X10912800Y-15887400D01*
X10935200Y-8357000D02*
X10985200Y-8307000D01*
X10935200Y-8257000D01*
X10885200Y-8307000D01*
X10935200Y-8357000D01*
X10935200Y-11076917D02*
X10985200Y-11026917D01*
X10935200Y-10976917D01*
X10885200Y-11026917D01*
X10935200Y-11076917D01*
X10935200Y-13796833D02*
X10985200Y-13746833D01*
X10935200Y-13696833D01*
X10885200Y-13746833D01*
X10935200Y-13796833D01*
X11185200Y-8357000D02*
X11235200Y-8307000D01*
X11185200Y-8257000D01*
X11135200Y-8307000D01*
X11185200Y-8357000D01*
X11185200Y-11076917D02*
X11235200Y-11026917D01*
X11185200Y-10976917D01*
X11135200Y-11026917D01*
X11185200Y-11076917D01*
X11185200Y-13796833D02*
X11235200Y-13746833D01*
X11185200Y-13696833D01*
X11135200Y-13746833D01*
X11185200Y-13796833D01*
X11189200Y-14846000D02*
X11239200Y-14796000D01*
X11189200Y-14746000D01*
X11139200Y-14796000D01*
X11189200Y-14846000D01*
X11189200Y-16878000D02*
X11239200Y-16828000D01*
X11189200Y-16778000D01*
X11139200Y-16828000D01*
X11189200Y-16878000D01*
X11499200Y-14846000D02*
X11549200Y-14796000D01*
X11499200Y-14746000D01*
X11449200Y-14796000D01*
X11499200Y-14846000D01*
X11499200Y-16878000D02*
X11549200Y-16828000D01*
X11499200Y-16778000D01*
X11449200Y-16828000D01*
X11499200Y-16878000D01*
X11742800Y-15887400D02*
X11792800Y-15837400D01*
X11742800Y-15787400D01*
X11692800Y-15837400D01*
X11742800Y-15887400D01*
X12052800Y-15887400D02*
X12102800Y-15837400D01*
X12052800Y-15787400D01*
X12002800Y-15837400D01*
X12052800Y-15887400D01*
X12329200Y-14846000D02*
X12379200Y-14796000D01*
X12329200Y-14746000D01*
X12279200Y-14796000D01*
X12329200Y-14846000D01*
X12329200Y-16878000D02*
X12379200Y-16828000D01*
X12329200Y-16778000D01*
X12279200Y-16828000D01*
X12329200Y-16878000D01*
X12436800Y-15887400D02*
X12486800Y-15837400D01*
X12436800Y-15787400D01*
X12386800Y-15837400D01*
X12436800Y-15887400D01*
X12713200Y-16878000D02*
X12763200Y-16828000D01*
X12713200Y-16778000D01*
X12663200Y-16828000D01*
X12713200Y-16878000D01*
X13023200Y-16878000D02*
X13073200Y-16828000D01*
X13023200Y-16778000D01*
X12973200Y-16828000D01*
X13023200Y-16878000D01*
X13072800Y-8357000D02*
X13122800Y-8307000D01*
X13072800Y-8257000D01*
X13022800Y-8307000D01*
X13072800Y-8357000D01*
X13072800Y-11076917D02*
X13122800Y-11026917D01*
X13072800Y-10976917D01*
X13022800Y-11026917D01*
X13072800Y-11076917D01*
X13072800Y-13796833D02*
X13122800Y-13746833D01*
X13072800Y-13696833D01*
X13022800Y-13746833D01*
X13072800Y-13796833D01*
X13266800Y-15887400D02*
X13316800Y-15837400D01*
X13266800Y-15787400D01*
X13216800Y-15837400D01*
X13266800Y-15887400D01*
X13322800Y-8357000D02*
X13372800Y-8307000D01*
X13322800Y-8257000D01*
X13272800Y-8307000D01*
X13322800Y-8357000D01*
X13322800Y-11076917D02*
X13372800Y-11026917D01*
X13322800Y-10976917D01*
X13272800Y-11026917D01*
X13322800Y-11076917D01*
X13322800Y-13796833D02*
X13372800Y-13746833D01*
X13322800Y-13696833D01*
X13272800Y-13746833D01*
X13322800Y-13796833D01*
X13572800Y-8357000D02*
X13622800Y-8307000D01*
X13572800Y-8257000D01*
X13522800Y-8307000D01*
X13572800Y-8357000D01*
X13572800Y-11076917D02*
X13622800Y-11026917D01*
X13572800Y-10976917D01*
X13522800Y-11026917D01*
X13572800Y-11076917D01*
X13572800Y-13796833D02*
X13622800Y-13746833D01*
X13572800Y-13696833D01*
X13522800Y-13746833D01*
X13572800Y-13796833D01*
X13576800Y-15887400D02*
X13626800Y-15837400D01*
X13576800Y-15787400D01*
X13526800Y-15837400D01*
X13576800Y-15887400D01*
X13853200Y-16878000D02*
X13903200Y-16828000D01*
X13853200Y-16778000D01*
X13803200Y-16828000D01*
X13853200Y-16878000D01*
X14216880Y-15663880D02*
X14266880Y-15613880D01*
X14216880Y-15563880D01*
X14166880Y-15613880D01*
X14216880Y-15663880D01*
X14470880Y-15663880D02*
X14520880Y-15613880D01*
X14470880Y-15563880D01*
X14420880Y-15613880D01*
X14470880Y-15663880D01*
X14724880Y-15663880D02*
X14774880Y-15613880D01*
X14724880Y-15563880D01*
X14674880Y-15613880D01*
X14724880Y-15663880D01*
X15460400Y-8357000D02*
X15510400Y-8307000D01*
X15460400Y-8257000D01*
X15410400Y-8307000D01*
X15460400Y-8357000D01*
X15460400Y-11076917D02*
X15510400Y-11026917D01*
X15460400Y-10976917D01*
X15410400Y-11026917D01*
X15460400Y-11076917D01*
X15460400Y-13796833D02*
X15510400Y-13746833D01*
X15460400Y-13696833D01*
X15410400Y-13746833D01*
X15460400Y-13796833D01*
X15460400Y-16516500D02*
X15510400Y-16466500D01*
X15460400Y-16416500D01*
X15410400Y-16466500D01*
X15460400Y-16516500D01*
X15710400Y-8357000D02*
X15760400Y-8307000D01*
X15710400Y-8257000D01*
X15660400Y-8307000D01*
X15710400Y-8357000D01*
X15710400Y-11076917D02*
X15760400Y-11026917D01*
X15710400Y-10976917D01*
X15660400Y-11026917D01*
X15710400Y-11076917D01*
X15710400Y-13796833D02*
X15760400Y-13746833D01*
X15710400Y-13696833D01*
X15660400Y-13746833D01*
X15710400Y-13796833D01*
X15710400Y-16516500D02*
X15760400Y-16466500D01*
X15710400Y-16416500D01*
X15660400Y-16466500D01*
X15710400Y-16516500D01*
X15960400Y-8357000D02*
X16010400Y-8307000D01*
X15960400Y-8257000D01*
X15910400Y-8307000D01*
X15960400Y-8357000D01*
X15960400Y-11076917D02*
X16010400Y-11026917D01*
X15960400Y-10976917D01*
X15910400Y-11026917D01*
X15960400Y-11076917D01*
X15960400Y-13796833D02*
X16010400Y-13746833D01*
X15960400Y-13696833D01*
X15910400Y-13746833D01*
X15960400Y-13796833D01*
X15960400Y-16516500D02*
X16010400Y-16466500D01*
X15960400Y-16416500D01*
X15910400Y-16466500D01*
X15960400Y-16516500D01*
D17*
X7957600Y-7447000D02*
X8177600Y-7667000D01*
X8177600Y-7447000D02*
X7957600Y-7667000D01*
X8177600Y-7557000D02*
G75*
G03*
X8177600Y-7557000I-110000J0D01*
G01*
X7957600Y-10166917D02*
X8177600Y-10386917D01*
X8177600Y-10166917D02*
X7957600Y-10386917D01*
X8177600Y-10276917D02*
G75*
G03*
X8177600Y-10276917I-110000J0D01*
G01*
X7957600Y-12886833D02*
X8177600Y-13106833D01*
X8177600Y-12886833D02*
X7957600Y-13106833D01*
X8177600Y-12996833D02*
G75*
G03*
X8177600Y-12996833I-110000J0D01*
G01*
X8917600Y-7447000D02*
X9137600Y-7667000D01*
X9137600Y-7447000D02*
X8917600Y-7667000D01*
X9137600Y-7557000D02*
G75*
G03*
X9137600Y-7557000I-110000J0D01*
G01*
X8917600Y-10166917D02*
X9137600Y-10386917D01*
X9137600Y-10166917D02*
X8917600Y-10386917D01*
X9137600Y-10276917D02*
G75*
G03*
X9137600Y-10276917I-110000J0D01*
G01*
X8917600Y-12886833D02*
X9137600Y-13106833D01*
X9137600Y-12886833D02*
X8917600Y-13106833D01*
X9137600Y-12996833D02*
G75*
G03*
X9137600Y-12996833I-110000J0D01*
G01*
X10345200Y-7447000D02*
X10565200Y-7667000D01*
X10565200Y-7447000D02*
X10345200Y-7667000D01*
X10565200Y-7557000D02*
G75*
G03*
X10565200Y-7557000I-110000J0D01*
G01*
X10345200Y-10166917D02*
X10565200Y-10386917D01*
X10565200Y-10166917D02*
X10345200Y-10386917D01*
X10565200Y-10276917D02*
G75*
G03*
X10565200Y-10276917I-110000J0D01*
G01*
X10345200Y-12886833D02*
X10565200Y-13106833D01*
X10565200Y-12886833D02*
X10345200Y-13106833D01*
X10565200Y-12996833D02*
G75*
G03*
X10565200Y-12996833I-110000J0D01*
G01*
X11305200Y-7447000D02*
X11525200Y-7667000D01*
X11525200Y-7447000D02*
X11305200Y-7667000D01*
X11525200Y-7557000D02*
G75*
G03*
X11525200Y-7557000I-110000J0D01*
G01*
X11305200Y-10166917D02*
X11525200Y-10386917D01*
X11525200Y-10166917D02*
X11305200Y-10386917D01*
X11525200Y-10276917D02*
G75*
G03*
X11525200Y-10276917I-110000J0D01*
G01*
X11305200Y-12886833D02*
X11525200Y-13106833D01*
X11525200Y-12886833D02*
X11305200Y-13106833D01*
X11525200Y-12996833D02*
G75*
G03*
X11525200Y-12996833I-110000J0D01*
G01*
X12732800Y-7447000D02*
X12952800Y-7667000D01*
X12952800Y-7447000D02*
X12732800Y-7667000D01*
X12952800Y-7557000D02*
G75*
G03*
X12952800Y-7557000I-110000J0D01*
G01*
X12732800Y-10166917D02*
X12952800Y-10386917D01*
X12952800Y-10166917D02*
X12732800Y-10386917D01*
X12952800Y-10276917D02*
G75*
G03*
X12952800Y-10276917I-110000J0D01*
G01*
X12732800Y-12886833D02*
X12952800Y-13106833D01*
X12952800Y-12886833D02*
X12732800Y-13106833D01*
X12952800Y-12996833D02*
G75*
G03*
X12952800Y-12996833I-110000J0D01*
G01*
X13692800Y-7447000D02*
X13912800Y-7667000D01*
X13912800Y-7447000D02*
X13692800Y-7667000D01*
X13912800Y-7557000D02*
G75*
G03*
X13912800Y-7557000I-110000J0D01*
G01*
X13692800Y-10166917D02*
X13912800Y-10386917D01*
X13912800Y-10166917D02*
X13692800Y-10386917D01*
X13912800Y-10276917D02*
G75*
G03*
X13912800Y-10276917I-110000J0D01*
G01*
X13692800Y-12886833D02*
X13912800Y-13106833D01*
X13912800Y-12886833D02*
X13692800Y-13106833D01*
X13912800Y-12996833D02*
G75*
G03*
X13912800Y-12996833I-110000J0D01*
G01*
X15120400Y-7447000D02*
X15340400Y-7667000D01*
X15340400Y-7447000D02*
X15120400Y-7667000D01*
X15340400Y-7557000D02*
G75*
G03*
X15340400Y-7557000I-110000J0D01*
G01*
X15120400Y-10166917D02*
X15340400Y-10386917D01*
X15340400Y-10166917D02*
X15120400Y-10386917D01*
X15340400Y-10276917D02*
G75*
G03*
X15340400Y-10276917I-110000J0D01*
G01*
X15120400Y-12886833D02*
X15340400Y-13106833D01*
X15340400Y-12886833D02*
X15120400Y-13106833D01*
X15340400Y-12996833D02*
G75*
G03*
X15340400Y-12996833I-110000J0D01*
G01*
X15120400Y-15606500D02*
X15340400Y-15826500D01*
X15340400Y-15606500D02*
X15120400Y-15826500D01*
X15340400Y-15716500D02*
G75*
G03*
X15340400Y-15716500I-110000J0D01*
G01*
X16080400Y-7447000D02*
X16300400Y-7667000D01*
X16300400Y-7447000D02*
X16080400Y-7667000D01*
X16300400Y-7557000D02*
G75*
G03*
X16300400Y-7557000I-110000J0D01*
G01*
X16080400Y-10166917D02*
X16300400Y-10386917D01*
X16300400Y-10166917D02*
X16080400Y-10386917D01*
X16300400Y-10276917D02*
G75*
G03*
X16300400Y-10276917I-110000J0D01*
G01*
X16080400Y-12886833D02*
X16300400Y-13106833D01*
X16300400Y-12886833D02*
X16080400Y-13106833D01*
X16300400Y-12996833D02*
G75*
G03*
X16300400Y-12996833I-110000J0D01*
G01*
X16080400Y-15606500D02*
X16300400Y-15826500D01*
X16300400Y-15606500D02*
X16080400Y-15826500D01*
X16300400Y-15716500D02*
G75*
G03*
X16300400Y-15716500I-110000J0D01*
G01*
D11*
X7804619Y-17656476D02*
X7804619Y-17456476D01*
X7852238Y-17456476D01*
X7880809Y-17466000D01*
X7899857Y-17485048D01*
X7909381Y-17504095D01*
X7918905Y-17542190D01*
X7918905Y-17570762D01*
X7909381Y-17608857D01*
X7899857Y-17627905D01*
X7880809Y-17646952D01*
X7852238Y-17656476D01*
X7804619Y-17656476D01*
X8004619Y-17656476D02*
X8004619Y-17523143D01*
X8004619Y-17561238D02*
X8014143Y-17542190D01*
X8023667Y-17532667D01*
X8042714Y-17523143D01*
X8061762Y-17523143D01*
X8128428Y-17656476D02*
X8128428Y-17523143D01*
X8128428Y-17456476D02*
X8118905Y-17466000D01*
X8128428Y-17475524D01*
X8137952Y-17466000D01*
X8128428Y-17456476D01*
X8128428Y-17475524D01*
X8252238Y-17656476D02*
X8233190Y-17646952D01*
X8223667Y-17627905D01*
X8223667Y-17456476D01*
X8357000Y-17656476D02*
X8337952Y-17646952D01*
X8328428Y-17627905D01*
X8328428Y-17456476D01*
X8585571Y-17656476D02*
X8585571Y-17456476D01*
X8652238Y-17599333D01*
X8718905Y-17456476D01*
X8718905Y-17656476D01*
X8899857Y-17656476D02*
X8899857Y-17551714D01*
X8890333Y-17532667D01*
X8871286Y-17523143D01*
X8833190Y-17523143D01*
X8814143Y-17532667D01*
X8899857Y-17646952D02*
X8880810Y-17656476D01*
X8833190Y-17656476D01*
X8814143Y-17646952D01*
X8804619Y-17627905D01*
X8804619Y-17608857D01*
X8814143Y-17589810D01*
X8833190Y-17580286D01*
X8880810Y-17580286D01*
X8899857Y-17570762D01*
X8995095Y-17523143D02*
X8995095Y-17723143D01*
X8995095Y-17532667D02*
X9014143Y-17523143D01*
X9052238Y-17523143D01*
X9071286Y-17532667D01*
X9080810Y-17542190D01*
X9090333Y-17561238D01*
X9090333Y-17618381D01*
X9080810Y-17637429D01*
X9071286Y-17646952D01*
X9052238Y-17656476D01*
X9014143Y-17656476D01*
X8995095Y-17646952D01*
X9176048Y-17637429D02*
X9185571Y-17646952D01*
X9176048Y-17656476D01*
X9166524Y-17646952D01*
X9176048Y-17637429D01*
X9176048Y-17656476D01*
X9176048Y-17532667D02*
X9185571Y-17542190D01*
X9176048Y-17551714D01*
X9166524Y-17542190D01*
X9176048Y-17532667D01*
X9176048Y-17551714D01*
D12*
X7507000Y-17966000D02*
X7547000Y-18006000D01*
X7547000Y-17966000D02*
X7507000Y-18006000D01*
D11*
X7842714Y-17876476D02*
X7861762Y-17876476D01*
X7880809Y-17886000D01*
X7890333Y-17895524D01*
X7899857Y-17914571D01*
X7909381Y-17952667D01*
X7909381Y-18000286D01*
X7899857Y-18038381D01*
X7890333Y-18057429D01*
X7880809Y-18066952D01*
X7861762Y-18076476D01*
X7842714Y-18076476D01*
X7823667Y-18066952D01*
X7814143Y-18057429D01*
X7804619Y-18038381D01*
X7795095Y-18000286D01*
X7795095Y-17952667D01*
X7804619Y-17914571D01*
X7814143Y-17895524D01*
X7823667Y-17886000D01*
X7842714Y-17876476D01*
X7995095Y-18057429D02*
X8004619Y-18066952D01*
X7995095Y-18076476D01*
X7985571Y-18066952D01*
X7995095Y-18057429D01*
X7995095Y-18076476D01*
X8176048Y-17943143D02*
X8176048Y-18076476D01*
X8128428Y-17866952D02*
X8080809Y-18009810D01*
X8204619Y-18009810D01*
X8318905Y-17876476D02*
X8337952Y-17876476D01*
X8357000Y-17886000D01*
X8366524Y-17895524D01*
X8376048Y-17914571D01*
X8385571Y-17952667D01*
X8385571Y-18000286D01*
X8376048Y-18038381D01*
X8366524Y-18057429D01*
X8357000Y-18066952D01*
X8337952Y-18076476D01*
X8318905Y-18076476D01*
X8299857Y-18066952D01*
X8290333Y-18057429D01*
X8280809Y-18038381D01*
X8271286Y-18000286D01*
X8271286Y-17952667D01*
X8280809Y-17914571D01*
X8290333Y-17895524D01*
X8299857Y-17886000D01*
X8318905Y-17876476D01*
X8509381Y-17876476D02*
X8528429Y-17876476D01*
X8547476Y-17886000D01*
X8557000Y-17895524D01*
X8566524Y-17914571D01*
X8576048Y-17952667D01*
X8576048Y-18000286D01*
X8566524Y-18038381D01*
X8557000Y-18057429D01*
X8547476Y-18066952D01*
X8528429Y-18076476D01*
X8509381Y-18076476D01*
X8490333Y-18066952D01*
X8480810Y-18057429D01*
X8471286Y-18038381D01*
X8461762Y-18000286D01*
X8461762Y-17952667D01*
X8471286Y-17914571D01*
X8480810Y-17895524D01*
X8490333Y-17886000D01*
X8509381Y-17876476D01*
X8661762Y-18076476D02*
X8661762Y-17943143D01*
X8661762Y-17962190D02*
X8671286Y-17952667D01*
X8690333Y-17943143D01*
X8718905Y-17943143D01*
X8737952Y-17952667D01*
X8747476Y-17971714D01*
X8747476Y-18076476D01*
X8747476Y-17971714D02*
X8757000Y-17952667D01*
X8776048Y-17943143D01*
X8804619Y-17943143D01*
X8823667Y-17952667D01*
X8833190Y-17971714D01*
X8833190Y-18076476D01*
X8928429Y-18076476D02*
X8928429Y-17943143D01*
X8928429Y-17962190D02*
X8937952Y-17952667D01*
X8957000Y-17943143D01*
X8985571Y-17943143D01*
X9004619Y-17952667D01*
X9014143Y-17971714D01*
X9014143Y-18076476D01*
X9014143Y-17971714D02*
X9023667Y-17952667D01*
X9042714Y-17943143D01*
X9071286Y-17943143D01*
X9090333Y-17952667D01*
X9099857Y-17971714D01*
X9099857Y-18076476D01*
X9490333Y-17866952D02*
X9318905Y-18124095D01*
X9747476Y-17876476D02*
X9766524Y-17876476D01*
X9785571Y-17886000D01*
X9795095Y-17895524D01*
X9804619Y-17914571D01*
X9814143Y-17952667D01*
X9814143Y-18000286D01*
X9804619Y-18038381D01*
X9795095Y-18057429D01*
X9785571Y-18066952D01*
X9766524Y-18076476D01*
X9747476Y-18076476D01*
X9728429Y-18066952D01*
X9718905Y-18057429D01*
X9709381Y-18038381D01*
X9699857Y-18000286D01*
X9699857Y-17952667D01*
X9709381Y-17914571D01*
X9718905Y-17895524D01*
X9728429Y-17886000D01*
X9747476Y-17876476D01*
X9899857Y-18057429D02*
X9909381Y-18066952D01*
X9899857Y-18076476D01*
X9890333Y-18066952D01*
X9899857Y-18057429D01*
X9899857Y-18076476D01*
X10033190Y-17876476D02*
X10052238Y-17876476D01*
X10071286Y-17886000D01*
X10080810Y-17895524D01*
X10090333Y-17914571D01*
X10099857Y-17952667D01*
X10099857Y-18000286D01*
X10090333Y-18038381D01*
X10080810Y-18057429D01*
X10071286Y-18066952D01*
X10052238Y-18076476D01*
X10033190Y-18076476D01*
X10014143Y-18066952D01*
X10004619Y-18057429D01*
X9995095Y-18038381D01*
X9985571Y-18000286D01*
X9985571Y-17952667D01*
X9995095Y-17914571D01*
X10004619Y-17895524D01*
X10014143Y-17886000D01*
X10033190Y-17876476D01*
X10290333Y-18076476D02*
X10176048Y-18076476D01*
X10233190Y-18076476D02*
X10233190Y-17876476D01*
X10214143Y-17905048D01*
X10195095Y-17924095D01*
X10176048Y-17933619D01*
X10471286Y-17876476D02*
X10376048Y-17876476D01*
X10366524Y-17971714D01*
X10376048Y-17962190D01*
X10395095Y-17952667D01*
X10442714Y-17952667D01*
X10461762Y-17962190D01*
X10471286Y-17971714D01*
X10480810Y-17990762D01*
X10480810Y-18038381D01*
X10471286Y-18057429D01*
X10461762Y-18066952D01*
X10442714Y-18076476D01*
X10395095Y-18076476D01*
X10376048Y-18066952D01*
X10366524Y-18057429D01*
X10547476Y-17876476D02*
X10680810Y-17876476D01*
X10595095Y-18076476D01*
X10747476Y-17876476D02*
X10747476Y-17914571D01*
X10823667Y-17876476D02*
X10823667Y-17914571D01*
X11118905Y-18152667D02*
X11109381Y-18143143D01*
X11090333Y-18114571D01*
X11080810Y-18095524D01*
X11071286Y-18066952D01*
X11061762Y-18019333D01*
X11061762Y-17981238D01*
X11071286Y-17933619D01*
X11080810Y-17905048D01*
X11090333Y-17886000D01*
X11109381Y-17857429D01*
X11118905Y-17847905D01*
X11185571Y-17895524D02*
X11195095Y-17886000D01*
X11214143Y-17876476D01*
X11261762Y-17876476D01*
X11280809Y-17886000D01*
X11290333Y-17895524D01*
X11299857Y-17914571D01*
X11299857Y-17933619D01*
X11290333Y-17962190D01*
X11176048Y-18076476D01*
X11299857Y-18076476D01*
X11537952Y-18076476D02*
X11537952Y-17876476D01*
X11623667Y-18076476D02*
X11623667Y-17971714D01*
X11614143Y-17952667D01*
X11595095Y-17943143D01*
X11566524Y-17943143D01*
X11547476Y-17952667D01*
X11537952Y-17962190D01*
X11747476Y-18076476D02*
X11728428Y-18066952D01*
X11718905Y-18057429D01*
X11709381Y-18038381D01*
X11709381Y-17981238D01*
X11718905Y-17962190D01*
X11728428Y-17952667D01*
X11747476Y-17943143D01*
X11776048Y-17943143D01*
X11795095Y-17952667D01*
X11804619Y-17962190D01*
X11814143Y-17981238D01*
X11814143Y-18038381D01*
X11804619Y-18057429D01*
X11795095Y-18066952D01*
X11776048Y-18076476D01*
X11747476Y-18076476D01*
X11928428Y-18076476D02*
X11909381Y-18066952D01*
X11899857Y-18047905D01*
X11899857Y-17876476D01*
X12080809Y-18066952D02*
X12061762Y-18076476D01*
X12023667Y-18076476D01*
X12004619Y-18066952D01*
X11995095Y-18047905D01*
X11995095Y-17971714D01*
X12004619Y-17952667D01*
X12023667Y-17943143D01*
X12061762Y-17943143D01*
X12080809Y-17952667D01*
X12090333Y-17971714D01*
X12090333Y-17990762D01*
X11995095Y-18009810D01*
X12166524Y-18066952D02*
X12185571Y-18076476D01*
X12223667Y-18076476D01*
X12242714Y-18066952D01*
X12252238Y-18047905D01*
X12252238Y-18038381D01*
X12242714Y-18019333D01*
X12223667Y-18009810D01*
X12195095Y-18009810D01*
X12176048Y-18000286D01*
X12166524Y-17981238D01*
X12166524Y-17971714D01*
X12176048Y-17952667D01*
X12195095Y-17943143D01*
X12223667Y-17943143D01*
X12242714Y-17952667D01*
X12318905Y-18152667D02*
X12328428Y-18143143D01*
X12347476Y-18114571D01*
X12357000Y-18095524D01*
X12366524Y-18066952D01*
X12376048Y-18019333D01*
X12376048Y-17981238D01*
X12366524Y-17933619D01*
X12357000Y-17905048D01*
X12347476Y-17886000D01*
X12328428Y-17857429D01*
X12318905Y-17847905D01*
D13*
X7547000Y-18250000D02*
G75*
G03*
X7547000Y-18250000I-22500J0D01*
G01*
D11*
X7842714Y-18140476D02*
X7861762Y-18140476D01*
X7880809Y-18150000D01*
X7890333Y-18159524D01*
X7899857Y-18178571D01*
X7909381Y-18216667D01*
X7909381Y-18264286D01*
X7899857Y-18302381D01*
X7890333Y-18321429D01*
X7880809Y-18330952D01*
X7861762Y-18340476D01*
X7842714Y-18340476D01*
X7823667Y-18330952D01*
X7814143Y-18321429D01*
X7804619Y-18302381D01*
X7795095Y-18264286D01*
X7795095Y-18216667D01*
X7804619Y-18178571D01*
X7814143Y-18159524D01*
X7823667Y-18150000D01*
X7842714Y-18140476D01*
X7995095Y-18321429D02*
X8004619Y-18330952D01*
X7995095Y-18340476D01*
X7985571Y-18330952D01*
X7995095Y-18321429D01*
X7995095Y-18340476D01*
X8176048Y-18207143D02*
X8176048Y-18340476D01*
X8128428Y-18130952D02*
X8080809Y-18273810D01*
X8204619Y-18273810D01*
X8376048Y-18140476D02*
X8280809Y-18140476D01*
X8271286Y-18235714D01*
X8280809Y-18226190D01*
X8299857Y-18216667D01*
X8347476Y-18216667D01*
X8366524Y-18226190D01*
X8376048Y-18235714D01*
X8385571Y-18254762D01*
X8385571Y-18302381D01*
X8376048Y-18321429D01*
X8366524Y-18330952D01*
X8347476Y-18340476D01*
X8299857Y-18340476D01*
X8280809Y-18330952D01*
X8271286Y-18321429D01*
X8509381Y-18140476D02*
X8528429Y-18140476D01*
X8547476Y-18150000D01*
X8557000Y-18159524D01*
X8566524Y-18178571D01*
X8576048Y-18216667D01*
X8576048Y-18264286D01*
X8566524Y-18302381D01*
X8557000Y-18321429D01*
X8547476Y-18330952D01*
X8528429Y-18340476D01*
X8509381Y-18340476D01*
X8490333Y-18330952D01*
X8480810Y-18321429D01*
X8471286Y-18302381D01*
X8461762Y-18264286D01*
X8461762Y-18216667D01*
X8471286Y-18178571D01*
X8480810Y-18159524D01*
X8490333Y-18150000D01*
X8509381Y-18140476D01*
X8661762Y-18340476D02*
X8661762Y-18207143D01*
X8661762Y-18226190D02*
X8671286Y-18216667D01*
X8690333Y-18207143D01*
X8718905Y-18207143D01*
X8737952Y-18216667D01*
X8747476Y-18235714D01*
X8747476Y-18340476D01*
X8747476Y-18235714D02*
X8757000Y-18216667D01*
X8776048Y-18207143D01*
X8804619Y-18207143D01*
X8823667Y-18216667D01*
X8833190Y-18235714D01*
X8833190Y-18340476D01*
X8928429Y-18340476D02*
X8928429Y-18207143D01*
X8928429Y-18226190D02*
X8937952Y-18216667D01*
X8957000Y-18207143D01*
X8985571Y-18207143D01*
X9004619Y-18216667D01*
X9014143Y-18235714D01*
X9014143Y-18340476D01*
X9014143Y-18235714D02*
X9023667Y-18216667D01*
X9042714Y-18207143D01*
X9071286Y-18207143D01*
X9090333Y-18216667D01*
X9099857Y-18235714D01*
X9099857Y-18340476D01*
X9490333Y-18130952D02*
X9318905Y-18388095D01*
X9747476Y-18140476D02*
X9766524Y-18140476D01*
X9785571Y-18150000D01*
X9795095Y-18159524D01*
X9804619Y-18178571D01*
X9814143Y-18216667D01*
X9814143Y-18264286D01*
X9804619Y-18302381D01*
X9795095Y-18321429D01*
X9785571Y-18330952D01*
X9766524Y-18340476D01*
X9747476Y-18340476D01*
X9728429Y-18330952D01*
X9718905Y-18321429D01*
X9709381Y-18302381D01*
X9699857Y-18264286D01*
X9699857Y-18216667D01*
X9709381Y-18178571D01*
X9718905Y-18159524D01*
X9728429Y-18150000D01*
X9747476Y-18140476D01*
X9899857Y-18321429D02*
X9909381Y-18330952D01*
X9899857Y-18340476D01*
X9890333Y-18330952D01*
X9899857Y-18321429D01*
X9899857Y-18340476D01*
X10033190Y-18140476D02*
X10052238Y-18140476D01*
X10071286Y-18150000D01*
X10080810Y-18159524D01*
X10090333Y-18178571D01*
X10099857Y-18216667D01*
X10099857Y-18264286D01*
X10090333Y-18302381D01*
X10080810Y-18321429D01*
X10071286Y-18330952D01*
X10052238Y-18340476D01*
X10033190Y-18340476D01*
X10014143Y-18330952D01*
X10004619Y-18321429D01*
X9995095Y-18302381D01*
X9985571Y-18264286D01*
X9985571Y-18216667D01*
X9995095Y-18178571D01*
X10004619Y-18159524D01*
X10014143Y-18150000D01*
X10033190Y-18140476D01*
X10290333Y-18340476D02*
X10176048Y-18340476D01*
X10233190Y-18340476D02*
X10233190Y-18140476D01*
X10214143Y-18169048D01*
X10195095Y-18188095D01*
X10176048Y-18197619D01*
X10357000Y-18140476D02*
X10490333Y-18140476D01*
X10404619Y-18340476D01*
X10547476Y-18140476D02*
X10680810Y-18140476D01*
X10595095Y-18340476D01*
X10747476Y-18140476D02*
X10747476Y-18178571D01*
X10823667Y-18140476D02*
X10823667Y-18178571D01*
X11118905Y-18416667D02*
X11109381Y-18407143D01*
X11090333Y-18378571D01*
X11080810Y-18359524D01*
X11071286Y-18330952D01*
X11061762Y-18283333D01*
X11061762Y-18245238D01*
X11071286Y-18197619D01*
X11080810Y-18169048D01*
X11090333Y-18150000D01*
X11109381Y-18121429D01*
X11118905Y-18111905D01*
X11223667Y-18226190D02*
X11204619Y-18216667D01*
X11195095Y-18207143D01*
X11185571Y-18188095D01*
X11185571Y-18178571D01*
X11195095Y-18159524D01*
X11204619Y-18150000D01*
X11223667Y-18140476D01*
X11261762Y-18140476D01*
X11280809Y-18150000D01*
X11290333Y-18159524D01*
X11299857Y-18178571D01*
X11299857Y-18188095D01*
X11290333Y-18207143D01*
X11280809Y-18216667D01*
X11261762Y-18226190D01*
X11223667Y-18226190D01*
X11204619Y-18235714D01*
X11195095Y-18245238D01*
X11185571Y-18264286D01*
X11185571Y-18302381D01*
X11195095Y-18321429D01*
X11204619Y-18330952D01*
X11223667Y-18340476D01*
X11261762Y-18340476D01*
X11280809Y-18330952D01*
X11290333Y-18321429D01*
X11299857Y-18302381D01*
X11299857Y-18264286D01*
X11290333Y-18245238D01*
X11280809Y-18235714D01*
X11261762Y-18226190D01*
X11376048Y-18159524D02*
X11385571Y-18150000D01*
X11404619Y-18140476D01*
X11452238Y-18140476D01*
X11471286Y-18150000D01*
X11480809Y-18159524D01*
X11490333Y-18178571D01*
X11490333Y-18197619D01*
X11480809Y-18226190D01*
X11366524Y-18340476D01*
X11490333Y-18340476D01*
X11728428Y-18340476D02*
X11728428Y-18140476D01*
X11814143Y-18340476D02*
X11814143Y-18235714D01*
X11804619Y-18216667D01*
X11785571Y-18207143D01*
X11757000Y-18207143D01*
X11737952Y-18216667D01*
X11728428Y-18226190D01*
X11937952Y-18340476D02*
X11918905Y-18330952D01*
X11909381Y-18321429D01*
X11899857Y-18302381D01*
X11899857Y-18245238D01*
X11909381Y-18226190D01*
X11918905Y-18216667D01*
X11937952Y-18207143D01*
X11966524Y-18207143D01*
X11985571Y-18216667D01*
X11995095Y-18226190D01*
X12004619Y-18245238D01*
X12004619Y-18302381D01*
X11995095Y-18321429D01*
X11985571Y-18330952D01*
X11966524Y-18340476D01*
X11937952Y-18340476D01*
X12118905Y-18340476D02*
X12099857Y-18330952D01*
X12090333Y-18311905D01*
X12090333Y-18140476D01*
X12271286Y-18330952D02*
X12252238Y-18340476D01*
X12214143Y-18340476D01*
X12195095Y-18330952D01*
X12185571Y-18311905D01*
X12185571Y-18235714D01*
X12195095Y-18216667D01*
X12214143Y-18207143D01*
X12252238Y-18207143D01*
X12271286Y-18216667D01*
X12280809Y-18235714D01*
X12280809Y-18254762D01*
X12185571Y-18273810D01*
X12357000Y-18330952D02*
X12376048Y-18340476D01*
X12414143Y-18340476D01*
X12433190Y-18330952D01*
X12442714Y-18311905D01*
X12442714Y-18302381D01*
X12433190Y-18283333D01*
X12414143Y-18273810D01*
X12385571Y-18273810D01*
X12366524Y-18264286D01*
X12357000Y-18245238D01*
X12357000Y-18235714D01*
X12366524Y-18216667D01*
X12385571Y-18207143D01*
X12414143Y-18207143D01*
X12433190Y-18216667D01*
X12509381Y-18416667D02*
X12518905Y-18407143D01*
X12537952Y-18378571D01*
X12547476Y-18359524D01*
X12557000Y-18330952D01*
X12566524Y-18283333D01*
X12566524Y-18245238D01*
X12557000Y-18197619D01*
X12547476Y-18169048D01*
X12537952Y-18150000D01*
X12518905Y-18121429D01*
X12509381Y-18111905D01*
D14*
X7508900Y-18475900D02*
X7508900Y-18552100D01*
X7470800Y-18514000D02*
X7547000Y-18514000D01*
D11*
X7842714Y-18404476D02*
X7861762Y-18404476D01*
X7880809Y-18414000D01*
X7890333Y-18423524D01*
X7899857Y-18442571D01*
X7909381Y-18480667D01*
X7909381Y-18528286D01*
X7899857Y-18566381D01*
X7890333Y-18585429D01*
X7880809Y-18594952D01*
X7861762Y-18604476D01*
X7842714Y-18604476D01*
X7823667Y-18594952D01*
X7814143Y-18585429D01*
X7804619Y-18566381D01*
X7795095Y-18528286D01*
X7795095Y-18480667D01*
X7804619Y-18442571D01*
X7814143Y-18423524D01*
X7823667Y-18414000D01*
X7842714Y-18404476D01*
X7995095Y-18585429D02*
X8004619Y-18594952D01*
X7995095Y-18604476D01*
X7985571Y-18594952D01*
X7995095Y-18585429D01*
X7995095Y-18604476D01*
X8071286Y-18404476D02*
X8204619Y-18404476D01*
X8118905Y-18604476D01*
X8366524Y-18404476D02*
X8328428Y-18404476D01*
X8309381Y-18414000D01*
X8299857Y-18423524D01*
X8280809Y-18452095D01*
X8271286Y-18490190D01*
X8271286Y-18566381D01*
X8280809Y-18585429D01*
X8290333Y-18594952D01*
X8309381Y-18604476D01*
X8347476Y-18604476D01*
X8366524Y-18594952D01*
X8376048Y-18585429D01*
X8385571Y-18566381D01*
X8385571Y-18518762D01*
X8376048Y-18499714D01*
X8366524Y-18490190D01*
X8347476Y-18480667D01*
X8309381Y-18480667D01*
X8290333Y-18490190D01*
X8280809Y-18499714D01*
X8271286Y-18518762D01*
X8461762Y-18423524D02*
X8471286Y-18414000D01*
X8490333Y-18404476D01*
X8537952Y-18404476D01*
X8557000Y-18414000D01*
X8566524Y-18423524D01*
X8576048Y-18442571D01*
X8576048Y-18461619D01*
X8566524Y-18490190D01*
X8452238Y-18604476D01*
X8576048Y-18604476D01*
X8661762Y-18604476D02*
X8661762Y-18471143D01*
X8661762Y-18490190D02*
X8671286Y-18480667D01*
X8690333Y-18471143D01*
X8718905Y-18471143D01*
X8737952Y-18480667D01*
X8747476Y-18499714D01*
X8747476Y-18604476D01*
X8747476Y-18499714D02*
X8757000Y-18480667D01*
X8776048Y-18471143D01*
X8804619Y-18471143D01*
X8823667Y-18480667D01*
X8833190Y-18499714D01*
X8833190Y-18604476D01*
X8928429Y-18604476D02*
X8928429Y-18471143D01*
X8928429Y-18490190D02*
X8937952Y-18480667D01*
X8957000Y-18471143D01*
X8985571Y-18471143D01*
X9004619Y-18480667D01*
X9014143Y-18499714D01*
X9014143Y-18604476D01*
X9014143Y-18499714D02*
X9023667Y-18480667D01*
X9042714Y-18471143D01*
X9071286Y-18471143D01*
X9090333Y-18480667D01*
X9099857Y-18499714D01*
X9099857Y-18604476D01*
X9490333Y-18394952D02*
X9318905Y-18652095D01*
X9747476Y-18404476D02*
X9766524Y-18404476D01*
X9785571Y-18414000D01*
X9795095Y-18423524D01*
X9804619Y-18442571D01*
X9814143Y-18480667D01*
X9814143Y-18528286D01*
X9804619Y-18566381D01*
X9795095Y-18585429D01*
X9785571Y-18594952D01*
X9766524Y-18604476D01*
X9747476Y-18604476D01*
X9728429Y-18594952D01*
X9718905Y-18585429D01*
X9709381Y-18566381D01*
X9699857Y-18528286D01*
X9699857Y-18480667D01*
X9709381Y-18442571D01*
X9718905Y-18423524D01*
X9728429Y-18414000D01*
X9747476Y-18404476D01*
X9899857Y-18585429D02*
X9909381Y-18594952D01*
X9899857Y-18604476D01*
X9890333Y-18594952D01*
X9899857Y-18585429D01*
X9899857Y-18604476D01*
X10033190Y-18404476D02*
X10052238Y-18404476D01*
X10071286Y-18414000D01*
X10080810Y-18423524D01*
X10090333Y-18442571D01*
X10099857Y-18480667D01*
X10099857Y-18528286D01*
X10090333Y-18566381D01*
X10080810Y-18585429D01*
X10071286Y-18594952D01*
X10052238Y-18604476D01*
X10033190Y-18604476D01*
X10014143Y-18594952D01*
X10004619Y-18585429D01*
X9995095Y-18566381D01*
X9985571Y-18528286D01*
X9985571Y-18480667D01*
X9995095Y-18442571D01*
X10004619Y-18423524D01*
X10014143Y-18414000D01*
X10033190Y-18404476D01*
X10166524Y-18404476D02*
X10290333Y-18404476D01*
X10223667Y-18480667D01*
X10252238Y-18480667D01*
X10271286Y-18490190D01*
X10280810Y-18499714D01*
X10290333Y-18518762D01*
X10290333Y-18566381D01*
X10280810Y-18585429D01*
X10271286Y-18594952D01*
X10252238Y-18604476D01*
X10195095Y-18604476D01*
X10176048Y-18594952D01*
X10166524Y-18585429D01*
X10414143Y-18404476D02*
X10433190Y-18404476D01*
X10452238Y-18414000D01*
X10461762Y-18423524D01*
X10471286Y-18442571D01*
X10480810Y-18480667D01*
X10480810Y-18528286D01*
X10471286Y-18566381D01*
X10461762Y-18585429D01*
X10452238Y-18594952D01*
X10433190Y-18604476D01*
X10414143Y-18604476D01*
X10395095Y-18594952D01*
X10385571Y-18585429D01*
X10376048Y-18566381D01*
X10366524Y-18528286D01*
X10366524Y-18480667D01*
X10376048Y-18442571D01*
X10385571Y-18423524D01*
X10395095Y-18414000D01*
X10414143Y-18404476D01*
X10604619Y-18404476D02*
X10623667Y-18404476D01*
X10642714Y-18414000D01*
X10652238Y-18423524D01*
X10661762Y-18442571D01*
X10671286Y-18480667D01*
X10671286Y-18528286D01*
X10661762Y-18566381D01*
X10652238Y-18585429D01*
X10642714Y-18594952D01*
X10623667Y-18604476D01*
X10604619Y-18604476D01*
X10585571Y-18594952D01*
X10576048Y-18585429D01*
X10566524Y-18566381D01*
X10557000Y-18528286D01*
X10557000Y-18480667D01*
X10566524Y-18442571D01*
X10576048Y-18423524D01*
X10585571Y-18414000D01*
X10604619Y-18404476D01*
X10747476Y-18404476D02*
X10747476Y-18442571D01*
X10823667Y-18404476D02*
X10823667Y-18442571D01*
X11118905Y-18680667D02*
X11109381Y-18671143D01*
X11090333Y-18642571D01*
X11080810Y-18623524D01*
X11071286Y-18594952D01*
X11061762Y-18547333D01*
X11061762Y-18509238D01*
X11071286Y-18461619D01*
X11080810Y-18433048D01*
X11090333Y-18414000D01*
X11109381Y-18385429D01*
X11118905Y-18375905D01*
X11299857Y-18604476D02*
X11185571Y-18604476D01*
X11242714Y-18604476D02*
X11242714Y-18404476D01*
X11223667Y-18433048D01*
X11204619Y-18452095D01*
X11185571Y-18461619D01*
X11414143Y-18490190D02*
X11395095Y-18480667D01*
X11385571Y-18471143D01*
X11376048Y-18452095D01*
X11376048Y-18442571D01*
X11385571Y-18423524D01*
X11395095Y-18414000D01*
X11414143Y-18404476D01*
X11452238Y-18404476D01*
X11471286Y-18414000D01*
X11480809Y-18423524D01*
X11490333Y-18442571D01*
X11490333Y-18452095D01*
X11480809Y-18471143D01*
X11471286Y-18480667D01*
X11452238Y-18490190D01*
X11414143Y-18490190D01*
X11395095Y-18499714D01*
X11385571Y-18509238D01*
X11376048Y-18528286D01*
X11376048Y-18566381D01*
X11385571Y-18585429D01*
X11395095Y-18594952D01*
X11414143Y-18604476D01*
X11452238Y-18604476D01*
X11471286Y-18594952D01*
X11480809Y-18585429D01*
X11490333Y-18566381D01*
X11490333Y-18528286D01*
X11480809Y-18509238D01*
X11471286Y-18499714D01*
X11452238Y-18490190D01*
X11728428Y-18604476D02*
X11728428Y-18404476D01*
X11814143Y-18604476D02*
X11814143Y-18499714D01*
X11804619Y-18480667D01*
X11785571Y-18471143D01*
X11757000Y-18471143D01*
X11737952Y-18480667D01*
X11728428Y-18490190D01*
X11937952Y-18604476D02*
X11918905Y-18594952D01*
X11909381Y-18585429D01*
X11899857Y-18566381D01*
X11899857Y-18509238D01*
X11909381Y-18490190D01*
X11918905Y-18480667D01*
X11937952Y-18471143D01*
X11966524Y-18471143D01*
X11985571Y-18480667D01*
X11995095Y-18490190D01*
X12004619Y-18509238D01*
X12004619Y-18566381D01*
X11995095Y-18585429D01*
X11985571Y-18594952D01*
X11966524Y-18604476D01*
X11937952Y-18604476D01*
X12118905Y-18604476D02*
X12099857Y-18594952D01*
X12090333Y-18575905D01*
X12090333Y-18404476D01*
X12271286Y-18594952D02*
X12252238Y-18604476D01*
X12214143Y-18604476D01*
X12195095Y-18594952D01*
X12185571Y-18575905D01*
X12185571Y-18499714D01*
X12195095Y-18480667D01*
X12214143Y-18471143D01*
X12252238Y-18471143D01*
X12271286Y-18480667D01*
X12280809Y-18499714D01*
X12280809Y-18518762D01*
X12185571Y-18537810D01*
X12357000Y-18594952D02*
X12376048Y-18604476D01*
X12414143Y-18604476D01*
X12433190Y-18594952D01*
X12442714Y-18575905D01*
X12442714Y-18566381D01*
X12433190Y-18547333D01*
X12414143Y-18537810D01*
X12385571Y-18537810D01*
X12366524Y-18528286D01*
X12357000Y-18509238D01*
X12357000Y-18499714D01*
X12366524Y-18480667D01*
X12385571Y-18471143D01*
X12414143Y-18471143D01*
X12433190Y-18480667D01*
X12509381Y-18680667D02*
X12518905Y-18671143D01*
X12537952Y-18642571D01*
X12547476Y-18623524D01*
X12557000Y-18594952D01*
X12566524Y-18547333D01*
X12566524Y-18509238D01*
X12557000Y-18461619D01*
X12547476Y-18433048D01*
X12537952Y-18414000D01*
X12518905Y-18385429D01*
X12509381Y-18375905D01*
D15*
X7535284Y-18806285D02*
X7535284Y-18749716D01*
X7478715Y-18749716D01*
X7478715Y-18806285D01*
X7535284Y-18806285D01*
D11*
X7842714Y-18668476D02*
X7861762Y-18668476D01*
X7880809Y-18678000D01*
X7890333Y-18687524D01*
X7899857Y-18706571D01*
X7909381Y-18744667D01*
X7909381Y-18792286D01*
X7899857Y-18830381D01*
X7890333Y-18849429D01*
X7880809Y-18858952D01*
X7861762Y-18868476D01*
X7842714Y-18868476D01*
X7823667Y-18858952D01*
X7814143Y-18849429D01*
X7804619Y-18830381D01*
X7795095Y-18792286D01*
X7795095Y-18744667D01*
X7804619Y-18706571D01*
X7814143Y-18687524D01*
X7823667Y-18678000D01*
X7842714Y-18668476D01*
X7995095Y-18849429D02*
X8004619Y-18858952D01*
X7995095Y-18868476D01*
X7985571Y-18858952D01*
X7995095Y-18849429D01*
X7995095Y-18868476D01*
X8118905Y-18754190D02*
X8099857Y-18744667D01*
X8090333Y-18735143D01*
X8080809Y-18716095D01*
X8080809Y-18706571D01*
X8090333Y-18687524D01*
X8099857Y-18678000D01*
X8118905Y-18668476D01*
X8157000Y-18668476D01*
X8176048Y-18678000D01*
X8185571Y-18687524D01*
X8195095Y-18706571D01*
X8195095Y-18716095D01*
X8185571Y-18735143D01*
X8176048Y-18744667D01*
X8157000Y-18754190D01*
X8118905Y-18754190D01*
X8099857Y-18763714D01*
X8090333Y-18773238D01*
X8080809Y-18792286D01*
X8080809Y-18830381D01*
X8090333Y-18849429D01*
X8099857Y-18858952D01*
X8118905Y-18868476D01*
X8157000Y-18868476D01*
X8176048Y-18858952D01*
X8185571Y-18849429D01*
X8195095Y-18830381D01*
X8195095Y-18792286D01*
X8185571Y-18773238D01*
X8176048Y-18763714D01*
X8157000Y-18754190D01*
X8318905Y-18668476D02*
X8337952Y-18668476D01*
X8357000Y-18678000D01*
X8366524Y-18687524D01*
X8376048Y-18706571D01*
X8385571Y-18744667D01*
X8385571Y-18792286D01*
X8376048Y-18830381D01*
X8366524Y-18849429D01*
X8357000Y-18858952D01*
X8337952Y-18868476D01*
X8318905Y-18868476D01*
X8299857Y-18858952D01*
X8290333Y-18849429D01*
X8280809Y-18830381D01*
X8271286Y-18792286D01*
X8271286Y-18744667D01*
X8280809Y-18706571D01*
X8290333Y-18687524D01*
X8299857Y-18678000D01*
X8318905Y-18668476D01*
X8509381Y-18668476D02*
X8528429Y-18668476D01*
X8547476Y-18678000D01*
X8557000Y-18687524D01*
X8566524Y-18706571D01*
X8576048Y-18744667D01*
X8576048Y-18792286D01*
X8566524Y-18830381D01*
X8557000Y-18849429D01*
X8547476Y-18858952D01*
X8528429Y-18868476D01*
X8509381Y-18868476D01*
X8490333Y-18858952D01*
X8480810Y-18849429D01*
X8471286Y-18830381D01*
X8461762Y-18792286D01*
X8461762Y-18744667D01*
X8471286Y-18706571D01*
X8480810Y-18687524D01*
X8490333Y-18678000D01*
X8509381Y-18668476D01*
X8661762Y-18868476D02*
X8661762Y-18735143D01*
X8661762Y-18754190D02*
X8671286Y-18744667D01*
X8690333Y-18735143D01*
X8718905Y-18735143D01*
X8737952Y-18744667D01*
X8747476Y-18763714D01*
X8747476Y-18868476D01*
X8747476Y-18763714D02*
X8757000Y-18744667D01*
X8776048Y-18735143D01*
X8804619Y-18735143D01*
X8823667Y-18744667D01*
X8833190Y-18763714D01*
X8833190Y-18868476D01*
X8928429Y-18868476D02*
X8928429Y-18735143D01*
X8928429Y-18754190D02*
X8937952Y-18744667D01*
X8957000Y-18735143D01*
X8985571Y-18735143D01*
X9004619Y-18744667D01*
X9014143Y-18763714D01*
X9014143Y-18868476D01*
X9014143Y-18763714D02*
X9023667Y-18744667D01*
X9042714Y-18735143D01*
X9071286Y-18735143D01*
X9090333Y-18744667D01*
X9099857Y-18763714D01*
X9099857Y-18868476D01*
X9490333Y-18658952D02*
X9318905Y-18916095D01*
X9747476Y-18668476D02*
X9766524Y-18668476D01*
X9785571Y-18678000D01*
X9795095Y-18687524D01*
X9804619Y-18706571D01*
X9814143Y-18744667D01*
X9814143Y-18792286D01*
X9804619Y-18830381D01*
X9795095Y-18849429D01*
X9785571Y-18858952D01*
X9766524Y-18868476D01*
X9747476Y-18868476D01*
X9728429Y-18858952D01*
X9718905Y-18849429D01*
X9709381Y-18830381D01*
X9699857Y-18792286D01*
X9699857Y-18744667D01*
X9709381Y-18706571D01*
X9718905Y-18687524D01*
X9728429Y-18678000D01*
X9747476Y-18668476D01*
X9899857Y-18849429D02*
X9909381Y-18858952D01*
X9899857Y-18868476D01*
X9890333Y-18858952D01*
X9899857Y-18849429D01*
X9899857Y-18868476D01*
X10033190Y-18668476D02*
X10052238Y-18668476D01*
X10071286Y-18678000D01*
X10080810Y-18687524D01*
X10090333Y-18706571D01*
X10099857Y-18744667D01*
X10099857Y-18792286D01*
X10090333Y-18830381D01*
X10080810Y-18849429D01*
X10071286Y-18858952D01*
X10052238Y-18868476D01*
X10033190Y-18868476D01*
X10014143Y-18858952D01*
X10004619Y-18849429D01*
X9995095Y-18830381D01*
X9985571Y-18792286D01*
X9985571Y-18744667D01*
X9995095Y-18706571D01*
X10004619Y-18687524D01*
X10014143Y-18678000D01*
X10033190Y-18668476D01*
X10166524Y-18668476D02*
X10290333Y-18668476D01*
X10223667Y-18744667D01*
X10252238Y-18744667D01*
X10271286Y-18754190D01*
X10280810Y-18763714D01*
X10290333Y-18782762D01*
X10290333Y-18830381D01*
X10280810Y-18849429D01*
X10271286Y-18858952D01*
X10252238Y-18868476D01*
X10195095Y-18868476D01*
X10176048Y-18858952D01*
X10166524Y-18849429D01*
X10480810Y-18868476D02*
X10366524Y-18868476D01*
X10423667Y-18868476D02*
X10423667Y-18668476D01*
X10404619Y-18697048D01*
X10385571Y-18716095D01*
X10366524Y-18725619D01*
X10661762Y-18668476D02*
X10566524Y-18668476D01*
X10557000Y-18763714D01*
X10566524Y-18754190D01*
X10585571Y-18744667D01*
X10633190Y-18744667D01*
X10652238Y-18754190D01*
X10661762Y-18763714D01*
X10671286Y-18782762D01*
X10671286Y-18830381D01*
X10661762Y-18849429D01*
X10652238Y-18858952D01*
X10633190Y-18868476D01*
X10585571Y-18868476D01*
X10566524Y-18858952D01*
X10557000Y-18849429D01*
X10747476Y-18668476D02*
X10747476Y-18706571D01*
X10823667Y-18668476D02*
X10823667Y-18706571D01*
X11118905Y-18944667D02*
X11109381Y-18935143D01*
X11090333Y-18906571D01*
X11080810Y-18887524D01*
X11071286Y-18858952D01*
X11061762Y-18811333D01*
X11061762Y-18773238D01*
X11071286Y-18725619D01*
X11080810Y-18697048D01*
X11090333Y-18678000D01*
X11109381Y-18649429D01*
X11118905Y-18639905D01*
X11299857Y-18868476D02*
X11185571Y-18868476D01*
X11242714Y-18868476D02*
X11242714Y-18668476D01*
X11223667Y-18697048D01*
X11204619Y-18716095D01*
X11185571Y-18725619D01*
X11376048Y-18687524D02*
X11385571Y-18678000D01*
X11404619Y-18668476D01*
X11452238Y-18668476D01*
X11471286Y-18678000D01*
X11480809Y-18687524D01*
X11490333Y-18706571D01*
X11490333Y-18725619D01*
X11480809Y-18754190D01*
X11366524Y-18868476D01*
X11490333Y-18868476D01*
X11728428Y-18868476D02*
X11728428Y-18668476D01*
X11814143Y-18868476D02*
X11814143Y-18763714D01*
X11804619Y-18744667D01*
X11785571Y-18735143D01*
X11757000Y-18735143D01*
X11737952Y-18744667D01*
X11728428Y-18754190D01*
X11937952Y-18868476D02*
X11918905Y-18858952D01*
X11909381Y-18849429D01*
X11899857Y-18830381D01*
X11899857Y-18773238D01*
X11909381Y-18754190D01*
X11918905Y-18744667D01*
X11937952Y-18735143D01*
X11966524Y-18735143D01*
X11985571Y-18744667D01*
X11995095Y-18754190D01*
X12004619Y-18773238D01*
X12004619Y-18830381D01*
X11995095Y-18849429D01*
X11985571Y-18858952D01*
X11966524Y-18868476D01*
X11937952Y-18868476D01*
X12118905Y-18868476D02*
X12099857Y-18858952D01*
X12090333Y-18839905D01*
X12090333Y-18668476D01*
X12271286Y-18858952D02*
X12252238Y-18868476D01*
X12214143Y-18868476D01*
X12195095Y-18858952D01*
X12185571Y-18839905D01*
X12185571Y-18763714D01*
X12195095Y-18744667D01*
X12214143Y-18735143D01*
X12252238Y-18735143D01*
X12271286Y-18744667D01*
X12280809Y-18763714D01*
X12280809Y-18782762D01*
X12185571Y-18801810D01*
X12357000Y-18858952D02*
X12376048Y-18868476D01*
X12414143Y-18868476D01*
X12433190Y-18858952D01*
X12442714Y-18839905D01*
X12442714Y-18830381D01*
X12433190Y-18811333D01*
X12414143Y-18801810D01*
X12385571Y-18801810D01*
X12366524Y-18792286D01*
X12357000Y-18773238D01*
X12357000Y-18763714D01*
X12366524Y-18744667D01*
X12385571Y-18735143D01*
X12414143Y-18735143D01*
X12433190Y-18744667D01*
X12509381Y-18944667D02*
X12518905Y-18935143D01*
X12537952Y-18906571D01*
X12547476Y-18887524D01*
X12557000Y-18858952D01*
X12566524Y-18811333D01*
X12566524Y-18773238D01*
X12557000Y-18725619D01*
X12547476Y-18697048D01*
X12537952Y-18678000D01*
X12518905Y-18649429D01*
X12509381Y-18639905D01*
D16*
X7497000Y-19092000D02*
X7547000Y-19042000D01*
X7497000Y-18992000D01*
X7447000Y-19042000D01*
X7497000Y-19092000D01*
D11*
X7909381Y-19132476D02*
X7795095Y-19132476D01*
X7852238Y-19132476D02*
X7852238Y-18932476D01*
X7833190Y-18961048D01*
X7814143Y-18980095D01*
X7795095Y-18989619D01*
X7995095Y-19113429D02*
X8004619Y-19122952D01*
X7995095Y-19132476D01*
X7985571Y-19122952D01*
X7995095Y-19113429D01*
X7995095Y-19132476D01*
X8128428Y-18932476D02*
X8147476Y-18932476D01*
X8166524Y-18942000D01*
X8176048Y-18951524D01*
X8185571Y-18970571D01*
X8195095Y-19008667D01*
X8195095Y-19056286D01*
X8185571Y-19094381D01*
X8176048Y-19113429D01*
X8166524Y-19122952D01*
X8147476Y-19132476D01*
X8128428Y-19132476D01*
X8109381Y-19122952D01*
X8099857Y-19113429D01*
X8090333Y-19094381D01*
X8080809Y-19056286D01*
X8080809Y-19008667D01*
X8090333Y-18970571D01*
X8099857Y-18951524D01*
X8109381Y-18942000D01*
X8128428Y-18932476D01*
X8318905Y-18932476D02*
X8337952Y-18932476D01*
X8357000Y-18942000D01*
X8366524Y-18951524D01*
X8376048Y-18970571D01*
X8385571Y-19008667D01*
X8385571Y-19056286D01*
X8376048Y-19094381D01*
X8366524Y-19113429D01*
X8357000Y-19122952D01*
X8337952Y-19132476D01*
X8318905Y-19132476D01*
X8299857Y-19122952D01*
X8290333Y-19113429D01*
X8280809Y-19094381D01*
X8271286Y-19056286D01*
X8271286Y-19008667D01*
X8280809Y-18970571D01*
X8290333Y-18951524D01*
X8299857Y-18942000D01*
X8318905Y-18932476D01*
X8509381Y-18932476D02*
X8528429Y-18932476D01*
X8547476Y-18942000D01*
X8557000Y-18951524D01*
X8566524Y-18970571D01*
X8576048Y-19008667D01*
X8576048Y-19056286D01*
X8566524Y-19094381D01*
X8557000Y-19113429D01*
X8547476Y-19122952D01*
X8528429Y-19132476D01*
X8509381Y-19132476D01*
X8490333Y-19122952D01*
X8480810Y-19113429D01*
X8471286Y-19094381D01*
X8461762Y-19056286D01*
X8461762Y-19008667D01*
X8471286Y-18970571D01*
X8480810Y-18951524D01*
X8490333Y-18942000D01*
X8509381Y-18932476D01*
X8661762Y-19132476D02*
X8661762Y-18999143D01*
X8661762Y-19018190D02*
X8671286Y-19008667D01*
X8690333Y-18999143D01*
X8718905Y-18999143D01*
X8737952Y-19008667D01*
X8747476Y-19027714D01*
X8747476Y-19132476D01*
X8747476Y-19027714D02*
X8757000Y-19008667D01*
X8776048Y-18999143D01*
X8804619Y-18999143D01*
X8823667Y-19008667D01*
X8833190Y-19027714D01*
X8833190Y-19132476D01*
X8928429Y-19132476D02*
X8928429Y-18999143D01*
X8928429Y-19018190D02*
X8937952Y-19008667D01*
X8957000Y-18999143D01*
X8985571Y-18999143D01*
X9004619Y-19008667D01*
X9014143Y-19027714D01*
X9014143Y-19132476D01*
X9014143Y-19027714D02*
X9023667Y-19008667D01*
X9042714Y-18999143D01*
X9071286Y-18999143D01*
X9090333Y-19008667D01*
X9099857Y-19027714D01*
X9099857Y-19132476D01*
X9490333Y-18922952D02*
X9318905Y-19180095D01*
X9747476Y-18932476D02*
X9766524Y-18932476D01*
X9785571Y-18942000D01*
X9795095Y-18951524D01*
X9804619Y-18970571D01*
X9814143Y-19008667D01*
X9814143Y-19056286D01*
X9804619Y-19094381D01*
X9795095Y-19113429D01*
X9785571Y-19122952D01*
X9766524Y-19132476D01*
X9747476Y-19132476D01*
X9728429Y-19122952D01*
X9718905Y-19113429D01*
X9709381Y-19094381D01*
X9699857Y-19056286D01*
X9699857Y-19008667D01*
X9709381Y-18970571D01*
X9718905Y-18951524D01*
X9728429Y-18942000D01*
X9747476Y-18932476D01*
X9899857Y-19113429D02*
X9909381Y-19122952D01*
X9899857Y-19132476D01*
X9890333Y-19122952D01*
X9899857Y-19113429D01*
X9899857Y-19132476D01*
X10033190Y-18932476D02*
X10052238Y-18932476D01*
X10071286Y-18942000D01*
X10080810Y-18951524D01*
X10090333Y-18970571D01*
X10099857Y-19008667D01*
X10099857Y-19056286D01*
X10090333Y-19094381D01*
X10080810Y-19113429D01*
X10071286Y-19122952D01*
X10052238Y-19132476D01*
X10033190Y-19132476D01*
X10014143Y-19122952D01*
X10004619Y-19113429D01*
X9995095Y-19094381D01*
X9985571Y-19056286D01*
X9985571Y-19008667D01*
X9995095Y-18970571D01*
X10004619Y-18951524D01*
X10014143Y-18942000D01*
X10033190Y-18932476D01*
X10166524Y-18932476D02*
X10290333Y-18932476D01*
X10223667Y-19008667D01*
X10252238Y-19008667D01*
X10271286Y-19018190D01*
X10280810Y-19027714D01*
X10290333Y-19046762D01*
X10290333Y-19094381D01*
X10280810Y-19113429D01*
X10271286Y-19122952D01*
X10252238Y-19132476D01*
X10195095Y-19132476D01*
X10176048Y-19122952D01*
X10166524Y-19113429D01*
X10385571Y-19132476D02*
X10423667Y-19132476D01*
X10442714Y-19122952D01*
X10452238Y-19113429D01*
X10471286Y-19084857D01*
X10480810Y-19046762D01*
X10480810Y-18970571D01*
X10471286Y-18951524D01*
X10461762Y-18942000D01*
X10442714Y-18932476D01*
X10404619Y-18932476D01*
X10385571Y-18942000D01*
X10376048Y-18951524D01*
X10366524Y-18970571D01*
X10366524Y-19018190D01*
X10376048Y-19037238D01*
X10385571Y-19046762D01*
X10404619Y-19056286D01*
X10442714Y-19056286D01*
X10461762Y-19046762D01*
X10471286Y-19037238D01*
X10480810Y-19018190D01*
X10652238Y-18999143D02*
X10652238Y-19132476D01*
X10604619Y-18922952D02*
X10557000Y-19065810D01*
X10680810Y-19065810D01*
X10747476Y-18932476D02*
X10747476Y-18970571D01*
X10823667Y-18932476D02*
X10823667Y-18970571D01*
X11118905Y-19208667D02*
X11109381Y-19199143D01*
X11090333Y-19170571D01*
X11080810Y-19151524D01*
X11071286Y-19122952D01*
X11061762Y-19075333D01*
X11061762Y-19037238D01*
X11071286Y-18989619D01*
X11080810Y-18961048D01*
X11090333Y-18942000D01*
X11109381Y-18913429D01*
X11118905Y-18903905D01*
X11223667Y-19018190D02*
X11204619Y-19008667D01*
X11195095Y-18999143D01*
X11185571Y-18980095D01*
X11185571Y-18970571D01*
X11195095Y-18951524D01*
X11204619Y-18942000D01*
X11223667Y-18932476D01*
X11261762Y-18932476D01*
X11280809Y-18942000D01*
X11290333Y-18951524D01*
X11299857Y-18970571D01*
X11299857Y-18980095D01*
X11290333Y-18999143D01*
X11280809Y-19008667D01*
X11261762Y-19018190D01*
X11223667Y-19018190D01*
X11204619Y-19027714D01*
X11195095Y-19037238D01*
X11185571Y-19056286D01*
X11185571Y-19094381D01*
X11195095Y-19113429D01*
X11204619Y-19122952D01*
X11223667Y-19132476D01*
X11261762Y-19132476D01*
X11280809Y-19122952D01*
X11290333Y-19113429D01*
X11299857Y-19094381D01*
X11299857Y-19056286D01*
X11290333Y-19037238D01*
X11280809Y-19027714D01*
X11261762Y-19018190D01*
X11480809Y-18932476D02*
X11385571Y-18932476D01*
X11376048Y-19027714D01*
X11385571Y-19018190D01*
X11404619Y-19008667D01*
X11452238Y-19008667D01*
X11471286Y-19018190D01*
X11480809Y-19027714D01*
X11490333Y-19046762D01*
X11490333Y-19094381D01*
X11480809Y-19113429D01*
X11471286Y-19122952D01*
X11452238Y-19132476D01*
X11404619Y-19132476D01*
X11385571Y-19122952D01*
X11376048Y-19113429D01*
X11728428Y-19132476D02*
X11728428Y-18932476D01*
X11814143Y-19132476D02*
X11814143Y-19027714D01*
X11804619Y-19008667D01*
X11785571Y-18999143D01*
X11757000Y-18999143D01*
X11737952Y-19008667D01*
X11728428Y-19018190D01*
X11937952Y-19132476D02*
X11918905Y-19122952D01*
X11909381Y-19113429D01*
X11899857Y-19094381D01*
X11899857Y-19037238D01*
X11909381Y-19018190D01*
X11918905Y-19008667D01*
X11937952Y-18999143D01*
X11966524Y-18999143D01*
X11985571Y-19008667D01*
X11995095Y-19018190D01*
X12004619Y-19037238D01*
X12004619Y-19094381D01*
X11995095Y-19113429D01*
X11985571Y-19122952D01*
X11966524Y-19132476D01*
X11937952Y-19132476D01*
X12118905Y-19132476D02*
X12099857Y-19122952D01*
X12090333Y-19103905D01*
X12090333Y-18932476D01*
X12271286Y-19122952D02*
X12252238Y-19132476D01*
X12214143Y-19132476D01*
X12195095Y-19122952D01*
X12185571Y-19103905D01*
X12185571Y-19027714D01*
X12195095Y-19008667D01*
X12214143Y-18999143D01*
X12252238Y-18999143D01*
X12271286Y-19008667D01*
X12280809Y-19027714D01*
X12280809Y-19046762D01*
X12185571Y-19065810D01*
X12357000Y-19122952D02*
X12376048Y-19132476D01*
X12414143Y-19132476D01*
X12433190Y-19122952D01*
X12442714Y-19103905D01*
X12442714Y-19094381D01*
X12433190Y-19075333D01*
X12414143Y-19065810D01*
X12385571Y-19065810D01*
X12366524Y-19056286D01*
X12357000Y-19037238D01*
X12357000Y-19027714D01*
X12366524Y-19008667D01*
X12385571Y-18999143D01*
X12414143Y-18999143D01*
X12433190Y-19008667D01*
X12509381Y-19208667D02*
X12518905Y-19199143D01*
X12537952Y-19170571D01*
X12547476Y-19151524D01*
X12557000Y-19122952D01*
X12566524Y-19075333D01*
X12566524Y-19037238D01*
X12557000Y-18989619D01*
X12547476Y-18961048D01*
X12537952Y-18942000D01*
X12518905Y-18913429D01*
X12509381Y-18903905D01*
X7347000Y-19206000D02*
X7547000Y-19406000D01*
X7547000Y-19206000D02*
X7347000Y-19406000D01*
X7547000Y-19306000D02*
G75*
G03*
X7547000Y-19306000I-100000J0D01*
G01*
X7795095Y-19215524D02*
X7804619Y-19206000D01*
X7823667Y-19196476D01*
X7871286Y-19196476D01*
X7890333Y-19206000D01*
X7899857Y-19215524D01*
X7909381Y-19234571D01*
X7909381Y-19253619D01*
X7899857Y-19282190D01*
X7785571Y-19396476D01*
X7909381Y-19396476D01*
X7995095Y-19377429D02*
X8004619Y-19386952D01*
X7995095Y-19396476D01*
X7985571Y-19386952D01*
X7995095Y-19377429D01*
X7995095Y-19396476D01*
X8080809Y-19215524D02*
X8090333Y-19206000D01*
X8109381Y-19196476D01*
X8157000Y-19196476D01*
X8176048Y-19206000D01*
X8185571Y-19215524D01*
X8195095Y-19234571D01*
X8195095Y-19253619D01*
X8185571Y-19282190D01*
X8071286Y-19396476D01*
X8195095Y-19396476D01*
X8318905Y-19196476D02*
X8337952Y-19196476D01*
X8357000Y-19206000D01*
X8366524Y-19215524D01*
X8376048Y-19234571D01*
X8385571Y-19272667D01*
X8385571Y-19320286D01*
X8376048Y-19358381D01*
X8366524Y-19377429D01*
X8357000Y-19386952D01*
X8337952Y-19396476D01*
X8318905Y-19396476D01*
X8299857Y-19386952D01*
X8290333Y-19377429D01*
X8280809Y-19358381D01*
X8271286Y-19320286D01*
X8271286Y-19272667D01*
X8280809Y-19234571D01*
X8290333Y-19215524D01*
X8299857Y-19206000D01*
X8318905Y-19196476D01*
X8509381Y-19196476D02*
X8528429Y-19196476D01*
X8547476Y-19206000D01*
X8557000Y-19215524D01*
X8566524Y-19234571D01*
X8576048Y-19272667D01*
X8576048Y-19320286D01*
X8566524Y-19358381D01*
X8557000Y-19377429D01*
X8547476Y-19386952D01*
X8528429Y-19396476D01*
X8509381Y-19396476D01*
X8490333Y-19386952D01*
X8480810Y-19377429D01*
X8471286Y-19358381D01*
X8461762Y-19320286D01*
X8461762Y-19272667D01*
X8471286Y-19234571D01*
X8480810Y-19215524D01*
X8490333Y-19206000D01*
X8509381Y-19196476D01*
X8661762Y-19396476D02*
X8661762Y-19263143D01*
X8661762Y-19282190D02*
X8671286Y-19272667D01*
X8690333Y-19263143D01*
X8718905Y-19263143D01*
X8737952Y-19272667D01*
X8747476Y-19291714D01*
X8747476Y-19396476D01*
X8747476Y-19291714D02*
X8757000Y-19272667D01*
X8776048Y-19263143D01*
X8804619Y-19263143D01*
X8823667Y-19272667D01*
X8833190Y-19291714D01*
X8833190Y-19396476D01*
X8928429Y-19396476D02*
X8928429Y-19263143D01*
X8928429Y-19282190D02*
X8937952Y-19272667D01*
X8957000Y-19263143D01*
X8985571Y-19263143D01*
X9004619Y-19272667D01*
X9014143Y-19291714D01*
X9014143Y-19396476D01*
X9014143Y-19291714D02*
X9023667Y-19272667D01*
X9042714Y-19263143D01*
X9071286Y-19263143D01*
X9090333Y-19272667D01*
X9099857Y-19291714D01*
X9099857Y-19396476D01*
X9490333Y-19186952D02*
X9318905Y-19444095D01*
X9747476Y-19196476D02*
X9766524Y-19196476D01*
X9785571Y-19206000D01*
X9795095Y-19215524D01*
X9804619Y-19234571D01*
X9814143Y-19272667D01*
X9814143Y-19320286D01*
X9804619Y-19358381D01*
X9795095Y-19377429D01*
X9785571Y-19386952D01*
X9766524Y-19396476D01*
X9747476Y-19396476D01*
X9728429Y-19386952D01*
X9718905Y-19377429D01*
X9709381Y-19358381D01*
X9699857Y-19320286D01*
X9699857Y-19272667D01*
X9709381Y-19234571D01*
X9718905Y-19215524D01*
X9728429Y-19206000D01*
X9747476Y-19196476D01*
X9899857Y-19377429D02*
X9909381Y-19386952D01*
X9899857Y-19396476D01*
X9890333Y-19386952D01*
X9899857Y-19377429D01*
X9899857Y-19396476D01*
X10033190Y-19196476D02*
X10052238Y-19196476D01*
X10071286Y-19206000D01*
X10080810Y-19215524D01*
X10090333Y-19234571D01*
X10099857Y-19272667D01*
X10099857Y-19320286D01*
X10090333Y-19358381D01*
X10080810Y-19377429D01*
X10071286Y-19386952D01*
X10052238Y-19396476D01*
X10033190Y-19396476D01*
X10014143Y-19386952D01*
X10004619Y-19377429D01*
X9995095Y-19358381D01*
X9985571Y-19320286D01*
X9985571Y-19272667D01*
X9995095Y-19234571D01*
X10004619Y-19215524D01*
X10014143Y-19206000D01*
X10033190Y-19196476D01*
X10214143Y-19282190D02*
X10195095Y-19272667D01*
X10185571Y-19263143D01*
X10176048Y-19244095D01*
X10176048Y-19234571D01*
X10185571Y-19215524D01*
X10195095Y-19206000D01*
X10214143Y-19196476D01*
X10252238Y-19196476D01*
X10271286Y-19206000D01*
X10280810Y-19215524D01*
X10290333Y-19234571D01*
X10290333Y-19244095D01*
X10280810Y-19263143D01*
X10271286Y-19272667D01*
X10252238Y-19282190D01*
X10214143Y-19282190D01*
X10195095Y-19291714D01*
X10185571Y-19301238D01*
X10176048Y-19320286D01*
X10176048Y-19358381D01*
X10185571Y-19377429D01*
X10195095Y-19386952D01*
X10214143Y-19396476D01*
X10252238Y-19396476D01*
X10271286Y-19386952D01*
X10280810Y-19377429D01*
X10290333Y-19358381D01*
X10290333Y-19320286D01*
X10280810Y-19301238D01*
X10271286Y-19291714D01*
X10252238Y-19282190D01*
X10461762Y-19196476D02*
X10423667Y-19196476D01*
X10404619Y-19206000D01*
X10395095Y-19215524D01*
X10376048Y-19244095D01*
X10366524Y-19282190D01*
X10366524Y-19358381D01*
X10376048Y-19377429D01*
X10385571Y-19386952D01*
X10404619Y-19396476D01*
X10442714Y-19396476D01*
X10461762Y-19386952D01*
X10471286Y-19377429D01*
X10480810Y-19358381D01*
X10480810Y-19310762D01*
X10471286Y-19291714D01*
X10461762Y-19282190D01*
X10442714Y-19272667D01*
X10404619Y-19272667D01*
X10385571Y-19282190D01*
X10376048Y-19291714D01*
X10366524Y-19310762D01*
X10652238Y-19196476D02*
X10614143Y-19196476D01*
X10595095Y-19206000D01*
X10585571Y-19215524D01*
X10566524Y-19244095D01*
X10557000Y-19282190D01*
X10557000Y-19358381D01*
X10566524Y-19377429D01*
X10576048Y-19386952D01*
X10595095Y-19396476D01*
X10633190Y-19396476D01*
X10652238Y-19386952D01*
X10661762Y-19377429D01*
X10671286Y-19358381D01*
X10671286Y-19310762D01*
X10661762Y-19291714D01*
X10652238Y-19282190D01*
X10633190Y-19272667D01*
X10595095Y-19272667D01*
X10576048Y-19282190D01*
X10566524Y-19291714D01*
X10557000Y-19310762D01*
X10747476Y-19196476D02*
X10747476Y-19234571D01*
X10823667Y-19196476D02*
X10823667Y-19234571D01*
X11118905Y-19472667D02*
X11109381Y-19463143D01*
X11090333Y-19434571D01*
X11080810Y-19415524D01*
X11071286Y-19386952D01*
X11061762Y-19339333D01*
X11061762Y-19301238D01*
X11071286Y-19253619D01*
X11080810Y-19225048D01*
X11090333Y-19206000D01*
X11109381Y-19177429D01*
X11118905Y-19167905D01*
X11185571Y-19215524D02*
X11195095Y-19206000D01*
X11214143Y-19196476D01*
X11261762Y-19196476D01*
X11280809Y-19206000D01*
X11290333Y-19215524D01*
X11299857Y-19234571D01*
X11299857Y-19253619D01*
X11290333Y-19282190D01*
X11176048Y-19396476D01*
X11299857Y-19396476D01*
X11471286Y-19196476D02*
X11433190Y-19196476D01*
X11414143Y-19206000D01*
X11404619Y-19215524D01*
X11385571Y-19244095D01*
X11376048Y-19282190D01*
X11376048Y-19358381D01*
X11385571Y-19377429D01*
X11395095Y-19386952D01*
X11414143Y-19396476D01*
X11452238Y-19396476D01*
X11471286Y-19386952D01*
X11480809Y-19377429D01*
X11490333Y-19358381D01*
X11490333Y-19310762D01*
X11480809Y-19291714D01*
X11471286Y-19282190D01*
X11452238Y-19272667D01*
X11414143Y-19272667D01*
X11395095Y-19282190D01*
X11385571Y-19291714D01*
X11376048Y-19310762D01*
X11728428Y-19396476D02*
X11728428Y-19196476D01*
X11814143Y-19396476D02*
X11814143Y-19291714D01*
X11804619Y-19272667D01*
X11785571Y-19263143D01*
X11757000Y-19263143D01*
X11737952Y-19272667D01*
X11728428Y-19282190D01*
X11937952Y-19396476D02*
X11918905Y-19386952D01*
X11909381Y-19377429D01*
X11899857Y-19358381D01*
X11899857Y-19301238D01*
X11909381Y-19282190D01*
X11918905Y-19272667D01*
X11937952Y-19263143D01*
X11966524Y-19263143D01*
X11985571Y-19272667D01*
X11995095Y-19282190D01*
X12004619Y-19301238D01*
X12004619Y-19358381D01*
X11995095Y-19377429D01*
X11985571Y-19386952D01*
X11966524Y-19396476D01*
X11937952Y-19396476D01*
X12118905Y-19396476D02*
X12099857Y-19386952D01*
X12090333Y-19367905D01*
X12090333Y-19196476D01*
X12271286Y-19386952D02*
X12252238Y-19396476D01*
X12214143Y-19396476D01*
X12195095Y-19386952D01*
X12185571Y-19367905D01*
X12185571Y-19291714D01*
X12195095Y-19272667D01*
X12214143Y-19263143D01*
X12252238Y-19263143D01*
X12271286Y-19272667D01*
X12280809Y-19291714D01*
X12280809Y-19310762D01*
X12185571Y-19329810D01*
X12357000Y-19386952D02*
X12376048Y-19396476D01*
X12414143Y-19396476D01*
X12433190Y-19386952D01*
X12442714Y-19367905D01*
X12442714Y-19358381D01*
X12433190Y-19339333D01*
X12414143Y-19329810D01*
X12385571Y-19329810D01*
X12366524Y-19320286D01*
X12357000Y-19301238D01*
X12357000Y-19291714D01*
X12366524Y-19272667D01*
X12385571Y-19263143D01*
X12414143Y-19263143D01*
X12433190Y-19272667D01*
X12509381Y-19472667D02*
X12518905Y-19463143D01*
X12537952Y-19434571D01*
X12547476Y-19415524D01*
X12557000Y-19386952D01*
X12566524Y-19339333D01*
X12566524Y-19301238D01*
X12557000Y-19253619D01*
X12547476Y-19225048D01*
X12537952Y-19206000D01*
X12518905Y-19177429D01*
X12509381Y-19167905D01*
M02*
