%FSLAX45Y45*%
G04 Gerber Fmt 4.5, Leading zero omitted, Abs format (unit mm)*
G04 Created by KiCad (PCBNEW (6.0.0)) date 2022-02-23 18:41:03*
%MOMM*%
%LPD*%
G01*
G04 APERTURE LIST*
%TA.AperFunction,Profile*%
%ADD10C,0.200000*%
%TD*%
%ADD11C,0.200000*%
G04 APERTURE END LIST*
D10*
X16675600Y-6922000D02*
X16675600Y-17336000D01*
X7557000Y-17336000D02*
X7557000Y-6922000D01*
X7557000Y-6922000D02*
X16675600Y-6922000D01*
X16675600Y-17336000D02*
X7557000Y-17336000D01*
D11*
X7804619Y-17656476D02*
X7804619Y-17456476D01*
X7852238Y-17456476D01*
X7880809Y-17466000D01*
X7899857Y-17485048D01*
X7909381Y-17504095D01*
X7918905Y-17542190D01*
X7918905Y-17570762D01*
X7909381Y-17608857D01*
X7899857Y-17627905D01*
X7880809Y-17646952D01*
X7852238Y-17656476D01*
X7804619Y-17656476D01*
X8004619Y-17656476D02*
X8004619Y-17523143D01*
X8004619Y-17561238D02*
X8014143Y-17542190D01*
X8023667Y-17532667D01*
X8042714Y-17523143D01*
X8061762Y-17523143D01*
X8128428Y-17656476D02*
X8128428Y-17523143D01*
X8128428Y-17456476D02*
X8118905Y-17466000D01*
X8128428Y-17475524D01*
X8137952Y-17466000D01*
X8128428Y-17456476D01*
X8128428Y-17475524D01*
X8252238Y-17656476D02*
X8233190Y-17646952D01*
X8223667Y-17627905D01*
X8223667Y-17456476D01*
X8357000Y-17656476D02*
X8337952Y-17646952D01*
X8328428Y-17627905D01*
X8328428Y-17456476D01*
X8585571Y-17656476D02*
X8585571Y-17456476D01*
X8652238Y-17599333D01*
X8718905Y-17456476D01*
X8718905Y-17656476D01*
X8899857Y-17656476D02*
X8899857Y-17551714D01*
X8890333Y-17532667D01*
X8871286Y-17523143D01*
X8833190Y-17523143D01*
X8814143Y-17532667D01*
X8899857Y-17646952D02*
X8880810Y-17656476D01*
X8833190Y-17656476D01*
X8814143Y-17646952D01*
X8804619Y-17627905D01*
X8804619Y-17608857D01*
X8814143Y-17589810D01*
X8833190Y-17580286D01*
X8880810Y-17580286D01*
X8899857Y-17570762D01*
X8995095Y-17523143D02*
X8995095Y-17723143D01*
X8995095Y-17532667D02*
X9014143Y-17523143D01*
X9052238Y-17523143D01*
X9071286Y-17532667D01*
X9080810Y-17542190D01*
X9090333Y-17561238D01*
X9090333Y-17618381D01*
X9080810Y-17637429D01*
X9071286Y-17646952D01*
X9052238Y-17656476D01*
X9014143Y-17656476D01*
X8995095Y-17646952D01*
X9176048Y-17637429D02*
X9185571Y-17646952D01*
X9176048Y-17656476D01*
X9166524Y-17646952D01*
X9176048Y-17637429D01*
X9176048Y-17656476D01*
X9176048Y-17532667D02*
X9185571Y-17542190D01*
X9176048Y-17551714D01*
X9166524Y-17542190D01*
X9176048Y-17532667D01*
X9176048Y-17551714D01*
M02*
