<?xml version="1.0" standalone="no"?>
 <!DOCTYPE svg PUBLIC "-//W3C//DTD SVG 1.1//EN" 
 "http://www.w3.org/Graphics/SVG/1.1/DTD/svg11.dtd"> 
<svg
  xmlns:svg="http://www.w3.org/2000/svg"
  xmlns="http://www.w3.org/2000/svg"
  xmlns:xlink="http://www.w3.org/1999/xlink"
  version="1.1"
  width="12.887960cm" height="14.036040cm" viewBox="0 0 128879600 140360400">
<title>SVG Picture created as ad633muliply-panel-brd.svg date 2022/01/04 18:36:38 </title>
  <desc>Picture generated by PCBNEW </desc>
<g style="fill:#000000; fill-opacity:1.000000;stroke:#000000; stroke-opacity:1.000000;
stroke-linecap:round; stroke-linejoin:round;"
 transform="translate(0 0) scale(1 1)">
</g>
<g style="fill:#000000; fill-opacity:0.0; 
stroke:#000000; stroke-width:0.000000; stroke-opacity:1; 
stroke-linecap:round; stroke-linejoin:round;">
</g>
<g style="fill:#C2C2C2; fill-opacity:0.0; 
stroke:#C2C2C2; stroke-width:0.000000; stroke-opacity:1; 
stroke-linecap:round; stroke-linejoin:round;">
</g>
<g style="fill:#C2C2C2; fill-opacity:0.0; 
stroke:#C2C2C2; stroke-width:100000.000000; stroke-opacity:1; 
stroke-linecap:round; stroke-linejoin:round;">
<circle cx="94930285.000000" cy="85880500.000000" r="6750000.000000" /> 
<circle cx="71054285.000000" cy="58575500.000000" r="6750000.000000" /> 
<circle cx="94930285.000000" cy="58575500.000000" r="6750000.000000" /> 
<g >
</g>
<g >
</g>
<g >
</g>
</g>
<g style="fill:#000000; fill-opacity:0.0; 
stroke:#000000; stroke-width:100000.000000; stroke-opacity:1; 
stroke-linecap:round; stroke-linejoin:round;">
</g>
<g style="fill:#C2C200; fill-opacity:0.0; 
stroke:#C2C200; stroke-width:100000.000000; stroke-opacity:1; 
stroke-linecap:round; stroke-linejoin:round;">
</g>
<g style="fill:#C2C200; fill-opacity:0.0; 
stroke:#C2C200; stroke-width:50000.000000; stroke-opacity:1; 
stroke-linecap:round; stroke-linejoin:round;">
<path d="M73392285 98792500
L73392285 101142500
" />
<path d="M68792285 101142500
L68792285 98792500
" />
<path d="M68792285 98792500
L73392285 98792500
" />
<path d="M73392285 101142500
L68792285 101142500
" />
<path d="M73392285 71367500
L73392285 73717500
" />
<path d="M73392285 73717500
L68792285 73717500
" />
<path d="M68792285 73717500
L68792285 71367500
" />
<path d="M68792285 71367500
L73392285 71367500
" />
<path d="M68767285 44442500
L73367285 44442500
" />
<path d="M68767285 46792500
L68767285 44442500
" />
<path d="M73367285 46792500
L68767285 46792500
" />
<path d="M73367285 44442500
L73367285 46792500
" />
<path d="M97267285 44417500
L97267285 46767500
" />
<path d="M92667285 44417500
L97267285 44417500
" />
<path d="M92667285 46767500
L92667285 44417500
" />
<path d="M97267285 46767500
L92667285 46767500
" />
<path d="M92667285 101142500
L92667285 98792500
" />
<path d="M97267285 98792500
L97267285 101142500
" />
<path d="M92667285 98792500
L97267285 98792500
" />
<path d="M97267285 101142500
L92667285 101142500
" />
<path d="M92667285 73717500
L92667285 71367500
" />
<path d="M97267285 73717500
L92667285 73717500
" />
<path d="M97267285 71367500
L97267285 73717500
" />
<path d="M92667285 71367500
L97267285 71367500
" />
<circle cx="25213285.000000" cy="103787500.000000" r="3200000.000000" /> 
<circle cx="40707285.000000" cy="103787500.000000" r="3200000.000000" /> 
<circle cx="56176285.000000" cy="103787500.000000" r="3200000.000000" /> 
<circle cx="67123285.000000" cy="114201500.000000" r="3200000.000000" /> 
<circle cx="51883285.000000" cy="114201500.000000" r="3200000.000000" /> 
<circle cx="36618285.000000" cy="114201500.000000" r="3200000.000000" /> 
<circle cx="21403285.000000" cy="114201500.000000" r="3200000.000000" /> 
<circle cx="25721285.000000" cy="124107500.000000" r="3200000.000000" /> 
<circle cx="40961285.000000" cy="124107500.000000" r="3200000.000000" /> 
<circle cx="56201285.000000" cy="124107500.000000" r="3200000.000000" /> 
<circle cx="71441285.000000" cy="124107500.000000" r="3200000.000000" /> 
<circle cx="94930285.000000" cy="112937500.000000" r="3550000.000000" /> 
<circle cx="71054285.000000" cy="85880500.000000" r="3550000.000000" /> 
<circle cx="23302285.000000" cy="85880500.000000" r="3550000.000000" /> 
<circle cx="94930285.000000" cy="85880500.000000" r="3550000.000000" /> 
<circle cx="47178285.000000" cy="85880500.000000" r="3550000.000000" /> 
<circle cx="23302285.000000" cy="58575500.000000" r="3550000.000000" /> 
<circle cx="71054285.000000" cy="58575500.000000" r="3550000.000000" /> 
<circle cx="94930285.000000" cy="58575500.000000" r="3550000.000000" /> 
<circle cx="47178285.000000" cy="58575500.000000" r="3550000.000000" /> 
<circle cx="23308285.000000" cy="31397500.000000" r="3550000.000000" /> 
<circle cx="47184285.000000" cy="31397500.000000" r="3550000.000000" /> 
<circle cx="71060285.000000" cy="31397500.000000" r="3550000.000000" /> 
<circle cx="94936285.000000" cy="31397500.000000" r="3550000.000000" /> 
</g>
<g style="fill:#C2C200; fill-opacity:0.0; 
stroke:#C2C200; stroke-width:200000.000000; stroke-opacity:1; 
stroke-linecap:round; stroke-linejoin:round;">
<path d="M104588285 12367500
L104588285 140267501
" />
<path d="M13402285 140267501
L13402285 12367500
" />
<path d="M13402285 12367500
L104588285 12367500
" />
<path d="M104588285 140267501
L13402285 140267501
" />
<g >
</g>
<g >
</g>
<g >
</g>
</g> 
</svg>
