G04 #@! TF.GenerationSoftware,KiCad,Pcbnew,(6.0.0)*
G04 #@! TF.CreationDate,2022-01-04T18:38:19+01:00*
G04 #@! TF.ProjectId,ad633muliply-panel,61643633-336d-4756-9c69-706c792d7061,rev?*
G04 #@! TF.SameCoordinates,Original*
G04 #@! TF.FileFunction,Profile,NP*
%FSLAX46Y46*%
G04 Gerber Fmt 4.6, Leading zero omitted, Abs format (unit mm)*
G04 Created by KiCad (PCBNEW (6.0.0)) date 2022-01-04 18:38:19*
%MOMM*%
%LPD*%
G01*
G04 APERTURE LIST*
G04 #@! TA.AperFunction,Profile*
%ADD10C,0.200000*%
G04 #@! TD*
G04 #@! TA.AperFunction,Profile*
%ADD11C,0.050000*%
G04 #@! TD*
G04 APERTURE END LIST*
D10*
X166756000Y-55490000D02*
X166756000Y-183490000D01*
X75570000Y-183490000D02*
X75570000Y-55490000D01*
X75570000Y-55490000D02*
X166756000Y-55490000D01*
X166756000Y-183490000D02*
X75570000Y-183490000D01*
D11*
X130960000Y-142965000D02*
X135560000Y-142965000D01*
X84660000Y-58490000D02*
G75*
G03*
X84660000Y-58490000I-1600000J0D01*
G01*
X154835000Y-142965000D02*
X159435000Y-142965000D01*
X136809000Y-168280000D02*
G75*
G03*
X136809000Y-168280000I-3200000J0D01*
G01*
X154835000Y-90940000D02*
X154835000Y-88590000D01*
X154835000Y-145315000D02*
X154835000Y-142965000D01*
X101986000Y-158374000D02*
G75*
G03*
X101986000Y-158374000I-3200000J0D01*
G01*
X130935000Y-88615000D02*
X135535000Y-88615000D01*
X132491000Y-158374000D02*
G75*
G03*
X132491000Y-158374000I-3200000J0D01*
G01*
X130935000Y-90965000D02*
X130935000Y-88615000D01*
X159435000Y-117890000D02*
X154835000Y-117890000D01*
X135535000Y-88615000D02*
X135535000Y-90965000D01*
X89020000Y-130053000D02*
G75*
G03*
X89020000Y-130053000I-3550000J0D01*
G01*
X117251000Y-158374000D02*
G75*
G03*
X117251000Y-158374000I-3200000J0D01*
G01*
X159435000Y-115540000D02*
X159435000Y-117890000D01*
X160648000Y-130053000D02*
G75*
G03*
X160648000Y-130053000I-3550000J0D01*
G01*
X106075000Y-147960000D02*
G75*
G03*
X106075000Y-147960000I-3200000J0D01*
G01*
X89020000Y-102748000D02*
G75*
G03*
X89020000Y-102748000I-3550000J0D01*
G01*
X154835000Y-115540000D02*
X159435000Y-115540000D01*
X145620000Y-180490000D02*
G75*
G03*
X145620000Y-180490000I-1600000J0D01*
G01*
X112902000Y-75570000D02*
G75*
G03*
X112902000Y-75570000I-3550000J0D01*
G01*
X136772000Y-130053000D02*
G75*
G03*
X136772000Y-130053000I-3550000J0D01*
G01*
X135560000Y-142965000D02*
X135560000Y-145315000D01*
X135535000Y-90965000D02*
X130935000Y-90965000D01*
X135560000Y-145315000D02*
X130960000Y-145315000D01*
X84660000Y-180490000D02*
G75*
G03*
X84660000Y-180490000I-1600000J0D01*
G01*
X160648000Y-102748000D02*
G75*
G03*
X160648000Y-102748000I-3550000J0D01*
G01*
X154835000Y-117890000D02*
X154835000Y-115540000D01*
X160654000Y-75570000D02*
G75*
G03*
X160654000Y-75570000I-3550000J0D01*
G01*
X135560000Y-115540000D02*
X135560000Y-117890000D01*
X86771000Y-158374000D02*
G75*
G03*
X86771000Y-158374000I-3200000J0D01*
G01*
X159435000Y-142965000D02*
X159435000Y-145315000D01*
X121544000Y-147960000D02*
G75*
G03*
X121544000Y-147960000I-3200000J0D01*
G01*
X112896000Y-102748000D02*
G75*
G03*
X112896000Y-102748000I-3550000J0D01*
G01*
X160648000Y-157110000D02*
G75*
G03*
X160648000Y-157110000I-3550000J0D01*
G01*
X159435000Y-88590000D02*
X159435000Y-90940000D01*
X136772000Y-102748000D02*
G75*
G03*
X136772000Y-102748000I-3550000J0D01*
G01*
X159435000Y-145315000D02*
X154835000Y-145315000D01*
X136778000Y-75570000D02*
G75*
G03*
X136778000Y-75570000I-3550000J0D01*
G01*
X130960000Y-117890000D02*
X130960000Y-115540000D01*
X159435000Y-90940000D02*
X154835000Y-90940000D01*
X130960000Y-115540000D02*
X135560000Y-115540000D01*
X130960000Y-145315000D02*
X130960000Y-142965000D01*
X106329000Y-168280000D02*
G75*
G03*
X106329000Y-168280000I-3200000J0D01*
G01*
X90581000Y-147960000D02*
G75*
G03*
X90581000Y-147960000I-3200000J0D01*
G01*
X89026000Y-75570000D02*
G75*
G03*
X89026000Y-75570000I-3550000J0D01*
G01*
X121569000Y-168280000D02*
G75*
G03*
X121569000Y-168280000I-3200000J0D01*
G01*
X135560000Y-117890000D02*
X130960000Y-117890000D01*
X154835000Y-88590000D02*
X159435000Y-88590000D01*
X112896000Y-130053000D02*
G75*
G03*
X112896000Y-130053000I-3550000J0D01*
G01*
X160860000Y-58490000D02*
G75*
G03*
X160860000Y-58490000I-1600000J0D01*
G01*
X91089000Y-168280000D02*
G75*
G03*
X91089000Y-168280000I-3200000J0D01*
G01*
M02*
