%FSLAX45Y45*%
G04 Gerber Fmt 4.5, Leading zero omitted, Abs format (unit mm)*
G04 Created by KiCad (PCBNEW (6.0.0)) date 2022-01-04 18:38:23*
%MOMM*%
%LPD*%
G01*
G04 APERTURE LIST*
%TA.AperFunction,Profile*%
%ADD10C,0.200000*%
%TD*%
%TA.AperFunction,Profile*%
%ADD11C,0.050000*%
%TD*%
%ADD12C,0.200000*%
G04 APERTURE END LIST*
D10*
X16675600Y-5549000D02*
X16675600Y-18349000D01*
X7557000Y-18349000D02*
X7557000Y-5549000D01*
X7557000Y-5549000D02*
X16675600Y-5549000D01*
X16675600Y-18349000D02*
X7557000Y-18349000D01*
D11*
X13096000Y-14296500D02*
X13556000Y-14296500D01*
X8466000Y-5849000D02*
G75*
G03*
X8466000Y-5849000I-160000J0D01*
G01*
X15483500Y-14296500D02*
X15943500Y-14296500D01*
X13680900Y-16828000D02*
G75*
G03*
X13680900Y-16828000I-320000J0D01*
G01*
X15483500Y-9094000D02*
X15483500Y-8859000D01*
X15483500Y-14531500D02*
X15483500Y-14296500D01*
X10198600Y-15837400D02*
G75*
G03*
X10198600Y-15837400I-320000J0D01*
G01*
X13093500Y-8861500D02*
X13553500Y-8861500D01*
X13249100Y-15837400D02*
G75*
G03*
X13249100Y-15837400I-320000J0D01*
G01*
X13093500Y-9096500D02*
X13093500Y-8861500D01*
X15943500Y-11789000D02*
X15483500Y-11789000D01*
X13553500Y-8861500D02*
X13553500Y-9096500D01*
X8902000Y-13005300D02*
G75*
G03*
X8902000Y-13005300I-355000J0D01*
G01*
X11725100Y-15837400D02*
G75*
G03*
X11725100Y-15837400I-320000J0D01*
G01*
X15943500Y-11554000D02*
X15943500Y-11789000D01*
X16064800Y-13005300D02*
G75*
G03*
X16064800Y-13005300I-355000J0D01*
G01*
X10607500Y-14796000D02*
G75*
G03*
X10607500Y-14796000I-320000J0D01*
G01*
X8902000Y-10274800D02*
G75*
G03*
X8902000Y-10274800I-355000J0D01*
G01*
X15483500Y-11554000D02*
X15943500Y-11554000D01*
X14562000Y-18049000D02*
G75*
G03*
X14562000Y-18049000I-160000J0D01*
G01*
X11290200Y-7557000D02*
G75*
G03*
X11290200Y-7557000I-355000J0D01*
G01*
X13677200Y-13005300D02*
G75*
G03*
X13677200Y-13005300I-355000J0D01*
G01*
X13556000Y-14296500D02*
X13556000Y-14531500D01*
X13553500Y-9096500D02*
X13093500Y-9096500D01*
X13556000Y-14531500D02*
X13096000Y-14531500D01*
X8466000Y-18049000D02*
G75*
G03*
X8466000Y-18049000I-160000J0D01*
G01*
X16064800Y-10274800D02*
G75*
G03*
X16064800Y-10274800I-355000J0D01*
G01*
X15483500Y-11789000D02*
X15483500Y-11554000D01*
X16065400Y-7557000D02*
G75*
G03*
X16065400Y-7557000I-355000J0D01*
G01*
X13556000Y-11554000D02*
X13556000Y-11789000D01*
X8677100Y-15837400D02*
G75*
G03*
X8677100Y-15837400I-320000J0D01*
G01*
X15943500Y-14296500D02*
X15943500Y-14531500D01*
X12154400Y-14796000D02*
G75*
G03*
X12154400Y-14796000I-320000J0D01*
G01*
X11289600Y-10274800D02*
G75*
G03*
X11289600Y-10274800I-355000J0D01*
G01*
X16064800Y-15711000D02*
G75*
G03*
X16064800Y-15711000I-355000J0D01*
G01*
X15943500Y-8859000D02*
X15943500Y-9094000D01*
X13677200Y-10274800D02*
G75*
G03*
X13677200Y-10274800I-355000J0D01*
G01*
X15943500Y-14531500D02*
X15483500Y-14531500D01*
X13677800Y-7557000D02*
G75*
G03*
X13677800Y-7557000I-355000J0D01*
G01*
X13096000Y-11789000D02*
X13096000Y-11554000D01*
X15943500Y-9094000D02*
X15483500Y-9094000D01*
X13096000Y-11554000D02*
X13556000Y-11554000D01*
X13096000Y-14531500D02*
X13096000Y-14296500D01*
X10632900Y-16828000D02*
G75*
G03*
X10632900Y-16828000I-320000J0D01*
G01*
X9058100Y-14796000D02*
G75*
G03*
X9058100Y-14796000I-320000J0D01*
G01*
X8902600Y-7557000D02*
G75*
G03*
X8902600Y-7557000I-355000J0D01*
G01*
X12156900Y-16828000D02*
G75*
G03*
X12156900Y-16828000I-320000J0D01*
G01*
X13556000Y-11789000D02*
X13096000Y-11789000D01*
X15483500Y-8859000D02*
X15943500Y-8859000D01*
X11289600Y-13005300D02*
G75*
G03*
X11289600Y-13005300I-355000J0D01*
G01*
X16086000Y-5849000D02*
G75*
G03*
X16086000Y-5849000I-160000J0D01*
G01*
X9108900Y-16828000D02*
G75*
G03*
X9108900Y-16828000I-320000J0D01*
G01*
D12*
X7804619Y-18669476D02*
X7804619Y-18469476D01*
X7852238Y-18469476D01*
X7880809Y-18479000D01*
X7899857Y-18498048D01*
X7909381Y-18517095D01*
X7918905Y-18555190D01*
X7918905Y-18583762D01*
X7909381Y-18621857D01*
X7899857Y-18640905D01*
X7880809Y-18659952D01*
X7852238Y-18669476D01*
X7804619Y-18669476D01*
X8004619Y-18669476D02*
X8004619Y-18536143D01*
X8004619Y-18574238D02*
X8014143Y-18555190D01*
X8023667Y-18545667D01*
X8042714Y-18536143D01*
X8061762Y-18536143D01*
X8128428Y-18669476D02*
X8128428Y-18536143D01*
X8128428Y-18469476D02*
X8118905Y-18479000D01*
X8128428Y-18488524D01*
X8137952Y-18479000D01*
X8128428Y-18469476D01*
X8128428Y-18488524D01*
X8252238Y-18669476D02*
X8233190Y-18659952D01*
X8223667Y-18640905D01*
X8223667Y-18469476D01*
X8357000Y-18669476D02*
X8337952Y-18659952D01*
X8328428Y-18640905D01*
X8328428Y-18469476D01*
X8585571Y-18669476D02*
X8585571Y-18469476D01*
X8652238Y-18612333D01*
X8718905Y-18469476D01*
X8718905Y-18669476D01*
X8899857Y-18669476D02*
X8899857Y-18564714D01*
X8890333Y-18545667D01*
X8871286Y-18536143D01*
X8833190Y-18536143D01*
X8814143Y-18545667D01*
X8899857Y-18659952D02*
X8880810Y-18669476D01*
X8833190Y-18669476D01*
X8814143Y-18659952D01*
X8804619Y-18640905D01*
X8804619Y-18621857D01*
X8814143Y-18602810D01*
X8833190Y-18593286D01*
X8880810Y-18593286D01*
X8899857Y-18583762D01*
X8995095Y-18536143D02*
X8995095Y-18736143D01*
X8995095Y-18545667D02*
X9014143Y-18536143D01*
X9052238Y-18536143D01*
X9071286Y-18545667D01*
X9080810Y-18555190D01*
X9090333Y-18574238D01*
X9090333Y-18631381D01*
X9080810Y-18650429D01*
X9071286Y-18659952D01*
X9052238Y-18669476D01*
X9014143Y-18669476D01*
X8995095Y-18659952D01*
X9176048Y-18650429D02*
X9185571Y-18659952D01*
X9176048Y-18669476D01*
X9166524Y-18659952D01*
X9176048Y-18650429D01*
X9176048Y-18669476D01*
X9176048Y-18545667D02*
X9185571Y-18555190D01*
X9176048Y-18564714D01*
X9166524Y-18555190D01*
X9176048Y-18545667D01*
X9176048Y-18564714D01*
M02*
